<?xml version="1.0" encoding="UTF-8"?>
<svg id="admin-skills" xmlns="http://www.w3.org/2000/svg" viewBox="0 0 600 600">
	<defs>
		<style>
			.cls-1 {
				font-size: 6px;
			}

			.cls-1,
			.cls-2,
			.cls-3,
			.cls-4 {
				fill: #fff;
			}

			.cls-1,
			.cls-3,
			.cls-4 {
				font-family: Consolas, Consolas;
			}

			.cls-5,
			.cls-6,
			.cls-7,
			.cls-8,
			.cls-9,
			.cls-10,
			.cls-11,
			.cls-12,
			.cls-13 {
				stroke-miterlimit: 10;
			}

			.cls-5,
			.cls-6,
			.cls-7,
			.cls-8,
			.cls-9,
			.cls-11,
			.cls-12,
			.cls-13 {
				stroke: #000;
			}

			.cls-5,
			.cls-10 {
				fill: none;
			}

			.cls-6 {
				fill: red;
			}

			.cls-7 {
				fill: #f15a24;
			}

			.cls-8 {
				fill: #22b573;
			}

			.cls-14,
			.cls-15 {
				fill: #ff7545;
			}

			.cls-16 {
				opacity: .8;
			}

			.cls-17,
			.cls-11 {
				fill: #666;
			}

			.cls-9 {
				fill: #b3b3b3;
			}

			.cls-18 {
				fill: #939598;
			}

			.cls-10 {
				stroke: #fff;
				stroke-width: 2px;
			}

			.cls-19 {
				opacity: .86;
			}

			.cls-12 {
				fill: #0071bc;
			}

			.cls-3 {
				font-size: 8px;
			}

			.cls-20 {
				fill: #242424;
			}

			.cls-15 {
				stroke: #242424;
				stroke-linecap: round;
				stroke-linejoin: round;
				stroke-width: 1.58px;
			}

			.cls-13 {
				fill: #4d4d4d;
			}

			.cls-4 {
				font-size: 10.87px;
			}
		</style>
	</defs>
	<g id="server" class="cls-19">
		<rect id="rack" class="cls-11" x="367.78" y="87.68" width="188.93" height="358.09" />
		<g id="fans">
			<rect class="cls-11" x="367.78" y="307.56" width="188.93" height="44.21" />
			<circle class="cls-13" cx="417.35" cy="329.66" r="11.12" />
			<circle class="cls-13" cx="387.67" cy="329.66" r="11.12" />
			<circle class="cls-13" cx="447.02" cy="329.66" r="11.12" />
			<circle class="cls-13" cx="506.36" cy="329.66" r="11.12" />
			<circle class="cls-13" cx="476.69" cy="329.66" r="11.12" />
			<circle class="cls-13" cx="536.03" cy="329.66" r="11.12" />
		</g>
		<g id="apu">
			<line class="cls-5" x1="475.74" y1="376.66" x2="500.41" y2="376.66" />
			<line class="cls-5" x1="475.74" y1="383.72" x2="500.41" y2="383.72" />
			<line class="cls-5" x1="475.74" y1="390.78" x2="500.41" y2="390.78" />
			<line class="cls-5" x1="475.74" y1="397.83" x2="500.41" y2="397.83" />
			<line class="cls-5" x1="515.3" y1="376.66" x2="539.96" y2="376.66" />
			<line class="cls-5" x1="515.3" y1="383.72" x2="539.96" y2="383.72" />
			<line class="cls-5" x1="515.3" y1="390.78" x2="539.96" y2="390.78" />
			<line class="cls-5" x1="515.3" y1="397.83" x2="539.96" y2="397.83" />
			<circle class="cls-13" cx="397.91" cy="390.78" r="13.61" />
			<circle class="cls-13" cx="436.85" cy="390.78" r="13.61" />
		</g>
		<g id="unit1">
			<rect class="cls-11" x="367.78" y="101.64" width="188.93" height="44.21" />
			<circle class="cls-6" cx="538.8" cy="115.25" r="4.65" />
			<circle class="cls-6" cx="538.8" cy="128.4" r="4.65" />
			<line class="cls-5" x1="511.26" y1="111.41" x2="523.35" y2="111.41" />
			<line class="cls-5" x1="511.26" y1="117.58" x2="523.35" y2="117.58" />
			<line class="cls-5" x1="511.26" y1="123.74" x2="523.35" y2="123.74" />
			<line class="cls-5" x1="511.26" y1="129.91" x2="523.35" y2="129.91" />
			<line class="cls-5" x1="511.26" y1="136.07" x2="523.35" y2="136.07" />
			<rect class="cls-9" x="490.81" y="109.78" width="9.66" height="28.27" />
			<rect class="cls-9" x="435.58" y="109.78" width="44.44" height="11.28" />
			<rect class="cls-9" x="435.58" y="126.77" width="44.44" height="11.28" />
			<rect class="cls-9" x="380.35" y="126.77" width="44.44" height="11.28" />
			<rect class="cls-9" x="380.35" y="109.78" width="44.44" height="11.28" />
		</g>
		<g id="unit2">
			<rect class="cls-11" x="367.78" y="145.85" width="188.93" height="44.21" />
			<circle class="cls-6" cx="538.8" cy="159.46" r="4.65" />
			<circle class="cls-6" cx="538.8" cy="172.6" r="4.65" />
			<line class="cls-5" x1="511.26" y1="155.62" x2="523.35" y2="155.62" />
			<line class="cls-5" x1="511.26" y1="161.79" x2="523.35" y2="161.79" />
			<line class="cls-5" x1="511.26" y1="167.95" x2="523.35" y2="167.95" />
			<line class="cls-5" x1="511.26" y1="174.12" x2="523.35" y2="174.12" />
			<line class="cls-5" x1="511.26" y1="180.28" x2="523.35" y2="180.28" />
			<rect class="cls-9" x="490.81" y="153.99" width="9.66" height="28.27" />
			<rect class="cls-9" x="435.58" y="153.99" width="44.44" height="11.28" />
			<rect class="cls-9" x="435.58" y="170.98" width="44.44" height="11.28" />
			<rect class="cls-9" x="380.35" y="170.98" width="44.44" height="11.28" />
			<rect class="cls-9" x="380.35" y="153.99" width="44.44" height="11.28" />
		</g>
		<g id="monitor">
			<rect x="386.11" y="201.46" width="152.27" height="94.7" />
			<polyline class="cls-10"
				points="500.06 219.32 504 219.32 505.89 218.24 507.25 220.38 509.68 219.27 530.7 219.27" />
			<polyline class="cls-10" points="532.4 231.24 500.06 231.24 500.06 206.59" />
			<text class="cls-3" transform="translate(394.9 286.16)">
				<tspan x="0" y="0">kernel panic</tspan>
			</text>
		</g>
	</g>
	<g id="server-2" data-name="server" class="cls-16">
		<rect id="rack-2" data-name="rack" class="cls-11" x="81.83" y="88.89" width="157.92" height="314.64" />
		<g id="fans-2" data-name="fans">
			<rect class="cls-11" x="81.83" y="282.09" width="157.92" height="38.84" />
			<ellipse class="cls-13" cx="123.26" cy="301.51" rx="9.29" ry="9.77" />
			<ellipse class="cls-13" cx="98.46" cy="301.51" rx="9.29" ry="9.77" />
			<ellipse class="cls-13" cx="148.06" cy="301.51" rx="9.29" ry="9.77" />
			<ellipse class="cls-13" cx="197.66" cy="301.51" rx="9.29" ry="9.77" />
			<ellipse class="cls-13" cx="172.86" cy="301.51" rx="9.29" ry="9.77" />
			<ellipse class="cls-13" cx="222.46" cy="301.51" rx="9.29" ry="9.77" />
		</g>
		<g id="apu-2" data-name="apu">
			<line class="cls-5" x1="172.07" y1="342.8" x2="192.69" y2="342.8" />
			<line class="cls-5" x1="172.07" y1="349.01" x2="192.69" y2="349.01" />
			<line class="cls-5" x1="172.07" y1="355.21" x2="192.69" y2="355.21" />
			<line class="cls-5" x1="172.07" y1="361.41" x2="192.69" y2="361.41" />
			<line class="cls-5" x1="205.13" y1="342.8" x2="225.75" y2="342.8" />
			<line class="cls-5" x1="205.13" y1="349.01" x2="225.75" y2="349.01" />
			<line class="cls-5" x1="205.13" y1="355.21" x2="225.75" y2="355.21" />
			<line class="cls-5" x1="205.13" y1="361.41" x2="225.75" y2="361.41" />
			<ellipse class="cls-13" cx="107.02" cy="355.21" rx="11.38" ry="11.96" />
			<ellipse class="cls-13" cx="139.56" cy="355.21" rx="11.38" ry="11.96" />
		</g>
		<g id="unit1-2" data-name="unit1">
			<rect class="cls-11" x="81.83" y="101.15" width="157.92" height="38.84" />
			<ellipse class="cls-8" cx="224.78" cy="113.11" rx="3.89" ry="4.09" />
			<ellipse class="cls-12" cx="224.78" cy="124.67" rx="3.89" ry="4.09" />
			<line class="cls-5" x1="201.75" y1="109.74" x2="211.87" y2="109.74" />
			<line class="cls-5" x1="201.75" y1="115.16" x2="211.87" y2="115.16" />
			<line class="cls-5" x1="201.75" y1="120.58" x2="211.87" y2="120.58" />
			<line class="cls-5" x1="201.75" y1="125.99" x2="211.87" y2="125.99" />
			<line class="cls-5" x1="201.75" y1="131.41" x2="211.87" y2="131.41" />
			<rect class="cls-9" x="184.66" y="108.31" width="8.07" height="24.84" />
			<rect class="cls-9" x="138.5" y="108.31" width="37.15" height="9.92" />
			<rect class="cls-9" x="138.5" y="123.23" width="37.15" height="9.92" />
			<rect class="cls-9" x="92.33" y="123.23" width="37.15" height="9.92" />
			<rect class="cls-9" x="92.33" y="108.31" width="37.15" height="9.92" />
		</g>
		<g id="unit2-2" data-name="unit2">
			<rect class="cls-11" x="81.83" y="140" width="157.92" height="38.84" />
			<ellipse class="cls-8" cx="224.78" cy="151.96" rx="3.89" ry="4.09" />
			<ellipse class="cls-7" cx="224.78" cy="163.51" rx="3.89" ry="4.09" />
			<line class="cls-5" x1="201.75" y1="148.59" x2="211.87" y2="148.59" />
			<line class="cls-5" x1="201.75" y1="154" x2="211.87" y2="154" />
			<line class="cls-5" x1="201.75" y1="159.42" x2="211.87" y2="159.42" />
			<line class="cls-5" x1="201.75" y1="164.84" x2="211.87" y2="164.84" />
			<line class="cls-5" x1="201.75" y1="170.26" x2="211.87" y2="170.26" />
			<rect class="cls-9" x="184.66" y="147.15" width="8.07" height="24.84" />
			<rect class="cls-9" x="138.5" y="147.15" width="37.15" height="9.92" />
			<rect class="cls-9" x="138.5" y="162.08" width="37.15" height="9.92" />
			<rect class="cls-9" x="92.33" y="162.08" width="37.15" height="9.92" />
			<rect class="cls-9" x="92.33" y="147.15" width="37.15" height="9.92" />
		</g>
		<g id="monitor-2" data-name="monitor">
			<rect x="97.15" y="188.86" width="127.28" height="83.21" />
			<polyline class="cls-10"
				points="192.4 204.56 198.59 204.56 202.59 196.96 205.45 211.45 210.12 204.51 218.01 204.51" />
			<polyline class="cls-10" points="219.43 215.03 192.4 215.03 192.4 193.37" />
			<text class="cls-3" transform="translate(104.5 263.29) scale(.95 1)">
				<tspan x="0" y="0">kernel panic</tspan>
			</text>
		</g>
	</g>
	<g id="server-3" data-name="server">
		<rect id="rack-3" data-name="rack" class="cls-11" x="188.86" y="107.88" width="219.79" height="416.57" />
		<g id="fans-3" data-name="fans">
			<rect class="cls-11" x="188.86" y="363.67" width="219.79" height="51.43" />
			<circle class="cls-13" cx="246.52" cy="389.38" r="12.93" />
			<circle class="cls-13" cx="212.01" cy="389.38" r="12.93" />
			<circle class="cls-13" cx="281.04" cy="389.38" r="12.93" />
			<circle class="cls-13" cx="350.07" cy="389.38" r="12.93" />
			<circle class="cls-13" cx="315.56" cy="389.38" r="12.93" />
			<circle class="cls-13" cx="384.59" cy="389.38" r="12.93" />
		</g>
		<g id="apu-3" data-name="apu">
			<line class="cls-5" x1="314.46" y1="444.06" x2="343.15" y2="444.06" />
			<line class="cls-5" x1="314.46" y1="452.27" x2="343.15" y2="452.27" />
			<line class="cls-5" x1="314.46" y1="460.48" x2="343.15" y2="460.48" />
			<line class="cls-5" x1="314.46" y1="468.69" x2="343.15" y2="468.69" />
			<line class="cls-5" x1="360.47" y1="444.06" x2="389.17" y2="444.06" />
			<line class="cls-5" x1="360.47" y1="452.27" x2="389.17" y2="452.27" />
			<line class="cls-5" x1="360.47" y1="460.48" x2="389.17" y2="460.48" />
			<line class="cls-5" x1="360.47" y1="468.69" x2="389.17" y2="468.69" />
			<circle class="cls-13" cx="223.92" cy="460.48" r="15.83" />
			<circle class="cls-13" cx="269.21" cy="460.48" r="15.83" />
		</g>
		<g id="unit1-3" data-name="unit1">
			<rect class="cls-11" x="188.86" y="124.12" width="219.79" height="51.43" />
			<circle class="cls-8" cx="387.81" cy="139.95" r="5.41" />
			<circle class="cls-12" cx="387.81" cy="155.24" r="5.41" />
			<line class="cls-5" x1="355.77" y1="135.48" x2="369.85" y2="135.48" />
			<line class="cls-5" x1="355.77" y1="142.66" x2="369.85" y2="142.66" />
			<line class="cls-5" x1="355.77" y1="149.83" x2="369.85" y2="149.83" />
			<line class="cls-5" x1="355.77" y1="157" x2="369.85" y2="157" />
			<line class="cls-5" x1="355.77" y1="164.18" x2="369.85" y2="164.18" />
			<rect class="cls-9" x="331.98" y="133.59" width="11.23" height="32.89" />
			<rect class="cls-9" x="267.73" y="133.59" width="51.7" height="13.13" />
			<rect class="cls-9" x="267.73" y="153.35" width="51.7" height="13.13" />
			<rect class="cls-9" x="203.48" y="153.35" width="51.7" height="13.13" />
			<rect class="cls-9" x="203.48" y="133.59" width="51.7" height="13.13" />
		</g>
		<g id="unit2-3" data-name="unit2">
			<rect class="cls-11" x="188.86" y="175.55" width="219.79" height="51.43" />
			<circle class="cls-8" cx="387.81" cy="191.38" r="5.41" />
			<circle class="cls-7" cx="387.81" cy="206.67" r="5.41" />
			<line class="cls-5" x1="355.77" y1="186.91" x2="369.85" y2="186.91" />
			<line class="cls-5" x1="355.77" y1="194.09" x2="369.85" y2="194.09" />
			<line class="cls-5" x1="355.77" y1="201.26" x2="369.85" y2="201.26" />
			<line class="cls-5" x1="355.77" y1="208.43" x2="369.85" y2="208.43" />
			<line class="cls-5" x1="355.77" y1="215.61" x2="369.85" y2="215.61" />
			<rect class="cls-9" x="331.98" y="185.02" width="11.23" height="32.89" />
			<rect class="cls-9" x="267.73" y="185.02" width="51.7" height="13.13" />
			<rect class="cls-9" x="267.73" y="204.78" width="51.7" height="13.13" />
			<rect class="cls-9" x="203.48" y="204.78" width="51.7" height="13.13" />
			<rect class="cls-9" x="203.48" y="185.02" width="51.7" height="13.13" />
		</g>
		<g id="monitor-3" data-name="monitor">
			<rect x="210.19" y="240.24" width="177.14" height="110.17" />
			<polyline class="cls-10"
				points="342.75 261.02 351.37 261.02 356.94 250.96 360.91 270.14 367.41 260.95 378.39 260.95" />
			<polyline class="cls-10" points="380.37 274.89 342.75 274.89 342.75 246.21" />
			<text class="cls-4" transform="translate(220.42 338.13)">
				<tspan x="0" y="0">srv3:~$ reboot!!!</tspan>
			</text>
		</g>
	</g>
	<g>
		<path class="cls-14"
			d="M269.92,290.98c-8.46-2.67-30.38-10.55-51.94-26.4-16.04-11.79-28.74-25.62-37.76-41.1-11.27-19.34-16.79-41.35-16.43-65.41.35-22.9,7.7-40.7,21.85-52.89,12.55-10.81,29.91-16.53,50.19-16.53,21.66,0,44.51,6.46,64.74,18.26-15.11.38-33.11,5.69-48.54,14.37-18.43,10.36-31.11,24.37-35.7,39.45-9.48,31.12,6.37,65.66,21.33,89.16,12.51,19.65,26.5,35.06,32.26,41.09Z" />
		<path class="cls-20"
			d="M235.83,89.64c20.43,0,41.93,5.8,61.25,16.43-14.5,1.04-31.13,6.23-45.54,14.33-18.66,10.49-31.5,24.71-36.17,40.03-7.59,24.92-.17,56.04,21.44,89.98,10.9,17.11,22.92,31.03,29.69,38.37-10.09-3.49-29.18-11.23-47.99-25.07-15.91-11.71-28.51-25.44-37.46-40.8-11.16-19.17-16.64-40.99-16.27-64.86.34-22.61,7.58-40.15,21.5-52.15,12.37-10.65,29.5-16.28,49.54-16.28M235.83,87.64c-38.94,0-72.3,21.25-73.04,70.4-1.63,106.37,110.52,134.98,110.52,134.98,0,0-74.16-72.46-56.03-132,9.99-32.81,55.63-53.14,85.03-53.14.63,0,1.26,0,1.88.03-21.14-13.08-45.69-20.27-68.36-20.27h0Z" />
	</g>
	<g>
		<path class="cls-14"
			d="M412.44,361.47c-30.08,0-57.85-10.03-67.03-23.76,2.53.8,5.67,1.01,8.26,1.01,15.09,0,37.55-6.63,51.31-19.3,10.54-9.7,14.78-21.89,12.25-35.25-1.01-5.3-3.41-9.82-7.56-14.19v-43.51c4.92,2.9,9.86,5.63,14.65,8.27,30.97,17.09,57.72,31.85,56.16,79.62-.99,30.06-26.89,40.63-42.25,44.26-7.96,1.89-16.63,2.84-25.78,2.84Z" />
		<path class="cls-20"
			d="M410.65,228.21c4.43,2.58,8.86,5.02,13.17,7.4,30.69,16.93,57.19,31.56,55.64,78.72-.38,11.54-4.55,21.22-12.4,28.75-7.06,6.77-16.84,11.68-29.08,14.57-7.88,1.87-16.48,2.81-25.55,2.81-15.06,0-30.28-2.63-42.86-7.4-9.79-3.72-17.27-8.49-21.72-13.77,1.96.32,4.01.43,5.81.43,15.28,0,38.04-6.72,51.98-19.56,10.81-9.95,15.15-22.46,12.55-36.17-1.02-5.38-3.42-9.97-7.54-14.4v-41.37M408.65,224.71v45.67c3.79,3.91,6.51,8.33,7.58,13.97,2.76,14.57-2.8,25.92-11.94,34.33-14.14,13.03-36.86,19.04-50.63,19.04-5.16,0-9.06-.84-10.79-2.48,7.47,16.21,38.65,27.23,69.56,27.23,8.88,0,17.74-.91,26.01-2.87,23.49-5.55,42.18-19.57,43.02-45.2,1.86-56.72-36.08-67.71-72.81-89.69h0Z" />
	</g>
	<g>
		<g>
			<path class="cls-14"
				d="M248.77,236.59c-11.95,0-26.01-9.68-31.63-18.72-3.65-5.87-4.81-12.81-3.26-19.53,1.55-6.72,5.62-12.43,11.47-16.07,4.08-2.54,8.77-3.88,13.56-3.88,9.01,0,17.23,4.57,22,12.23,3.82,6.13,6.01,15.21,5.74,23.69-.18,5.47-1.58,15.34-8.96,19.93-2.51,1.56-5.51,2.35-8.92,2.35Z" />
			<path class="cls-20"
				d="M238.9,179.18c8.73,0,16.71,4.43,21.33,11.86,7.21,11.58,8.75,35.24-2.97,42.53-2.38,1.48-5.24,2.23-8.5,2.23-11.69,0-25.45-9.49-30.96-18.35-3.54-5.69-4.66-12.41-3.16-18.93,1.5-6.52,5.45-12.05,11.12-15.57,3.96-2.46,8.5-3.76,13.14-3.76M238.9,177.6c-4.79,0-9.62,1.29-13.98,4-12.46,7.75-16.25,24.18-8.46,36.69,6.06,9.74,20.38,19.09,32.31,19.09,3.39,0,6.58-.75,9.34-2.47,12.46-7.75,11.26-32.2,3.47-44.7-5.06-8.13-13.77-12.61-22.67-12.61h0Z" />
		</g>
		<ellipse class="cls-20" cx="246.62" cy="209.44" rx="4.31" ry="2.45"
			transform="translate(-72.75 261.29) rotate(-49.56)" />
		<path class="cls-20"
			d="M254.59,227.55c-2.51,2.43-3.55,6.18-2.96,9.64,2.61-.34,5.04-1.21,7.22-2.79,2.46-1.77,4.39-4.32,5.85-7.37-2.92-2.5-7.1-2.39-10.12.52Z" />
		<path class="cls-15"
			d="M247.02,175.06c-11.44-16.62-22.81-28.04-34.08-32.4,3.2,20.49,4.29,35.11,2.52,41.77,8.67-8.42,19.28-11.29,31.57-9.37Z" />
	</g>
	<g>
		<path class="cls-2"
			d="M412.44,361.47c-30.08,0-57.85-10.03-67.03-23.76,2.53.8,5.67,1.01,8.26,1.01,14.96,0,37.17-6.51,50.95-18.97l23.36,3.66,9.25,35.45c-7.68,1.73-16.01,2.61-24.78,2.61Z" />
		<path class="cls-20"
			d="M404.93,320.8l22.24,3.49,8.82,33.81c-7.33,1.57-15.24,2.36-23.55,2.36-15.06,0-30.28-2.63-42.86-7.4-9.79-3.72-17.27-8.49-21.72-13.77,1.96.32,4.01.43,5.81.43,15.02,0,37.27-6.49,51.26-18.91M404.29,318.68c-14.14,13.03-36.86,19.04-50.63,19.04-5.16,0-9.06-.84-10.79-2.48,7.47,16.21,38.65,27.23,69.56,27.23,8.88,0,17.74-.91,26.01-2.87l-9.67-37.08-24.48-3.84h0Z" />
	</g>
	<g>
		<g>
			<rect x="373.65" y="470.47" width="81.29" height="51.69" />
			<path class="cls-18"
				d="M454.44,470.97v50.69h-80.29v-50.69h80.29M455.44,469.97h-82.29v52.69h82.29v-52.69h0Z" />
		</g>
		<g>
			<polygon class="cls-17" points="361.4 541.47 373.42 523.16 455.17 523.16 467.19 541.47 361.4 541.47" />
			<path class="cls-18"
				d="M454.9,523.66l11.36,17.31h-103.93l11.36-17.31h81.21M455.44,522.66h-82.29l-12.68,19.31h107.64l-12.68-19.31h0Z" />
		</g>
		<text class="cls-1" transform="translate(375.79 477.37)">
			<tspan x="0" y="0">OwOS v4.11.0</tspan>
			<tspan x="0" y="14.4">$ ansible exec</tspan>
			<tspan x="0" y="21.6">srv1: rm -rf / ... OK</tspan>
			<tspan x="0" y="28.8">srv2: rm -rf / ... OK</tspan>
			<tspan x="0" y="36">srv3: rm -rf / ...</tspan>
		</text>
	</g>
</svg>
