<?xml version="1.0" encoding="UTF-8"?>
<svg id="architecture-skills" xmlns="http://www.w3.org/2000/svg" viewBox="70 170 500 396">
	<defs>
		<style>
			.cls-1 {
				stroke-dasharray: 12;
			}

			.cls-1,
			.cls-2,
			.cls-3,
			.cls-4,
			.cls-5,
			.cls-6,
			.cls-7,
			.cls-8,
			.cls-9,
			.cls-10,
			.cls-11,
			.cls-12,
			.cls-13,
			.cls-14,
			.cls-15,
			.cls-16 {
				stroke-width: 2px;
			}

			.cls-1,
			.cls-2,
			.cls-3,
			.cls-4,
			.cls-5,
			.cls-6,
			.cls-7,
			.cls-8,
			.cls-9,
			.cls-10,
			.cls-11,
			.cls-12,
			.cls-14,
			.cls-16 {
				stroke-linecap: round;
				stroke-linejoin: round;
			}

			.cls-1,
			.cls-5,
			.cls-10,
			.cls-13 {
				stroke: #fff;
			}

			.cls-1,
			.cls-5,
			.cls-10,
			.cls-13,
			.cls-15 {
				fill: none;
			}

			.cls-2 {
				fill: #f9c;
			}

			.cls-2,
			.cls-3,
			.cls-4,
			.cls-6,
			.cls-7,
			.cls-8,
			.cls-9,
			.cls-11,
			.cls-12,
			.cls-14,
			.cls-15,
			.cls-16 {
				stroke: #242424;
			}

			.cls-3 {
				fill: #f7931e;
			}

			.cls-4 {
				fill: #754c24;
			}

			.cls-17,
			.cls-18 {
				fill: #fff;
			}

			.cls-19,
			.cls-20 {
				font-family: FreestyleScript-Regular, 'Freestyle Script';
			}

			.cls-19,
			.cls-18 {
				font-size: 12px;
			}

			.cls-21 {
				fill: #ff7545;
			}

			.cls-5 {
				stroke-dasharray: 11.51 11.51;
			}

			.cls-6 {
				fill: #cc6;
			}

			.cls-20 {
				font-size: 9.23px;
			}

			.cls-7 {
				fill: #a67c52;
			}

			.cls-8 {
				fill: #006837;
			}

			.cls-9,
			.cls-22 {
				fill: #666;
			}

			.cls-11,
			.cls-23 {
				fill: #69f;
			}

			.cls-12 {
				fill: #999;
			}

			.cls-24 {
				fill: #fcee21;
			}

			.cls-25 {
				fill: #939598;
			}

			.cls-13,
			.cls-15 {
				stroke-miterlimit: 10;
			}

			.cls-18 {
				font-family: Y14.5M-2009, Y14.5M-2009;
			}

			.cls-14 {
				fill: #fcdaad;
			}

			.cls-26 {
				fill: #242424;
			}

			.cls-27,
			.cls-16 {
				fill: #fbb03b;
			}

			.cls-28 {
				opacity: .69;
			}

			.frame {
				stroke: #424242;
			}

			@media (prefers-color-scheme: dark) {
				.frame {
					stroke: #d6d6d6;
				}
			}
		</style>
	</defs>
	<g class="cls-28">
		<g>
			<rect class="cls-4" x="71.52" y="171.63" width="225.88" height="139.67" />
			<rect class="cls-8" x="80.19" y="181.78" width="208.56" height="119.37" />
			<path class="cls-17"
				d="M91.53,231.03c.58,7.3.92,14.62,1.03,21.94.02,1.45,2.27,1.45,2.25,0-.1-7.32-.44-14.64-1.03-21.94-.11-1.43-2.37-1.45-2.25,0h0Z" />
			<path class="cls-17"
				d="M95.47,255.15c3.81-.59,7.68-.64,11.53-.69,1.45-.02,1.45-2.27,0-2.25-4.06.06-8.11.15-12.13.77-.6.09-.93.85-.79,1.38.18.64.78.88,1.38.79h0Z" />
			<path class="cls-17"
				d="M107.94,229.55c.36,7.76.61,15.52.76,23.29.03,1.45,2.28,1.45,2.25,0-.15-7.77-.4-15.53-.76-23.29-.07-1.44-2.32-1.45-2.25,0h0Z" />
			<path class="cls-17"
				d="M94.03,231.96c4.39-.63,8.76-1.4,13.1-2.32,1.42-.3.82-2.47-.6-2.17-4.34.92-8.71,1.69-13.1,2.32-.6.09-.93.85-.79,1.38.18.65.78.87,1.38.79h0Z" />
			<path class="cls-17"
				d="M110.91,232.64c.16.3-.11.12.08.05.09-.04.19-.15.28-.21.34-.22.71-.41,1.08-.56.56-.23,1.43-.61,2-.24s.74,1.14.87,1.76c.17.8.33,1.62.32,2.44-.01,1.58-1.18,2.72-2.25,3.73-1.22,1.15-2.57,2.16-3.92,3.16-.49.36-.73.97-.4,1.54.28.48,1.05.77,1.54.4,1.89-1.4,3.85-2.81,5.43-4.58.74-.83,1.42-1.78,1.7-2.88.32-1.27.1-2.58-.13-3.85-.2-1.12-.51-2.21-1.29-3.07-.83-.91-2-1.18-3.19-.96-1.89.34-5.38,1.94-4.06,4.41.68,1.28,2.63.14,1.94-1.14h0Z" />
			<path class="cls-17"
				d="M90.78,264.97c-1.29-.41-3.37-.68-4.11.77-.33.64-.46,1.41-.57,2.12-.11.74-.18,1.48-.16,2.23.03,1.38.23,2.91,1.23,3.94.94.97,2.38,1.28,3.67,1.02,1.44-.29,2.64-1.43,3.31-2.7.28-.54.14-1.22-.4-1.54-.51-.3-1.26-.14-1.54.4s-.49.84-.96,1.21c.07-.05.05-.03-.07.04-.07.05-.14.09-.21.13-.1.06-.21.12-.32.17.12-.05-.2.06-.24.07-.05.01-.4.06-.21.05-.52.04-.84-.03-1.19-.24-.31-.19-.49-.46-.62-.92-.16-.56-.19-1.07-.21-1.71s.03-1.3.14-1.93c.06-.34.14-.68.24-1.02.01-.04.13-.31.11-.36,0,.05-.02.08-.06.11-.24.11-.26.14-.07.09-.13-.02.21,0,.23,0,.19,0,.38,0,.57.03.22.03.56.12.82.2.58.18,1.23-.22,1.38-.79.17-.61-.2-1.2-.79-1.38h0Z" />
			<path class="cls-17"
				d="M93.27,266.04c-.23,1.52-.15,3.08.4,4.53.25.66.57,1.33,1.11,1.8.64.56,1.46.79,2.29.6,1.65-.38,2.4-2.06,2.4-3.61s-.5-3.15-1.89-3.92c-.83-.46-1.81-.51-2.65-.06-.78.42-1.33,1.29-1.29,2.18.02.59.5,1.15,1.12,1.12.59-.03,1.15-.5,1.12-1.12,0,.01,0-.15,0-.16-.05.01.02.28,0,.07-.01-.15.13.02-.03.05,0,0,.05-.09.06-.1.06-.13-.14.14-.03.04.04-.03.08-.07.11-.11.08-.09-.06.06-.07.05,0,0,.16-.09.17-.1.13-.08-.19.05-.05.02.05,0,.21-.03.04-.02-.19,0,.16-.01.19,0-.05-.04-.19-.05-.05,0,.05.02.11.03.16.05.17.05-.03-.01-.03-.01,0,0,.14.07.15.08.03.02.12.06.14.1-.14-.17-.06-.05-.03-.01.07.08.19.16.24.25,0,0-.1-.17-.05-.05.03.06.07.11.1.16s.06.11.09.17c.08.14-.08-.24.01.03.07.21.12.42.16.64s0,.02,0-.02c0,.06.01.13.02.19.01.14.02.28.02.43,0,.11,0,.22,0,.33,0,.06-.01.13-.02.19,0-.05.04-.23,0-.02-.02.11-.05.22-.08.32-.02.06-.04.12-.06.18-.04.11.09-.14-.02.03-.03.05-.07.11-.1.16-.02.03-.1.12-.01.02.1-.11-.02.02-.05.04-.04.04-.08.08-.12.12-.1.09.06-.05.06-.05,0,0-.12.08-.14.09-.18.12.03,0,.04,0-.05.04-.14.04-.2.06-.14.06.21,0,.06,0-.04,0-.08,0-.12,0-.23.01.05-.01.05.01,0-.03-.15-.01-.16-.04,0-.01.25.14.05.02-.02-.01-.13-.08-.13-.08.01,0,.16.14.07.06-.05-.05-.1-.09-.14-.14-.03-.03-.08-.08-.1-.12.01.02.14.21.03.03-.05-.08-.1-.16-.15-.25-.01-.02-.1-.25-.13-.26.04,0,.08.2.02.04-.03-.08-.06-.16-.09-.24-.1-.29-.19-.59-.25-.89-.03-.15-.06-.3-.09-.45,0-.01-.03-.18,0-.05.02.15-.01-.13-.02-.16-.03-.31-.04-.61-.03-.92,0-.14.01-.27.02-.41,0-.07.01-.14.02-.2.02-.25-.03.16.01-.11.09-.58-.15-1.24-.79-1.38-.54-.12-1.29.16-1.38.79h0Z" />
			<path class="cls-17"
				d="M103.68,260.77c-1.35-.72-2.99.08-3.4,1.54-.45,1.56.38,3.25,1,4.65.92,2.08,2.59,5.28.55,7.26-1.04,1.01.55,2.6,1.59,1.59,1.77-1.71,1.88-4.41,1.18-6.64-.4-1.29-1.03-2.49-1.55-3.73-.25-.6-.55-1.29-.63-1.94-.03-.26,0-.45.07-.69.05-.18.25,0,.05-.1,1.28.68,2.41-1.26,1.14-1.94h0Z" />
			<path class="cls-17"
				d="M101.55,269.04c.42-.32.88-.58,1.37-.79l-.27.11c.51-.21,1.04-.35,1.59-.43l-.3.04c.2-.03.4-.04.61-.05.59-.03,1.15-.5,1.12-1.12-.03-.59-.5-1.15-1.12-1.12-1.47.06-2.95.54-4.13,1.43-.24.18-.43.37-.52.67-.07.27-.04.63.11.87s.39.45.67.52.63.06.87-.11h0Z" />
			<path class="cls-17"
				d="M108.89,259.4c-1.6.06-2.23,1.51-1.99,2.93.26,1.54.77,3.06,1.16,4.57s.87,3.06,1.16,4.62c.19,1.01.23,2.59-1.02,2.92-1.4.37-.81,2.54.6,2.17,1.23-.32,2.12-1.28,2.53-2.46.46-1.32.19-2.76-.13-4.08-.36-1.45-.74-2.9-1.12-4.35-.2-.77-.4-1.55-.6-2.32-.1-.39-.2-.77-.3-1.16-.04-.15-.08-.31-.11-.46.06-.23,0-.27-.19-.13,1.44-.05,1.45-2.3,0-2.25h0Z" />
			<path class="cls-17"
				d="M107.8,268.79c.3-.2.62-.37.95-.52l-.27.11c.46-.19.95-.33,1.45-.4l-.3.04c.11-.01.22-.03.33-.03.3-.02.58-.11.8-.33.2-.2.34-.52.33-.8s-.11-.59-.33-.8-.5-.35-.8-.33c-1.17.09-2.31.44-3.29,1.1-.24.16-.44.38-.52.67-.07.27-.04.63.11.87s.39.45.67.52.62.05.87-.11h0Z" />
			<path class="cls-17"
				d="M114.32,268.58l1.59-1.5c.49-.46,1.11-.92,1.4-1.55.2-.44.28-.92.08-1.37s-.56-.81-1.05-.94c-.7-.19-1.47.08-2.08.41-1.06.59-1.92,1.7-2.14,2.9-.14.79-.08,1.55.07,2.33.14.7.35,1.46.9,1.95.67.6,1.53.77,2.4.64.77-.12,1.45-.56,2.07-1,.48-.34.75-1,.4-1.54-.31-.48-1.02-.77-1.54-.4-.19.13-.37.26-.56.38-.1.06-.21.13-.32.18-.05.02-.09.04-.14.07-.1.06.13-.03-.07.03-.09.03-.19.05-.28.08-.23.06.04-.02.05,0,0,0-.12,0-.13,0-.04,0-.09,0-.13,0-.18,0,.04-.03.05.01,0,0-.36-.1-.19-.04.15.05-.02-.02-.05-.03-.13-.05.08.04.06.06,0,0-.08-.08-.09-.09-.1-.08.06.14,0,0-.02-.04-.05-.09-.07-.12,0,.01.06.17.02.05s-.08-.24-.11-.37c-.06-.23-.1-.45-.14-.68,0-.03-.03-.22,0-.03,0-.05-.01-.11-.02-.17-.01-.15-.02-.29-.02-.44,0-.06,0-.11,0-.16,0,0,0-.19,0-.07s0-.06.02-.09c0-.04.02-.08.03-.12.02-.08.04-.16.07-.24.01-.04.03-.12.06-.16-.04.06-.08.16-.01.04.1-.18.2-.34.31-.51-.11.16-.03.04.04-.04.08-.08.16-.16.24-.24s.2-.14.04-.04c.08-.05.16-.11.25-.16.07-.04.18-.14.26-.14,0,0-.2.07-.07.03.07-.02.13-.05.2-.07.04-.01.2-.08.24-.06,0,0-.23.03-.1.02s-.13-.03-.17-.05c-.25-.11-.44-.42-.41-.7,0-.04.12-.26.04-.15-.01.02-.11.19-.03.07.07-.11,0,0-.02.02-.05.06-.11.11-.16.16-.11.11-.23.22-.34.32l-.64.61-1.37,1.29c-.43.4-.44,1.19,0,1.59.46.42,1.13.43,1.59,0h0Z" />
			<path class="cls-17"
				d="M120.94,267.85c1.09-.58,1.99-1.43,2.66-2.46.42-.63-.02-1.44-.67-1.65-1.18-.38-2.48-.04-3.4.78-1.02.91-1.25,2.38-1.01,3.67.12.66.41,1.3.73,1.89.29.53.62,1.13,1.1,1.51,1.19.94,2.75.29,3.96-.28s2.25-1.39,3.1-2.38c.38-.45.47-1.16,0-1.59-.42-.39-1.18-.48-1.59,0-.77.91-1.44,1.43-2.49,1.95-.13.07-.27.13-.41.19.17-.07-.22.08-.25.09-.25.09-.5.16-.75.23-.08.02-.15.04-.23.05.11-.02.09-.02-.05-.01.06,0,.11,0,.16.04.07.07.08.08.02.02-.04-.03-.08-.07-.11-.11.06.09.06.09-.02-.02-.09-.13-.17-.26-.25-.39-.15-.25-.3-.5-.43-.77-.12-.24-.19-.44-.28-.78-.01-.04-.07-.47-.06-.27,0-.11-.01-.23-.01-.34,0-.08,0-.15.01-.23-.02.11-.02.1,0-.04.03-.15.07-.29.12-.43-.07.18.07-.1.08-.13.08-.12.08-.13,0-.02.04-.05.08-.1.13-.14.05-.05.09-.09.14-.13-.1.08-.1.08,0,0,.11-.06.22-.14.34-.19-.23.1.07,0,.1-.02.06-.02.13-.03.19-.04-.14.02-.14.02-.01,0,.13,0,.26,0,.39,0-.28-.03.12.05.17.06l-.67-1.65s-.2.3-.17.25c.05-.06-.13.15-.15.19-.16.18-.32.35-.5.51-.08.07-.17.15-.25.22.15-.12-.09.07-.12.09-.21.15-.43.28-.66.4-.52.28-.72,1.04-.4,1.54.34.53.98.7,1.54.4h0Z" />
			<path class="cls-17"
				d="M131.77,243.61c2.08-.4,4.13-.6,6.34-.59.59,0,1.15-.52,1.12-1.12s-.49-1.12-1.12-1.12c-2.33,0-4.65.23-6.93.68-.58.11-.96.84-.79,1.38.2.62.76.91,1.38.79h0Z" />
			<path class="cls-17"
				d="M136.06,237.96l-.26-.23c-.72-.64-1.9-.22-1.92.8-.04,2.77.23,5.54.78,8.26.12.6.83.94,1.38.79.62-.17.91-.79.79-1.38-.51-2.52-.74-5.09-.7-7.66l-1.92.8.26.23c.45.4,1.14.45,1.59,0,.41-.41.46-1.19,0-1.59h0Z" />
			<path class="cls-17"
				d="M149.49,250.11c-1.07-.11-.39-5.53-.28-6.16.41-2.37,1.58-4.5,2.83-6.52,2.26-3.67,5.09-7.16,9.07-9.04s8.59-2,12.81-1.15,8.34,2.64,10.63,6.55c2.7,4.61,2.33,10.15.87,15.1-.41,1.39,1.76,1.99,2.17.6,1.54-5.24,1.86-10.97-.63-15.98s-6.98-7.26-12.03-8.36-10.3-.92-14.95,1.29-8.12,6.7-10.67,11.17c-1.62,2.85-2.52,5.77-2.58,9.06-.04,2.17-.05,5.38,2.75,5.68,1.44.15,1.43-2.1,0-2.25h0Z" />
			<path class="cls-17"
				d="M149.16,253.08c1.98.38,3.87.41,5.86.04s3.83-1.05,5.68-1.74c.57-.21.96-.76.79-1.38-.15-.55-.81-1-1.38-.79-1.73.64-3.47,1.27-5.28,1.65-1.7.36-3.36.37-5.07.04-.6-.11-1.21.17-1.38.79-.15.55.19,1.27.79,1.38h0Z" />
			<path class="cls-17"
				d="M176.57,251.72c3.14-.56,6.39-.6,9.54-.12.6.09,1.21-.15,1.38-.79.15-.53-.18-1.29-.79-1.38-3.58-.55-7.17-.52-10.74.12-.6.11-.94.84-.79,1.38.17.63.78.89,1.38.79h0Z" />
			<path class="cls-17"
				d="M159.94,249.09l-.41.37,1.92.8c.26-2.91,1.77-6.82,5.35-6.47.89.09,1.76.32,2.65.37.76.04,1.64-.06,2.34.29,1.46.74,1.2,2.97,1.11,4.29-.1,1.44,2.15,1.44,2.25,0,.15-2.18.05-4.63-1.9-6.02-.88-.63-1.97-.74-3.02-.78-1.17-.04-2.28-.3-3.43-.4-2.08-.19-4.09.85-5.39,2.44-1.46,1.78-2,4.03-2.21,6.28-.09,1.04,1.26,1.39,1.92.8l.41-.37c1.08-.97-.52-2.56-1.59-1.59h0Z" />
			<path class="cls-17"
				d="M157.27,251.47c-.65-2.56,1.42-5.5,2.86-7.46,1.62-2.21,3.85-4.07,6.6-4.6s5.57.84,7.72,2.37c1.17.84,1.28,2.24,1.42,3.57.17,1.63.18,3.27.08,4.91-.09,1.45,2.16,1.44,2.25,0,.13-2.01.06-4.02-.21-6.02-.23-1.69-.68-3.16-2.12-4.21-2.64-1.93-6.08-3.39-9.38-2.85s-6.09,2.76-8.08,5.41-4.15,6.11-3.29,9.48c.36,1.4,2.53.81,2.17-.6h0Z" />
			<path class="cls-17"
				d="M152.59,252.82c.39-7.6,5.15-14.68,12-17.96,1.08-.52,2.26-1.01,3.46-1.14s2.32.24,3.4.71c1.79.78,3.63,1.69,5.13,2.96s2.47,2.82,2.62,4.8c.17,2.18-.16,4.37.62,6.47.5,1.35,2.68.76,2.17-.6-.71-1.91-.39-3.89-.54-5.87-.14-1.76-.67-3.36-1.75-4.77-2.04-2.66-5.52-4.51-8.66-5.55-3.61-1.19-7.44.65-10.4,2.68-2.79,1.91-5.16,4.42-6.92,7.31-2.03,3.32-3.19,7.09-3.39,10.97-.07,1.45,2.18,1.44,2.25,0h0Z" />
			<path class="cls-17"
				d="M151.33,253.77c-.54-7.05,2.23-14.2,7.62-18.84,3.21-2.76,6.96-3.36,11.06-2.82,1.86.25,4.03.45,5.76,1.2,1.63.7,3.07,2.54,4.17,3.89,2.95,3.62,2.37,8.66,2.51,13.06.05,1.44,2.3,1.45,2.25,0-.14-4.28.38-9.34-2.03-13.11-1.12-1.75-2.67-3.46-4.26-4.8-1.7-1.43-3.83-1.73-5.95-2.11-4.33-.78-8.83-1.04-12.73,1.35-3.41,2.08-6.14,5.39-7.95,8.92-2.09,4.09-3.05,8.69-2.7,13.27.11,1.43,2.36,1.45,2.25,0h0Z" />
			<path class="cls-17"
				d="M144.04,265.15c.06,2.67.51,5.34,1.35,7.88.19.58.78.95,1.38.79.56-.16.98-.8.79-1.38-.79-2.39-1.21-4.79-1.27-7.29-.01-.61-.51-1.12-1.12-1.12s-1.14.51-1.12,1.12h0Z" />
			<path class="cls-17"
				d="M142.07,262.03s0,.08,0,.12c.01.13.03.27.05.4s.07.24.12.36.09.23.16.33.15.21.24.31c.03.03.05.06.08.09.1.11.22.19.36.23.13.07.28.1.43.1.15,0,.3-.03.43-.1.14-.05.26-.12.36-.23l.18-.23c.1-.18.15-.36.15-.57l-.04-.3c-.05-.19-.15-.36-.29-.5-.04-.04-.08-.08-.11-.12l.18.23c-.06-.08-.11-.16-.14-.24l.11.27c-.04-.09-.06-.18-.07-.27l.04.3c0-.06,0-.11,0-.17,0-.15-.03-.3-.1-.43-.05-.14-.12-.26-.23-.36-.1-.11-.22-.19-.36-.23-.13-.07-.28-.1-.43-.1l-.3.04c-.19.05-.36.15-.5.29l-.18.23c-.1.18-.15.36-.15.57h0Z" />
			<path class="cls-17"
				d="M148.79,266.13c.54,2.45,1.16,4.88,1.86,7.28.16.53.68.89,1.23.81.5-.08,1.04-.54.98-1.1-.12-1.1-.25-2.2-.37-3.3-.1-.89-.25-1.85,0-2.72.04-.13.2-.37.21-.5.09-.12.03-.11-.17.04-.09.1-.19.13-.3.08-.1.07-.16-.17.03.06.26.32.49.63.68,1,.4.78.58,1.64.57,2.51-.01,1.25,1.92,1.55,2.21.3.17-.74.39-1.46.66-2.17.1-.26.21-.52.33-.77.14-.31.37-.62.49-.94-.04.04-.04.03.02-.02.1-.09.05-.07-.15.06-.17.04-.32,0-.45-.11.09.09.11.12.08.07.06.19.28.52.39.76.31.67.56,1.36.78,2.06.43,1.38,2.61.79,2.17-.6-.32-1.02-.71-2.02-1.19-2.98s-1.38-1.72-2.49-1.34c-.98.34-1.41,1.46-1.79,2.34-.43.98-.77,1.99-1.02,3.03l2.21.3c.01-1.34-.33-2.67-.99-3.84-.34-.6-.78-1.25-1.38-1.62-.7-.43-1.61-.45-2.24.14-.99.93-1.1,2.58-1.01,3.84.1,1.44.31,2.89.48,4.32l2.21-.3c-.71-2.4-1.33-4.83-1.86-7.28-.13-.59-.82-.94-1.38-.79-.61.17-.92.79-.79,1.38h0Z" />
			<path class="cls-17"
				d="M162.41,263.4c-2.18.99-3.3,3.51-2.72,5.8.3,1.17,1.15,2.62,2.56,2.5,1.32-.11,2.07-1.3,2.6-2.38.63-1.26.96-2.86.09-4.1-.28-.4-.77-.68-1.27-.52-.46.15-.84.58-.83,1.08.04,1.42.31,2.82.82,4.14.21.55.76.99,1.38.79.53-.17,1.01-.8.79-1.38s-.42-1.21-.55-1.83c-.03-.15-.06-.29-.08-.44-.01-.07-.02-.15-.03-.22.02.12,0,.04,0-.04-.04-.34-.06-.67-.07-1.01l-2.1.57c.07.11.14.21.2.33-.1-.24.02.14.03.19-.06-.26,0,.12,0,.19,0,.06-.06.45,0,.19-.05.24-.12.48-.21.71.07-.2-.09.19-.11.22-.06.13-.13.26-.2.38-.13.23-.26.45-.4.67.13-.2-.03.03-.06.06-.05.06-.33.25-.11.12-.05.03-.1.06-.15.09.14-.06.16-.07.04-.03.17-.02.18-.02.06-.02.09,0,.16.01.24.06-.11-.07-.1-.06.01.03-.04-.04-.09-.08-.13-.13.18.17-.02-.04-.06-.1-.06-.1-.11-.2-.16-.31.1.22-.05-.16-.07-.2-.04-.13-.07-.26-.1-.39-.01-.07-.02-.13-.03-.2.02.13.02.13,0,0,0-.24-.01-.47.01-.71-.03.26.04-.15.05-.2.03-.13.08-.25.11-.38.05-.12.04-.12,0,.01.03-.06.05-.11.08-.17.06-.11.12-.22.18-.32.05-.08.1-.15.16-.23-.16.22.09-.09.12-.13.08-.09.17-.18.27-.26.05-.04.09-.08.14-.12-.11.08-.11.08,0,0,.21-.13.42-.26.65-.36.54-.24.71-1.06.4-1.54-.36-.56-.96-.66-1.54-.4h0Z" />
			<path class="cls-17"
				d="M171.49,263.91c-.46-.87-1.59-1.1-2.41-.61-.69.41-1.21,1.16-1.55,1.87-.69,1.42-.87,3.09-.42,4.61.23.77.6,1.69,1.31,2.14.85.54,1.95.23,2.6-.46.6-.63.96-1.57,1.2-2.4.28-.94.38-1.94.33-2.91l-2.21.3c.52,1.67,1.07,3.33,1.55,5.01.26.9.66,2.74-.63,3.08-1.4.37-.81,2.54.6,2.17,2.04-.54,2.75-2.71,2.47-4.61-.16-1.06-.53-2.08-.85-3.1s-.65-2.1-.98-3.14c-.36-1.17-2.28-1.02-2.21.3.06,1.03-.08,2.04-.49,3-.1.22-.21.48-.35.67l-.03.05c-.14.13-.16.16-.08.08.26.16.36.17.28.03-.06-.1-.11-.19-.16-.29-.08-.16-.14-.33-.19-.51-.21-.72-.22-1.48-.04-2.2.1-.4.25-.76.46-1.11.08-.13.26-.3.32-.44.06-.04.1-.09.12-.15-.23.03-.43-.04-.6-.24.68,1.28,2.62.14,1.94-1.14h0Z" />
			<path class="cls-17"
				d="M175.65,264.3c-.51-.25-1.11-.24-1.53.2-.28.3-.44.74-.42,1.15.04.64.2,1.31.35,1.93.29,1.21.7,2.37,1.19,3.51.23.54,1.07.71,1.54.4.56-.36.65-.96.4-1.54-.05-.12-.05-.12,0,0-.03-.06-.05-.12-.07-.18-.04-.09-.07-.18-.11-.27-.08-.21-.16-.43-.24-.64-.14-.4-.26-.81-.38-1.21s-.21-.82-.29-1.24c-.05-.22-.09-.45-.12-.67-.02-.1-.03-.19-.05-.29.04.29-.05.64-.36.77l-.57.15h.04c-.19-.05-.38-.1-.57-.15l.05.02c.53.26,1.24.16,1.54-.4.27-.5.16-1.27-.4-1.54h0Z" />
			<path class="cls-17"
				d="M173.54,260.17s-.03-.03-.04-.05c-.07-.06-.16-.14-.24-.19,0,0-.02-.01-.03-.02s-.02,0-.03-.01c-.08-.04-.19-.09-.28-.12-.07-.02-.14-.03-.21-.04-.06,0-.14-.03-.21-.02-.01,0-.02,0-.03,0-.08,0-.23.02-.31.04-.07.02-.12.04-.19.07-.06.03-.13.05-.19.09-.17.1-.3.23-.4.4-.08.13-.13.27-.13.42-.03.15-.03.3.02.45.05.19.15.36.29.5.37.42.75.83,1.12,1.25.1.11.22.19.36.23.13.07.28.1.43.1.15,0,.3-.03.43-.1.14-.05.26-.12.36-.23.2-.21.34-.5.33-.8l-.04-.3c-.05-.19-.15-.36-.29-.5-.37-.42-.75-.83-1.12-1.25l-.23,1.77s.04-.02.06-.03l-.27.11s.04-.01.06-.02l-.3.04s.06,0,.1,0l-.3-.04s.05.01.08.02l-.27-.11s.04.02.06.03l-.23-.18s.04.03.06.06c.1.11.22.19.36.23.13.07.28.1.43.1.15,0,.3-.03.43-.1.14-.05.26-.12.36-.23.2-.21.34-.5.33-.8l-.04-.3c-.05-.19-.15-.36-.29-.5h0Z" />
			<path class="cls-17"
				d="M177.72,265.06c.38.94.67,1.92.83,2.92,0,.04.06.41.03.19.01.11.03.22.04.33.03.26.04.51.05.77.02.52,0,1.03-.03,1.55-.04.56.46,1.04.98,1.1.57.08,1.05-.27,1.23-.81.15-.45.3-.89.45-1.34.19-.56-.22-1.25-.79-1.38-.62-.14-1.18.19-1.38.79-.15.45-.3.89-.45,1.34l2.21.3c.16-2.15-.18-4.36-1-6.36-.22-.54-.76-.99-1.38-.79-.52.17-1.02.8-.79,1.38h0Z" />
			<path class="cls-17"
				d="M181.57,265.01c.1-.11.19-.21.29-.31.05-.05.11-.1.16-.15.09-.09-.17.09,0,0,.03-.02.24-.13.08-.06-.17.07.07-.03.1-.02l-.13.02c.1,0,.1,0,0-.01-.1-.02-.1-.02,0,0l.07.02s-.23-.16-.04,0c.11.09-.19-.2-.02-.02.04.05.09.09.13.14.1.09-.14-.22,0,0,.07.11.14.23.2.35.02.03.11.25.04.09s.02.07.03.09c.12.33.22.67.3,1.01.04.17.08.34.11.51.01.07.02.14.04.21,0,0,.04.3.03.16s.01.14.02.16c0,.09.02.17.02.26.01.17.02.35.02.52,0,.37,0,.73-.04,1.1-.05.59.55,1.15,1.12,1.12.65-.03,1.07-.5,1.12-1.12.15-1.73-.08-3.67-.87-5.24-.36-.72-1.01-1.39-1.83-1.54-1.05-.19-1.88.38-2.55,1.13-.39.44-.47,1.16,0,1.59.43.39,1.17.47,1.59,0h0Z" />
			<path class="cls-17"
				d="M190.51,261.89c-.62-.64-1.49-.63-2.26-.29-.59.26-1.02.76-1.4,1.26-.68.91-1.03,2.06-1.08,3.19s.29,2.53,1.09,3.41c.53.58,1.37.81,2.12.55s1.25-.82,1.56-1.51c.32-.74.57-1.51.84-2.27s.54-1.5.81-2.26l-2.21-.3c-.06,1.24.21,2.43.7,3.56.24.54,1.07.71,1.54.4.56-.36.66-.96.4-1.54.08.17-.04-.12-.06-.15-.04-.11-.07-.21-.11-.32-.07-.24-.13-.48-.17-.72-.01-.06-.02-.11-.03-.17.01.09.01.1,0,.02,0-.11-.02-.23-.03-.34-.01-.25-.01-.49,0-.74.03-.56-.45-1.03-.98-1.1-.58-.08-1.04.27-1.23.81-.36,1-.72,2.01-1.08,3.01-.09.25-.18.5-.27.75-.04.1-.08.2-.11.3-.04.12,0,0,.01-.02-.03.06-.06.13-.09.19-.05.09-.1.19-.16.27.11-.14,0-.03-.02,0,.01-.01.16-.09.05-.04-.04.02-.08.05-.12.07.01-.01.18-.06.06-.03-.13.03.07,0,.08,0-.14,0-.05,0,.04.02.01,0,.17.09.06.02-.14-.08.13.11,0,0-.09-.08.01.02.03.04-.03-.04-.05-.08-.08-.12-.05-.08-.09-.16-.13-.24-.02-.04-.04-.08-.06-.12.04.08.05.15.01.02-.06-.18-.12-.36-.17-.55-.02-.09-.03-.17-.05-.26-.03-.14.01.08,0,.08-.02-.02-.01-.15-.02-.18-.01-.19-.02-.38,0-.57,0-.09.02-.18.02-.26,0-.13-.01.07-.01.08.01-.07.02-.15.04-.22.03-.17.08-.35.13-.51.03-.08.06-.17.09-.25.04-.12-.03.05-.03.06.03-.07.06-.13.09-.2.09-.18.2-.36.31-.53.02-.04.05-.07.08-.11-.05.07-.1.11-.01.02.08-.09.15-.18.24-.26.03-.03.06-.06.1-.09.02-.02.17-.13.05-.05s.01,0,.03-.01c.05-.03.1-.06.16-.09-.04.02-.21.06-.02.02.15-.03.02,0-.05,0,.08-.01.11.05,0,0-.09,0-.16-.03-.22-.09-.16-.11-.19-.12-.09-.03.41.42,1.18.44,1.59,0s.44-1.14,0-1.59h0Z" />
			<path class="cls-17"
				d="M195.47,264.87l2.16.54c.29.07.61.04.87-.11.23-.14.46-.4.52-.67.07-.29.05-.61-.11-.87s-.38-.44-.67-.52c-.72-.18-1.44-.36-2.16-.54-.29-.07-.61-.04-.87.11-.23.14-.46.4-.52.67-.07.29-.05.61.11.87s.38.44.67.52h0Z" />
			<path class="cls-17"
				d="M158.31,278.15l.04-.06-1.27.52.08.02-.5-.29c-.24-.22-.1.04-.08.21s.04.35.06.52c.04.38.07.77.1,1.15.06.77.1,1.54.14,2.31.08,1.57.18,3.13.42,4.68.11.7.16,1.58.68,2.13.57.6,1.45.59,2.15.27,1.16-.53,2.12-1.63,2.64-2.77.25-.55.16-1.21-.4-1.54-.48-.28-1.29-.15-1.54.4-.21.46-.46.87-.81,1.23-.17.17-.35.33-.55.47-.06.04-.31.15-.34.21.05-.1.54.48.6.39.07-.1-.17-.84-.19-.96-.05-.31-.1-.63-.14-.94-.08-.66-.13-1.32-.18-1.98-.09-1.33-.13-2.66-.24-3.98-.05-.69-.13-1.38-.22-2.07-.1-.73-.29-1.38-1.08-1.6-.5-.14-1,.1-1.27.52l-.04.06c-.79,1.22,1.15,2.34,1.94,1.14h0Z" />
			<path class="cls-17"
				d="M157.86,285.81c.3-.18.6-.35.91-.51.08-.04.17-.08.25-.12.08-.04.28-.08-.01,0,.16-.05.33-.13.49-.19.65-.23,1.31-.39,1.99-.48l-.3.04h.07c.31-.05.57-.11.8-.34.2-.2.34-.52.33-.8s-.11-.59-.33-.8c-.2-.19-.51-.37-.8-.33-1.61.21-3.15.7-4.53,1.57-.5.31-.74,1.02-.4,1.54s1,.74,1.54.4h0Z" />
			<path class="cls-17"
				d="M163.43,281.87c-.32,1.34-.1,2.83.69,3.98.17.24.38.44.67.52.27.07.63.04.87-.11.48-.31.76-1.02.4-1.54-.16-.22-.29-.46-.39-.71l.11.27c-.13-.32-.22-.64-.26-.98l.04.3c-.04-.34-.04-.68,0-1.02l-.04.3c.02-.13.04-.27.08-.4.07-.29.04-.61-.11-.87-.14-.23-.4-.46-.67-.52-.58-.13-1.24.17-1.38.79h0Z" />
			<path class="cls-17"
				d="M162.28,277.15c-.24.45-.36.92-.39,1.43-.01.25.02.5.06.74.02.16.07.32.13.47.03.15.1.27.2.38.08.12.18.22.32.29.24.14.6.2.87.11s.53-.26.67-.52l.11-.27c.05-.2.05-.4,0-.6-.07-.17-.11-.34-.14-.51l.04.3c-.02-.19-.02-.37,0-.56l-.04.3c.03-.19.07-.37.15-.54l-.11.27c.02-.05.05-.11.08-.16.14-.27.19-.57.11-.87-.07-.26-.27-.54-.52-.67-.26-.14-.58-.21-.87-.11-.27.09-.54.26-.67.52h0Z" />
			<path class="cls-17"
				d="M167.03,283.18c.65,1.13,1.54,2.15,2.79,2.63,1.39.53,2.86.01,3.97-.86s1.95-2.09,2.06-3.49c.13-1.49-.94-2.69-2.26-3.2-1.54-.59-3.2,0-4.56.75-.52.28-.73,1.04-.4,1.54s.99.71,1.54.4c.5-.28.73-.4,1.23-.55.13-.04.26-.07.4-.1.06-.01.11-.02.17-.03-.03,0-.14.01-.01,0s.27-.01.41,0c.05,0,.09,0,.14,0,.16,0-.17-.05-.02,0,.09.03.19.04.28.07.08.02.32.14.13.04.08.04.17.09.25.14.04.02.08.05.12.08.13.07-.11-.11,0,0,.07.08.15.15.23.23-.13-.14-.01,0,.03.07.11.17-.02-.12.03.07.02.07.03.14.05.21-.03-.11,0-.09,0,.01s0,.21-.01.31c.03-.21-.04.1-.06.16-.02.05-.03.1-.05.15,0-.02.06-.14.01-.02s-.11.23-.18.34-.14.22-.21.32,0,0,.01,0c-.03.04-.07.08-.1.13-.16.19-.34.37-.53.54-.04.04-.08.07-.12.11,0,0-.14.11-.06.05s-.06.04-.06.04c-.06.04-.12.08-.18.12-.09.06-.19.11-.28.16,0,0-.16.08-.06.03.1-.05-.09.03-.11.04-.12.04-.23.07-.35.1-.2.05.1.01-.11.01-.11,0-.21,0-.32,0,.05,0,.21.05,0,0-.06-.01-.13-.03-.19-.05-.05-.01-.09-.03-.14-.05-.15-.04.13.08,0,0-.11-.07-.23-.12-.34-.19-.04-.03-.08-.06-.12-.08.09.06.07.06,0,0-.09-.08-.17-.15-.26-.24-.1-.1-.19-.19-.27-.3-.03-.04-.06-.08-.1-.12.07.09.04.06,0-.02-.16-.22-.3-.45-.44-.68-.29-.51-1.03-.73-1.54-.4s-.72.99-.4,1.54h0Z" />
			<path class="cls-17"
				d="M177.1,278.99l.55,2.58.27,1.29.13.59c.02.11.03.22.07.32.02.1.02.07,0-.08.01-.2.09-.38.24-.53l.5-.29h-.04c.2.01.4.01.6.01h-.05c.26.25.52.51.79.78-.02-.13-.04-.26-.06-.39.04.28-.01-.14-.02-.19-.02-.23-.04-.46-.04-.68s0-.45.04-.68c-.04.28.03-.12.05-.17.02-.09.05-.19.08-.28.02-.06.04-.12.07-.18-.06.13-.06.15,0,.04.05-.09.1-.18.16-.27.13-.22-.16.16.02-.02.07-.08.14-.15.22-.22.04-.04.08-.07.12-.1-.13.1-.14.11-.04.04.07-.04.13-.08.2-.12.04-.02.09-.05.14-.07-.15.06-.17.07-.06.03.08-.02.17-.04.25-.07.09-.02.05-.01-.12.01.05,0,.1,0,.15,0,.05,0,.1,0,.15,0-.18-.03-.2-.03-.08,0,.03,0,.19.07.22.06-.14-.06-.16-.07-.05-.01.05.03.09.05.14.08.1.07.09.06-.04-.03.04.03.08.07.12.11.05.05.23.22.03.02.14.14.22.36.31.53.03.08.02.05-.03-.08.02.05.04.1.06.15.04.11.07.22.1.33.06.23.1.47.14.7.09.5.16,1.01.3,1.5.16.57.8.97,1.38.79s.96-.78.79-1.38c-.25-.87-.26-1.8-.58-2.65-.38-.98-.99-1.79-1.99-2.19-.85-.34-1.87-.15-2.62.33-.82.53-1.39,1.33-1.65,2.27-.31,1.12-.17,2.27.01,3.4.06.36.44.72.79.79.55.11,1.09-.05,1.4-.55.22-.36.23-.76.16-1.16-.1-.54-.23-1.08-.34-1.62-.24-1.11-.47-2.23-.71-3.34-.12-.58-.83-.97-1.38-.79-.61.2-.92.77-.79,1.38h0Z" />
			<path class="cls-17"
				d="M207.03,243.25c.13-.02.12-.02-.03,0,.05,0,.09-.01.14-.02.11-.01.21-.02.32-.03.18-.02.36-.03.54-.03.39-.02.79-.01,1.18.01.18.01.36.03.54.05.06,0,.12.01.18.02-.13-.02-.16-.02-.07-.01.1.02.21.03.31.05.39.07.77.15,1.15.26.57.16,1.25-.19,1.38-.79s-.18-1.22-.79-1.38c-1.79-.49-3.62-.56-5.45-.3-.26.04-.55.3-.67.52-.14.24-.2.6-.11.87s.26.53.52.67c.29.15.55.16.87.11h0Z" />
			<path class="cls-17"
				d="M208.35,246.12c.86.1,1.71.19,2.57.29.27.03.61-.15.8-.33.2-.2.34-.52.33-.8s-.11-.59-.33-.8l-.23-.18c-.18-.1-.36-.15-.57-.15-.86-.1-1.71-.19-2.57-.29-.27-.03-.61.15-.8.33-.2.2-.34.52-.33.8s.11.59.33.8l.23.18c.18.1.36.15.57.15h0Z" />
			<path class="cls-17"
				d="M233.62,235.24c-.46,4.14-.56,8.3-.3,12.45.09,1.44,2.34,1.45,2.25,0-.27-4.15-.17-8.32.3-12.45.07-.6-.57-1.12-1.12-1.12-.66,0-1.06.52-1.12,1.12h0Z" />
			<path class="cls-17"
				d="M235.85,237.23c.04.19,0-.09,0-.14-.02.19.05-.09,0,0,.04-.09.07-.13.22-.26l-1.88-.5c.18,1.3.47,2.58.88,3.83.21.63.41,1.3.86,1.8.53.58,1.37.79,2.08.41.51-.27.91-.77,1.26-1.22.38-.48.73-.99,1.01-1.54.57-1.12.9-2.29,1.04-3.53h-2.25c-.04,2.65-.09,5.3-.13,7.95-.01.61.52,1.12,1.12,1.12s1.11-.52,1.12-1.12c.04-2.65.09-5.3.13-7.95.01-.61-.52-1.12-1.12-1.12-.66,0-1.06.52-1.12,1.12s-.35,1.62-.64,2.22c-.4.82-.85,1.39-1.42,2.03-.11.13-.05.04.1.01.21-.04.31.07.49.1l.04.06s-.06-.09-.09-.14c-.03-.05-.11-.23-.05-.09-.2-.46-.34-.96-.48-1.44-.3-1.02-.51-2.06-.66-3.11-.05-.37-.45-.69-.79-.79-.41-.11-.78.03-1.09.29-.76.63-1.01,1.65-.8,2.59.13.59.82.94,1.38.79.61-.17.92-.79.79-1.38h0Z" />
			<path class="cls-17"
				d="M243.45,234.65c-.8,3.26-1.6,6.53-2.39,9.79-.34,1.41,1.83,2.01,2.17.6.8-3.26,1.6-6.53,2.39-9.79.34-1.41-1.83-2.01-2.17-.6h0Z" />
			<path class="cls-17"
				d="M246.17,235.54c-.13.32-.36.49-.68.52-.24,0-.41-.09-.53-.25l-.03-.08c.02.07.04.14.06.21.09.32.15.65.22.98.13.63.25,1.27.34,1.91.19,1.27.3,2.57.36,3.86.02.61.5,1.12,1.12,1.12.59,0,1.15-.52,1.12-1.12-.08-1.94-.3-3.88-.66-5.78-.16-.84-.25-1.93-.86-2.58-.76-.8-2.43-.61-2.64.62-.1.6.16,1.21.79,1.38.54.15,1.28-.18,1.38-.79h0Z" />
			<path class="cls-17"
				d="M243.93,241.96c.5-.33,1.03-.62,1.58-.85l-.27.11c.56-.23,1.13-.41,1.72-.53s.96-.83.79-1.38c-.2-.61-.77-.91-1.38-.79-1.26.26-2.5.78-3.57,1.5-.24.16-.44.38-.52.67-.07.27-.04.63.11.87.31.49,1.02.75,1.54.4h0Z" />
			<path class="cls-17"
				d="M252.14,233.95c-.7-.43-1.62-.4-2.31.04s-1.05,1.11-1.34,1.83c-.55,1.36-.64,2.85-.39,4.29s.88,2.84,2.04,3.69,2.77.62,3.74-.45c.49-.54.83-1.17,1.16-1.81.42-.79.83-1.58,1.25-2.38l-2.06-.87c-.41,1.55-.44,3.14-.12,4.72.1.48.62.83,1.08.83s1.02-.35,1.08-.83c.13-.89.18-1.76.08-2.65-.09-.83-.21-1.78-.83-2.4-.7-.71-1.72-.8-2.6-.4-.76.35-1.24,1.03-1.67,1.72-.32.52-.11,1.24.4,1.54s1.22.11,1.54-.4c.21-.34.39-.69.69-.83.04-.02.05-.05.14-.04-.01,0-.2-.02-.05.01.13.04.08,0-.13-.09l.08.08c-.05-.17.06.18,0,.02.33.84.3,1.97.18,2.84h2.17c-.24-1.17-.19-2.37.12-3.52s-1.45-2.02-2.06-.87c-.35.67-.71,1.34-1.06,2.02-.29.55-.55,1.13-.92,1.62.1-.13-.09.11-.12.13-.04.04-.34.28-.19.18-.03.02-.3.14-.12.08-.07.02-.14.04-.21.05.11-.02.09-.03-.05-.02.17.07-.13-.05-.15-.06.21.09-.22-.16-.13-.09-.14-.1-.32-.32-.42-.46-.65-.99-.84-2.21-.74-3.37.04-.5.2-1.16.39-1.61.11-.26.21-.49.41-.63-.12.09-.03-.04.04,0,0,0-.33-.15-.08.01.52.32,1.24.11,1.54-.4s.12-1.22-.4-1.54h0Z" />
			<path class="cls-17"
				d="M257.46,232.22c-.67,3.36.24,6.72-.09,10.09-.06.61.56,1.12,1.12,1.12.66,0,1.07-.52,1.12-1.12.31-3.15-.62-6.36,0-9.49.12-.6-.17-1.21-.79-1.38-.55-.15-1.26.19-1.38.79h0Z" />
			<path class="cls-17"
				d="M265.74,234.26c-.34-.81-.59-2-1.53-2.31-1.02-.34-1.78.43-2.23,1.25-.84,1.48-1.45,3.09-1.6,4.79-.13,1.46.14,3.27,1.33,4.27.72.6,1.65.8,2.57.56.86-.23,1.58-.8,2.24-1.37.46-.4.41-1.18,0-1.59-.46-.46-1.13-.4-1.59,0-.33.29-.7.6-1.12.76-.31.12-.43.1-.64-.05.09.06-.13-.15-.12-.13-.09-.13-.2-.35-.21-.37-.14-.37-.21-.77-.23-1.16-.05-.94.15-1.85.46-2.74.16-.44.35-.86.56-1.28.1-.2.21-.41.33-.61.04-.07.18-.22.18-.3,0,.18-.92,0-.52.15l-.5-.29c-.06-.05-.04-.1.02.01.02.03.09.22.12.28l.31.73c.24.56.74.96,1.38.79.53-.14,1.02-.82.79-1.38h0Z" />
			<path class="cls-17"
				d="M220.16,240.01s.37-.05.19-.03c.14-.02.28-.04.43-.05.24-.03.49-.05.73-.07.51-.04,1.02-.07,1.53-.09,1.02-.03,2.04,0,3.06.08.59.05,1.15-.55,1.12-1.12-.03-.65-.5-1.07-1.12-1.12-2.18-.18-4.36-.08-6.52.24-.58.08-.96.86-.79,1.38.21.64.76.88,1.38.79h0Z" />
			<path class="cls-17"
				d="M230.83,224.3c.77,2.26,1.74,4.44,2.9,6.52.29.51,1.03.73,1.54.4s.71-.99.4-1.54c-.55-.98-1.06-1.98-1.52-3.01-.24-.54-.34-.77-.56-1.34s-.41-1.09-.6-1.64-.78-.98-1.38-.79c-.55.18-.99.79-.79,1.38h0Z" />
			<path class="cls-17"
				d="M269.57,230.47c.27-.52.58-1.02.92-1.5.08-.11.16-.23.25-.34.17-.23-.15.18.03-.04.04-.05.09-.11.13-.16.19-.23.38-.45.58-.66.39-.42.81-.81,1.25-1.17.05-.04.11-.09.16-.13.22-.18-.19.14.04-.03.11-.08.22-.17.34-.25.25-.18.51-.34.77-.5.5-.31.74-1.02.4-1.54s-1-.73-1.54-.4c-2.22,1.35-4.07,3.29-5.27,5.59-.27.52-.15,1.25.4,1.54.52.27,1.25.15,1.54-.4h0Z" />
			<path class="cls-17"
				d="M272.25,237.78c2.4-.59,4.84-1.02,7.29-1.28.6-.06,1.12-.47,1.12-1.12,0-.56-.52-1.19-1.12-1.12-2.66.28-5.29.73-7.89,1.36-.59.14-.94.81-.79,1.38.17.6.79.93,1.38.79h0Z" />
			<path class="cls-17"
				d="M256.17,251.18c1.17,1.62,2.6,3,4.27,4.08.49.32,1.26.12,1.54-.4.3-.56.12-1.2-.4-1.54-.18-.12-.36-.24-.54-.37-.09-.06-.18-.13-.26-.19-.04-.03-.09-.07-.13-.1-.11-.08.2.16.05.04-.34-.27-.67-.56-.99-.86s-.6-.6-.89-.92c-.14-.16-.28-.33-.42-.5-.03-.04-.07-.08-.1-.13.05.07.14.19.04.05-.07-.1-.14-.19-.21-.29-.18-.24-.37-.43-.67-.52-.27-.07-.63-.04-.87.11-.47.3-.77,1.03-.4,1.54h0Z" />
			<path class="cls-17"
				d="M237.52,252.93c-1.1,2.56-2.57,5.09-4.26,7.23-.38.48-.47,1.13,0,1.59.39.39,1.21.48,1.59,0,1.86-2.36,3.42-4.92,4.61-7.68.24-.56.17-1.21-.4-1.54-.47-.28-1.3-.16-1.54.4h0Z" />
			<path class="cls-17"
				d="M252.13,219.49c-.79,2.25-.96,4.63-.63,6.99.08.58.86.96,1.38.79.64-.21.88-.76.79-1.38.03.18-.02-.19-.03-.23-.01-.14-.03-.27-.04-.41-.02-.24-.03-.47-.03-.71-.01-.53,0-1.06.06-1.59.01-.14.03-.27.05-.41-.03.19.03-.15.03-.17.04-.25.09-.5.15-.75.12-.52.27-1.03.44-1.53.2-.56-.22-1.26-.79-1.38-.63-.14-1.18.19-1.38.79h0Z" />
			<path class="cls-17"
				d="M226.04,251.29c-1.18.77-2.3,1.66-3.32,2.64-.43.41-.44,1.19,0,1.59s1.14.44,1.59,0c.54-.52,1.12-1.02,1.71-1.48l-.23.18c.45-.35.91-.67,1.38-.98.24-.16.44-.39.52-.67.07-.27.04-.63-.11-.87-.32-.49-1.01-.75-1.54-.4h0Z" />
			<path class="cls-17"
				d="M266.31,248.2c1.19,1.27,2.58,2.37,4.1,3.24.51.29,1.25.14,1.54-.4s.14-1.23-.4-1.54c-.35-.2-.7-.42-1.04-.64-.17-.11-.34-.23-.5-.35-.08-.06-.16-.12-.24-.18-.03-.02-.16-.12-.02-.02.15.12-.03-.02-.05-.04-.64-.51-1.24-1.06-1.79-1.66-.4-.43-1.19-.44-1.59,0-.42.46-.43,1.13,0,1.59h0Z" />
			<path class="cls-17"
				d="M245.01,254.08c.32,2,.71,3.99,1.19,5.96.14.57.82.97,1.38.79.59-.19.94-.77.79-1.38-.48-1.97-.88-3.96-1.19-5.96-.09-.58-.85-.96-1.38-.79-.63.21-.88.76-.79,1.38h0Z" />
		</g>
		<g>
			<rect class="cls-15 frame" x="406.14" y="333.64" width="108.99" height="57.06" />
			<rect class="cls-12" x="413.31" y="219.12" width="7.71" height="24.36" />
			<polygon class="cls-11" points="548.87 344.99 372.39 344.99 392.09 238.88 529.17 238.88 548.87 344.99" />
			<rect class="cls-12" x="384.5" y="204.99" width="8" height="94.11"
				transform="translate(242.73 -187.51) rotate(38.68)" />
			<path class="cls-17"
				d="M519.1,247.39l16.54,89.09h-150.02l16.54-89.09h116.94M520.76,245.39h-120.26l-17.28,93.09h154.83l-17.28-93.09h0Z" />
			<rect class="cls-12" x="375.88" y="278.91" width="4.63" height="63.38"
				transform="translate(867.39 324.66) rotate(142.25)" />
			<circle class="cls-9" cx="417.47" cy="216.79" r="7.55" />
			<circle class="cls-9" cx="360.1" cy="287.52" r="7.55" />
			<rect class="cls-15 frame" x="385.56" y="362.17" width="150.14" height="74.66" />
			<rect class="cls-7" x="378.2" y="344.99" width="164.87" height="17.19" />
			<circle class="cls-15" cx="460.63" cy="353.58" r="3.65" />
			<path class="cls-17"
				d="M532.33,318.65l3.31,17.82h-54.41l-.79-9.08-.76-8.74h52.65M533.99,316.65h-56.49l.95,10.91.95,10.91h58.65l-4.05-21.82h0Z" />
			<path class="cls-17"
				d="M506.05,318.65l1.01,6.91h-26.8l-.58-6.91h26.37M534.36,329.57l1.28,6.91h-22.93l-1.01-6.91h22.67M507.78,316.65h-30.27l.92,10.91h30.96l-1.6-10.91h0ZM536.02,327.57h-26.64l1.6,10.91h27.07l-2.03-10.91h0Z" />
			<line class="cls-10" x1="478.68" y1="322.11" x2="507.96" y2="322.11" />
			<line class="cls-10" x1="510.93" y1="333.35" x2="536.11" y2="333.35" />
			<path class="cls-10"
				d="M454.74,269.5c.7-1.26,1.1-2.7,1.1-4.23,0-5.04-4.31-9.13-9.64-9.13-2.7,0-5.13,1.05-6.88,2.75-1.77-4.03-5.79-6.84-10.47-6.84s-8.91,2.97-10.6,7.16c-6.1.25-10.97,5.25-10.97,11.41,0,5.59,4.01,10.24,9.32,11.23-2.49,2.1-4.07,5.23-4.07,8.74,0,6.32,5.12,11.44,11.44,11.44,3.02,0,5.75-1.18,7.79-3.08,1.41.88,3.07,1.4,4.85,1.4,5.05,0,9.15-4.09,9.15-9.15,0-.34-.02-.68-.06-1.01.94.25,1.92.39,2.94.39,6.32,0,11.44-5.12,11.44-11.44,0-4.07-2.13-7.63-5.33-9.66Z" />
			<path class="cls-10"
				d="M493.09,257.11c-.83-.66-1.76-1.04-2.76-1.04-3.29,0-5.96,4.08-5.96,9.11,0,2.55.69,4.86,1.79,6.51-2.63,1.67-4.47,5.47-4.47,9.9,0,4.54,1.94,8.43,4.68,10.03.16,5.77,3.43,10.38,7.45,10.38,3.65,0,6.69-3.8,7.34-8.81,1.37,2.35,3.42,3.85,5.71,3.85,4.13,0,7.47-4.84,7.47-10.82,0-2.85-.77-5.44-2.01-7.37.58-1.33.92-2.9.92-4.59,0-4.78-2.67-8.65-5.97-8.65-.22,0-.44.02-.66.05.16-.89.26-1.81.26-2.78,0-5.97-3.34-10.82-7.47-10.82-2.66,0-4.98,2.01-6.31,5.04Z" />
			<text class="cls-18" transform="translate(451.92 307.26)">
				<tspan x="0" y="0">Magic</tspan>
			</text>
			<text class="cls-18" transform="translate(463.21 256.37)">
				<tspan x="0" y="0">Poof</tspan>
			</text>
			<g>
				<line class="cls-10" x1="402.71" y1="276.23" x2="408.71" y2="276.23" />
				<line class="cls-5" x1="420.22" y1="276.23" x2="506.53" y2="276.23" />
				<line class="cls-10" x1="512.29" y1="276.23" x2="518.29" y2="276.23" />
			</g>
			<line class="cls-1" x1="497.35" y1="249.26" x2="501.23" y2="304.02" />
			<g>
				<path class="cls-17"
					d="M418.81,314.14v8.25h-8.83v-8.25h8.83M420.81,312.14h-12.83v12.25h12.83v-12.25h0Z" />
				<path class="cls-17"
					d="M418.81,316.82v5.58h-5.84l5.84-5.58M420.81,312.14l-12.83,12.25h12.83v-12.25h0Z" />
				<path class="cls-17"
					d="M418.81,314.14v3.29l-5.16,4.98h-3.68v-3.03l5.25-5.25h3.59M420.81,312.14h-6.42l-6.42,6.42v5.85h6.49l6.35-6.14v-6.14h0Z" />
			</g>
			<polyline class="cls-13" points="462.71 257.76 484.02 257.76 493.06 266.79" />
			<polyline class="cls-13" points="475.88 310.6 448.09 310.6 436 287.15" />
			<polygon class="cls-12"
				points="399.81 326.96 386.2 293.49 377.67 296.96 394.76 338.95 451.92 315.7 448.45 307.17 399.81 326.96" />
		</g>
		<g>
			<g>
				<rect x="474.2" y="416.46" width="80.29" height="50.69" />
				<path class="cls-25"
					d="M553.48,417.45v48.69h-78.29v-48.69h78.29M555.48,415.45h-82.29v52.69h82.29v-52.69h0Z" />
			</g>
			<g>
				<polygon class="cls-22"
					points="462.37 486.46 473.74 469.15 554.94 469.15 566.31 486.46 462.37 486.46" />
				<path class="cls-25"
					d="M554.4,470.15l10.05,15.31h-100.23l10.05-15.31h80.13M555.48,468.15h-82.29l-12.68,19.31h107.64l-12.68-19.31h0Z" />
			</g>
			<rect class="cls-24" x="527.8" y="412.55" width="33.16" height="31.67"
				transform="translate(-73.15 114.5) rotate(-11.26)" />
			<text class="cls-19" transform="translate(530.43 429.43) rotate(-12.31)">
				<tspan x="0" y="0">This is a</tspan>
				<tspan x="0" y="10">server!</tspan>
			</text>
			<rect class="cls-27" x="496.83" y="407.32" width="33.16" height="31.67"
				transform="translate(63.72 -67.18) rotate(7.98)" />
			<text class="cls-20" transform="translate(500.43 413.46) rotate(7.98)">
				<tspan x="0" y="0">DO NOT</tspan>
				<tspan x="0" y="11.07">TURN</tspan>
				<tspan x="0" y="22.14" xml:space="preserve"> OFF!</tspan>
			</text>
		</g>
	</g>
	<g>
		<g>
			<rect class="cls-3" x="297.34" y="344.21" width="9.61" height="73.08"
				transform="translate(313.28 -105.19) rotate(39.75)" />
			<path class="cls-2"
				d="M326.23,341.87h6.37c.9,0,1.64.73,1.64,1.64v10.57h-9.64v-10.57c0-.9.73-1.64,1.64-1.64Z"
				transform="translate(298.63 -130.2) rotate(39.75)" />
			<rect class="cls-6" x="321.77" y="349.69" width="9.61" height="3.35"
				transform="translate(300.14 -127.6) rotate(39.75)" />
			<polygon class="cls-14" points="269.27 420.28 282.47 411.92 275.08 405.78 269.27 420.28" />
			<path class="cls-26" d="M273.85,417.38l-4.57,2.9,2.02-5.03c.5.21.99.51,1.43.88s.81.78,1.12,1.25Z" />
			<rect class="cls-16" x="302.83" y="346.2" width="3.4" height="73.08"
				transform="translate(315.1 -106.25) rotate(39.75)" />
		</g>
		<g>
			<g>
				<path class="cls-21"
					d="M243.43,390.41c-14.14,0-24.54-12.34-29.48-19.7-7.64-11.38-12.38-25.68-12.38-37.34,0-23.08,18.78-41.86,41.86-41.86s41.86,18.78,41.86,41.86c0,11.66-4.75,25.96-12.38,37.34-4.94,7.36-15.34,19.7-29.48,19.7Z" />
				<path class="cls-26"
					d="M243.43,292.5c22.53,0,40.86,18.33,40.86,40.86,0,11.47-4.68,25.56-12.21,36.78-4.83,7.19-14.97,19.26-28.65,19.26s-23.82-12.07-28.65-19.26c-7.53-11.22-12.21-25.31-12.21-36.78,0-22.53,18.33-40.86,40.86-40.86M243.43,290.5c-23.67,0-42.86,19.19-42.86,42.86s19.19,58.04,42.86,58.04,42.86-34.37,42.86-58.04-19.19-42.86-42.86-42.86h0Z" />
			</g>
			<g>
				<path class="cls-21"
					d="M322.87,559.96c-44,0-80.55-33.69-84.38-77.19,12.18,12.04,28.76,18.9,45.93,18.9,36,0,65.29-29.29,65.29-65.29,0-17.16-6.52-33.19-18.42-45.43,43.01,4.25,76.31,40.76,76.31,84.29,0,46.72-38.01,84.72-84.72,84.72Z" />
				<path class="cls-26"
					d="M333.87,392.26c19.1,2.51,36.7,11.5,50.03,25.68,14.64,15.57,22.69,35.92,22.69,57.3,0,46.17-37.56,83.72-83.72,83.72-42.58,0-78.1-31.92-83.11-73.6,12.15,11.06,28.14,17.31,44.65,17.31,36.55,0,66.29-29.74,66.29-66.29,0-16.5-5.94-31.97-16.83-44.13M328.62,389.73c12.36,11.72,20.08,28.28,20.08,46.65,0,35.51-28.78,64.29-64.29,64.29-18.62,0-35.38-7.92-47.12-20.57,2.52,45.08,39.87,80.86,85.58,80.86s85.72-38.38,85.72-85.72-35.31-82.55-79.97-85.51h0Z" />
			</g>
			<circle class="cls-26" cx="242.76" cy="380.69" r="10.72" />
			<ellipse class="cls-26" cx="230.04" cy="344.08" rx="2.68" ry="5.36" />
			<g>
				<path class="cls-21"
					d="M243.43,564.42c-47.22,0-47.22-17.58-47.22-49.51,0-14.74,4.83-44.07,14.07-71.61,10.25-30.54,22.02-47.37,33.15-47.37s22.9,16.82,33.15,47.37c9.24,27.54,14.07,56.87,14.07,71.61v.64c0,15.57,0,27.87-5.84,36.15-6.21,8.79-18.97,12.72-41.38,12.72Z" />
				<path class="cls-26"
					d="M243.43,396.94c10.51,0,22.25,17.02,32.2,46.68,9.2,27.44,14.02,56.63,14.02,71.29v.64c0,15.39,0,27.55-5.66,35.57-6,8.5-18.51,12.29-40.56,12.29s-34.55-3.84-40.55-12.46c-5.67-8.13-5.67-20.45-5.67-36.05,0-14.66,4.82-43.85,14.02-71.29,9.95-29.67,21.69-46.68,32.2-46.68M243.43,394.94c-26.63,0-48.22,88.14-48.22,119.97s0,50.51,48.22,50.51,48.22-18.67,48.22-50.51-21.59-119.97-48.22-119.97h0Z" />
			</g>
			<ellipse class="cls-26" cx="255.49" cy="344.08" rx="2.68" ry="5.36" />
			<g>
				<path class="cls-21"
					d="M196.63,318.09c-3.58-15.86-1.01-39.82,2.24-52.8,1.13-4.53,2.55-6.93,4.09-6.93,3.27,0,8.33,8.65,13.22,17.01,2.54,4.34,5.16,8.81,7.86,12.75-13.03,5.59-23.03,16.57-27.41,29.97Z" />
				<path class="cls-26"
					d="M202.96,257.36v2c2.69,0,8.28,9.54,12.36,16.51,2.34,3.99,4.74,8.1,7.22,11.82-11.65,5.33-20.8,14.93-25.61,26.68-2.51-15.54-.08-36.88,2.9-48.84,1.22-4.87,2.54-6.17,3.12-6.17v-2M202.96,257.36c-1.98,0-3.7,2.22-5.06,7.69-3.34,13.38-6.39,40.53-1.3,56.79,3.74-15.2,14.67-27.57,28.97-33.27-8.69-12.29-16.81-31.21-22.61-31.21h0Z" />
			</g>
			<g>
				<path class="cls-21"
					d="M289.8,318.09c-4.38-13.4-14.38-24.38-27.41-29.97,2.7-3.94,5.32-8.42,7.86-12.75,4.89-8.36,9.95-17.01,13.22-17.01,1.54,0,2.96,2.4,4.09,6.93,3.24,12.97,5.82,36.94,2.24,52.8Z" />
				<path class="cls-26"
					d="M283.46,259.36c.59,0,1.91,1.3,3.12,6.17,2.99,11.95,5.41,33.3,2.9,48.84-4.81-11.75-13.96-21.35-25.61-26.68,2.48-3.72,4.89-7.82,7.22-11.82,4.08-6.97,9.66-16.51,12.36-16.51M283.46,257.36c-5.79,0-13.92,18.92-22.61,31.21,14.3,5.71,25.23,18.07,28.97,33.27,5.09-16.26,2.05-43.41-1.3-56.79-1.37-5.47-3.08-7.69-5.06-7.69h0Z" />
			</g>
			<g>
				<path class="cls-17"
					d="M348.4,449.4c.86-4.27,1.3-8.64,1.3-13.01,0-17.16-6.52-33.19-18.42-45.43,29.05,2.87,54.76,20.67,67.69,47.02l-22.45,25.34-28.12-13.92Z" />
				<path class="cls-26"
					d="M333.87,392.26c27.38,3.61,51.44,20.66,63.91,45.56l-21.5,24.27-26.75-13.24c.78-4.1,1.17-8.28,1.17-12.46,0-16.5-5.94-31.97-16.83-44.13M328.62,389.73c12.36,11.72,20.08,28.28,20.08,46.65,0,4.66-.5,9.19-1.43,13.57l29.49,14.6,23.4-26.41c-13.05-27.12-39.96-46.32-71.54-48.41h0Z" />
			</g>
			<g>
				<path class="cls-17"
					d="M348.4,449.4c.86-4.27,1.3-8.64,1.3-13.01,0-17.16-6.52-33.19-18.42-45.43,29.05,2.87,54.76,20.67,67.69,47.02l-22.45,25.34-28.12-13.92Z" />
				<path class="cls-26"
					d="M333.87,392.26c27.38,3.61,51.44,20.66,63.91,45.56l-21.5,24.27-26.75-13.24c.78-4.1,1.17-8.28,1.17-12.46,0-16.5-5.94-31.97-16.83-44.13M328.62,389.73c12.36,11.72,20.08,28.28,20.08,46.65,0,4.66-.5,9.19-1.43,13.57l29.49,14.6,23.4-26.41c-13.05-27.12-39.96-46.32-71.54-48.41h0Z" />
			</g>
		</g>
		<g>
			<g>
				<polygon class="cls-23"
					points="181.74 471.58 157.15 381.67 173.76 381.67 199.96 471.58 181.74 471.58" />
				<path class="cls-26"
					d="M173.01,382.67l25.62,87.91h-16.13l-24.04-87.91h14.55M174.51,380.67h-18.67l25.14,91.91h20.32l-26.79-91.91h0Z" />
			</g>
			<g>
				<polygon class="cls-23" points="286.9 473.43 313.11 381.67 327.78 381.67 301.43 473.43 286.9 473.43" />
				<path class="cls-26"
					d="M326.45,382.67l-25.77,89.76h-12.46l25.65-89.76h12.58M329.1,380.67h-16.75l-26.79,93.76h16.62l26.92-93.76h0Z" />
			</g>
			<path class="cls-11"
				d="M310.47,475.84c0,13.65-133.94,13.65-133.94,0l-26.79-93.76c0,22.89,187.52,22.89,187.52,0l-26.79,93.76Z" />
			<g>
				<path class="cls-23"
					d="M161.46,388.82c-6.65,0-12.05-3.66-12.05-8.16s5.41-8.15,12.05-8.15,12.05,3.66,12.05,8.15-5.41,8.16-12.05,8.16Z" />
				<path class="cls-26"
					d="M161.46,373.52c5.99,0,11.05,3.28,11.05,7.15s-5.06,7.15-11.05,7.15-11.05-3.28-11.05-7.15,5.06-7.15,11.05-7.15M161.46,371.52c-7.21,0-13.05,4.1-13.05,9.15s5.84,9.15,13.05,9.15,13.05-4.1,13.05-9.15-5.84-9.15-13.05-9.15h0Z" />
			</g>
			<g>
				<path class="cls-23"
					d="M325.41,388.82c-6.65,0-12.05-3.66-12.05-8.16s5.41-8.15,12.05-8.15,12.05,3.66,12.05,8.15-5.41,8.16-12.05,8.16Z" />
				<path class="cls-26"
					d="M325.41,373.52c5.99,0,11.05,3.28,11.05,7.15s-5.06,7.15-11.05,7.15-11.05-3.28-11.05-7.15,5.06-7.15,11.05-7.15M325.41,371.52c-7.21,0-13.05,4.1-13.05,9.15s5.84,9.15,13.05,9.15,13.05-4.1,13.05-9.15-5.84-9.15-13.05-9.15h0Z" />
			</g>
		</g>
	</g>
</svg>
