<?xml version="1.0" encoding="UTF-8"?>
<svg id="databases-skills" xmlns="http://www.w3.org/2000/svg" xmlns:xlink="http://www.w3.org/1999/xlink"
	viewBox="0 0 600 600">
	<defs>
		<style>
			.cls-1,
			.cls-2 {
				fill: #8a6fe8;
			}

			.cls-3,
			.cls-4,
			.cls-5,
			.cls-6,
			.cls-7,
			.cls-8,
			.cls-9,
			.cls-10,
			.cls-11,
			.cls-12,
			.cls-13,
			.cls-14,
			.cls-15,
			.cls-16,
			.cls-2,
			.cls-17,
			.cls-18,
			.cls-19,
			.cls-20,
			.cls-21 {
				stroke-miterlimit: 10;
			}

			.cls-3,
			.cls-4,
			.cls-6,
			.cls-22,
			.cls-12,
			.cls-13,
			.cls-23,
			.cls-16,
			.cls-18 {
				fill: none;
			}

			.cls-3,
			.cls-10,
			.cls-24,
			.cls-11,
			.cls-12,
			.cls-25,
			.cls-15,
			.cls-16,
			.cls-26,
			.cls-18,
			.cls-27,
			.cls-20,
			.cls-21 {
				stroke: #000;
			}

			.cls-28 {
				fill: #39b54a;
			}

			.cls-4 {
				stroke-width: .36px;
			}

			.cls-4,
			.cls-6 {
				stroke: #fff;
			}

			.cls-5 {
				fill: #8f7ddd;
			}

			.cls-5,
			.cls-7,
			.cls-8,
			.cls-9,
			.cls-24,
			.cls-11,
			.cls-12,
			.cls-14,
			.cls-25,
			.cls-15,
			.cls-26,
			.cls-2,
			.cls-17,
			.cls-19,
			.cls-20,
			.cls-21 {
				stroke-width: 2px;
			}

			.cls-5,
			.cls-7,
			.cls-8,
			.cls-9,
			.cls-2,
			.cls-17,
			.cls-19 {
				stroke: #231f20;
			}

			.cls-29 {
				fill: #6c3;
			}

			.cls-6 {
				stroke-width: 1.03px;
			}

			.cls-7 {
				fill: #512bd4;
			}

			.cls-8,
			.cls-30,
			.cls-10,
			.cls-27 {
				fill: #fff;
			}

			.cls-11 {
				fill: transparent;
			}

			.cls-9 {
				fill: #522cd5;
			}

			.cls-22 {
				stroke-width: 4px;
			}

			.cls-22,
			.cls-24,
			.cls-13,
			.cls-25,
			.cls-23,
			.cls-16,
			.cls-26,
			.cls-31 {
				stroke-linecap: round;
			}

			.cls-22,
			.cls-24,
			.cls-25,
			.cls-23,
			.cls-26,
			.cls-31 {
				stroke-linejoin: round;
			}

			.cls-22,
			.cls-23,
			.cls-31 {
				stroke: #242424;
			}

			.cls-32 {
				fill: #69c;
			}

			.cls-24 {
				fill: #f66;
			}

			.cls-33,
			.cls-31 {
				fill: #ff7545;
			}

			.cls-34 {
				fill: #fc9;
			}

			.cls-35 {
				fill: #009245;
			}

			.cls-36 {
				fill: #369;
			}

			.cls-36,
			.cls-37,
			.cls-27 {
				fill-rule: evenodd;
			}

			.cls-38 {
				fill: #cff;
			}

			.cls-13 {
				stroke: #b3b3b3;
				stroke-width: 2.05px;
			}

			.cls-14 {
				fill: #c00;
				stroke: #600;
			}

			.cls-39 {
				opacity: .1;
			}

			.cls-39,
			.cls-40 {
				fill: #242424;
			}

			.cls-25 {
				fill: #600;
			}

			.cls-23 {
				stroke-width: 1.13px;
			}

			.cls-41,
			.cls-26 {
				fill: #c23734;
			}

			.cls-42 {
				fill: #00618a;
			}

			.cls-15 {
				fill: #33d5f9;
			}

			.cls-43 {
				fill: #e48e00;
			}

			.cls-44 {
				fill: #c96;
			}

			.cls-17 {
				fill: #d0c5f3;
			}

			.cls-18 {
				stroke-width: 3px;
			}

			.cls-45 {
				opacity: .28;
			}

			.cls-46 {
				fill: #f9f;
			}

			.cls-19 {
				fill: #a08be8;
			}

			.cls-47 {
				fill: #9c9;
			}

			.cls-48 {
				fill: url(#linear-gradient);
			}

			.cls-27 {
				stroke-width: .92px;
			}

			.cls-31 {
				stroke-width: 1.58px;
			}

			.cls-20 {
				fill: #39c;
			}

			.cls-49 {
				fill: #cfc;
			}

			.cls-21 {
				fill: #999;
			}

			.frame {
				stroke: #424242;
			}

			@media (prefers-color-scheme: dark) {
				.frame {
					stroke: #5c5c5c;
				}
			}
		</style>
		<linearGradient id="linear-gradient" x1="500.9" y1="-2008.03" x2="540.8" y2="-2034.73"
			gradientTransform="translate(0 -1512.31) scale(1 -1)" gradientUnits="userSpaceOnUse">
			<stop offset="0" stop-color="#522cd5" />
			<stop offset=".44" stop-color="#8a6fe8" />
		</linearGradient>
	</defs>
	<g class="cls-45">
		<g>
			<polyline class="cls-23 frame" points="427.66 418.94 427.66 402.17 497.98 402.17 497.98 418.94" />
			<polyline class="cls-23 frame" points="427.66 163.8 427.66 182.36 497.98 182.36 497.98 163.8" />
			<rect class="cls-23 frame" x="427.66" y="182.36" width="70.32" height="219.81" />
			<rect class="cls-23 frame" x="427.66" y="226.33" width="70.32" height="131.88" />
			<rect class="cls-23 frame" x="427.66" y="270.29" width="70.32" height="43.96" />
			<g>
				<rect class="cls-34" x="435.83" y="189.34" width="57.99" height="36.42" />
				<path class="cls-40"
					d="M493.25,189.91v35.29h-56.85v-35.29h56.85M494.39,188.77h-59.12v37.56h59.12v-37.56h0Z" />
			</g>
			<g>
				<rect class="cls-47" x="430.35" y="233.3" width="57.99" height="36.42" />
				<path class="cls-40"
					d="M487.77,233.87v35.29h-56.85v-35.29h56.85M488.91,232.73h-59.12v37.56h59.12v-37.56h0Z" />
			</g>
			<g>
				<rect class="cls-32" x="432.19" y="277.42" width="57.99" height="36.42" />
				<path class="cls-40"
					d="M489.61,277.99v35.29h-56.85v-35.29h56.85M490.74,276.86h-59.12v37.56h59.12v-37.56h0Z" />
			</g>
			<g>
				<rect class="cls-46" x="435.83" y="321.22" width="57.99" height="36.42" />
				<path class="cls-40"
					d="M493.25,321.79v35.29h-56.85v-35.29h56.85M494.39,320.65h-59.12v37.56h59.12v-37.56h0Z" />
			</g>
			<g>
				<rect class="cls-44" x="433.82" y="365.18" width="57.99" height="36.42" />
				<path class="cls-40"
					d="M491.24,365.75v35.29h-56.85v-35.29h56.85M492.38,364.62h-59.12v37.56h59.12v-37.56h0Z" />
			</g>
		</g>
		<g>
			<polyline class="cls-23 frame" points="364.74 418.94 364.74 402.17 294.42 402.17 294.42 418.94" />
			<polyline class="cls-23 frame" points="364.74 163.8 364.74 182.36 294.42 182.36 294.42 163.8" />
			<rect class="cls-23 frame" x="294.42" y="182.36" width="70.32" height="219.81"
				transform="translate(659.17 584.54) rotate(-180)" />
			<rect class="cls-23 frame" x="294.42" y="226.33" width="70.32" height="131.88"
				transform="translate(659.17 584.54) rotate(-180)" />
			<rect class="cls-23 frame" x="294.42" y="270.29" width="70.32" height="43.96"
				transform="translate(659.17 584.54) rotate(-180)" />
			<g>
				<rect class="cls-32" x="298.58" y="189.34" width="57.99" height="36.42" />
				<path class="cls-40"
					d="M356,189.91v35.29h-56.85v-35.29h56.85M357.14,188.77h-59.12v37.56h59.12v-37.56h0Z" />
			</g>
			<g>
				<rect class="cls-46" x="304.06" y="233.3" width="57.99" height="36.42" />
				<path class="cls-40"
					d="M361.48,233.87v35.29h-56.85v-35.29h56.85M362.62,232.73h-59.12v37.56h59.12v-37.56h0Z" />
			</g>
			<g>
				<rect class="cls-44" x="302.23" y="277.42" width="57.99" height="36.42" />
				<path class="cls-40"
					d="M359.65,277.99v35.29h-56.85v-35.29h56.85M360.78,276.86h-59.12v37.56h59.12v-37.56h0Z" />
			</g>
			<g>
				<rect class="cls-47" x="298.58" y="321.22" width="57.99" height="36.42" />
				<path class="cls-40"
					d="M356,321.79v35.29h-56.85v-35.29h56.85M357.14,320.65h-59.12v37.56h59.12v-37.56h0Z" />
			</g>
			<g>
				<rect class="cls-34" x="300.59" y="365.18" width="57.99" height="36.42" />
				<path class="cls-40"
					d="M358.01,365.75v35.29h-56.85v-35.29h56.85M359.14,364.62h-59.12v37.56h59.12v-37.56h0Z" />
			</g>
		</g>
	</g>
	<g>
		<path
			d="M544.85,565.61c-.23,0-.46-.02-.69-.05l-41.33-5.57c-2.96-.4-5.3-2.64-5.82-5.58l-6.41-35.88,2.79-.5,6.41,35.88c.31,1.72,1.68,3.04,3.41,3.27l41.33,5.57c.78.11,1.52-.17,2.04-.77.52-.59.69-1.37.48-2.12l-11.25-40.24c-.48-1.73-1.68-3.19-3.29-3.99l-7.45-3.73,1.27-2.53,7.45,3.73c2.32,1.16,4.05,3.26,4.75,5.76l11.25,40.24c.47,1.67.06,3.44-1.07,4.75-.98,1.13-2.39,1.76-3.86,1.76Z" />
		<path class="cls-15"
			d="M508.84,424.24c9.76-22.27,7.9-45.31-14.22-38.99-22.12,6.32-69.55,13.7-90.62,5.8-21.07-7.9-24.76,1.58-16.33,22.13,8.43,20.55,21.6,52.68,22.12,75.34.37,15.84,26.3,37.46,74.78,36.41,48.47-1.06,73.31-33.68,73.31-44.75s-1.36-17.23-21.77-2.87c-25.09,17.66-47.82-6.18-27.27-53.07Z" />
		<path class="cls-20"
			d="M561.51,483.66c4.05-10.29,1.59-26.75-23.69-9.37-25.29,17.39-49.52-3.16-28.98-50.05,9.76-22.27,7.9-45.31-14.22-38.99-22.12,6.32-69.55,13.7-90.62,5.8-1.79-.67-3.44-1.21-4.98-1.63-12.5-1.66-13.81,7.75-6.85,24.7,8.43,20.55,20.44,49.72,20.7,73.87.13,12.17,17.12,30.75,46.22,37.54,1.91.36,3.86.67,5.88.94.01,0,.02,0,.04,0,.98.13,1.98.25,2.99.36.06,0,.13.01.19.02.96.1,1.94.19,2.92.27.05,0,.1,0,.15.01.98.08,1.98.14,2.98.2.17,0,.33.02.5.02.94.05,1.89.09,2.86.12.07,0,.14,0,.21,0,.99.03,2,.04,3.01.05h.7c1.02,0,2.04,0,3.08-.03h.01c11.81-.26,22.61-2.86,32.2-6.81,1.78-.73,3.52-1.51,5.21-2.33.59-.28,1.17-.58,1.76-.87.6-.31,1.19-.61,1.78-.93,2.16-1.16,4.25-2.37,6.26-3.64,20.75-13.09,26.07-20.04,29.7-29.26Z" />
		<path class="cls-48"
			d="M543.58,518.15c-6.82-7.13-21.82-20.46-40.82-25.33l-2.89,11.28c17.23,4.42,30.13,16.62,35.39,22.31.44.47,5.11-3.29,8.32-8.25Z" />
		<path class="cls-5"
			d="M543.58,518.15c-6.82-7.13-21.82-20.46-40.82-25.33l-2.89,11.28c17.23,4.42,30.13,16.62,35.39,22.31.44.47,5.11-3.29,8.32-8.25Z" />
		<path class="cls-9"
			d="M535.19,526.33l6.56-6.48c2.81,1.41,6.36,14.02,41.35,10.7l13.14,4.82-27.82,27.41c-.25.24-1.77.22-2.7-.85l-30.53-35.6Z" />
		<path class="cls-5"
			d="M588.93,523.91c2-.4,3.47.3,4.73,1.77l4.4,5.19c.69.8.64,2.07-.12,2.81l-5.36,5.29c-.85.84-2.18.78-2.96-.13l-4.18-4.47c-1.45-1.69-2.59-2.55-5.25-2.05-15.76,2.96-31.77,1.67-42.26-8.69l5.61-5.53c5.73,4.96,19.18,11.02,45.4,5.81Z" />
		<path class="cls-5"
			d="M597.95,533.68c.75-.74.8-2.01.12-2.81l-4.4-5.19c-.7-.82-1.47-1.39-2.36-1.67l-8.48,8.36c1.01.31,1.76,1.01,2.62,2l4.18,4.47c.78.91,2.11.97,2.96.13l5.36-5.29Z" />
		<path class="cls-5"
			d="M531.68,530.06l-11.39-3c2.56-9.71,4.18-16.28,4.91-21.19.78-5.26.19-6.71.07-6.93-.25-.16-1.7-.84-7.54-.34-15.79,1.36-19.04,2.08-19.17,2.11.16-.04.22-.06.22-.06l-3.32-11.3c1.99-.58,9.74-1.49,21.26-2.49,6.68-.58,13.43-.43,17.56,4.48,5.55,6.6,3.07,17.22-2.59,38.72Z" />
		<path class="cls-9"
			d="M521.73,521.57l8.98,2.51-5.22,49.77-17.82-4.98c-1.36-.38-2.07-1.76-1.6-3.1l15.66-44.2Z" />
		<path class="cls-5"
			d="M543.11,565.64c1.19,1.65.72,3.18.07,5l-1.99,5.57c-.36,1-1.48,1.58-2.5,1.3l-22.42-6.27c-1.15-.32-1.76-1.5-1.36-2.63l1.86-5.83c.75-2.1-.31-3.8-.56-6.5-.5-5.35,3.47-22.08,7.75-34.08l9.14,2.56c-1.47,7.43-1.51,24.85,10,40.88Z" />
		<path class="cls-5"
			d="M516.77,562.77l-1.86,5.83c-.4,1.13.2,2.31,1.36,2.63l22.43,6.27c1.02.28,2.14-.3,2.5-1.3l1.99-5.57c.48-1.34.85-2.53.54-3.72l-26.93-7.54c.25,1.17.4,2.22-.02,3.39Z" />
		<path class="cls-2"
			d="M529.94,455.24l-7.89-7.02c6.5-7.3,8.97-14.55,6.98-20.4-2.36-6.94-10.96-12.15-24.2-14.67l1.97-10.38c21.97,4.17,29.65,14.07,32.23,21.64,3.27,9.6.04,20.55-9.09,30.82Z" />
		<path class="cls-1"
			d="M500.46,426.03l9.46-11.33c1.69-2.02,1.42-5.02-.6-6.71-2.02-1.69-5.02-1.42-6.71.6l-9.46,11.33c-1.69,2.02-1.42,5.02.6,6.71,2.02,1.69,5.02,1.42,6.71-.6Z" />
		<path class="cls-2"
			d="M498.9,399.69l-13.69.03c-2.65.02-4.77,2.17-4.76,4.82.02,2.64,2.17,4.77,4.82,4.76h10.18s3.45-9.61,3.45-9.61Z" />
		<path class="cls-2"
			d="M503.79,397.49l-9.04-4.09c-2.42-1.07-5.24.02-6.32,2.43-1.07,2.42.02,5.24,2.43,6.32l9.27,4.19,3.66-8.86Z" />
		<path class="cls-2"
			d="M446.35,442.47l-14.74.78c-2.62.14-4.87-1.88-5.01-4.51-.14-2.62,1.88-4.87,4.51-5.01l14.74-.78c2.62-.14,4.87,1.88,5.01,4.51.14,2.63-1.88,4.87-4.51,5.01Z" />
		<path class="cls-2"
			d="M429.85,430l10.51-8.79c2.03-1.7,5.05-1.44,6.74.59,1.7,2.03,1.44,5.05-.59,6.74l-10.7,8.95-5.96-7.5Z" />
		<path class="cls-2"
			d="M426.2,425.42l8.23-10.93c1.6-2.1,4.6-2.52,6.71-.92,2.1,1.6,2.52,4.6.92,6.71l-6.09,8.15-9.76-3.01Z" />
		<path class="cls-2"
			d="M421.51,428.02l2.15-9.69c.59-2.58,3.16-4.19,5.74-3.6,2.58.59,4.19,3.16,3.6,5.74l-2.21,9.93-9.28-2.39Z" />
		<path class="cls-2"
			d="M500.37,405.34l-13.33,3.14c-2.58.6-4.18,3.18-3.57,5.75.6,2.58,3.18,4.18,5.75,3.58l13.58-3.19-2.42-9.27Z" />
		<path class="cls-9"
			d="M502.94,417.15c5.54,0,10.02-4.49,10.02-10.02s-4.49-10.02-10.02-10.02-10.02,4.49-10.02,10.02,4.49,10.02,10.02,10.02Z" />
		<path class="cls-9"
			d="M429.73,443.14c5.54,0,10.02-4.49,10.02-10.02s-4.49-10.02-10.02-10.02-10.02,4.49-10.02,10.02,4.49,10.02,10.02,10.02Z" />
		<path class="cls-5"
			d="M530.02,453.68c-2.81-13.66-9.6-22.32-9.6-22.32l2.85-1.4.04-.09c-15.01-20.2-42.76-27.45-66.15-15.94-26.35,12.98-37.2,44.85-24.22,71.2,12.97,26.35,44.85,37.2,71.2,24.23,20.79-10.24,31.93-32.24,29.33-54.02-.2-.88-.91-2.29-3.46-1.66Z" />
		<path class="cls-8"
			d="M530.02,453.68c-2.77-13.49-9.43-22.1-9.59-22.31l-49.5,24.37s-3.27,1.22-1.87,4.07c1.4,2.85,5.48,10.84,9.86,19.74.9,1.83,2.84,1.97,4.01,1.39,0,0,47.36-25.28,47.09-27.27Z" />
		<path class="cls-19"
			d="M500.16,468.43s4.65-9.77,5.58-11.62c.94-1.84,2.21-2.55,4.15-2.04,1.94.5,12.5,2.72,12.5,2.72l-22.23,10.94Z" />
		<path class="cls-7"
			d="M533.56,455.99s.07-3.19-3.53-2.3c0-.02-48.69,23.92-48.69,23.92-1.13.56-2.92.6-3.59-.43.39.78.78,1.58,1.18,2.38.82,1.66,2.48,1.93,3.67,1.54.12-.04.24-.08.35-.14l3.33-1.64,47.29-23.33Z" />
		<path class="cls-17"
			d="M533.69,465.56l-82.28,40.51c3.39,2.23,7.02,4.05,10.8,5.45l69.21-34.08c1.19-3.85,1.96-7.84,2.26-11.88Z" />
		<path class="cls-5" d="M460.91,408.56l-9.12,4.74-3.58-10.03,6.55-3.4,6.15,8.69Z" />
		<path class="cls-17"
			d="M448.66,404.26c4.04,0,7.32-3.28,7.32-7.32s-3.28-7.32-7.32-7.32-7.32,3.28-7.32,7.32,3.28,7.32,7.32,7.32Z" />
		<path class="cls-9"
			d="M467.37,412.47c.41-.22.56-.74.3-1.13-2.73-4.08-8.15-5.53-12.61-3.22-4.46,2.32-6.37,7.59-4.61,12.17.17.43.68.62,1.09.4l15.83-8.23Z" />
		<path
			d="M525.45,442.4l-12.48,6.2c1.17,1.77,4.53,2.1,7.85.69,3.55-1.51,5.7-4.45,4.81-6.57-.05-.11-.11-.22-.18-.32Z" />
		<path
			d="M498.63,455.73l-12.45,6.19c1.27,1.62,4.51,1.89,7.72.52,3.55-1.51,5.7-4.45,4.81-6.57-.02-.05-.05-.09-.08-.14Z" />
		<path class="cls-7" d="M513.76,489.36l15.59-7.74-6.85-13.79-15.59,7.74,6.85,13.79Z" />
		<path class="cls-30"
			d="M513.93,482.86c-.11.05-.21.06-.32.03-.11-.04-.19-.1-.24-.2-.05-.1-.05-.2-.02-.31.04-.11.11-.19.21-.24.11-.05.21-.06.32-.02.11.03.19.1.24.2.05.1.05.2.01.31-.04.1-.11.18-.22.23Z" />
		<path class="cls-30"
			d="M518.05,480.75l-.67.33-3.16-1.93c-.08-.05-.15-.11-.22-.17h-.02c.05.08.15.26.28.52l1.23,2.5-.6.29-1.88-3.82.72-.35,3.07,1.89c.13.08.22.13.26.17h.01c-.07-.1-.16-.26-.28-.5l-1.21-2.46.59-.29,1.88,3.81Z" />
		<path class="cls-30"
			d="M520.96,479.32l-2.09,1.03-1.88-3.82,2.01-.99.26.54-1.39.69.53,1.08,1.28-.63.26.54-1.28.63.56,1.13,1.47-.73.26.54Z" />
		<path class="cls-30" d="M522.31,474.57l-1.07.53,1.62,3.28-.62.31-1.62-3.28-1.07.53-.26-.54,2.75-1.36.26.53Z" />
		<path class="cls-5"
			d="M449.45,484.04c-11.74-.63-21.07-2.73-27.74-6.22-6.51-3.4-10.64-8.13-12.25-14.02-3.7-13.52,7.44-28.38,16.14-34.18l5.63,8.45c-6.3,4.2-14.1,15.27-11.97,23.05,1.99,7.27,12.91,11.81,30.75,12.77l-.55,10.15Z" />
		<path class="cls-9"
			d="M451.32,489.28c5.39,0,9.77-4.37,9.77-9.77s-4.37-9.77-9.77-9.77-9.77,4.37-9.77,9.77,4.37,9.77,9.77,9.77Z" />
		<path class="cls-15"
			d="M523.2,515.61c-.49-.37-1.04-.76-1.63-1.18-21.76,3.59-43.15-8-57.39-26.17-18.57-23.71-25.68-22.13-30.42-4.35-3.66,13.73-20.85,9.97-21.07-.75-.09-4.21-2.82-.32-3.52-2.46.34,2.7.56,5.32.62,7.82.37,15.84,26.34,40.04,74.81,38.99,14.19-.31,26.97-3.91,37.94-9.18.23-.95.45-1.85.66-2.72Z" />
		<path
			d="M522.71,517.65c-20.49,7.85-42.26,4.24-53.85,1.58-2.05-.47-4.19-.01-5.86,1.26-1.68,1.27-2.7,3.21-2.8,5.32l-2.26,47c-.06,1.18-.62,2.28-1.54,3.02-.92.74-2.12,1.05-3.28.85l-40.35-6.96c-1.04-.18-1.93-.75-2.52-1.62-.59-.87-.79-1.91-.58-2.94l10.19-47.97c.61-2.86,3.1-4.9,6-4.96-.96-.71-1.99-1.51-2.95-2.3-2.89,1.04-5.15,3.51-5.82,6.67l-10.18,47.96c-.38,1.79-.02,3.6,1,5.12,1.02,1.51,2.58,2.52,4.38,2.83l40.35,6.96c.39.07.79.1,1.18.1,1.57,0,3.11-.53,4.36-1.53,1.56-1.25,2.5-3.1,2.6-5.09l2.26-47c.06-1.27.67-2.43,1.68-3.2,1.01-.76,2.29-1.04,3.52-.75,12.1,2.78,33.33,4.86,54.42-4.09.02-.08.04-.17.06-.25Z" />
		<path class="cls-9"
			d="M438.8,428.86c-3.4,4.32-6.07,9.13-7.96,14.22-.36.04-.74.07-1.11.07-5.53,0-10.01-4.5-10.01-10.03s4.48-10.03,10.01-10.03c4.01,0,7.48,2.36,9.07,5.77Z" />
	</g>
	<g>
		<rect class="cls-26" x="204.15" y="520.93" width="121.63" height="22.72" />
		<rect class="cls-25" x="276.05" y="543.65" width="44.9" height="22.72" />
		<rect class="cls-21" x="211.28" y="543.65" width="64.77" height="15.59" />
		<rect class="cls-24" x="204.15" y="509.29" width="121.63" height="11.64" />
		<line class="cls-3" x1="214.69" y1="551.44" x2="273.09" y2="551.44" />
		<line class="cls-3" x1="214.69" y1="547.55" x2="273.09" y2="547.55" />
		<line class="cls-3" x1="214.69" y1="555.34" x2="273.09" y2="555.34" />
		<rect class="cls-21" x="219.41" y="524.55" width="91.12" height="15.48" />
		<circle cx="278.55" cy="532.4" r="4.09" />
		<circle cx="289.21" cy="532.29" r="4.09" />
		<rect class="cls-10" x="298.5" y="527.81" width="8.95" height="8.95" />
		<line class="cls-16" x1="302.98" y1="536.76" x2="306.15" y2="531.24" />
		<path class="cls-18"
			d="M204.15,501.19h121.63v58.42c0,8.2-6.66,14.86-14.86,14.86h-91.91c-8.2,0-14.86-6.66-14.86-14.86v-58.42h0Z" />
		<rect class="cls-29" x="222.77" y="527.81" width="6.7" height="2.81" />
		<rect class="cls-29" x="232.47" y="527.81" width="6.7" height="2.81" />
		<rect class="cls-29" x="242.17" y="527.81" width="6.7" height="2.81" />
		<rect class="cls-29" x="251.87" y="527.81" width="6.7" height="2.81" />
		<rect x="217.3" y="503.89" width="20.64" height="5.4" />
		<g>
			<path class="cls-30"
				d="M295.21,552.45v-.98c.09.08.19.15.32.22s.25.12.39.16.27.08.41.1c.14.02.26.04.38.04.4,0,.7-.07.9-.2.2-.13.3-.33.3-.58,0-.14-.03-.25-.1-.36s-.16-.19-.28-.28-.26-.16-.42-.24-.33-.16-.51-.24c-.2-.1-.38-.21-.55-.32-.17-.11-.32-.23-.44-.36-.12-.13-.22-.28-.29-.44-.07-.16-.11-.36-.11-.58,0-.27.06-.51.18-.71.12-.2.28-.36.48-.49.2-.13.43-.23.68-.29.25-.06.51-.09.78-.09.6,0,1.04.07,1.32.21v.94c-.33-.24-.75-.35-1.26-.35-.14,0-.28.01-.42.04-.14.03-.27.07-.38.13s-.2.14-.27.24-.1.21-.1.35c0,.13.03.24.08.33s.13.18.24.26c.1.08.23.15.38.23.15.07.32.15.52.24.2.1.39.21.57.33.18.12.33.24.47.38.14.14.24.29.32.46s.12.36.12.58c0,.29-.06.54-.18.74s-.28.36-.48.49c-.2.13-.43.22-.69.27-.26.06-.53.08-.82.08-.1,0-.21,0-.36-.02s-.29-.04-.43-.06-.29-.06-.42-.1c-.13-.04-.24-.08-.32-.14Z" />
			<path class="cls-30"
				d="M302.34,552.78c-.42,0-.79-.07-1.13-.21-.34-.14-.63-.34-.86-.6-.24-.26-.42-.56-.55-.92-.13-.36-.2-.75-.2-1.18,0-.46.07-.88.2-1.25s.32-.7.57-.96.54-.47.89-.62c.35-.14.74-.22,1.18-.22.4,0,.77.07,1.1.21.33.14.62.34.85.6.24.26.42.56.55.92s.2.75.2,1.18c0,.57-.1,1.07-.29,1.49-.19.43-.46.77-.8,1.03l1.67,1.21h-1.46l-1.03-.8c-.14.04-.28.07-.43.09s-.3.03-.46.03ZM302.38,547.66c-.26,0-.5.05-.72.16-.22.1-.41.25-.56.44-.16.19-.28.42-.37.68s-.13.55-.13.88.04.61.13.87c.08.26.2.49.36.67.15.19.34.33.55.43s.45.16.71.16c.28,0,.52-.05.74-.15.22-.1.41-.23.56-.42.15-.18.27-.4.36-.67s.12-.56.12-.9-.04-.65-.12-.92c-.08-.27-.2-.49-.35-.68s-.33-.32-.55-.42c-.22-.1-.46-.14-.73-.14Z" />
			<path class="cls-30" d="M309.38,552.68h-3.19v-5.76h.96v4.96h2.24v.81Z" />
			<path class="cls-30"
				d="M295.21,562.33v-.98c.09.08.19.15.32.22s.25.12.39.16.27.08.41.1c.14.02.26.04.38.04.4,0,.7-.07.9-.2.2-.13.3-.33.3-.58,0-.14-.03-.25-.1-.36s-.16-.19-.28-.28-.26-.16-.42-.24-.33-.16-.51-.24c-.2-.1-.38-.21-.55-.32-.17-.11-.32-.23-.44-.36-.12-.13-.22-.28-.29-.44-.07-.16-.11-.36-.11-.58,0-.27.06-.51.18-.71.12-.2.28-.36.48-.49.2-.13.43-.23.68-.29.25-.06.51-.09.78-.09.6,0,1.04.07,1.32.21v.94c-.33-.24-.75-.35-1.26-.35-.14,0-.28.01-.42.04-.14.03-.27.07-.38.13s-.2.14-.27.24-.1.21-.1.35c0,.13.03.24.08.33s.13.18.24.26c.1.08.23.15.38.23.15.07.32.15.52.24.2.1.39.21.57.33.18.12.33.24.47.38.14.14.24.29.32.46s.12.36.12.58c0,.29-.06.54-.18.74s-.28.36-.48.49c-.2.13-.43.22-.69.27-.26.06-.53.08-.82.08-.1,0-.21,0-.36-.02s-.29-.04-.43-.06-.29-.06-.42-.1c-.13-.04-.24-.08-.32-.14Z" />
			<path class="cls-30"
				d="M303.34,560.76h-2.81c.01.38.13.67.35.88.22.21.53.31.92.31.44,0,.84-.13,1.21-.39v.75c-.38.24-.87.35-1.49.35s-1.08-.19-1.42-.56c-.34-.37-.52-.9-.52-1.58,0-.64.19-1.16.57-1.57.38-.4.85-.6,1.41-.6s1,.18,1.31.54c.31.36.46.87.46,1.51v.36ZM302.44,560.1c0-.33-.08-.59-.24-.78s-.37-.28-.64-.28-.5.1-.68.29c-.19.2-.3.45-.34.77h1.91Z" />
			<path class="cls-30"
				d="M306.62,559.34c-.11-.09-.27-.13-.49-.13-.28,0-.51.12-.69.37-.19.25-.28.59-.28,1.02v1.97h-.93v-4.12h.93v.85h.02c.09-.29.23-.51.42-.68.19-.16.4-.24.63-.24.17,0,.3.03.39.08v.88Z" />
			<path class="cls-30"
				d="M311.15,558.45l-1.59,4.12h-1.01l-1.52-4.12h1.01l.91,2.88c.07.21.11.4.13.55h.01c.02-.2.06-.38.11-.54l.96-2.89h.98Z" />
			<path class="cls-30"
				d="M315.21,560.76h-2.81c.01.38.13.67.35.88.22.21.53.31.92.31.44,0,.84-.13,1.21-.39v.75c-.38.24-.87.35-1.49.35s-1.08-.19-1.42-.56c-.34-.37-.52-.9-.52-1.58,0-.64.19-1.16.57-1.57.38-.4.85-.6,1.41-.6s1,.18,1.31.54c.31.36.46.87.46,1.51v.36ZM314.3,560.1c0-.33-.08-.59-.24-.78s-.37-.28-.64-.28-.5.1-.68.29c-.19.2-.3.45-.34.77h1.91Z" />
			<path class="cls-30"
				d="M318.48,559.34c-.11-.09-.27-.13-.49-.13-.28,0-.51.12-.69.37-.19.25-.28.59-.28,1.02v1.97h-.93v-4.12h.93v.85h.02c.09-.29.23-.51.42-.68.19-.16.4-.24.63-.24.17,0,.3.03.39.08v.88Z" />
		</g>
		<g>
			<path class="cls-4"
				d="M281.16,548.72c1.15.67,2.47.71,6.4,1.45,4.25.8,5.92,1.44,5.92,2.52,0,1.29-9.48,1.71-13.93,5.77-4.43,4.04,6.2,4.72,6.2,4.72,0,0,2.53-4.31,1.57-8.49" />
			<path class="cls-4"
				d="M278.82,559.25c2.43-2.31,4.48-4.21,4.75-6.25.28-2.04-2.4-3.25-2.41-4.28s3.38-1.9,3.38-1.9c0,0,.44,2.36,1.26,3.04" />
			<ellipse class="cls-30" cx="285.8" cy="551.38" rx=".31" ry=".47" />
			<ellipse class="cls-30" cx="292.8" cy="552.62" rx=".67" ry=".76" />
		</g>
	</g>
	<path class="cls-38"
		d="M416.6,509.73c-13.19,2.04-20.32,19.48-33.85,20.06,0,0,15.8,4.66,21.84-7.41,3.31-6.6,12.01-12.65,12.01-12.65Z" />
	<path class="cls-38"
		d="M435.05,516.9c-13.19,2.04-20.32,19.48-33.85,20.06,0,0,15.8,4.66,21.84-7.41,3.31-6.6,12.01-12.65,12.01-12.65Z" />
	<path class="cls-38"
		d="M425.97,538.29c-13.19,2.04-20.32,19.48-33.85,20.06,0,0,15.8,4.66,21.84-7.41,3.31-6.6,12.01-12.65,12.01-12.65Z" />
	<path
		d="M277.71,531.53c.56,5.43-2.05,10.28-4.58,14.89-1.24,2.25-2.46,4.51-3.42,6.9-1.03,2.57-1.6,5.25-1.93,8-.6,5.05-.67,10.63,1.2,15.44,1.6,4.12,4.61,7.46,8.4,9.7,8.8,5.19,19.53,3.5,28.28-.88,2.29-1.15,4.48-2.51,6.81-3.58,2.48-1.14,5.07-1.67,7.79-1.62,5.62.1,11.23,1.71,16.71,2.8s11.7,2.59,16.65-.68c4.14-2.74,6.23-7.49,7.98-11.94.71-1.8-2.19-2.58-2.89-.8-1.4,3.57-3.09,7.63-6.31,9.95-4.11,2.96-9.58,1.57-14.15.67-5.11-1-10.21-2.3-15.4-2.84-2.54-.27-5.13-.25-7.63.33s-4.65,1.66-6.81,2.82c-4.36,2.35-8.63,4.55-13.54,5.52-4.45.88-9.12.67-13.35-1.03-3.71-1.5-7.03-4.16-8.94-7.71-2.32-4.31-2.34-9.52-1.98-14.29.22-2.96.77-5.88,1.84-8.65.99-2.57,2.39-4.97,3.71-7.37,2.62-4.79,5.14-10.01,4.56-15.62-.2-1.9-3.2-1.92-3,0h0Z" />
	<g>
		<path class="cls-12"
			d="M380.22,581.98h-27.07c-5.34,0-9.67-4.33-9.67-9.67v-31.06l26.36,2.1,13.4,34.22c.83,2.13-.74,4.42-3.02,4.42Z" />
		<path class="cls-7"
			d="M366.12,524.31h6.47v56.74h-6.47c-10.04,0-18.19-8.15-18.19-18.19v-20.35c0-10.04,8.15-18.19,18.19-18.19Z"
			transform="translate(-176.69 169.37) rotate(-21.38)" />
		<g>
			<rect class="cls-11" x="371.32" y="510.3" width="12.15" height="71.34" rx="6.08" ry="6.08"
				transform="translate(-173.06 175.15) rotate(-21.38)" />
			<line class="cls-12" x1="364.4" y1="512.76" x2="390.4" y2="579.19" />
			<line class="cls-12" x1="361.9" y1="514.73" x2="387.12" y2="579.13" />
			<line class="cls-12" x1="367.38" y1="512.58" x2="392.59" y2="576.98" />
			<rect class="cls-12" x="371.32" y="519.73" width="12.15" height="52.49"
				transform="translate(-173.06 175.15) rotate(-21.38)" />
			<rect class="cls-12" x="371.32" y="529.77" width="12.15" height="32.41"
				transform="translate(-173.06 175.15) rotate(-21.38)" />
			<line class="cls-12" x1="371.74" y1="548.19" x2="383.06" y2="543.76" />
		</g>
		<g>
			<path class="cls-30"
				d="M354.63,552.93l-3.29,1.29-2.29-5.85,3.16-1.24.32.82-2.18.85.65,1.66,2.01-.79.32.82-2.01.79.68,1.73,2.31-.91.32.82Z" />
			<path class="cls-30"
				d="M356.86,546.25l-2.19.86.69,1.76,2.02-.79.32.82-2.02.79.96,2.45-.97.38-2.29-5.85,3.16-1.24.32.82Z" />
			<path class="cls-30"
				d="M359.26,562.4c-.35.4-.86.73-1.51.99-.85.33-1.63.33-2.36,0-.72-.34-1.25-.94-1.59-1.81-.37-.94-.37-1.81-.03-2.61.35-.8.96-1.38,1.84-1.72.57-.22,1.07-.32,1.5-.31l.38.96c-.49-.08-.97-.03-1.44.16-.63.25-1.07.65-1.3,1.21-.23.56-.22,1.18.05,1.86.25.64.64,1.09,1.16,1.33.52.24,1.07.24,1.67,0,.55-.22.98-.54,1.28-.95l.35.9Z" />
			<path class="cls-30"
				d="M362.25,561.63c-.65.25-1.24.26-1.77.02-.54-.24-.93-.68-1.19-1.33-.28-.7-.29-1.33-.04-1.88s.71-.96,1.39-1.23c.65-.26,1.24-.26,1.75-.02.51.24.91.7,1.17,1.38.26.67.27,1.28.04,1.83-.24.55-.69.96-1.35,1.22ZM360.88,557.99c-.37.15-.61.39-.73.73-.11.34-.08.74.1,1.2.17.44.42.74.73.91s.66.18,1.02.04c.37-.15.61-.38.71-.71.1-.33.07-.72-.11-1.17-.18-.46-.42-.78-.72-.95-.3-.17-.63-.19-1.01-.04Z" />
			<path class="cls-30"
				d="M366.49,556.07c-.15-.05-.33-.03-.55.06-.28.11-.46.33-.55.65-.09.33-.05.71.12,1.14l.78,2-.95.37-1.64-4.18.95-.37.34.86h.02c-.02-.34.03-.62.16-.86.13-.24.31-.41.55-.5.17-.07.31-.09.42-.08l.35.9Z" />
			<path class="cls-30"
				d="M371.19,555.9l-2.85,1.12c.16.38.4.63.71.75.31.12.66.1,1.06-.05.45-.17.8-.47,1.07-.88l.3.76c-.29.39-.74.71-1.37.95-.62.24-1.17.24-1.67,0-.5-.24-.88-.71-1.15-1.4-.25-.65-.27-1.25-.04-1.82s.62-.95,1.19-1.18,1.08-.21,1.54.03c.46.25.81.69,1.07,1.35l.14.36ZM370.02,555.59c-.14-.34-.32-.57-.55-.7-.23-.13-.49-.14-.76-.03-.27.11-.46.3-.58.57-.11.27-.13.58-.04.92l1.93-.76Z" />
		</g>
	</g>
	<g>
		<g>
			<path class="cls-33"
				d="M141.67,197.8c-3.84-10.51-14.79-45.64-.5-71.29,8.48-15.22,24.44-24.67,47.43-28.08,4.42-.66,8.81-.99,13.05-.99,38.29,0,62.32,27.26,75.75,50.12,11.03,18.79,16.91,37.78,19.15,46.08-31.6-38.51-54.88-58.06-90.93-58.06-3.23,0-6.6.16-10.02.49-18,1.7-33.16,13.52-43.85,34.17-5.79,11.18-8.83,22.22-10.08,27.55Z" />
			<path class="cls-40"
				d="M201.65,96.44v2c16.67,0,32,5.18,45.58,15.4,10.94,8.23,20.79,19.73,29.28,34.19,9.28,15.8,14.9,31.75,17.77,41.29-30.28-36.32-53.38-54.74-88.66-54.74-3.26,0-6.66.17-10.12.49-18.35,1.74-33.79,13.74-44.64,34.71-4.88,9.43-7.79,18.58-9.36,24.51-4.36-13.07-12.36-44.13.54-67.29,8.32-14.94,24.04-24.22,46.71-27.58,4.37-.65,8.71-.98,12.89-.98v-2M201.65,96.44c-4.23,0-8.62.32-13.2,1-85.73,12.73-46.51,103.84-46.51,103.84,0,0,10.6-60.13,53.75-64.21,3.42-.32,6.72-.48,9.93-.48,37.25,0,61,21.67,93,61.18,0,0-21.9-101.32-96.97-101.33h0Z" />
		</g>
		<g>
			<path class="cls-33" d="M140.97,118.92c-.03.06-.07.11-.1.17.83-.41.94-.45.1-.17Z" />
			<path class="cls-40"
				d="M142.01,120.69h0,0M141.55,118.74s-.22.06-.58.17c-.03.06-.07.11-.1.17.48-.24.72-.35.67-.35h0Z" />
		</g>
		<g>
			<g>
				<path class="cls-33"
					d="M300.49,145.85c-8.48,0-19.6-6.07-24.78-13.54-3.1-4.47-4.29-9.88-3.33-15.23.96-5.35,3.93-10,8.39-13.09,3.41-2.36,7.39-3.61,11.53-3.61,6.68,0,12.95,3.28,16.77,8.78,3.25,4.68,5.34,11.76,5.46,18.46.07,4.31-.64,12.13-6.24,16.01-2.11,1.47-4.74,2.21-7.79,2.21h0Z" />
				<path class="cls-40"
					d="M292.3,101.17c6.43,0,12.45,3.16,16.12,8.44,6.1,8.79,8.27,27.24-.58,33.38-1.98,1.37-4.45,2.07-7.34,2.07-8.25,0-19.08-5.92-24.13-13.2-6.16-8.87-3.98-21.08,4.86-27.22,3.27-2.27,7.1-3.47,11.08-3.47M292.3,99.59c-4.14,0-8.32,1.22-11.98,3.76-9.57,6.64-11.92,19.81-5.25,29.42,5.02,7.23,16.15,13.88,25.43,13.88,3.04,0,5.88-.71,8.24-2.35,9.57-6.64,7.65-25.97.98-35.58-4.12-5.94-10.72-9.12-17.42-9.12h0Z" />
			</g>
			<ellipse class="cls-40" cx="298.62" cy="124.55" rx="3.42" ry="1.94"
				transform="translate(17.82 285.29) rotate(-52.43)" />
			<path class="cls-40"
				d="M305.66,138.59c-1.9,2.03-2.57,5.04-1.96,7.76,2.05-.37,3.95-1.16,5.61-2.5,1.88-1.5,3.31-3.6,4.35-6.07-2.42-1.87-5.72-1.61-8,.81Z" />
			<path class="cls-31"
				d="M297.58,97.28c-9.73-12.72-19.2-21.32-28.3-24.33,3.35,16.12,4.8,27.66,3.65,33.01,6.54-7.02,14.84-9.72,24.65-8.68Z" />
		</g>
		<g>
			<g>
				<path class="cls-33"
					d="M149.57,271.23c-13.93,0-25.78-4.56-35.2-13.56-8.88-8.48-15.45-20.9-19.54-36.9-15.65-61.22,26.05-90.14,43.55-99.32-29.47,53.12-14.38,90.88,3.71,113.33,11.79,14.65,25.39,23.86,31.93,28.28,1.18.8,2.32,1.57,2.92,2.03-2.71,1.72-13.94,6.13-27.36,6.13h0Z" />
				<path class="cls-40"
					d="M135.89,123.97c-27.55,52.04-12.52,89.18,5.42,111.45,11.89,14.77,25.57,24.03,32.15,28.49.54.37,1.09.74,1.58,1.07-3.89,1.86-13.55,5.26-25.46,5.26-13.67,0-25.28-4.47-34.5-13.28-8.74-8.35-15.22-20.61-19.27-36.43-14.64-57.29,21.51-85.97,40.08-96.56M140.88,119.09h0,0ZM140.88,119.09c-6.98,3.34-65.06,31.32-47.01,101.93,4.51,17.64,11.61,29.53,19.82,37.38,11.14,10.64,24.33,13.83,35.89,13.83,16.86,0,30.23-6.8,28.63-7.2.32-1.02-19.32-10.97-35.33-30.87-19.08-23.69-33.02-61.49-1.99-115.07h0Z" />
			</g>
			<g>
				<path class="cls-30"
					d="M149.57,271.23c-13.67,0-25.32-4.39-34.65-13.04l11.54-21.94,15.95-1.06c11.72,14.42,25.12,23.5,31.6,27.88,1.18.8,2.32,1.57,2.92,2.03-2.71,1.72-13.94,6.13-27.36,6.13h0Z" />
				<path class="cls-40"
					d="M141.97,236.23c11.73,14.3,25.03,23.31,31.49,27.68.54.37,1.09.74,1.58,1.07-3.89,1.86-13.55,5.26-25.46,5.26-13.13,0-24.36-4.12-33.4-12.26l10.92-20.76,14.87-.99M142.87,234.16l-17.02,1.13-12.16,23.11c11.14,10.64,24.33,13.83,35.89,13.83,16.86,0,30.23-6.8,28.63-7.2.32-1.02-19.32-10.97-35.33-30.87h0Z" />
			</g>
		</g>
	</g>
	<g>
		<g>
			<g>
				<rect class="cls-49" x="151.55" y="310.8" width="64.2" height="95.75"
					transform="translate(-216.87 402.96) rotate(-69.2)" />
				<path class="cls-40"
					d="M150.89,312.99l87.59,33.28-22.07,58.1-87.59-33.28,22.07-58.1M149.7,310.34l-23.53,61.93,91.43,34.74,23.53-61.93-91.43-34.74h0Z" />
			</g>
			<g>
				<polygon class="cls-39"
					points="207.68 387.04 209.37 397.46 217.55 390.79 215.22 389.91 218.72 380.7 213.5 378.72 210 387.92 207.68 387.04" />
				<polygon class="cls-39"
					points="196 382.6 197.69 393.03 205.87 386.35 203.54 385.47 207.04 376.27 201.82 374.28 198.32 383.49 196 382.6" />
			</g>
			<path class="cls-39"
				d="M224.55,344.89l3.43,1.3-2.46,6.47c-2.32-.47-4.71.79-5.58,3.08l-1.83,4.82,9.21,3.5,1.83-4.82c.87-2.29-.08-4.81-2.13-6l2.46-6.47,3.43,1.3c.49.18,1.03-.06,1.21-.55s-.06-1.03-.55-1.21l-8.38-3.18c-.49-.18-1.03.06-1.21.55s.06,1.03.55,1.21Z" />
			<g>
				<path class="cls-35"
					d="M168.77,354.33c-1.05-2.34,3.3-9.98-.52-18.48-4.18-9.29-11.48-8.22-13.53-12.79l14.05,31.27Z" />
				<path class="cls-28"
					d="M168.77,354.33c-1.05-2.34-9.66-4.16-13.48-12.66-4.18-9.29,1.48-14.05-.57-18.61l14.05,31.27Z" />
				<line class="cls-13" x1="156.1" y1="326.14" x2="153.46" y2="320.25" />
			</g>
		</g>
		<g>
			<g>
				<rect class="cls-34" x="115.73" y="379.84" width="64.2" height="95.75"
					transform="translate(-304.51 413.99) rotate(-69.2)" />
				<path class="cls-40"
					d="M115.07,382.03l87.59,33.28-22.07,58.1-87.59-33.28,22.07-58.1M113.88,379.38l-23.53,61.93,91.43,34.74,23.53-61.93-91.43-34.74h0Z" />
			</g>
			<path class="cls-39"
				d="M107.77,439.08l-3.43-1.3,2.46-6.47c2.32.47,4.71-.79,5.58-3.08l1.83-4.82-9.21-3.5-1.83,4.82c-.87,2.29.08,4.81,2.13,6l-2.46,6.47-3.43-1.3c-.49-.18-1.03.06-1.21.55s.06,1.03.55,1.21l8.38,3.18c.49.18,1.03-.06,1.21-.55s-.06-1.03-.55-1.21Z" />
			<g id="layer1">
				<path id="path3175" class="cls-37"
					d="M174.54,432.9c-2.08-.86-3.95-.75-5.96.01-.72-1.23-2.58-1.83-3.9-2.55-5.53-2.73-12.5-2.82-17.32,1.03-1.99,1.46-4.05,3.29-4.66,5.86-.2,1.17,1.18,1.85,2.12,1.53.23.04.73-.52.6-.02-.06,1.85.62,3.67.91,5.49-.57,2.82-3.13,4.79-3.27,7.75.31,2.16,2.54,3.3,4.39,3.81,1.45.51,3.2,1.45,4.63.57,1.26-1.14.42-3.07.57-4.56.04-.8.25-1.96,1.07-2.19.63.36.92,1.17,1.64,1.44,1.23.78,2.76.84,4.06,1.25.41,1.91-1.16,3.29-1.82,4.88-.39,1,.13,2.14,1.06,2.65,1.5,1.05,3.31,1.49,5.02,1.99,1.32.2,2.71-.82,2.61-2.27.07-1.72-.03-3.63,1.15-4.95.72-.93,1.92-1.15,3.02-1.11.28-.04,1.34-.33,1.18-.12-1.7.88-3.9,1.86-4.16,4.09-.21,1.58,0,3.43,1.07,4.69,1.57,1.53,4.69.78,4.95-1.49.06-.68-.41-1.28-.74-1.78.51-.73,1.61-.69,2.37-1.04,2.45-.66,4.85-1.8,6.36-3.94,3.11-3.98,3.9-9.89,1.84-14.72-1.4-2.64-4.2-3.97-6.64-5.37-.7-.35-1.41-.67-2.14-.94h0Z" />
				<path id="path2383" class="cls-36"
					d="M176.53,456.1c1.57-.57,4.48-2,6.01-6.68,1.53-4.68.56-9.91-1.45-11.36-2.01-1.45-9.9-8.05-13.84-1.85-3.94,6.2.86,10.55,2.39,10.84,1.53.29,4.34-2.73,4.34-2.73,0,0-1.98,3.73-3.91,3.48-1.93-.25-6.13-2.62-5.51-8.03.62-5.41,3.71-5.8,2.15-6.87-2.08-1.44-7.89-4.56-13.98-2.88-6.1,1.68-10.12,7.84-8.62,7.63,1.5-.21,2.83-2.23,2.55-.49-.28,1.74.06,4.79.83,6.25.77,1.46-3.26,7.04-3.37,8.26-.11,1.22,1.56,2.25,2.92,2.77s4.4,1.77,4.54.75c.14-1.02-.31-3.14.2-4.99.51-1.85,1.98-1.97,2.46-1.69.48.28.49,1.13,2.61,1.97,2.03.8,2.24.17,3.06.58.82.41.91,1.9.4,3.46-.51,1.56-1.53,2.63-1.81,3.5-.28.87,5.79,3.37,6.38,2.42.6-.94.03-2.72.45-4.02.42-1.3,1.44-3.83,3.29-3.91,1.84-.08,4.05-.99,4.74.44.68,1.43-3.85,2.14-4.56,4.01-.71,1.87.26,4.48.68,4.64s2.38.32,2.81-.69c.42-1.01-1.13-1.21-.74-2.42.4-1.21,3.35-1.79,4.99-2.39h0Z" />
				<path id="path3195"
					d="M179.58,447.28c-.17.47-.7.71-1.17.54-.47-.17-.71-.7-.54-1.17,0,0,0,0,0-.01.17-.47.7-.71,1.17-.54.47.17.71.7.54,1.17,0,0,0,0,0,.01Z" />
				<path id="path3217" class="cls-27"
					d="M178.21,454.44c.79-.24-.38-1.85-.63-3.02-.25-1.18-2.06-.09-2.08.99s1.84,2.09,2.71,2.03Z" />
				<path id="path3219" class="cls-27"
					d="M149.61,455.98c1.1.25,2.47.5,2.69-.18.22-.68-.05-2.48-.05-2.48,0,0-.59-.5-1.37-.08-.78.42-1.56,2.31-1.27,2.74h0Z" />
				<path id="path3221" class="cls-27"
					d="M163.06,461.17c1.1.25,2.47.5,2.69-.18s-.05-2.48-.05-2.48c0,0-.59-.5-1.37-.08-.78.42-1.56,2.31-1.27,2.74Z" />
			</g>
		</g>
		<rect class="cls-14" x="197.09" y="233.14" width="97.8" height="16.81"
			transform="translate(101.82 -71.62) rotate(20.8)" />
		<rect class="cls-14" x="254.61" y="234.43" width="97.8" height="16.81"
			transform="translate(182.25 -126.47) rotate(33.16)" />
		<rect class="cls-14" x="296.97" y="233.14" width="97.8" height="16.81"
			transform="translate(272.1 -173.82) rotate(45)" />
		<g>
			<g>
				<rect class="cls-43" x="88.45" y="451.64" width="64.2" height="95.75"
					transform="translate(-389.21 434.8) rotate(-69.2)" />
				<path class="cls-40"
					d="M87.79,453.83l87.59,33.28-22.07,58.1-87.59-33.28,22.07-58.1M86.6,451.18l-23.53,61.93,91.43,34.74,23.53-61.93-91.43-34.74h0Z" />
			</g>
			<g>
				<path class="cls-42"
					d="M95.61,478.26c-1.08-.12-2.03.02-2.81.41-.32.16-.46.26-.97.68-.6.51-.83.53-1.84.2-.81-.27-1.41-.34-1.79-.21-.38.12-.64.47-.84,1.12-.05.16-.05.16.03.18.05,0,.08.03.07.06,0,.04-.04.04-.24-.01l-.23-.06-.09.1c-.12.13-.13.21-.06.35.03.06.05.14.04.16-.05.08-.06.57-.02.72.02.08.03.19.03.23-.02.11.1.35.32.61.32.39.45.5.78.67.63.32,1.2.81,1.54,1.35.37.58.61,1.16.93,2.3.26.91.37,1.39.43,1.81l.04.28-.27.35c-.6.8-.95,1.59-1.28,2.96-.21.83-.31,1.44-.28,1.69.05.48.52,1.22.84,1.35.13.05.48-.07,1.45-.53l.8-.37.11.23c.2.42.51,1.29.7,1.95.55,1.93.75,3.66.6,5.01-.03.25-.09.47-.46,1.59-.42,1.27-.43,1.32-.45,1.62-.03.43.02,1.06.14,1.79.21,1.26.23,1.86.11,2.54-.15.76-.39,1.16-.8,1.31-.16.06-.16.06,0,.04.09-.01-.1.08-.23.12-.06.02-.19.03-.27.02-.24-.02-.49-.19-1.41-.97-.63-.53-1.14-.87-1.6-1.06-.27-.11-.39-.14-.79-.2-.42-.06-.59-.07-.88-.03-.04,0,0,0,.06-.03.43-.14,1.24-.05,1.78.21.45.21.84.48,1.39.93.5.42,1,.81,1.04.82.02,0-.15-.14-.37-.31s-.52-.42-.67-.55c-.55-.48-1.12-.84-1.64-1.03-.33-.12-.83-.2-1.15-.17-.27.02-.7.13-.69.18,0,.02,0,.02-.03,0-.05-.03-.49.2-.8.41-.28.19-.46.39-.6.65-.11.22-.11.22-.06.29.03.04.36.31.73.6.9.7,1.08.87,1.39,1.34.59.9.88,1.91.85,3.02,0,.32-.15,1.04-.26,1.29-.06.13-.08.21-.06.24.01.03,0,.11-.01.18l-.03.13.17.08c.13.06.24.08.53.11.84.08,1.39-.09,2.18-.66.51-.37.88-.78,1.06-1.2.11-.24.14-.43.15-.81.01-.45.06-.73.17-.86.22-.28.44-.38,1.22-.55.34-.08.7-.17.78-.2.37-.15.8-.19,1.71-.15,1.49.06,1.67.05,2.21-.18.98-.43,2.06-1.36,2.97-2.55.52-.69.95-1.39,1.55-2.55.22-.42.23-.47.61-1.73.47-1.58.5-1.65.51-1.65,0,0,.14.14.3.32.26.28.62.6.62.56,0,0-.07-.08-.16-.16-.09-.08-.29-.33-.44-.57l-.28-.41.28.32c.24.27.87.91.91.92,0,0,.08.05.15.1l.14.1h-.1s-.1,0-.1,0l.13.06c.07.04.27.09.48.12l.35.06.09-.09c.13-.13.22-.35.32-.83.15-.67.21-1.52.19-3.09-.01-1.6-.11-2.46-.34-3.03-.15-.38-.48-1.36-.7-2.09-.15-.48-.15-.52-.15-.97,0-1.19-.05-3.15-.11-3.84-.11-1.21-.38-2.86-.66-3.97-.7-2.8-1.9-5.01-3.53-6.46-.38-.34-1.14-.92-1.59-1.22-.91-.6-1.84-1.03-2.75-1.26-.52-.14-.65-.16-1.13-.21ZM96.55,478.79c.43.14,1.36.55,1.32.58,0,0-.1-.03-.21-.07-.11-.05-.36-.14-.56-.21-.51-.18-1.65-.39-2.11-.4-.42,0-.87.03-1.14.09-.32.07-.33.07-.16,0,.42-.17,1.21-.25,1.8-.2.42.04.67.09,1.07.22ZM96.22,479.21c1.01.32,2.58,1.12,3.41,1.75.84.63,1.93,1.69,2.47,2.39.68.89,1.39,2.69,1.8,4.58.29,1.34.32,1.69.43,4.42.09,2.26.09,3.16-.01,4.33-.13,1.62-.72,4.11-1.82,7.72-.66,2.16-.67,2.19-1.05,2.92-.66,1.26-.75,1.42-1.06,1.82-.65.85-1.7,1.78-2.45,2.17-.16.08-.29.16-.29.16s.02,0,.04,0c.03-.01.12-.06.21-.1.09-.05.14-.06.11-.04-.11.09-.6.32-.91.41-.42.13-.72.15-1.23.09-.23-.03-.51-.06-.64-.07l-.22-.02.17-.15c.09-.08.39-.33.67-.56.87-.71,1.51-1.34,1.75-1.72.1-.15.11-.21.33-1.31.17-.87.26-1.43.38-2.31.21-1.66.3-2.08.7-3.42.17-.57.73-2.23.92-2.75.05-.15.12-.33.14-.4l.04-.13.28.32c.35.39.52.51.85.58.13.02.3.04.37.03.07,0,.15,0,.16,0,.02,0,.05,0,.09-.03s.09-.03.14-.03h.08s.11-.59.11-.59c.08-.44.11-.67.11-.88-.02-.88-.23-2.28-.49-3.24-.15-.54-.26-.78-.82-1.79-.29-.53-.41-.71-.6-.91-.4-.43-.69-.82-.69-.94,0-.23-.08-.75-.15-.98-.12-.44-.52-1.47-.71-1.87-.73-1.48-2.12-2.82-4.08-3.92-.13-.08-.23-.14-.23-.16.01-.01.08-.02.14-.02.43.01,1.1-.4,1.48-.89.09-.11.09-.14.08-.24-.02-.09,0-.12.04-.17.08-.08.09-.15.04-.25l-.04-.08-.21.22c-.4.42-.72.61-1.07.64-.25.03-.83-.05-1.22-.15-.54-.15-.79-.27-1.61-.81-.58-.39-1.13-.69-1.39-.79-.11-.04-.68-.23-1.27-.42-.99-.32-1.27-.43-1.67-.64-.15-.08-.16-.11-.05-.29.23-.39.68-.57,1.34-.53.24.01.41.05,1.03.23,1.07.3,1.18.29,1.69-.1.87-.67,1.25-.89,1.87-1.07.41-.12.88-.19,1.3-.19.29,0,1,.1,1.19.16ZM90.27,479.96c.23.07.54.14.7.17.26.04.28.04.17.07-.25.05-.49,0-1.08-.18-.43-.14-.67-.2-.97-.25-.28-.04-.37-.07-.31-.08.14-.03,1.03.14,1.48.27ZM101.89,482.41s.35.4.55.67c.22.31.52.84.69,1.22.11.26.1.28-.03.02-.22-.45-.65-1.16-1.02-1.65-.12-.15-.2-.27-.19-.27ZM87.6,481.99c.31.09.89.23.97.25.65.12,1.55.41,2.15.69.34.16.88.45.81.44-.02,0-.18-.06-.36-.13-.18-.07-.34-.12-.35-.12,0,0,.12.07.28.14.71.3,1.01.45,1.24.62.14.1.25.19.24.19-.03.02-.73-.21-1.23-.39-.26-.09-.48-.17-.49-.16,0,0,.12.07.28.14.96.41,2.13.98,2.86,1.39,1.35.76,2.52,1.68,3.3,2.59.51.59.98,1.4,1.18,2,.05.15.2.53.32.84s.23.59.24.61c0,.05-.5-.24-.92-.51-.28-.18-.3-.19-.43-.18-.15.01-.19.06-.07.08s.63.27.87.42c.21.13.73.56.71.58-.02.02-.68-.36-1.09-.61l-.43-.28-.15.02c-.08.01-.15.03-.16.05s.1.06.22.1c.29.11.77.38,1.03.58.23.17.74.67.95.93.16.2.22.22.11.05l-.07-.12.08.11c.05.06.08.12.07.12,0,0,.13.24.32.52.54.82.95,1.64,1.16,2.32.1.32.09.31-.13-.12-.09-.18-.35-.6-.59-.94-.87-1.26-1.82-2.22-2.7-2.7-.62-.35-.57-.28.25.34.85.64,1.22.98,1.63,1.48.38.46.97,1.39.92,1.45-.01.01.03.1.08.2.13.22.3.64.47,1.12.13.38.17.58.16.84,0,.11-.01.09-.07-.14-.04-.15-.13-.43-.2-.63-.17-.48-.76-1.61-1.08-2.1-.14-.22-.26-.41-.25-.41.01-.01,0-.01,0,0-.04.02-.17-.14-.16-.19,0-.03.02-.05.03-.05.04,0,.08.1.05.12-.02.01,0,.01.01,0,.05-.02.21.19.64.8.22.32.28.39.2.23-.14-.24-.43-.65-.82-1.12-.23-.28-.31-.36-.27-.26.05.12,0,.11-.11,0-.07-.08-.13-.15-.12-.17,0-.02,0-.05,0-.06,0-.01,0-.04,0-.05s-.13-.15-.29-.31c-.5-.47-1.17-.94-1.61-1.11-.08-.03-.14-.05-.15-.03,0,.01.32.26.7.54.39.29.81.61.93.72.23.21.26.23.23.16,0-.02,0-.03,0-.01s.02.05.02.07c0,.02.01.04.03.06.03.01.03,0,.02-.02-.01-.03,0-.04.02-.02.02.02.02.04,0,.05-.01.01.07.12.18.24,1.2,1.31,1.98,3.3,2.2,5.61.06.59.06.59-.09.5-.23-.13-.49-.41-.87-.9-.44-.57-.68-.82-1.5-1.57-.32-.3-1.11-1.08-1.49-1.49-.26-.28-.29-.39-.44-1.35-.05-.3-.1-.55-.11-.57-.01-.02-.03-.01-.05.02-.02.03-.07.09-.11.13-.11.1-.12.29-.05,1.14l.06.73.25.24c.5.49,2.18,2.3,2.74,2.94l.08.09-.08.39c-.04.21-.07.38-.07.38,0,0,.06-.16.12-.35.07-.24.11-.34.13-.31.02.02.01.09,0,.16-.06.22-.9,2.5-.95,2.57-.02.04-.1.23-.16.43s-.22.64-.35,1l-.23.64-.17,1c-.12.67-.15.86-.12.58.09-.68.24-1.5.41-2.08.19-.7.25-.87.58-1.8.15-.42.27-.77.27-.78-.01-.02-.18.43-.75,1.97l-.39,1.06-.29,1.79c-.3,1.85-.46,2.66-.67,3.25-.09.27-.11.3-.32.49-.12.12-.33.33-.46.47-.5.55-1.18,1.24-1.29,1.31-.06.04-.11.09-.1.1,0,.02,0,.02-.03,0s-.06,0-.1.02q-.05.05.02.01c.07-.04.07-.03,0,.03-.08.06-.15.07-.1.01.02-.02.01-.03,0-.01s-.04.04-.04.06c-.02.1-1.34.53-1.79.58-.29.04-.42.02-.62-.07l-.14-.06.1-.05c.29-.15.69-.54.84-.82.18-.32.26-.61.3-1.04.06-.68.05-1.43-.02-2.63-.06-.94-.06-1.52,0-1.92.04-.33.09-.48.42-1.47.42-1.23.5-1.56.54-2.26.08-1.38-.16-2.97-.72-4.92-.27-.93-.54-1.7-.73-2.07-.19-.38-.44-.94-.69-1.56l-.19-.48-.32-2.07c-.36-2.33-.43-2.69-.64-3.46-.37-1.35-.94-2.51-1.59-3.27-.26-.3-.69-.64-1.16-.91-.19-.11-.39-.23-.44-.27-.13-.1-.38-.37-.37-.41,0-.02.03-.02.06-.02ZM93.87,484.57c.11.03,1.19.68,1.17.69,0,0-.29-.14-.62-.33-.34-.18-.6-.34-.59-.35.01-.01.03-.02.04-.01ZM103.99,486.89s.02.01.03.04c.01.09,0,.1-.02.03-.01-.04-.02-.07,0-.08ZM104.06,487.2s.06.15.05.19c0,.01-.02-.02-.04-.08-.02-.06-.03-.11-.02-.11ZM104.12,487.44s.06.15.05.19c0,.01-.02-.02-.04-.08-.02-.06-.03-.11-.02-.11ZM104.16,487.68s.24.99.27,1.27c.02.18-.02.02-.14-.56-.07-.34-.13-.63-.15-.65-.02-.03-.01-.04.01-.05ZM104.44,489.06s.02.04.03.1,0,.11,0,.12-.02-.04-.03-.1,0-.11,0-.12ZM99.55,491.79s.31.33.51.6c.15.19.17.23.12.25-.04.02-.05.04-.03.06.02.02.03.02.04.01.01-.07.2.16.39.49.65,1.1.95,1.84,1.12,2.69.05.25.1.85.07.89-.02.03-.13-.41-.28-1.08-.16-.69-.21-.83-.96-2.2-.14-.25-.29-.5-.33-.55-.05-.05-.14-.17-.22-.28-.07-.11-.09-.14-.05-.08.08.1.09.1.11.05.02-.04-.02-.11-.09-.21-.06-.08-.1-.15-.09-.16.03-.02-.11-.22-.15-.23-.02,0,0,.05.04.11l.07.12-.1-.13c-.05-.07-.09-.14-.08-.15.01,0-.01-.06-.05-.12-.04-.06-.06-.1-.05-.1ZM99.47,492.03c.03.06.03.06-.01.01-.02-.03-.04-.06-.04-.06,0-.03.03,0,.06.05ZM99.6,492.18c.03.06.03.06-.01.01-.02-.03-.04-.06-.04-.06,0-.03.03,0,.06.05ZM99.49,493.28s.09.11.09.17c0,.04,0,.03-.06-.01-.03-.03-.06-.08-.05-.11,0-.03.01-.05.03-.04ZM97.5,495.9c.03.06.03.06-.01.01-.02-.03-.04-.06-.04-.06,0-.03.03,0,.06.05ZM97.73,496.14l.08.1-.09-.09s-.09-.09-.09-.1c0-.02.02-.01.1.09ZM97.92,496.33l.08.1-.09-.09s-.09-.09-.09-.1c0-.02.02-.01.1.09ZM98.16,496.58c.03.06.03.06-.01.01-.02-.03-.04-.06-.04-.06,0-.03.03,0,.06.05Z" />
				<path class="cls-42"
					d="M97.42,482.62c-.15-.03-.19-.02-.27.03-.17.12-.22.38-.09.52.1.12.32.15.48.07.11-.05.12-.07.15-.23.03-.14.02-.19-.03-.26-.05-.08-.09-.1-.24-.13Z" />
				<path class="cls-42" d="M96.42,511.73s-.05,0-.04,0c0,.01.04.02.06.01.03,0,.02-.02-.02-.02Z" />
				<path class="cls-42" d="M96.05,511.69c-.06-.01-.09,0-.06,0,.03.01.08.02.11.02.03,0,0-.01-.05-.03Z" />
				<path class="cls-42" d="M95.68,511.66c-.05-.01-.08,0-.06,0,.02.01.07.02.09.02.03,0,.02-.01-.03-.02Z" />
				<path class="cls-42" d="M95.37,511.63s-.06,0-.04,0c.02.01.06.02.08.01.02,0,0-.01-.03-.02Z" />
				<path class="cls-42" d="M88.63,482.29s.95.36,1,.36c.03,0-.14-.08-.39-.17-.41-.16-.64-.23-.61-.19Z" />
				<path class="cls-42" d="M89.76,482.69s-.06,0-.04,0c.02.01.06.02.08.01.02,0,0-.01-.03-.02Z" />
				<path class="cls-42" d="M88.63,482.64s-.06,0-.04,0c.02.01.06.02.08.01.02,0,0-.01-.03-.02Z" />
				<path class="cls-42"
					d="M88.72,482.7s1.25.48,1.29.48c.03,0,.03-.01,0-.02-.03,0-.29-.11-.59-.23-.51-.2-.71-.27-.69-.23Z" />
				<path class="cls-42" d="M90.1,483.21s-.05,0-.04,0c0,.01.04.02.06.01.03,0,.02-.02-.02-.02Z" />
				<path class="cls-42"
					d="M99.21,492.97s.02.06.01.07c0,.02.17.22.2.23,0,0,0-.02-.02-.05s-.02-.05,0-.05c.02,0-.01-.05-.06-.11-.09-.12-.16-.16-.12-.08ZM99.33,493.11c.03.06.03.06-.01.01-.02-.03-.04-.06-.04-.06,0-.03.03,0,.06.05Z" />
				<path class="cls-42" d="M99.81,499.14s-.02.07-.02.09c0,.03.01.02.02-.03.01-.05,0-.08,0-.06Z" />
				<path class="cls-42" d="M99.74,499.32s-.02.07-.02.09c0,.03.01.02.02-.03.01-.05,0-.08,0-.06Z" />
				<path class="cls-42" d="M99.67,499.5s-.02.07-.02.09c0,.03.01.02.02-.03.01-.05,0-.08,0-.06Z" />
				<path class="cls-42"
					d="M99.69,499.7c-.03.07-.06.16-.06.2,0,.05,0,.04.04-.04.03-.07.06-.16.06-.2,0-.05,0-.04-.04.04Z" />
				<path class="cls-42" d="M99.61,499.69s-.02.07-.02.09c0,.03.01.02.02-.03.01-.05,0-.08,0-.06Z" />
				<path class="cls-42" d="M99.54,499.87s-.02.07-.02.09c0,.03.01.02.02-.03.01-.05,0-.08,0-.06Z" />
				<path class="cls-42" d="M99.58,500.02s-.02.08-.02.11c0,.03.01,0,.03-.05s0-.09,0-.06Z" />
				<path class="cls-42" d="M99.47,500.05s-.02.07-.02.09c0,.03.01.02.02-.03.01-.05,0-.08,0-.06Z" />
				<path class="cls-42" d="M99.5,500.24s-.02.08-.02.11c0,.03.01,0,.03-.05s0-.09,0-.06Z" />
				<path class="cls-42" d="M99.41,500.24s-.02.07-.02.09c0,.03.01.02.02-.03.01-.05,0-.08,0-.06Z" />
				<path class="cls-42"
					d="M99.41,500.52c-.03.07-.06.16-.06.2,0,.05,0,.04.04-.04.03-.07.06-.16.06-.2,0-.05,0-.04-.04.04Z" />
				<path class="cls-42" d="M99.34,500.42s-.02.07-.02.09c0,.03.01.02.02-.03.01-.05,0-.08,0-.06Z" />
				<path class="cls-42" d="M99.29,500.85s-.02.08-.02.11c0,.03.01,0,.03-.05s0-.09,0-.06Z" />
				<path class="cls-42" d="M99.22,501.07s-.02.08-.02.11c0,.03.01,0,.03-.05s0-.09,0-.06Z" />
				<path class="cls-42" d="M99.15,501.26s-.02.07-.02.09c0,.03.01.02.02-.03.01-.05,0-.08,0-.06Z" />
				<path class="cls-42" d="M99.08,501.5s-.02.04-.01.06c0,.03.02.02.02-.02,0-.03,0-.05,0-.04Z" />
				<path class="cls-42" d="M94.54,511.21s-.07.03-.07.04c0,0,.03,0,.07,0s.07-.03.07-.04c0,0-.03,0-.07,0Z" />
				<path class="cls-42" d="M94.36,511.28s-.07.03-.07.04c0,0,.03,0,.07,0s.07-.03.07-.04c0,0-.03,0-.07,0Z" />
				<path class="cls-42"
					d="M94.05,511.38c-.08.02-.14.05-.14.06,0,0,.06,0,.13-.02s.14-.05.14-.06c0,0-.06,0-.13.02Z" />
				<path class="cls-42"
					d="M93.58,511.52s-.09,0-.15.03-.11.04-.09.05c.02,0,.09,0,.15-.03s.11-.04.09-.05Z" />
				<path class="cls-42" d="M92.72,511.6c-.16-.03-.22-.04-.15-.02s.2.04.28.05.02,0-.13-.03Z" />
				<path class="cls-42"
					d="M99.98,492.43c.07.08.11.16.11.18,0,.01,0,.02.04.02.03,0,.05-.02.05-.02,0,0-.06-.08-.13-.17-.18-.2-.22-.21-.06-.01Z" />
				<path class="cls-42" d="M100.02,492.71s.02.04.04.06c.04.05.05.05.01-.01s-.05-.08-.06-.05Z" />
				<path class="cls-42" d="M91.34,510.63s.11.07.13.07,0-.02-.05-.06c-.13-.08-.19-.09-.08-.01Z" />
				<path class="cls-42" d="M91.9,510.75s-.05,0-.04,0c0,.01.04.02.06.01.03,0,.02-.02-.02-.02Z" />
				<path class="cls-42" d="M91.67,510.75c-.09-.02-.13-.02-.09,0,.04.01.11.03.16.03.05,0,.02,0-.07-.03Z" />
			</g>
			<g>
				<polygon class="cls-39"
					points="154.44 490.65 152.76 480.23 144.58 486.9 146.9 487.78 143.4 496.98 148.62 498.97 152.12 489.76 154.44 490.65" />
				<polygon class="cls-39"
					points="166.12 495.08 164.44 484.66 156.26 491.34 158.58 492.22 155.08 501.42 160.3 503.41 163.8 494.2 166.12 495.08" />
			</g>
		</g>
		<g>
			<g>
				<rect class="cls-41" x="214.31" y="253.36" width="64.2" height="95.75"
					transform="translate(-137.22 366.75) rotate(-60.41)" />
				<path class="cls-40"
					d="M221.01,251.08l81.48,46.27-30.69,54.04-81.48-46.27,30.69-54.04M220.24,248.28l-32.72,57.61,85.04,48.3,32.72-57.61-85.04-48.3h0Z" />
			</g>
			<g>
				<polygon class="cls-39"
					points="264.47 331.9 264.4 321.34 255.29 326.68 257.46 327.91 252.59 336.47 257.45 339.23 262.31 330.67 264.47 331.9" />
				<polygon class="cls-39"
					points="275.34 338.07 275.26 327.51 266.16 332.85 268.32 334.08 263.46 342.64 268.32 345.4 273.18 336.84 275.34 338.07" />
			</g>
			<g>
				<path class="cls-6"
					d="M243.44,279.85c1.83,3.13,4.89,5.01,13.23,12.07,9.01,7.63,12.09,11.38,10.65,13.95-1.73,3.06-24.79-8.71-40.8-5.09-15.95,3.61,8.34,19.55,8.34,19.55,0,0,11.8-6.81,15.15-18.04" />
				<path class="cls-6"
					d="M223.71,301.68c8.87-2.22,16.29-3.96,19.69-8.41,3.4-4.46-1.33-10.94.05-13.41s10.59.05,10.59.05c0,0-2.12,6.19-1.11,8.9" />
				<ellipse class="cls-30" cx="250.87" cy="292.41" rx="1.29" ry=".83"
					transform="translate(-127.28 366.16) rotate(-60.41)" />
				<ellipse class="cls-30" cx="265.83" cy="304.77" rx="2.07" ry="1.84"
					transform="translate(-130.46 385.42) rotate(-60.41)" />
			</g>
		</g>
		<rect class="cls-22 frame" x="104.15" y="150.34" width="116.33" height="387.76"
			transform="translate(132.84 -35.21) rotate(20.8)" />
		<rect class="cls-22 frame" x="104.15" y="305.44" width="116.33" height="77.55"
			transform="translate(132.84 -35.21) rotate(20.8)" />
		<polyline class="cls-22 frame" points="28.58 532.46 39.08 504.8 147.83 546.12 137.32 573.77" />
		<polyline class="cls-22 frame" points="188.43 111.71 176.8 142.32 285.55 183.64 297.18 153.03" />
		<rect class="cls-22 frame" x="104.15" y="227.89" width="116.33" height="232.66"
			transform="translate(132.84 -35.21) rotate(20.8)" />
	</g>
</svg>
