<?xml version="1.0" encoding="UTF-8"?>
<svg id="design-skills" xmlns="http://www.w3.org/2000/svg" viewBox="0 0 600 600">
	<defs>
		<style>
			.cls-1 {
				fill: #29abe2;
			}

			.cls-2 {
				fill: #2e3192;
			}

			.cls-2,
			.cls-3,
			.cls-4,
			.cls-5,
			.cls-6,
			.cls-7,
			.cls-8,
			.cls-9,
			.cls-10,
			.cls-11 {
				stroke-width: 2px;
			}

			.cls-2,
			.cls-6 {
				stroke: #000;
				stroke-miterlimit: 10;
			}

			.cls-3 {
				fill: #393;
			}

			.cls-3,
			.cls-4,
			.cls-5,
			.cls-12,
			.cls-7,
			.cls-13,
			.cls-14,
			.cls-8,
			.cls-9,
			.cls-15,
			.cls-16,
			.cls-10,
			.cls-11 {
				stroke: #242424;
				stroke-linecap: round;
				stroke-linejoin: round;
			}

			.cls-17 {
				fill: #0071bc;
			}

			.cls-18 {
				fill: #d9e021;
			}

			.cls-19,
			.cls-4 {
				fill: #fff;
			}

			.cls-20,
			.cls-7,
			.cls-15 {
				fill: #ff7545;
			}

			.cls-5 {
				fill: #a67c52;
			}

			.cls-21 {
				fill: #009245;
			}

			.cls-12 {
				fill: #b3b3b3;
			}

			.cls-6 {
				fill: none;
			}

			.cls-22 {
				fill: #9e005d;
			}

			.cls-23 {
				fill: #fcee21;
			}

			.cls-24 {
				fill: #f33;
			}

			.cls-25 {
				fill: #f99;
			}

			.cls-13,
			.cls-26 {
				fill: #39f;
			}

			.cls-27 {
				fill: #f15a24;
			}

			.cls-28 {
				fill: #f7931e;
			}

			.cls-14 {
				fill: #c3c;
			}

			.cls-8 {
				fill: #c69c6d;
			}

			.cls-29 {
				fill: #242424;
			}

			.cls-9 {
				fill: #fc6;
			}

			.cls-15 {
				stroke-width: 1.58px;
			}

			.cls-16 {
				fill: #ccc;
			}

			.cls-30 {
				fill: #fbb03b;
			}

			.cls-10 {
				fill: #930;
			}

			.cls-11 {
				fill: #cc3;
			}

			.cls-31 {
				fill: #93f;
			}
		</style>
	</defs>
	<g>
		<g>
			<path class="cls-27"
				d="M567.43,568.17c-.83-.88-5.71-1.21-7.06-.84-.84.23-1.12.82-.74,1.29.29.35,1.32.61,1.84,1.17s.3,1.17.65,1.5c.46.44,1.52.68,2.37.45,1.4-.38,3.77-2.68,2.94-3.56Z" />
			<path class="cls-27"
				d="M565.22,566.56c-1.02.38-2.26.37-2.77-.03s-.11-1.03.91-1.41,2.26-.37,2.77.03.11,1.03-.91,1.41Z" />
			<path class="cls-27"
				d="M569.33,567.35c-1.02.38-2.26.37-2.77-.03s-.11-1.03.91-1.41,2.26-.37,2.77.03.11,1.03-.91,1.41Z" />
			<path class="cls-27"
				d="M568.5,570.07c-1.17.21-1.89.76-1.61,1.22s1.47.66,2.64.45,1.89-.76,1.61-1.22-1.47-.66-2.64-.45Z" />
			<path class="cls-27"
				d="M569.77,567.82c-1.17.21-1.89.76-1.61,1.22s1.47.66,2.64.45c1.17-.21,1.89-.76,1.61-1.22s-1.47-.66-2.64-.45Z" />
		</g>
		<g>
			<path class="cls-17"
				d="M588.56,573.7c-.33-.97-4.85-2.02-6.34-1.87-.93.09-1.5.62-1.38,1.12.09.37.95.79,1.16,1.4s-.32,1.17-.16,1.54c.21.5,1.11.88,2.04.79,1.54-.15,5.01-2,4.68-2.98Z" />
			<path class="cls-17"
				d="M587.28,571.82c-1.17.21-2.36.01-2.64-.45s.43-1,1.61-1.22c1.17-.21,2.36-.01,2.64.45s-.43,1-1.61,1.22Z" />
			<path class="cls-17"
				d="M590.82,573.2c-1.17.21-2.36.01-2.64-.45s.43-1,1.61-1.22c1.17-.21,2.36-.01,2.64.45s-.43,1-1.61,1.22Z" />
			<ellipse class="cls-17" cx="588.66" cy="576.56" rx="2.24" ry=".88"
				transform="translate(-6.82 7.05) rotate(-.68)" />
			<ellipse class="cls-17" cx="591.06" cy="574.6" rx="2.24" ry=".88"
				transform="translate(-6.8 7.08) rotate(-.68)" />
		</g>
		<g>
			<path class="cls-28"
				d="M526.49,579.66c-.92-.86-5.83-1.03-7.14-.63-.82.25-1.03.86-.6,1.31.32.34,1.39.57,1.96,1.11s.43,1.16.8,1.48c.51.43,1.59.63,2.41.38,1.35-.42,3.48-2.79,2.56-3.65Z" />
			<path class="cls-28"
				d="M524.12,578.12c-.97.41-2.21.43-2.77.05s-.21-1.02.76-1.43c.97-.41,2.21-.43,2.77-.05s.21,1.02-.76,1.43Z" />
			<path class="cls-28"
				d="M528.31,578.78c-.97.41-2.21.43-2.77.05s-.21-1.02.76-1.43,2.21-.43,2.77-.05.21,1.02-.76,1.43Z" />
			<path class="cls-28"
				d="M527.76,581.52c-1.15.25-1.81.81-1.48,1.26s1.54.61,2.68.37c1.15-.25,1.81-.81,1.48-1.26s-1.54-.61-2.68-.37Z" />
			<path class="cls-28"
				d="M528.8,579.24c-1.15.25-1.81.81-1.48,1.26s1.54.61,2.68.37,1.81-.81,1.48-1.26-1.54-.61-2.68-.37Z" />
		</g>
		<g>
			<path class="cls-17"
				d="M548.17,584.54c-.43-.96-5.06-1.87-6.52-1.68-.92.12-1.44.67-1.26,1.16.13.37,1.03.76,1.31,1.36s-.19,1.18,0,1.54c.26.49,1.2.85,2.12.73,1.52-.2,4.79-2.15,4.36-3.11Z" />
			<path class="cls-17"
				d="M546.69,582.7c-1.15.25-2.35.08-2.68-.37s.33-1.01,1.48-1.26c1.15-.25,2.35-.08,2.68.37s-.33,1.01-1.48,1.26Z" />
			<path class="cls-17"
				d="M550.37,583.97c-1.15.25-2.35.08-2.68-.37s.33-1.01,1.48-1.26,2.35-.08,2.68.37-.33,1.01-1.48,1.26Z" />
			<ellipse class="cls-17" cx="548.57" cy="587.39" rx="2.24" ry=".88"
				transform="translate(-16.61 15.97) rotate(-1.64)" />
			<ellipse class="cls-17" cx="550.75" cy="585.36" rx="2.24" ry=".88"
				transform="translate(-16.55 16.03) rotate(-1.64)" />
		</g>
		<g>
			<path class="cls-28"
				d="M484.52,583.28c-.24-.98-4.66-2.15-6.16-2.04-.93.07-1.56.58-1.48,1.09.06.38.88.81,1.03,1.43s-.43,1.16-.3,1.53c.17.5,1.02.91,1.96.84,1.55-.11,5.19-1.86,4.95-2.85Z" />
			<path class="cls-28"
				d="M483.42,581.37c-1.19.18-2.35-.05-2.6-.52s.53-.99,1.72-1.17,2.35.05,2.6.52-.53.99-1.72,1.17Z" />
			<path class="cls-28"
				d="M486.82,582.84c-1.19.18-2.35-.05-2.6-.52s.53-.99,1.72-1.17c1.19-.18,2.35.05,2.6.52s-.53.99-1.72,1.17Z" />
			<ellipse class="cls-28" cx="484.36" cy="586.14" rx=".88" ry="2.24"
				transform="translate(-103.35 1068.6) rotate(-89.81)" />
			<ellipse class="cls-28" cx="486.93" cy="584.24" rx=".88" ry="2.24"
				transform="translate(-98.89 1069.28) rotate(-89.81)" />
		</g>
		<g>
			<path class="cls-21"
				d="M501.11,592.24c.28-.98-3.35-2.77-4.84-2.89-.93-.08-1.8.32-1.99.82-.14.37.42.91.24,1.53-.17.59-1.01,1.05-1.09,1.43-.1.51.51,1.03,1.44,1.11,1.54.13,5.95-1.01,6.23-1.98Z" />
			<ellipse class="cls-21" cx="501.06" cy="589.36" rx=".88" ry="2.24"
				transform="translate(-89.92 1088.52) rotate(-89.81)" />
			<ellipse class="cls-21" cx="503.56" cy="591.29" rx=".88" ry="2.24"
				transform="translate(-89.35 1092.93) rotate(-89.81)" />
			<path class="cls-21"
				d="M499.93,594.12c-1.18-.19-2.36.03-2.62.49s.49,1,1.67,1.19,2.36-.03,2.62-.49-.49-1-1.67-1.19Z" />
			<path class="cls-21"
				d="M503.39,592.69c-1.18-.19-2.36.03-2.62.49s.49,1,1.67,1.19,2.36-.03,2.62-.49-.49-1-1.67-1.19Z" />
		</g>
		<g>
			<path class="cls-17"
				d="M440.54,579.55c.01-.99-4.07-2.47-5.58-2.48-.94,0-1.69.46-1.74.97-.04.38.66.87.66,1.49s-.72,1.12-.69,1.5c.04.51.78.98,1.73.98,1.56,0,5.61-1.46,5.62-2.46Z" />
			<path class="cls-17"
				d="M439.93,577.58c-1.23.09-2.32-.22-2.44-.7s.77-.94,2-1.03c1.23-.09,2.32.22,2.44.7s-.77.94-2,1.03Z" />
			<path class="cls-17"
				d="M442.93,579.29c-1.23.09-2.32-.22-2.44-.7s.77-.94,2-1.03,2.32.22,2.44.7-.77.94-2,1.03Z" />
			<path class="cls-17"
				d="M439.89,581.51c-1.22-.1-2.32.21-2.46.69s.75.95,1.98,1.04,2.32-.21,2.46-.69-.75-.95-1.98-1.04Z" />
			<path class="cls-17"
				d="M442.93,579.82c-1.22-.1-2.32.21-2.46.69s.75.95,1.98,1.04,2.32-.21,2.46-.69-.75-.95-1.98-1.04Z" />
		</g>
		<g>
			<path class="cls-28"
				d="M454.71,589.65c.53-.95-2.62-2.99-4.07-3.22-.9-.14-1.86.19-2.17.67-.23.36.19.93-.15,1.53s-1.27.96-1.44,1.33c-.23.49.24,1.06,1.15,1.2,1.5.24,6.15-.56,6.68-1.51Z" />
			<path class="cls-28"
				d="M455.15,587.66c-1.22-.1-2.11-.57-1.98-1.04s1.23-.79,2.46-.69,2.11.57,1.98,1.04-1.23.79-2.46.69Z" />
			<path class="cls-28"
				d="M457.14,589.75c-1.22-.1-2.11-.57-1.98-1.04s1.23-.79,2.46-.69,2.11.57,1.98,1.04-1.23.79-2.46.69Z" />
			<path class="cls-28"
				d="M453.07,591.42c-1.12-.28-2.34-.15-2.72.29s.23,1.02,1.35,1.3,2.34.15,2.72-.29-.23-1.02-1.35-1.3Z" />
			<path class="cls-28"
				d="M456.86,590.26c-1.12-.28-2.34-.15-2.72.29s.23,1.02,1.35,1.3,2.34.15,2.72-.29-.23-1.02-1.35-1.3Z" />
		</g>
		<g>
			<path class="cls-21"
				d="M396.82,576.99c.46-.96-2.82-2.93-4.28-3.14-.91-.13-1.85.22-2.13.71-.21.36.25.93-.04,1.53s-1.2.99-1.35,1.36c-.2.5.31,1.05,1.23,1.18,1.51.21,6.11-.68,6.57-1.64Z" />
			<ellipse class="cls-21" cx="397.31" cy="574.13" rx=".88" ry="2.23"
				transform="translate(-189.71 952.14) rotate(-88.1)" />
			<ellipse class="cls-21" cx="399.43" cy="576.18" rx=".88" ry="2.23"
				transform="translate(-189.7 956.25) rotate(-88.1)" />
			<path class="cls-21"
				d="M395.3,578.8c-1.14-.26-2.35-.1-2.7.35-.35.45.3,1.02,1.44,1.27s2.35.1,2.7-.35-.3-1.02-1.44-1.27Z" />
			<path class="cls-21"
				d="M399.01,577.56c-1.14-.26-2.35-.1-2.7.35s.3,1.02,1.44,1.27,2.35.1,2.7-.35-.3-1.02-1.44-1.27Z" />
		</g>
		<g>
			<path class="cls-17"
				d="M405.96,588.65c.94-.85-1.18-3.24-2.48-3.66-.81-.26-1.89-.07-2.41.36-.39.32-.25.93-.84,1.46s-1.67.77-2,1.1c-.45.45-.25,1.05.57,1.32,1.34.43,6.22.27,7.16-.58Z" />
			<path class="cls-17"
				d="M407.29,586.78c-1.14-.26-1.79-.83-1.44-1.27s1.55-.6,2.7-.35,1.79.83,1.44,1.27-1.55.6-2.7.35Z" />
			<path class="cls-17"
				d="M408.26,589.07c-1.14-.26-1.79-.83-1.44-1.27s1.55-.6,2.7-.35,1.79.83,1.44,1.27-1.55.6-2.7.35Z" />
			<path class="cls-17"
				d="M403.56,590.15c-.96-.42-2.2-.45-2.77-.08-.57.38-.24,1.02.72,1.44.96.42,2.2.45,2.77.08.57-.38.24-1.02-.72-1.44Z" />
			<path class="cls-17"
				d="M407.76,589.52c-.96-.42-2.2-.45-2.77-.08s-.24,1.02.72,1.44,2.2.45,2.77.08.24-1.02-.72-1.44Z" />
		</g>
		<g>
			<path class="cls-17"
				d="M357.58,564.83c.77-.9-1.81-3.16-3.19-3.49-.86-.21-1.89.04-2.33.49-.32.34-.06.94-.54,1.5s-1.51.86-1.77,1.21c-.36.47-.03,1.06.82,1.28,1.42.35,6.24-.09,7-.99Z" />
			<path class="cls-17"
				d="M358.53,562.89c-1.19-.19-1.94-.72-1.69-1.18s1.42-.69,2.61-.5,1.94.72,1.69,1.18-1.42.69-2.61.5Z" />
			<path class="cls-17"
				d="M359.96,565.11c-1.19-.19-1.94-.72-1.69-1.18s1.42-.69,2.61-.5,1.94.72,1.69,1.18-1.42.69-2.61.5Z" />
			<path class="cls-17"
				d="M355.49,566.46c-1.04-.36-2.28-.32-2.77.08s-.04,1.03,1,1.39c1.04.36,2.28.32,2.77-.08s.04-1.03-1-1.39Z" />
			<path class="cls-17"
				d="M359.55,565.59c-1.04-.36-2.28-.32-2.77.08s-.04,1.03,1,1.39,2.28.32,2.77-.08.04-1.03-1-1.39Z" />
		</g>
		<g>
			<path class="cls-22"
				d="M362.76,577.16c1.21-.75-.1-3.3-1.24-3.84-.71-.33-1.84-.24-2.49.12-.48.27-.55.89-1.3,1.36s-1.89.6-2.33.89c-.59.4-.59,1.02.13,1.35,1.18.55,6.03.85,7.24.11Z" />
			<path class="cls-22"
				d="M364.69,575.45c-1.04-.36-1.49-.98-1-1.39s1.73-.45,2.77-.08c1.04.36,1.49.98,1,1.39s-1.73.45-2.77.08Z" />
			<path class="cls-22"
				d="M364.9,577.8c-1.04-.36-1.49-.98-1-1.39s1.73-.45,2.77-.08,1.49.98,1,1.39-1.73.45-2.77.08Z" />
			<path class="cls-22"
				d="M359.91,578.42c-.81-.5-2.02-.65-2.7-.34-.68.32-.57.98.24,1.49s2.02.65,2.7.34.57-.98-.24-1.49Z" />
			<path class="cls-22"
				d="M364.25,578.2c-.81-.5-2.02-.65-2.7-.34s-.57.98.24,1.49,2.02.65,2.7.34.57-.98-.24-1.49Z" />
		</g>
		<g>
			<path class="cls-28"
				d="M335.47,546.12c1.61-.48,2.01-3.12,1.28-3.83-.46-.44-1.57-.57-2.42-.34-.63.17-1.08.74-2.09,1.04-.97.29-2.16.21-2.76.41-.81.27-1.2.85-.74,1.29.76.74,5.12,1.92,6.73,1.44Z" />
			<path class="cls-28"
				d="M338.37,544.87c-.75-.53-.77-1.2-.06-1.49s1.9-.1,2.65.43c.75.53.77,1.2.06,1.49s-1.9.1-2.65-.43Z" />
			<path class="cls-28"
				d="M337.07,547.11c-.75-.53-.77-1.2-.06-1.49s1.9-.1,2.65.43.77,1.2.06,1.49-1.9.1-2.65-.43Z" />
			<path class="cls-28"
				d="M331.99,546.77c-.44-.62-1.48-.99-2.32-.81s-1.16.82-.72,1.44,1.48.99,2.32.81,1.16-.82.72-1.44Z" />
			<path class="cls-28"
				d="M336.21,547.36c-.44-.62-1.48-.99-2.32-.81s-1.16.82-.72,1.44,1.48.99,2.32.81,1.16-.82.72-1.44Z" />
		</g>
		<g>
			<path class="cls-28"
				d="M326.07,557.71c1.79-.22,3.56-2.69,3.22-3.49-.21-.49-1.22-.78-2.14-.69-.69.07-1.42.54-2.55.68-1.09.13-2.18-.12-2.86-.02-.91.13-1.59.63-1.38,1.13.34.82,3.92,2.61,5.71,2.39Z" />
			<path class="cls-28"
				d="M329.5,556.95c-.44-.62-.12-1.27.72-1.44s1.88.19,2.32.81.12,1.27-.72,1.44-1.88-.19-2.32-.81Z" />
			<path class="cls-28"
				d="M327.09,558.9c-.44-.62-.12-1.27.72-1.44s1.88.19,2.32.81.12,1.27-.72,1.44-1.88-.19-2.32-.81Z" />
			<path class="cls-28"
				d="M322.39,557.81c-.1-.66-.91-1.17-1.8-1.13s-1.54.61-1.44,1.27.91,1.17,1.8,1.13,1.54-.61,1.44-1.27Z" />
			<path class="cls-28"
				d="M326.13,559.02c-.1-.66-.91-1.17-1.8-1.13s-1.54.61-1.44,1.27.91,1.17,1.8,1.13,1.54-.61,1.44-1.27Z" />
		</g>
		<g>
			<path class="cls-22"
				d="M337.12,522.93c1.84,0,4.56-2.21,4.56-3.02,0-.51-.87-.91-1.81-.93-.7-.02-1.61.36-2.76.37s-2.08-.38-2.78-.36c-.94.02-1.81.43-1.81.94,0,.84,2.76,3.01,4.6,3.01Z" />
			<path class="cls-22"
				d="M340.78,522.59c-.18-.66.4-1.25,1.29-1.32s1.76.41,1.93,1.07-.4,1.25-1.29,1.32-1.76-.41-1.93-1.07Z" />
			<path class="cls-22"
				d="M337.63,524.21c-.18-.66.4-1.25,1.29-1.32s1.76.41,1.93,1.07-.4,1.25-1.29,1.32-1.76-.41-1.93-1.07Z" />
			<path class="cls-22"
				d="M333.49,522.6c.17-.66-.41-1.25-1.3-1.32s-1.75.41-1.93,1.07.41,1.25,1.3,1.32,1.75-.41,1.93-1.07Z" />
			<path class="cls-22"
				d="M336.65,524.21c.17-.66-.41-1.25-1.3-1.32s-1.75.41-1.93,1.07.41,1.25,1.3,1.32,1.75-.41,1.93-1.07Z" />
		</g>
		<g>
			<path class="cls-17"
				d="M318.49,530.63c1.77.28,5.53-1.43,5.95-2.21.26-.49-.36-1-1.25-1.17-.67-.12-1.73.11-2.84-.07s-1.8-.68-2.49-.76c-.92-.12-1.96.14-2.22.63-.43.81,1.09,3.31,2.85,3.58Z" />
			<path class="cls-17"
				d="M322.18,530.86c.17-.66,1.03-1.14,1.93-1.07s1.47.66,1.3,1.32-1.03,1.14-1.93,1.07-1.47-.66-1.3-1.32Z" />
			<path class="cls-17"
				d="M318.31,531.94c.17-.66,1.03-1.14,1.93-1.07s1.47.66,1.3,1.32-1.03,1.14-1.93,1.07-1.47-.66-1.3-1.32Z" />
			<path class="cls-17"
				d="M315.17,529.76c.51-.61.26-1.26-.56-1.46s-1.9.13-2.41.74-.26,1.26.56,1.46,1.9-.13,2.41-.74Z" />
			<path class="cls-17"
				d="M317.37,531.8c.51-.61.26-1.26-.56-1.46s-1.9.13-2.41.74-.26,1.26.56,1.46,1.9-.13,2.41-.74Z" />
		</g>
		<g>
			<path class="cls-28"
				d="M358.99,502.06c1.75.3,5.61-1.34,6.07-2.12.29-.48-.3-1.01-1.19-1.19-.66-.13-1.74.08-2.84-.11s-1.76-.7-2.44-.8c-.91-.13-1.97.11-2.26.59-.48.8.9,3.32,2.65,3.63Z" />
			<path class="cls-28"
				d="M362.66,502.34c.21-.66,1.1-1.12,1.99-1.04s1.44.68,1.23,1.34-1.1,1.12-1.99,1.04-1.44-.68-1.23-1.34Z" />
			<path class="cls-28"
				d="M358.73,503.37c.21-.66,1.1-1.12,1.99-1.04s1.44.68,1.23,1.34-1.1,1.12-1.99,1.04-1.44-.68-1.23-1.34Z" />
			<path class="cls-28"
				d="M355.72,501.14c.54-.6.33-1.26-.48-1.47s-1.9.1-2.45.7-.33,1.26.48,1.47,1.9-.1,2.45-.7Z" />
			<path class="cls-28"
				d="M357.8,503.2c.54-.6.33-1.26-.48-1.47s-1.9.1-2.45.7-.33,1.26.48,1.47,1.9-.1,2.45-.7Z" />
		</g>
		<g>
			<path class="cls-21"
				d="M336.84,506.29c1.52.56,6.08-.44,6.93-1.11.53-.42.23-1.01-.52-1.32-.56-.23-1.71-.19-2.67-.54s-1.33-.94-1.92-1.14c-.81-.27-1.94-.19-2.47.23-.88.7-.87,3.33.66,3.88Z" />
			<path class="cls-21"
				d="M340.22,507.11c.54-.6,1.64-.91,2.45-.7s1.02.87.48,1.47-1.64.91-2.45.7c-.81-.21-1.02-.87-.48-1.47Z" />
			<path class="cls-21"
				d="M335.92,507.5c.54-.6,1.64-.91,2.45-.7s1.02.87.48,1.47-1.64.91-2.45.7-1.02-.87-.48-1.47Z" />
			<path class="cls-21"
				d="M334.19,504.91c.83-.49.97-1.16.3-1.48s-1.88-.19-2.71.3-.97,1.16-.3,1.48,1.88.19,2.71-.3Z" />
			<path class="cls-21"
				d="M335.11,507.2c.83-.49.97-1.16.3-1.48s-1.88-.19-2.71.3-.97,1.16-.3,1.48,1.88.19,2.71-.3Z" />
		</g>
		<g>
			<path class="cls-22"
				d="M394.35,492.24c.86.88,5.75,1.15,7.09.77.83-.24,1.09-.83.69-1.29-.3-.34-1.35-.6-1.88-1.15s-.35-1.17-.7-1.49c-.48-.44-1.54-.66-2.38-.43-1.38.39-3.67,2.72-2.81,3.59Z" />
			<path class="cls-22"
				d="M396.61,493.83c1-.39,2.24-.39,2.77,0s.14,1.03-.86,1.42-2.24.39-2.77,0-.14-1.03.86-1.42Z" />
			<path class="cls-22"
				d="M392.47,493.08c1-.39,2.24-.39,2.77,0s.14,1.03-.86,1.42-2.24.39-2.77,0-.14-1.03.86-1.42Z" />
			<path class="cls-22"
				d="M393.21,490.35c1.17-.22,1.87-.78,1.56-1.23s-1.49-.64-2.66-.42-1.87.78-1.56,1.23,1.49.64,2.66.42Z" />
			<path class="cls-22"
				d="M392.02,492.61c1.17-.22,1.87-.78,1.56-1.23-.3-.46-1.49-.64-2.66-.42s-1.87.78-1.56,1.23,1.49.64,2.66.42Z" />
		</g>
		<g>
			<path class="cls-21"
				d="M373.03,486.93c.37.97,4.92,1.97,6.4,1.81.92-.1,1.48-.64,1.34-1.14-.11-.37-.98-.78-1.21-1.39s.28-1.17.11-1.54c-.23-.49-1.14-.87-2.06-.77-1.53.17-4.94,2.05-4.57,3.02Z" />
			<path class="cls-21"
				d="M374.37,488.79c1.17-.22,2.36-.04,2.66.42s-.4,1.01-1.56,1.23c-1.17.22-2.36.04-2.66-.42s.4-1.01,1.56-1.23Z" />
			<path class="cls-21"
				d="M370.79,487.45c1.17-.22,2.36-.04,2.66.42.3.46-.4,1.01-1.56,1.23s-2.36.04-2.66-.42.4-1.01,1.56-1.23Z" />
			<ellipse class="cls-21" cx="372.83" cy="484.07" rx="2.24" ry=".88"
				transform="translate(-8.41 6.59) rotate(-1)" />
			<ellipse class="cls-21" cx="370.5" cy="486.05" rx="2.24" ry=".88"
				transform="translate(-8.44 6.55) rotate(-1)" />
		</g>
		<g>
			<path class="cls-28"
				d="M430.86,500.17c-.53.95,2.62,2.99,4.06,3.22.9.15,1.86-.19,2.17-.66.23-.36-.18-.93.15-1.53s1.27-.96,1.44-1.33c.23-.49-.24-1.06-1.15-1.2-1.5-.24-6.15.56-6.68,1.51Z" />
			<path class="cls-28"
				d="M430.42,502.16c1.22.1,2.11.57,1.98,1.05s-1.23.79-2.46.69-2.11-.57-1.98-1.05,1.23-.79,2.46-.69Z" />
			<path class="cls-28"
				d="M428.44,500.07c1.22.1,2.11.57,1.98,1.05s-1.23.79-2.46.69-2.11-.57-1.98-1.05,1.23-.79,2.46-.69Z" />
			<path class="cls-28"
				d="M432.51,498.4c1.12.28,2.34.15,2.72-.29s-.23-1.02-1.35-1.3c-1.12-.28-2.34-.15-2.72.29s.23,1.02,1.35,1.3Z" />
			<path class="cls-28"
				d="M428.72,499.56c1.12.28,2.34.15,2.72-.29s-.23-1.02-1.35-1.3c-1.12-.28-2.34-.15-2.72.29s.23,1.02,1.35,1.3Z" />
		</g>
		<g>
			<path class="cls-21"
				d="M422.53,488.35c-1,.83.95,3.26,2.22,3.71.79.28,1.89.1,2.43-.31.41-.31.31-.92.94-1.45s1.72-.73,2.08-1.06c.48-.44.32-1.05-.48-1.33-1.31-.46-6.2-.39-7.2.44Z" />
			<path class="cls-21"
				d="M421.07,490.19c1.12.28,1.73.86,1.35,1.3s-1.59.57-2.72.29c-1.12-.28-1.73-.86-1.35-1.3s1.59-.57,2.72-.29Z" />
			<path class="cls-21"
				d="M420.26,487.88c1.12.28,1.73.86,1.35,1.3s-1.59.57-2.72.29c-1.12-.28-1.73-.86-1.35-1.3s1.59-.57,2.72-.29Z" />
			<path class="cls-21"
				d="M425.03,486.89c.93.44,2.17.5,2.76.13s.31-1.02-.62-1.45c-.93-.44-2.17-.5-2.76-.13s-.31,1.02.62,1.45Z" />
			<path class="cls-21"
				d="M420.79,487.44c.93.44,2.17.5,2.76.13s.31-1.02-.62-1.45-2.17-.5-2.76-.13-.31,1.02.62,1.45Z" />
		</g>
		<g>
			<path class="cls-17"
				d="M461.61,515.38c-1.25.73-.09,3.3,1.03,3.85.69.34,1.83.27,2.5-.08.5-.27.6-.88,1.38-1.34s1.93-.57,2.38-.86c.61-.39.64-1.01-.05-1.35-1.15-.57-5.98-.95-7.23-.22Z" />
			<path class="cls-17"
				d="M459.59,517.06c1.02.38,1.43,1.01.92,1.41s-1.75.42-2.77.04-1.43-1.01-.92-1.41,1.75-.42,2.77-.04Z" />
			<path class="cls-17"
				d="M459.52,514.71c1.02.38,1.43,1.01.92,1.41s-1.75.42-2.77.04-1.43-1.01-.92-1.41,1.75-.42,2.77-.04Z" />
			<path class="cls-17"
				d="M464.53,514.17c.78.52,1.98.69,2.68.38s.63-.97-.15-1.49c-.78-.52-1.98-.69-2.68-.38s-.63.97.15,1.49Z" />
			<path class="cls-17"
				d="M460.18,514.32c.78.52,1.98.69,2.68.38s.63-.97-.15-1.49-1.98-.69-2.68-.38-.63.97.15,1.49Z" />
		</g>
		<g>
			<path class="cls-21"
				d="M463.77,502.78c-1.58.51-1.8,3.16-1.02,3.85.49.43,1.61.54,2.44.3.62-.18,1.03-.76,2.02-1.08s2.15-.25,2.73-.46c.79-.28,1.14-.87.65-1.3-.81-.72-5.25-1.82-6.82-1.31Z" />
			<path class="cls-21"
				d="M460.96,504.09c.78.52.85,1.18.15,1.49s-1.9.14-2.68-.38-.85-1.18-.15-1.49,1.9-.14,2.68.38Z" />
			<path class="cls-21"
				d="M462.1,501.82c.78.52.85,1.18.15,1.49s-1.9.14-2.68-.38-.85-1.18-.15-1.49,1.9-.14,2.68.38Z" />
			<path class="cls-21"
				d="M467.2,502.06c.48.61,1.54.96,2.37.77s1.11-.84.63-1.45-1.54-.96-2.37-.77-1.11.84-.63,1.45Z" />
			<path class="cls-21"
				d="M462.94,501.55c.48.61,1.54.96,2.37.77s1.11-.84.63-1.45-1.54-.96-2.37-.77-1.11.84-.63,1.45Z" />
		</g>
		<g>
			<path class="cls-22"
				d="M476.56,536.26c-1.78.25-3.41,2.75-3.03,3.53.23.49,1.26.76,2.18.66.69-.08,1.39-.57,2.51-.72s2.19.09,2.86-.02c.9-.15,1.56-.66,1.32-1.15-.39-.81-4.06-2.55-5.84-2.3Z" />
			<path class="cls-22"
				d="M473.17,537.08c.47.62.18,1.26-.65,1.45-.83.19-1.89-.16-2.36-.78s-.18-1.26.65-1.45,1.89.16,2.36.78Z" />
			<path class="cls-22"
				d="M475.48,535.08c.47.62.18,1.26-.65,1.45s-1.89-.16-2.36-.78c-.47-.62-.18-1.26.65-1.45s1.89.16,2.36.78Z" />
			<path class="cls-22"
				d="M480.23,536.1c.13.66.97,1.16,1.86,1.1s1.51-.63,1.38-1.29-.97-1.16-1.86-1.1-1.51.63-1.38,1.29Z" />
			<path class="cls-22"
				d="M476.43,534.95c.13.66.97,1.16,1.86,1.1s1.51-.63,1.38-1.29-.97-1.16-1.86-1.1-1.51.63-1.38,1.29Z" />
		</g>
		<g>
			<path class="cls-28"
				d="M491.09,526.32c-1.84-.03-4.7,2.12-4.75,2.93-.03.51.81.92,1.75.96.7.03,1.63-.33,2.79-.31s2.06.42,2.76.41c.95,0,1.83-.39,1.87-.9.05-.84-2.57-3.06-4.41-3.09Z" />
			<path class="cls-28"
				d="M487.42,526.59c.13.66-.48,1.24-1.38,1.29s-1.73-.44-1.86-1.1.48-1.24,1.38-1.29,1.73.44,1.86,1.1Z" />
			<path class="cls-28"
				d="M490.67,525.03c.13.66-.48,1.24-1.38,1.29s-1.73-.44-1.86-1.1.48-1.24,1.38-1.29,1.73.44,1.86,1.1Z" />
			<path class="cls-28"
				d="M494.7,526.72c-.22.66.33,1.26,1.21,1.34s1.78-.38,1.99-1.03-.33-1.26-1.21-1.34-1.78.38-1.99,1.03Z" />
			<path class="cls-28"
				d="M491.65,525.05c-.22.66.33,1.26,1.21,1.34s1.78-.38,1.99-1.03-.33-1.26-1.21-1.34-1.78.38-1.99,1.03Z" />
		</g>
		<g>
			<path class="cls-21"
				d="M466.92,558.85c-1.84-.05-4.78,2.07-4.87,2.88-.05.51.77.93,1.71.98.7.04,1.64-.32,2.8-.28s2.04.44,2.74.44c.95,0,1.85-.37,1.9-.88.08-.84-2.45-3.09-4.28-3.14Z" />
			<path class="cls-21"
				d="M463.23,559.09c.11.66-.53,1.24-1.43,1.28s-1.71-.46-1.82-1.12.53-1.24,1.43-1.28,1.71.46,1.82,1.12Z" />
			<path class="cls-21"
				d="M466.55,557.56c.11.66-.53,1.24-1.43,1.28-.9.04-1.71-.46-1.82-1.12s.53-1.24,1.43-1.28,1.71.46,1.82,1.12Z" />
			<path class="cls-21"
				d="M470.51,559.3c-.24.65.28,1.26,1.16,1.35.88.09,1.79-.36,2.03-1.01s-.28-1.26-1.16-1.35-1.79.36-2.03,1.01Z" />
			<path class="cls-21"
				d="M467.53,557.59c-.24.65.28,1.26,1.16,1.35.88.09,1.79-.36,2.03-1.01s-.28-1.26-1.16-1.35-1.79.36-2.03,1.01Z" />
		</g>
		<g>
			<path class="cls-27"
				d="M486.33,551.73c-1.74-.33-5.67,1.26-6.17,2.03-.31.48.26,1.01,1.13,1.2.65.14,1.74-.05,2.83.15s1.73.73,2.4.84c.91.15,1.97-.08,2.28-.56.52-.79-.74-3.33-2.48-3.66Z" />
			<path class="cls-27"
				d="M482.67,551.39c-.24.65-1.15,1.11-2.03,1.01-.88-.09-1.4-.7-1.16-1.35s1.15-1.11,2.03-1.01,1.4.7,1.16,1.35Z" />
			<path class="cls-27"
				d="M486.65,550.42c-.24.65-1.15,1.11-2.03,1.01s-1.4-.7-1.16-1.35,1.15-1.11,2.03-1.01,1.4.7,1.16,1.35Z" />
			<path class="cls-27"
				d="M489.55,552.69c-.57.59-.39,1.25.41,1.47s1.91-.07,2.48-.66.39-1.25-.41-1.47-1.91.07-2.48.66Z" />
			<path class="cls-27"
				d="M487.57,550.6c-.57.59-.39,1.25.41,1.47s1.91-.07,2.48-.66.39-1.25-.41-1.47-1.91.07-2.48.66Z" />
		</g>
		<g>
			<path class="cls-21"
				d="M435.63,567.65c-.74-.91-5.59-1.37-6.97-1.04-.86.2-1.2.79-.86,1.26.25.35,1.26.65,1.73,1.22s.19,1.18.5,1.52c.42.46,1.45.72,2.32.52,1.43-.34,4.02-2.57,3.28-3.48Z" />
			<path class="cls-21"
				d="M433.59,565.98c-1.05.35-2.29.3-2.76-.11s0-1.03,1.04-1.38,2.29-.3,2.76.11c.47.41,0,1.03-1.04,1.38Z" />
			<path class="cls-21"
				d="M437.61,566.89c-1.05.35-2.29.3-2.76-.11s0-1.03,1.04-1.38,2.29-.3,2.76.11,0,1.03-1.04,1.38Z" />
			<path class="cls-21"
				d="M436.52,569.58c-1.19.18-1.96.7-1.72,1.17s1.4.7,2.6.52c1.19-.18,1.96-.7,1.72-1.17s-1.4-.7-2.6-.52Z" />
			<path class="cls-21"
				d="M438.01,567.37c-1.19.18-1.96.7-1.72,1.17s1.4.7,2.6.52c1.19-.18,1.96-.7,1.72-1.17s-1.4-.7-2.6-.52Z" />
		</g>
		<g>
			<path class="cls-28"
				d="M456.2,573.77c-.24-.98-4.65-2.16-6.15-2.05-.93.07-1.56.58-1.48,1.08.06.38.88.81,1.02,1.43s-.43,1.16-.31,1.53c.16.5,1.02.91,1.96.85,1.55-.11,5.2-1.86,4.96-2.84Z" />
			<path class="cls-28"
				d="M455.11,571.86c-1.19.18-2.35-.05-2.6-.52s.53-.99,1.72-1.17,2.35.05,2.6.52-.53.99-1.72,1.17Z" />
			<path class="cls-28"
				d="M458.5,573.33c-1.19.18-2.35-.05-2.6-.52s.53-.99,1.72-1.17,2.35.05,2.6.52-.53.99-1.72,1.17Z" />
			<ellipse class="cls-28" cx="456.03" cy="576.63" rx=".88" ry="2.24"
				transform="translate(-122.32 1030.47) rotate(-89.78)" />
			<ellipse class="cls-28" cx="458.61" cy="574.73" rx=".88" ry="2.24"
				transform="translate(-117.85 1031.17) rotate(-89.78)" />
		</g>
		<g>
			<path class="cls-18"
				d="M393.83,563.29c0-.99-4.08-2.47-5.59-2.47-.94,0-1.69.46-1.74.97-.04.38.67.87.66,1.49s-.71,1.12-.68,1.5c.04.51.79.98,1.73.98,1.56,0,5.61-1.47,5.62-2.46Z" />
			<path class="cls-18"
				d="M393.21,561.32c-1.23.09-2.32-.22-2.44-.7s.77-.94,1.99-1.04c1.23-.09,2.32.22,2.44.7s-.77.94-1.99,1.04Z" />
			<path class="cls-18"
				d="M396.21,563.03c-1.23.09-2.32-.22-2.44-.7s.77-.94,1.99-1.04,2.32.22,2.44.7-.77.94-1.99,1.04Z" />
			<path class="cls-18"
				d="M393.18,565.25c-1.22-.1-2.32.21-2.45.69s.76.95,1.98,1.04,2.32-.21,2.45-.69-.76-.95-1.98-1.04Z" />
			<path class="cls-18"
				d="M396.21,563.55c-1.22-.1-2.32.21-2.45.69s.76.95,1.98,1.04,2.32-.21,2.45-.69-.76-.95-1.98-1.04Z" />
		</g>
		<g>
			<path class="cls-17"
				d="M408.03,573.37c.52-.95-2.63-2.99-4.08-3.22-.9-.14-1.86.19-2.17.67-.23.36.19.93-.14,1.53s-1.27.97-1.44,1.33c-.23.49.25,1.05,1.15,1.2,1.5.24,6.15-.57,6.67-1.52Z" />
			<path class="cls-17"
				d="M408.46,571.39c-1.22-.1-2.11-.56-1.98-1.04s1.23-.79,2.45-.69,2.11.56,1.98,1.04-1.23.79-2.45.69Z" />
			<path class="cls-17"
				d="M410.45,573.47c-1.22-.1-2.11-.56-1.98-1.04s1.23-.79,2.45-.69c1.22.1,2.11.56,1.98,1.04s-1.23.79-2.45.69Z" />
			<path class="cls-17"
				d="M406.39,575.15c-1.12-.28-2.34-.15-2.72.29s.23,1.02,1.36,1.3,2.34.15,2.72-.29-.23-1.02-1.36-1.3Z" />
			<path class="cls-17"
				d="M410.18,573.98c-1.12-.28-2.34-.15-2.72.29s.23,1.02,1.36,1.3,2.34.15,2.72-.29-.23-1.02-1.36-1.3Z" />
		</g>
		<g>
			<path class="cls-21"
				d="M349.1,559.25c.07-.99-3.9-2.55-5.42-2.58-.94-.02-1.72.43-1.8.93-.06.38.61.88.56,1.5s-.79,1.1-.79,1.48c0,.51.72.99,1.66,1.01,1.56.03,5.71-1.36,5.78-2.35Z" />
			<ellipse class="cls-21" cx="348.46" cy="556.39" rx="2.24" ry=".88"
				transform="translate(-16.75 10.85) rotate(-1.74)" />
			<ellipse class="cls-21" cx="351.34" cy="558.16" rx="2.24" ry=".88"
				transform="translate(-16.8 10.94) rotate(-1.74)" />
			<path class="cls-21"
				d="M348.33,561.19c-1.22-.12-2.34.17-2.5.64s.69.96,1.91,1.08c1.22.12,2.34-.17,2.5-.64s-.69-.96-1.91-1.08Z" />
			<path class="cls-21"
				d="M351.47,559.56c-1.22-.12-2.34.17-2.5.64s.69.96,1.91,1.08c1.22.12,2.34-.17,2.5-.64s-.69-.96-1.91-1.08Z" />
		</g>
		<g>
			<path class="cls-27"
				d="M362.6,569.6c.59-.94-2.42-3.04-3.85-3.29-.89-.16-1.87.15-2.22.62-.25.35.12.94-.24,1.53s-1.33.94-1.53,1.3c-.26.49.17,1.06,1.07,1.22,1.48.27,6.18-.44,6.77-1.38Z" />
			<path class="cls-27"
				d="M363.17,567.63c-1.22-.12-2.07-.61-1.91-1.08s1.28-.76,2.5-.64c1.22.12,2.07.61,1.91,1.08s-1.28.76-2.5.64Z" />
			<path class="cls-27"
				d="M365.02,569.75c-1.22-.12-2.07-.61-1.91-1.08s1.28-.76,2.5-.64,2.07.61,1.91,1.08-1.28.76-2.5.64Z" />
			<path class="cls-27"
				d="M360.85,571.35c-1.11-.3-2.33-.19-2.73.24s.16,1.03,1.27,1.33,2.33.19,2.73-.24-.16-1.03-1.27-1.33Z" />
			<path class="cls-27"
				d="M364.71,570.25c-1.11-.3-2.33-.19-2.73.24s.16,1.03,1.27,1.33,2.33.19,2.73-.24-.16-1.03-1.27-1.33Z" />
		</g>
		<g>
			<path class="cls-27"
				d="M301.62,560.96c-.21-.98-4.59-2.19-6.09-2.1-.94.06-1.58.57-1.51,1.07.05.38.85.82.98,1.44s-.46,1.16-.35,1.53c.15.5.99.92,1.93.86,1.55-.1,5.25-1.81,5.04-2.8Z" />
			<path class="cls-27"
				d="M300.58,559.04c-1.2.17-2.35-.07-2.58-.54s.56-.99,1.75-1.15,2.35.07,2.58.54-.56.99-1.75,1.15Z" />
			<path class="cls-27"
				d="M303.93,560.55c-1.2.17-2.35-.07-2.58-.54s.56-.99,1.75-1.15c1.2-.17,2.35.07,2.58.54s-.56.99-1.75,1.15Z" />
			<ellipse class="cls-27" cx="301.36" cy="563.82" rx=".88" ry="2.24"
				transform="translate(-264.97 860.44) rotate(-89.52)" />
			<ellipse class="cls-27" cx="304" cy="561.95" rx=".88" ry="2.24"
				transform="translate(-260.48 861.22) rotate(-89.52)" />
		</g>
		<g>
			<path class="cls-18"
				d="M317.92,570.07c.31-.98-3.26-2.8-4.75-2.94-.93-.09-1.81.3-2.01.8-.15.37.39.92.2,1.53s-1.05,1.04-1.13,1.42c-.12.51.47,1.03,1.41,1.12,1.54.14,5.98-.95,6.3-1.93Z" />
			<ellipse class="cls-18" cx="317.97" cy="567.2" rx=".88" ry="2.24"
				transform="translate(-251.88 880.39) rotate(-89.52)" />
			<ellipse class="cls-18" cx="320.4" cy="569.15" rx=".88" ry="2.24"
				transform="translate(-251.41 884.76) rotate(-89.52)" />
			<path class="cls-18"
				d="M316.69,571.94c-1.18-.2-2.36,0-2.63.46s.45,1,1.63,1.21c1.18.2,2.36,0,2.63-.46s-.45-1-1.63-1.21Z" />
			<path class="cls-18"
				d="M320.19,570.54c-1.18-.2-2.36,0-2.63.46s.45,1,1.63,1.21,2.36,0,2.63-.46-.45-1-1.63-1.21Z" />
		</g>
		<g>
			<path class="cls-17"
				d="M256.8,557.31c-.12-.99-4.39-2.31-5.9-2.25-.94.03-1.63.53-1.61,1.03.01.38.78.84.86,1.46s-.56,1.14-.48,1.52c.11.51.91.94,1.86.91,1.56-.06,5.4-1.68,5.28-2.67Z" />
			<path class="cls-17"
				d="M255.92,555.37c-1.21.14-2.34-.13-2.53-.61s.64-.97,1.85-1.11c1.21-.14,2.34.13,2.53.61s-.64.97-1.85,1.11Z" />
			<path class="cls-17"
				d="M259.14,556.95c-1.21.14-2.34-.13-2.53-.61s.64-.97,1.85-1.11,2.34.13,2.53.61-.64.97-1.85,1.11Z" />
			<ellipse class="cls-17" cx="256.29" cy="560.16" rx=".88" ry="2.24"
				transform="translate(-309.47 803.83) rotate(-88.72)" />
			<ellipse class="cls-17" cx="259.08" cy="558.35" rx=".88" ry="2.24"
				transform="translate(-304.94 804.86) rotate(-88.72)" />
		</g>
		<g>
			<path class="cls-17"
				d="M272.28,566.82c.4-.97-3.01-2.88-4.49-3.05-.92-.11-1.83.26-2.08.75-.18.37.31.92.06,1.53s-1.14,1.01-1.26,1.38c-.16.5.38,1.04,1.31,1.15,1.53.18,6.06-.8,6.46-1.77Z" />
			<ellipse class="cls-17" cx="272.58" cy="563.95" rx=".88" ry="2.24"
				transform="translate(-297.34 823.82) rotate(-88.72)" />
			<ellipse class="cls-17" cx="274.84" cy="565.96" rx=".88" ry="2.24"
				transform="translate(-297.13 828.05) rotate(-88.72)" />
			<path class="cls-17"
				d="M270.89,568.66c-1.16-.23-2.35-.06-2.67.4s.37,1.01,1.53,1.24,2.35.06,2.67-.4-.37-1.01-1.53-1.24Z" />
			<path class="cls-17"
				d="M274.51,567.35c-1.16-.23-2.35-.06-2.67.4s.37,1.01,1.53,1.24c1.16.23,2.35.06,2.67-.4s-.37-1.01-1.53-1.24Z" />
		</g>
		<g>
			<path class="cls-21"
				d="M211.5,557.09c-.05-.99-4.23-2.4-5.74-2.37-.94.01-1.66.49-1.68,1-.01.38.72.86.75,1.48s-.64,1.13-.59,1.51c.07.51.84.96,1.79.95,1.56-.02,5.52-1.57,5.46-2.56Z" />
			<path class="cls-21"
				d="M210.76,555.14c-1.22.11-2.33-.18-2.49-.66s.71-.96,1.93-1.07,2.33.18,2.49.66-.71.96-1.93,1.07Z" />
			<path class="cls-21"
				d="M213.87,556.79c-1.22.11-2.33-.18-2.49-.66s.71-.96,1.93-1.07,2.33.18,2.49.66-.71.96-1.93,1.07Z" />
			<ellipse class="cls-21" cx="210.79" cy="559.93" rx=".88" ry="2.23"
				transform="translate(-355.93 751.71) rotate(-88.07)" />
			<ellipse class="cls-21" cx="213.71" cy="558.18" rx=".88" ry="2.23"
				transform="translate(-351.36 752.94) rotate(-88.07)" />
		</g>
		<g>
			<path class="cls-18"
				d="M226.31,566.91c.46-.96-2.81-2.94-4.27-3.14-.91-.13-1.85.22-2.13.71-.21.36.25.93-.05,1.53s-1.21.99-1.35,1.36c-.2.5.31,1.05,1.23,1.18,1.51.21,6.11-.67,6.58-1.63Z" />
			<ellipse class="cls-18" cx="226.8" cy="564.05" rx=".88" ry="2.23"
				transform="translate(-344.58 771.69) rotate(-88.07)" />
			<ellipse class="cls-18" cx="228.93" cy="566.1" rx=".88" ry="2.23"
				transform="translate(-344.58 775.8) rotate(-88.07)" />
			<path class="cls-18"
				d="M224.78,568.72c-1.14-.26-2.35-.1-2.7.34s.3,1.02,1.44,1.28,2.35.1,2.7-.34-.3-1.02-1.44-1.28Z" />
			<path class="cls-18"
				d="M228.49,567.49c-1.14-.26-2.35-.1-2.7.34s.3,1.02,1.44,1.28,2.35.1,2.7-.34-.3-1.02-1.44-1.28Z" />
		</g>
		<g>
			<path class="cls-17"
				d="M165.6,554.6c-.15-.99-4.44-2.28-5.95-2.21-.94.04-1.61.54-1.58,1.04.02.38.8.84.89,1.46s-.54,1.15-.45,1.52c.12.51.93.94,1.88.9,1.56-.07,5.36-1.72,5.22-2.7Z" />
			<path class="cls-17"
				d="M164.68,552.67c-1.21.15-2.35-.12-2.54-.59s.62-.97,1.83-1.12c1.21-.15,2.35.12,2.54.59s-.62.97-1.83,1.12Z" />
			<path class="cls-17"
				d="M167.94,554.23c-1.21.15-2.35-.12-2.54-.59s.62-.97,1.83-1.12c1.21-.15,2.35.12,2.54.59s-.62.97-1.83,1.12Z" />
			<ellipse class="cls-17" cx="165.16" cy="557.45" rx=".88" ry="2.24"
				transform="translate(-395.29 712.16) rotate(-88.93)" />
			<ellipse class="cls-17" cx="167.91" cy="555.63" rx=".88" ry="2.24"
				transform="translate(-390.76 713.12) rotate(-88.93)" />
		</g>
		<g>
			<path class="cls-17"
				d="M181.31,564.01c.37-.97-3.08-2.86-4.56-3.02-.92-.1-1.83.27-2.06.76-.17.37.33.92.1,1.53s-1.11,1.02-1.22,1.39c-.15.5.41,1.04,1.33,1.14,1.53.17,6.04-.84,6.41-1.81Z" />
			<ellipse class="cls-17" cx="181.54" cy="561.14" rx=".88" ry="2.24"
				transform="translate(-382.9 732.14) rotate(-88.93)" />
			<ellipse class="cls-17" cx="183.84" cy="563.13" rx=".88" ry="2.24"
				transform="translate(-382.62 736.41) rotate(-88.93)" />
			<path class="cls-17"
				d="M179.95,565.85c-1.16-.23-2.36-.04-2.66.42s.39,1.01,1.55,1.23,2.36.04,2.66-.42-.39-1.01-1.55-1.23Z" />
			<path class="cls-17"
				d="M183.54,564.52c-1.16-.23-2.36-.04-2.66.42s.39,1.01,1.55,1.23,2.36.04,2.66-.42-.39-1.01-1.55-1.23Z" />
		</g>
		<g>
			<path class="cls-17"
				d="M119.43,553.55c-.28-.98-4.74-2.1-6.24-1.97-.93.08-1.54.6-1.44,1.1.07.38.91.8,1.09,1.42s-.38,1.16-.24,1.54c.19.5,1.06.9,1.99.82,1.54-.13,5.12-1.92,4.84-2.9Z" />
			<path class="cls-17"
				d="M118.25,551.66c-1.18.19-2.36-.03-2.62-.49s.49-1,1.67-1.19,2.36.03,2.62.49-.49,1-1.67,1.19Z" />
			<path class="cls-17"
				d="M121.7,553.09c-1.18.19-2.36-.03-2.62-.49s.49-1,1.67-1.19,2.36.03,2.62.49-.49,1-1.67,1.19Z" />
			<ellipse class="cls-17" cx="119.37" cy="556.42" rx="2.24" ry=".88"
				transform="translate(-1.75 .38) rotate(-.18)" />
			<ellipse class="cls-17" cx="121.87" cy="554.49" rx="2.24" ry=".88"
				transform="translate(-1.75 .39) rotate(-.18)" />
		</g>
		<g>
			<path class="cls-21"
				d="M136.37,562.32c.24-.98-3.46-2.73-4.96-2.84-.93-.07-1.79.34-1.95.84-.12.37.46.91.3,1.52s-.97,1.06-1.03,1.44c-.08.51.55,1.02,1.49,1.09,1.55.11,5.91-1.07,6.15-2.06Z" />
			<ellipse class="cls-21" cx="136.2" cy="559.45" rx="2.24" ry=".88"
				transform="translate(-1.76 .43) rotate(-.18)" />
			<ellipse class="cls-21" cx="138.78" cy="561.34" rx="2.24" ry=".88"
				transform="translate(-1.77 .44) rotate(-.18)" />
			<path class="cls-21"
				d="M135.26,564.21c-1.19-.18-2.35.05-2.6.52s.53.99,1.72,1.17,2.35-.05,2.6-.52-.53-.99-1.72-1.17Z" />
			<path class="cls-21"
				d="M138.67,562.74c-1.19-.18-2.35.05-2.6.52s.53.99,1.72,1.17c1.19.18,2.35-.05,2.6-.52s-.53-.99-1.72-1.17Z" />
		</g>
		<g>
			<path class="cls-18"
				d="M74.19,552.59c-.19-.99-4.55-2.22-6.05-2.13-.94.05-1.59.56-1.53,1.06.04.38.84.82.96,1.44s-.48,1.15-.38,1.53c.14.5.98.92,1.92.87,1.55-.09,5.28-1.79,5.09-2.78Z" />
			<path class="cls-18"
				d="M73.18,550.67c-1.2.16-2.35-.09-2.57-.56s.57-.98,1.77-1.15c1.2-.16,2.35.09,2.57.56s-.57.98-1.77,1.15Z" />
			<path class="cls-18"
				d="M76.51,552.19c-1.2.16-2.35-.09-2.57-.56s.57-.98,1.77-1.15c1.2-.16,2.35.09,2.57.56s-.57.98-1.77,1.15Z" />
			<ellipse class="cls-18" cx="73.89" cy="555.45" rx=".88" ry="2.24"
				transform="translate(-482.34 623.22) rotate(-89.37)" />
			<ellipse class="cls-18" cx="76.55" cy="553.59" rx=".88" ry="2.24"
				transform="translate(-477.84 624.04) rotate(-89.37)" />
		</g>
		<g>
			<path class="cls-18"
				d="M90.34,561.78c.33-.97-3.21-2.81-4.7-2.96-.93-.09-1.81.3-2.02.79-.16.37.38.92.17,1.53s-1.06,1.03-1.16,1.41c-.13.5.46,1.03,1.39,1.12,1.54.15,6-.92,6.33-1.9Z" />
			<ellipse class="cls-18" cx="90.44" cy="558.9" rx=".88" ry="2.24"
				transform="translate(-469.43 643.18) rotate(-89.37)" />
			<ellipse class="cls-18" cx="92.84" cy="560.86" rx=".88" ry="2.24"
				transform="translate(-469.01 647.52) rotate(-89.37)" />
			<path class="cls-18"
				d="M89.08,563.64c-1.17-.21-2.36,0-2.64.45s.44,1,1.61,1.21c1.17.21,2.36,0,2.64-.45s-.44-1-1.61-1.21Z" />
			<path class="cls-18"
				d="M92.6,562.26c-1.17-.21-2.36,0-2.64.45s.44,1,1.61,1.21,2.36,0,2.64-.45-.44-1-1.61-1.21Z" />
		</g>
		<g>
			<path class="cls-22"
				d="M28.53,556.84c-.2-.98-4.56-2.21-6.07-2.12-.94.05-1.58.56-1.53,1.07.04.38.84.82.97,1.44s-.48,1.15-.37,1.53c.14.5.98.92,1.92.87,1.55-.09,5.27-1.8,5.07-2.78Z" />
			<path class="cls-22"
				d="M27.51,554.92c-1.2.16-2.35-.08-2.57-.55s.57-.98,1.77-1.15,2.35.08,2.57.55-.57.98-1.77,1.15Z" />
			<path class="cls-22"
				d="M30.84,556.43c-1.2.16-2.35-.08-2.57-.55s.57-.98,1.77-1.15c1.2-.16,2.35.08,2.57.55s-.57.98-1.77,1.15Z" />
			<ellipse class="cls-22" cx="28.24" cy="559.69" rx=".88" ry="2.24"
				transform="translate(-531.72 582.26) rotate(-89.42)" />
			<ellipse class="cls-22" cx="30.89" cy="557.83" rx=".88" ry="2.24"
				transform="translate(-527.22 583.07) rotate(-89.42)" />
		</g>
		<g>
			<path class="cls-17"
				d="M44.73,566c.32-.98-3.23-2.81-4.72-2.95-.93-.09-1.81.3-2.02.79-.16.37.38.92.18,1.53s-1.06,1.04-1.15,1.41c-.12.5.46,1.03,1.39,1.12,1.54.15,5.99-.93,6.32-1.91Z" />
			<ellipse class="cls-17" cx="44.8" cy="563.12" rx=".88" ry="2.24"
				transform="translate(-518.75 602.21) rotate(-89.42)" />
			<ellipse class="cls-17" cx="47.22" cy="565.08" rx=".88" ry="2.24"
				transform="translate(-518.31 606.56) rotate(-89.42)" />
			<path class="cls-17"
				d="M43.47,567.86c-1.18-.21-2.36,0-2.64.46s.44,1,1.62,1.21c1.18.21,2.36,0,2.64-.46s-.44-1-1.62-1.21Z" />
			<path class="cls-17"
				d="M46.99,566.48c-1.18-.21-2.36,0-2.64.46s.44,1,1.62,1.21c1.18.21,2.36,0,2.64-.46s-.44-1-1.62-1.21Z" />
		</g>
	</g>
	<g>
		<path class="cls-12"
			d="M413.81,493.31v41.31c0,3.64,9.27,6.59,20.71,6.59s20.71-2.95,20.71-6.59v-41.31h-41.41Z" />
		<ellipse class="cls-16" cx="434.52" cy="493.31" rx="20.71" ry="6.59" />
		<ellipse class="cls-14" cx="434.52" cy="493.31" rx="17.77" ry="4.97" />
		<g>
			<path class="cls-26"
				d="M434.52,519.66c0,1.88,1.53,3.43,3.43,3.28,1.89-.15,3.41-1.94,3.41-3.82,0-1.89-1.52-3.16-3.41-3.01-1.89.15-3.43,1.66-3.43,3.55Z" />
			<path class="cls-31"
				d="M434.52,516.24c-1.14,0-2.29-.04-3.43-.13-1.89-.15-3.41,1.12-3.41,3.01,0,1.89,1.52,3.67,3.41,3.82,1.14.09,2.28.13,3.43.13v-6.83Z" />
			<path class="cls-24"
				d="M434.52,509.41c-1.14,0-2.29-.04-3.43-.13-1.89-.15-3.41,1.12-3.41,3.01,0,1.88,1.52,3.68,3.41,3.82,1.14.09,2.28.13,3.43.13v-6.83Z" />
			<path class="cls-21"
				d="M434.52,523.08c-1.08,0-2.16-.04-3.23-.12-1.85-.13-3.5.98-3.6,2.82-.1,1.95,1.45,3.85,3.4,4h0c1.89.15,3.43-1.4,3.43-3.28v-3.42Z" />
			<path class="cls-25"
				d="M437.94,509.28c-1.14.09-2.28.13-3.43.13v6.83c1.14,0,2.29-.04,3.43-.13,1.89-.15,3.41-1.94,3.41-3.82,0-1.89-1.52-3.16-3.41-3.01Z" />
		</g>
	</g>
	<g>
		<path class="cls-7"
			d="M412.57,383.83c-36.24,11.59-85.97,3.14-97.16-16.93,6.78,5.49,41.96-1.89,59.96-21.24,8.47-9.09,13.13-20.83,9.26-35.15-.47-1.72-2.13-3.75-4.32-5.84l-4.75-51.04c35.41,16.1,74.2,31.82,76.42,81.81,1.14,25.62-16.41,41.04-39.41,48.39Z" />
		<path class="cls-4"
			d="M412.57,383.82c-36.24,11.6-85.97,3.15-97.16-16.92,6.78,5.48,41.96-1.89,59.96-21.25l24.7,1.94,12.5,36.22Z" />
	</g>
	<rect class="cls-5" x="292.92" y="109.07" width="12.67" height="346.87" />
	<rect class="cls-8" x="359.85" y="138.62" width="12.67" height="403.64"
		transform="translate(-51.92 66.25) rotate(-9.66)" />
	<rect class="cls-8" x="227.48" y="138.62" width="12.67" height="403.64"
		transform="translate(407.21 715.28) rotate(-170.34)" />
	<g>
		<path class="cls-16"
			d="M382.27,507.36v41.31c0,3.64,9.27,6.59,20.71,6.59s20.71-2.95,20.71-6.59v-41.31h-41.41Z" />
		<ellipse class="cls-16" cx="402.97" cy="507.36" rx="20.71" ry="6.59" />
		<ellipse class="cls-13" cx="402.97" cy="507.36" rx="17.77" ry="4.97" />
		<g>
			<path class="cls-26"
				d="M394.28,537.77v-13.3c.72.11,1.45.22,2.18.3v13.3c-.73-.09-1.45-.19-2.18-.3ZM395.33,532.76c0-.7,0-1.4,0-2.09,1.41.2,2.83.34,4.25.43.53.03.96-.13,1.29-.47.33-.35.49-.82.49-1.4,0-.6-.16-1.09-.49-1.46-.32-.37-.76-.57-1.29-.61-1.42-.09-2.84-.24-4.25-.43,0-.7,0-1.4,0-2.09,1.39.19,2.79.34,4.19.43.82.05,1.54.25,2.15.61.61.35,1.09.83,1.43,1.45.34.61.51,1.33.51,2.15,0,.82-.17,1.53-.51,2.14-.34.61-.82,1.08-1.44,1.39-.61.32-1.33.45-2.15.4-1.4-.09-2.79-.24-4.19-.43Z" />
			<path class="cls-26"
				d="M408.38,538.4c-.85.07-1.64,0-2.37-.2-.73-.21-1.37-.53-1.91-.98.44-.55.89-1.11,1.33-1.68.49.32.98.56,1.48.7.5.15.99.2,1.47.16.66-.06,1.17-.2,1.51-.42.34-.22.52-.5.52-.84,0-.32-.12-.53-.35-.63-.23-.1-.54-.15-.92-.15-.38,0-.78,0-1.22-.01-.4-.01-.79-.04-1.18-.09-.39-.05-.74-.15-1.06-.31-.32-.15-.58-.4-.77-.74-.19-.33-.29-.79-.29-1.37,0-.98.32-1.73.97-2.27.65-.54,1.59-.84,2.81-.95.74-.07,1.44-.04,2.11.09.67.12,1.28.34,1.84.66-.43.6-.87,1.19-1.3,1.78-.44-.21-.89-.36-1.35-.45-.45-.09-.89-.12-1.32-.08-.57.05-1.01.16-1.31.35-.3.18-.45.44-.45.76,0,.24.1.4.31.5.21.09.48.15.82.16.34.01.7.02,1.09.02.41,0,.82,0,1.23.02.41.02.79.09,1.14.23.35.14.63.37.84.7.21.34.32.82.32,1.45,0,1-.34,1.83-1.02,2.45-.68.62-1.68,1.02-2.99,1.13Z" />
		</g>
	</g>
	<polygon class="cls-9" points="379.37 331.3 219.14 331.3 237.02 132.9 361.49 132.9 379.37 331.3" />
	<path class="cls-4"
		d="M374.58,326.02h-150.65c-4.15,0-7.41-3.45-7.03-7.45l17.27-185.41c.33-3.52,3.38-6.22,7.03-6.22h116.11c3.65,0,6.7,2.7,7.03,6.22l17.27,185.41c.37,4-2.88,7.45-7.03,7.45Z" />
	<g>
		<path class="cls-23"
			d="M248.92,150.05c3.03-1.51,4.17-10.48,2.93-12.97-.77-1.55-2.8-2.07-4.39-1.37-1.18.52-2.1,2.43-4,3.37-1.83.91-4,.54-5.13,1.17-1.52.84-2.33,2.79-1.55,4.34,1.28,2.57,9.12,6.96,12.15,5.45Z" />
		<ellipse class="cls-23" cx="256.89" cy="144.31" rx="3" ry="4.12"
			transform="translate(-36.51 171.38) rotate(-34.6)" />
		<ellipse class="cls-23" cx="254.17" cy="151.85" rx="3" ry="4.12"
			transform="translate(-41.28 171.17) rotate(-34.6)" />
		<ellipse class="cls-23" cx="239.58" cy="152.92" rx="3" ry="4.12"
			transform="translate(-35.92 83.04) rotate(-18.32)" />
		<ellipse class="cls-23" cx="247.24" cy="155.3" rx="3" ry="4.12"
			transform="translate(-36.28 85.56) rotate(-18.32)" />
	</g>
	<path class="cls-3"
		d="M266.69,235.84h65.14c2.4,0,4.3-2.04,4.13-4.44l-1.43-20.05c-.16-2.17-1.96-3.85-4.13-3.85h-62.27c-2.17,0-3.98,1.68-4.13,3.85l-1.43,20.05c-.17,2.4,1.73,4.44,4.13,4.44Z" />
	<g>
		<path class="cls-19"
			d="M275.23,216.86c.19-.88-.23-1.73-1.03-2.15-.86-.45-1.9-.19-2.69.28-1.45.86-2.38,2.35-2.91,3.92-.94,2.81-1.29,8.12,2.89,8.22,2.15.05,4.33-1.19,5.88-2.57.72-.64-.34-1.7-1.06-1.06-1.26,1.12-3.08,2.18-4.82,2.13s-2.04-1.84-1.98-3.26c.06-1.5.37-3.06,1.14-4.37.37-.63.86-1.22,1.48-1.62.32-.21.69-.42,1.08-.4.24,0,.65.18.58.49-.2.94,1.24,1.34,1.45.4h0Z" />
		<path class="cls-19"
			d="M280.83,215.13c.37,4.5-1.21,8.86-1.14,13.35.01.96,1.51.97,1.5,0-.07-4.49,1.5-8.85,1.14-13.35-.08-.96-1.58-.96-1.5,0h0Z" />
		<path class="cls-19"
			d="M286.25,220.48c-.18-.39-.72-.51-1.08-.31-.31.17-.47.47-.5.82-.06.67-.07,1.34-.11,2.01-.07,1.32-.14,2.63-.21,3.95-.02.4.36.75.75.75.42,0,.73-.34.75-.75.05-.99.11-1.99.16-2.98.03-.49.05-.97.08-1.46.01-.24.03-.49.04-.73,0-.12.01-.24.02-.36,0-.06,0-.12,0-.18.03-.26-.04-.18-.23.23l-.38.1h.03c-.22-.12-.43-.24-.65-.37l.02.04c.17.37.7.46,1.03.27.38-.22.44-.66.27-1.03h0Z" />
		<path class="cls-19"
			d="M286.65,215.43s0-.03.01-.05l-.08.18s.03-.05.04-.08l-.12.15s.04-.04.06-.06l-.15.12s.06-.04.09-.05l-.18.08s.07-.02.11-.03l-.2.03s.07,0,.1,0l-.2-.03s.06.01.09.02l-.18-.08s.04.02.06.04l-.15-.12s0,0,.01,0c.07.07.15.12.24.16.09.05.19.07.29.06.1,0,.2-.02.29-.06.09-.03.17-.08.24-.16l.12-.15c.07-.12.1-.24.1-.38l-.03-.2c-.04-.13-.1-.24-.19-.33-.06-.05-.12-.1-.19-.14s-.16-.07-.22-.1c-.03-.01-.06-.02-.09-.02-.08-.01-.19-.04-.29-.03s-.2.02-.29.05c-.19.06-.34.15-.48.28-.13.13-.24.31-.28.49-.03.1-.04.2-.01.3,0,.1.03.19.09.28.05.09.11.16.19.21.07.07.16.11.26.13l.2.03c.14,0,.26-.03.38-.1l.15-.12c.09-.09.16-.2.19-.33h0Z" />
		<path class="cls-19"
			d="M291.99,222.44c.43-.51.44-1.17.01-1.69-.45-.56-1.17-.65-1.81-.36-1.08.49-1.79,1.77-2.19,2.82-.69,1.79-.86,6.11,2.06,5.78,1.41-.16,2.75-.94,3.77-1.89.71-.66-.36-1.72-1.06-1.06s-1.69,1.26-2.7,1.44c-.37.07-.6.05-.74-.31-.16-.42-.24-.9-.26-1.35-.04-.94.16-1.89.61-2.73.23-.42.51-.83.86-1.16.09-.08.25-.19.32-.22-.01,0-.06-.05-.06-.06.05.08.06.09.02.04-.02-.12,0-.22.09-.31-.26.31-.3.76,0,1.06.27.27.8.31,1.06,0h0Z" />
		<path class="cls-19"
			d="M296.43,216.76c-.5,3.73-.99,7.47-1.49,11.2-.09.68.86.93,1.28.53,1.91-1.82,3.76-3.7,5.56-5.63.66-.71-.4-1.77-1.06-1.06-1.8,1.93-3.65,3.81-5.56,5.63l1.28.53c.5-3.73.99-7.47,1.49-11.2.05-.4-.38-.75-.75-.75-.45,0-.7.35-.75.75h0Z" />
		<path class="cls-19"
			d="M297.28,225.87c1.39.71,2.74,1.5,4.02,2.39.32.22.85.07,1.03-.27.2-.38.08-.79-.27-1.03-1.29-.89-2.63-1.68-4.02-2.39-.35-.18-.83-.1-1.03.27-.18.34-.1.84.27,1.03h0Z" />
		<path class="cls-19"
			d="M309.67,221.43c.29,2.58-.23,5.11-.78,7.62l1.47.2c.11-1.33.24-2.67.61-3.96.33-1.16.96-2.62,2.08-3.22.99-.53,2.15.28,2.49,1.24.22.62.16,1.29-.02,1.91-.15.49-.46,1.44-.95,1.67l1.1.45c-.36-1.98,1.18-3.78,3.12-4,.44-.05.94-.04,1.36.09.5.16.24.66.13,1.05-.33,1.23-.5,2.49-.53,3.76-.02.97,1.48.97,1.5,0,.02-.88.11-1.76.29-2.62.15-.71.47-1.44.38-2.18-.19-1.54-2.08-1.73-3.31-1.58-2.9.35-4.92,2.99-4.39,5.88.09.52.7.63,1.1.45.76-.35,1.21-1.4,1.5-2.13.33-.86.46-1.8.28-2.71-.31-1.62-1.82-3.02-3.51-2.94-1.81.08-3.03,1.88-3.66,3.39-.72,1.73-.9,3.61-1.06,5.46-.07.84,1.29,1.02,1.47.2.57-2.63,1.14-5.32.83-8.02-.11-.95-1.61-.96-1.5,0h0Z" />
		<path class="cls-19"
			d="M326.67,225.44c.85-.27,1.69-.59,2.5-.97.73-.34,1.82-.82,1.57-1.83-.19-.78-1.3-1.2-2-1.36-.82-.18-1.67-.08-2.39.36-1.52.92-2,2.68-2.24,4.33-.12.86-.2,1.74.23,2.54.36.67,1.03,1.09,1.73,1.36,1.62.63,3.75.7,5.25-.25.81-.52.06-1.82-.76-1.3-.94.6-2.1.59-3.16.37-.88-.18-1.88-.52-1.89-1.57-.03-1.8.87-5.31,3.37-4.23.14.06.3.2.45.24l.08.05-.09-.46s-.05.02-.08.03c-.14.02-.34.18-.46.24-.16.08-.32.16-.48.23-.65.3-1.33.55-2.02.77-.92.29-.53,1.74.4,1.45h0Z" />
	</g>
	<g>
		<path class="cls-10"
			d="M297.88,320.98s-10.94,6.33-14.27,4.81c-2.57-1.17-2.86-7.62-.4-8.91,3.19-1.68,14.67,4.11,14.67,4.11Z" />
		<path class="cls-9" d="M233.82,322.54c-.1-3.25,45.34-5.56,45.34-5.56l.4,8.91s-45.63.14-45.74-3.35Z" />
		<polygon class="cls-11" points="281.74 316.91 282.14 325.82 279.56 325.89 279.16 316.97 281.74 316.91" />
	</g>
	<rect class="cls-9" x="211.96" y="326.02" width="174.59" height="16.38" />
	<g>
		<path class="cls-30"
			d="M311.93,175.91c2.84,1.84,11.15-1.74,12.66-4.07.94-1.45.36-3.47-1.05-4.48-1.05-.75-3.16-.57-4.94-1.73-1.72-1.12-2.5-3.17-3.62-3.82-1.5-.88-3.58-.59-4.53.87-1.56,2.41-1.36,11.39,1.48,13.23Z" />
		<ellipse class="cls-30" cx="320.92" cy="179.86" rx="4.12" ry="3"
			transform="translate(22.88 395.52) rotate(-65.16)" />
		<ellipse class="cls-30" cx="313.04" cy="181.35" rx="4.12" ry="3"
			transform="translate(16.95 389.23) rotate(-65.16)" />
		<ellipse class="cls-30" cx="304.7" cy="169.33" rx="4.12" ry="3"
			transform="translate(-23.25 287.49) rotate(-48.88)" />
		<ellipse class="cls-30" cx="306.55" cy="177.14" rx="4.12" ry="3"
			transform="translate(-28.5 291.56) rotate(-48.88)" />
	</g>
	<g>
		<path class="cls-20"
			d="M225.82,299.08c-6.21-3.33-19.42-11.46-31.89-25.95-15.66-18.18-33.33-50.4-28.59-100.62,1.96-20.8,9.44-36.84,22.23-47.68,11.4-9.65,26.82-14.76,44.6-14.76s38.67,5.52,57.26,15.61c-15.27.49-34.11,7.9-49.62,19.58-18.01,13.57-29.09,30.47-31.22,47.6-5.46,44.01,9.35,92.41,17.24,106.21Z" />
		<path class="cls-29"
			d="M232.16,111.07c17.28,0,36.09,4.88,53.66,13.84-14.76,1.42-32.14,8.64-46.62,19.55-18.22,13.73-29.45,30.87-31.61,48.27-4.94,39.87,7.14,86.12,15.7,103.77-6.84-4.02-18.03-11.73-28.67-24.11-9.86-11.47-17.33-24.65-22.21-39.19-6.11-18.2-8.16-38.59-6.08-60.61,1.93-20.53,9.3-36.35,21.88-47.01,11.21-9.5,26.41-14.52,43.95-14.52M232.16,109.07c-34.42,0-63.63,18.87-67.82,63.34-9.23,98,64.71,129.38,64.71,129.38-6.18-4.72-25.53-60.03-19.48-108.81,4.55-36.69,50.51-66.33,81.43-66.33.77,0,1.54.02,2.3.06-19.57-11.33-41.23-17.64-61.14-17.64h0Z" />
	</g>
	<g>
		<g>
			<path class="cls-20"
				d="M229.71,247.39c-12.81,0-26.7-15.98-29.65-29.21-1.51-6.75-.31-13.68,3.38-19.51,3.69-5.83,9.42-9.87,16.14-11.37,1.85-.41,3.74-.62,5.62-.62,11.97,0,22.56,8.52,25.18,20.27,1.57,7.05.65,16.34-2.42,24.25-1.98,5.1-6.57,13.95-15.04,15.84-1.04.23-2.12.35-3.21.35h0Z" />
			<path class="cls-29"
				d="M225.2,187.47c11.6,0,21.87,8.26,24.41,19.65,2.97,13.31-3.4,36.15-16.86,39.15-.98.22-2,.33-3.04.33-12.46,0-25.99-15.64-28.88-28.59-3.01-13.5,5.47-26.93,18.92-29.93,1.79-.4,3.63-.6,5.45-.6M225.2,185.89c-1.91,0-3.85.21-5.79.64-14.32,3.2-23.33,17.44-20.12,31.82,2.96,13.25,17.02,29.83,30.42,29.83,1.13,0,2.26-.12,3.38-.37,14.32-3.2,21.27-26.66,18.06-41.04-2.77-12.43-13.77-20.88-25.95-20.88h0Z" />
		</g>
		<ellipse class="cls-29" cx="230.67" cy="219.98" rx="4.31" ry="2.45"
			transform="translate(-79.41 146.15) rotate(-30.25)" />
		<path class="cls-29"
			d="M232.2,239.71c-3.18,1.47-5.4,4.66-5.98,8.12,2.57.55,5.16.52,7.74-.25,2.91-.86,5.57-2.62,7.96-5.02-1.93-3.33-5.91-4.6-9.72-2.86Z" />
		<path class="cls-15"
			d="M242.42,187.67c-5.3-19.47-12.26-34.01-21.45-41.85-3.75,20.4-7.56,34.55-11.44,40.25,10.97-5.08,21.93-4.28,32.89,1.6Z" />
	</g>
	<g>
		<path class="cls-27"
			d="M349.34,162.33c3.27.86,10.04-5.15,10.74-7.84.44-1.68-.75-3.4-2.41-3.92-1.23-.39-3.18.45-5.23-.09-1.98-.52-3.37-2.22-4.64-2.49-1.7-.36-3.59.57-4.03,2.25-.73,2.78,2.29,11.24,5.56,12.1Z" />
		<ellipse class="cls-27" cx="359.12" cy="163.25" rx="4.12" ry="3"
			transform="translate(156.11 501.49) rotate(-83.47)" />
		<ellipse class="cls-27" cx="352.1" cy="167.14" rx="4.12" ry="3"
			transform="translate(146.02 497.96) rotate(-83.47)" />
		<ellipse class="cls-27" cx="340.41" cy="158.35" rx="4.12" ry="3"
			transform="translate(62.48 410.76) rotate(-67.19)" />
		<ellipse class="cls-27" cx="344.62" cy="165.18" rx="4.12" ry="3"
			transform="translate(58.76 418.83) rotate(-67.19)" />
	</g>
	<g>
		<path class="cls-22"
			d="M242.56,289.87c3.27.86,10.04-5.15,10.74-7.84.44-1.68-.75-3.4-2.41-3.92-1.23-.39-3.18.45-5.23-.09-1.98-.52-3.37-2.22-4.64-2.49-1.7-.36-3.59.57-4.03,2.25-.73,2.78,2.29,11.24,5.56,12.1Z" />
		<ellipse class="cls-22" cx="252.34" cy="290.79" rx="4.12" ry="3"
			transform="translate(-65.25 508.43) rotate(-83.47)" />
		<ellipse class="cls-22" cx="245.32" cy="294.68" rx="4.12" ry="3"
			transform="translate(-75.34 504.91) rotate(-83.47)" />
		<ellipse class="cls-22" cx="233.63" cy="285.89" rx="4.12" ry="3"
			transform="translate(-120.47 390.43) rotate(-67.19)" />
		<ellipse class="cls-22" cx="237.84" cy="292.72" rx="4.12" ry="3"
			transform="translate(-124.19 398.49) rotate(-67.19)" />
	</g>
	<g>
		<path class="cls-29"
			d="M343.3,305.61c-2.01,2.72,1.07,11.23,3.31,12.88,1.39,1.03,3.44.56,4.53-.78.81-1,.76-3.12,2.02-4.83,1.22-1.65,3.31-2.31,4.03-3.38.97-1.44.8-3.54-.6-4.57-2.31-1.7-11.29-2.04-13.3.69Z" />
		<ellipse class="cls-29" cx="338.82" cy="314.36" rx="3" ry="4.12"
			transform="translate(-98.5 463.92) rotate(-61.74)" />
		<ellipse class="cls-29" cx="337.81" cy="306.4" rx="3" ry="4.12"
			transform="translate(-92.03 458.84) rotate(-61.74)" />
		<ellipse class="cls-29" cx="350.3" cy="298.79" rx="3" ry="4.12"
			transform="translate(-108.38 338.85) rotate(-45.45)" />
		<ellipse class="cls-29" cx="342.4" cy="300.17" rx="3" ry="4.12"
			transform="translate(-111.72 333.63) rotate(-45.45)" />
	</g>
	<g>
		<path class="cls-1"
			d="M344.46,254.86c-2.69,2.05-2.12,11.08-.44,13.29,1.05,1.38,3.14,1.5,4.57.52,1.06-.73,1.6-2.78,3.29-4.07,1.63-1.24,3.83-1.29,4.82-2.12,1.33-1.12,1.76-3.17.71-4.56-1.74-2.28-10.26-5.12-12.96-3.07Z" />
		<ellipse class="cls-1" cx="337.71" cy="261.99" rx="3" ry="4.12"
			transform="translate(-85.91 318.89) rotate(-45.45)" />
		<ellipse class="cls-1" cx="338.96" cy="254.07" rx="3" ry="4.12"
			transform="translate(-79.89 317.42) rotate(-45.45)" />
		<ellipse class="cls-1" cx="353.09" cy="250.27" rx="3" ry="4.12"
			transform="translate(-77.21 203.86) rotate(-29.17)" />
		<ellipse class="cls-1" cx="345.11" cy="249.38" rx="3" ry="4.12"
			transform="translate(-77.78 199.86) rotate(-29.17)" />
	</g>
	<g>
		<path class="cls-6" d="M242.69,184.4s5.67-6.78-1.3-9.09" />
		<path class="cls-2"
			d="M211.84,179.76c-3.28-.4-.19,3.4,2.34,6.81,3.65,4.93,10.27,6.56,18.79,9.38,14.41,4.77,24.24,14.26,26.77,6.6,2.54-7.66-6.57-19.81-21.51-22.51-14.02-2.54-16.41.94-26.39-.28Z" />
	</g>
</svg>
