<?xml version="1.0" encoding="UTF-8"?>
<svg id="devops-skills" xmlns="http://www.w3.org/2000/svg" viewBox="0 0 600 600">
	<defs>
		<style>
			.cls-1 {
				fill: #fda303;
			}

			.cls-2 {
				fill: #a6ba00;
			}

			.cls-3 {
				opacity: .6;
			}

			.cls-4 {
				fill: #f8b2b4;
			}

			.cls-4,
			.cls-5,
			.cls-6,
			.cls-7,
			.cls-8,
			.cls-9,
			.cls-10,
			.cls-11,
			.cls-12,
			.cls-13,
			.cls-14,
			.cls-15,
			.cls-16,
			.cls-17,
			.cls-18,
			.cls-19,
			.cls-20,
			.cls-21,
			.cls-22,
			.cls-23,
			.cls-24,
			.cls-25,
			.cls-26,
			.cls-27,
			.cls-28,
			.cls-29,
			.cls-30,
			.cls-31,
			.cls-32,
			.cls-33,
			.cls-34 {
				stroke: #000;
			}

			.cls-4,
			.cls-5,
			.cls-6,
			.cls-7,
			.cls-8,
			.cls-9,
			.cls-10,
			.cls-11,
			.cls-12,
			.cls-13,
			.cls-14,
			.cls-15,
			.cls-16,
			.cls-17,
			.cls-18,
			.cls-19,
			.cls-21,
			.cls-22,
			.cls-23,
			.cls-24,
			.cls-25,
			.cls-26,
			.cls-27,
			.cls-28,
			.cls-29,
			.cls-30,
			.cls-35,
			.cls-31,
			.cls-36,
			.cls-33,
			.cls-34 {
				stroke-miterlimit: 10;
			}

			.cls-4,
			.cls-5,
			.cls-7,
			.cls-8,
			.cls-10,
			.cls-14,
			.cls-15,
			.cls-16,
			.cls-17,
			.cls-18,
			.cls-19,
			.cls-21,
			.cls-25,
			.cls-26,
			.cls-27,
			.cls-29,
			.cls-30,
			.cls-31,
			.cls-36,
			.cls-33,
			.cls-34 {
				stroke-width: 1.34px;
			}

			.cls-5,
			.cls-13 {
				fill: #4d4d4d;
			}

			.cls-6,
			.cls-12,
			.cls-20,
			.cls-23,
			.cls-32 {
				stroke-width: 1.82px;
			}

			.cls-6,
			.cls-20,
			.cls-27,
			.cls-30 {
				fill: #666;
			}

			.cls-7 {
				fill: #c69c6d;
			}

			.cls-8,
			.cls-11,
			.cls-37 {
				fill: #ccc;
			}

			.cls-9 {
				fill: #ffc435;
				stroke-width: 1.45px;
			}

			.cls-10,
			.cls-23,
			.cls-38 {
				fill: #754c24;
			}

			.cls-10,
			.cls-27,
			.cls-29,
			.cls-31 {
				opacity: .8;
			}

			.cls-11 {
				stroke-width: 2.27px;
			}

			.cls-12,
			.cls-39,
			.cls-29,
			.cls-33 {
				fill: #a67c52;
			}

			.cls-13 {
				stroke-width: 2.14px;
			}

			.cls-14 {
				fill: gray;
			}

			.cls-40,
			.cls-18,
			.cls-36 {
				fill: #fff;
			}

			.cls-41 {
				fill: #000002;
			}

			.cls-15,
			.cls-22,
			.cls-42,
			.cls-28,
			.cls-35,
			.cls-31,
			.cls-32 {
				fill: none;
			}

			.cls-16 {
				fill: #009245;
			}

			.cls-17 {
				fill: #333;
			}

			.cls-43 {
				fill: #6a1901;
			}

			.cls-44 {
				fill: #ecac00;
			}

			.cls-45 {
				fill: #ff7545;
			}

			.cls-19 {
				fill: #fef381;
			}

			.cls-20,
			.cls-42,
			.cls-32 {
				stroke-linejoin: round;
			}

			.cls-46 {
				fill: #de6f03;
			}

			.cls-47 {
				fill: #f2f2f2;
			}

			.cls-21 {
				fill: #fbb03b;
			}

			.cls-22 {
				stroke-width: 2px;
			}

			.cls-42 {
				stroke: #ccc;
				stroke-width: 2.41px;
			}

			.cls-42,
			.cls-28,
			.cls-32 {
				stroke-linecap: round;
			}

			.cls-48 {
				fill: #010a1b;
			}

			.cls-24 {
				fill: #1f3159;
			}

			.cls-25 {
				fill: #29abe2;
			}

			.cls-26,
			.cls-49 {
				fill: #1a1a1a;
			}

			.cls-50 {
				fill: #0092e6;
			}

			.cls-51 {
				fill: #999;
			}

			.cls-28 {
				stroke-width: 3.64px;
			}

			.cls-52 {
				fill: #011329;
			}

			.cls-35 {
				stroke-width: 2.67px;
			}

			.cls-35,
			.cls-36 {
				stroke: #fff;
			}

			.cls-34 {
				fill: #0071bc;
			}

			.cls-53 {
				fill: #dd5030;
			}

			.cls-54 {
				fill: #242424;
			}
		</style>
	</defs>
	<g id="background" class="cls-3">
		<g>
			<g>
				<rect class="cls-51" x="358.22" y="366.65" width="14.65" height="8.09" />
				<path d="M372.75,366.78v7.84h-14.4v-7.84h14.4M373,366.53h-14.9v8.34h14.9v-8.34h0Z" />
			</g>
			<g>
				<rect class="cls-51" x="409.34" y="366.65" width="14.65" height="8.09" />
				<path d="M423.87,366.78v7.84h-14.4v-7.84h14.4M424.12,366.53h-14.9v8.34h14.9v-8.34h0Z" />
			</g>
			<g>
				<path class="cls-51"
					d="M412,366.4v-5.73l6.98-.91v6.64h-6.98ZM407.5,360.59v-8.94h7.14l-3.77,8.94h-3.36Z" />
				<path
					d="M414.45,351.78l-3.67,8.69h-3.15v-8.69h6.82M418.86,359.9v6.37h-6.73v-5.5l6.73-.88M414.83,351.53h-7.45v9.19h4.5v5.81h7.23v-6.91l-8.15,1.06,3.86-9.15h0Z" />
			</g>
			<g>
				<path class="cls-51"
					d="M363.1,366.4v-6.59l6.97.92v5.68h-6.97ZM370.79,360.59l-3.77-8.94h7.55v8.94h-3.78Z" />
				<path
					d="M374.44,351.78v8.69h-3.57l-3.67-8.69h7.24M363.22,359.95l6.72.88v5.44h-6.72v-6.32M374.69,351.53h-7.87l3.86,9.15-7.72-1.01v6.86h7.22v-5.81h4.5v-9.19h0Z" />
			</g>
			<g>
				<rect class="cls-51" x="378.52" y="333.27" width="26.75" height="20.42" />
				<path d="M405.14,333.39v20.17h-26.5v-20.17h26.5M405.39,333.14h-27v20.67h27v-20.67h0Z" />
			</g>
			<g>
				<rect class="cls-51" x="380.63" y="335.3" width="10.54" height="9.66" />
				<path d="M391.04,335.42v9.41h-10.29v-9.41h10.29M391.29,335.17h-10.79v9.91h10.79v-9.91h0Z" />
			</g>
			<g>
				<rect class="cls-51" x="393.31" y="335.3" width="10.54" height="9.66" />
				<path d="M403.72,335.42v9.41h-10.29v-9.41h10.29M403.97,335.17h-10.79v9.91h10.79v-9.91h0Z" />
			</g>
			<g>
				<path class="cls-44"
					d="M385.9,343.46c-2.1,0-3.81-1.53-3.81-3.41s1.71-3.41,3.81-3.41,3.81,1.53,3.81,3.41-1.71,3.41-3.81,3.41Z" />
				<path
					d="M385.9,336.9c1.96,0,3.56,1.42,3.56,3.16s-1.6,3.16-3.56,3.16-3.56-1.42-3.56-3.16,1.6-3.16,3.56-3.16M385.9,336.4c-2.24,0-4.06,1.64-4.06,3.66s1.82,3.66,4.06,3.66,4.06-1.64,4.06-3.66-1.82-3.66-4.06-3.66h0Z" />
			</g>
			<g>
				<polygon class="cls-2" points="373.08 360.59 369.49 351.07 412.43 351.07 408.84 360.59 373.08 360.59" />
				<path
					d="M412.25,351.2l-3.5,9.27h-35.58l-3.5-9.27h42.58M412.61,350.95h-43.3l3.69,9.77h35.92l3.69-9.77h0Z" />
			</g>
			<g>
				<path class="cls-44"
					d="M398.58,343.46c-2.1,0-3.81-1.53-3.81-3.41s1.71-3.41,3.81-3.41,3.81,1.53,3.81,3.41-1.71,3.41-3.81,3.41Z" />
				<path
					d="M398.58,336.9c1.96,0,3.56,1.42,3.56,3.16s-1.6,3.16-3.56,3.16-3.56-1.42-3.56-3.16,1.6-3.16,3.56-3.16M398.58,336.4c-2.24,0-4.06,1.64-4.06,3.66s1.82,3.66,4.06,3.66,4.06-1.64,4.06-3.66-1.82-3.66-4.06-3.66h0Z" />
			</g>
			<g>
				<rect class="cls-2" x="378.52" y="353.93" width="25.22" height="28.88" />
				<path d="M403.61,354.06v28.63h-24.97v-28.63h24.97M403.86,353.81h-25.47v29.13h25.47v-29.13h0Z" />
			</g>
			<rect class="cls-48" x="379.41" y="382.93" width="23.24" height="7.17" />
			<rect class="cls-24" x="381.2" y="390.1" width="7.52" height="10.8" />
			<rect class="cls-24" x="392.7" y="390.1" width="7.52" height="10.8" />
			<ellipse class="cls-41" cx="385.22" cy="407.8" rx="2.93" ry="1.62" />
			<ellipse class="cls-41" cx="398.61" cy="407.8" rx="2.93" ry="1.62" />
			<g>
				<rect class="cls-51" x="376.17" y="346.27" width="30.74" height="7.51" />
				<path d="M406.79,346.4v7.26h-30.49v-7.26h30.49M407.04,346.15h-30.99v7.76h30.99v-7.76h0Z" />
			</g>
			<rect class="cls-49" x="377.38" y="347.65" width="28.33" height="4.76" />
			<rect class="cls-24" x="377.27" y="400.91" width="13.46" height="6.89" />
			<rect class="cls-24" x="391.13" y="400.91" width="13.46" height="6.89" />
			<rect class="cls-40" x="389.05" y="347.65" width="1.97" height="3.3" />
			<rect class="cls-40" x="393.53" y="347.65" width="1.97" height="3.3" />
			<g>
				<polygon class="cls-40" points="378.53 353.93 403.67 353.93 391.1 380.4 378.53 353.93" />
				<path
					d="M403.47,354.06l-12.37,26.05-12.37-26.05h24.74M403.86,353.81h-25.53l12.77,26.88,12.77-26.88h0Z" />
			</g>
			<g>
				<rect class="cls-40" x="378.52" y="376.45" width="25.22" height="6.36" />
				<path d="M403.61,376.58v6.11h-24.97v-6.11h24.97M403.86,376.33h-25.47v6.61h25.47v-6.61h0Z" />
			</g>
			<g>
				<path class="cls-1"
					d="M391.13,373.79c-1.19,0-2.16-1.26-2.16-2.81s.97-2.81,2.16-2.81,2.16,1.26,2.16,2.81-.97,2.81-2.16,2.81Z" />
				<path class="cls-43"
					d="M391.13,368.43c1.05,0,1.91,1.15,1.91,2.56s-.86,2.56-1.91,2.56-1.91-1.15-1.91-2.56.86-2.56,1.91-2.56M391.13,367.93c-1.33,0-2.41,1.37-2.41,3.06s1.08,3.06,2.41,3.06,2.41-1.37,2.41-3.06-1.08-3.06-2.41-3.06h0Z" />
			</g>
			<ellipse cx="385.9" cy="340.05" rx=".89" ry="1.12" />
			<ellipse cx="398.58" cy="340.05" rx=".89" ry="1.14" />
			<polyline class="cls-22" points="395.89 334.58 392.24 337.2 388.22 334.58" />
			<line class="cls-22" x1="392.24" y1="337.2" x2="392.24" y2="333.14" />
			<rect x="383.98" y="330" width="3.84" height="3.15" />
			<rect x="396.66" y="330" width="3.84" height="3.15" />
			<polygon class="cls-52" points="370.69 360.68 361.48 359.48 366.32 350.32 370.69 360.68" />
			<polygon class="cls-52" points="410.96 360.68 420.17 359.48 415.34 350.32 410.96 360.68" />
			<g>
				<rect class="cls-46" x="395.27" y="318.46" width="6.62" height="13.07" rx="2.94" ry="2.94" />
				<path
					d="M398.95,318.59c1.55,0,2.81,1.26,2.81,2.81v7.19c0,1.55-1.26,2.81-2.81,2.81h-.75c-1.55,0-2.81-1.26-2.81-2.81v-7.19c0-1.55,1.26-2.81,2.81-2.81h.75M398.95,318.34h-.75c-1.69,0-3.06,1.37-3.06,3.06v7.19c0,1.69,1.37,3.06,3.06,3.06h.75c1.69,0,3.06-1.37,3.06-3.06v-7.19c0-1.69-1.37-3.06-3.06-3.06h0Z" />
			</g>
			<g>
				<rect class="cls-46" x="382.59" y="318.46" width="6.62" height="13.07" rx="2.94" ry="2.94" />
				<path
					d="M386.27,318.59c1.55,0,2.81,1.26,2.81,2.81v7.19c0,1.55-1.26,2.81-2.81,2.81h-.75c-1.55,0-2.81-1.26-2.81-2.81v-7.19c0-1.55,1.26-2.81,2.81-2.81h.75M386.27,318.34h-.75c-1.69,0-3.06,1.37-3.06,3.06v7.19c0,1.69,1.37,3.06,3.06,3.06h.75c1.69,0,3.06-1.37,3.06-3.06v-7.19c0-1.69-1.37-3.06-3.06-3.06h0Z" />
			</g>
			<rect x="389.47" y="343.88" width="5.54" height="2.26" />
		</g>
		<g id="git-van">
			<rect class="cls-19" x="56.49" y="291.93" width="106" height="94.92" />
			<rect class="cls-30" x="56.49" y="386.85" width="114.19" height="10.6" />
			<rect class="cls-5" x="56.49" y="397.45" width="91.77" height="16.16" />
			<circle class="cls-26" cx="111.89" cy="410.23" r="11.08" />
			<circle class="cls-26" cx="81.05" cy="410.23" r="11.08" />
			<g>
				<path class="cls-53"
					d="M109.49,358.77c-1.6,0-3.11-.62-4.24-1.75l-13.39-13.39c-2.34-2.34-2.34-6.14,0-8.47l13.39-13.39c1.13-1.13,2.64-1.75,4.24-1.75s3.11.62,4.24,1.75l13.39,13.39c2.34,2.34,2.34,6.14,0,8.48l-13.39,13.39c-1.13,1.13-2.64,1.75-4.24,1.75Z" />
				<path
					d="M109.49,320.67c1.42,0,2.76.55,3.77,1.56l13.39,13.39c1.01,1.01,1.56,2.34,1.56,3.77s-.55,2.76-1.56,3.77l-13.39,13.39c-1.01,1.01-2.34,1.56-3.77,1.56s-2.76-.55-3.77-1.56l-13.39-13.39c-2.08-2.08-2.08-5.45,0-7.53l13.39-13.39c1.01-1.01,2.34-1.56,3.77-1.56M109.49,319.34c-1.7,0-3.41.65-4.71,1.95l-13.39,13.39c-2.6,2.6-2.6,6.82,0,9.42l13.39,13.39c1.3,1.3,3.01,1.95,4.71,1.95s3.41-.65,4.71-1.95l13.39-13.39c2.6-2.6,2.6-6.82,0-9.42l-13.39-13.39c-1.3-1.3-3.01-1.95-4.71-1.95h0Z" />
			</g>
			<line class="cls-35" x1="102.99" y1="323.08" x2="120.64" y2="340.73" />
			<line class="cls-35" x1="109.49" y1="351.05" x2="109.49" y2="329.58" />
			<circle class="cls-36" cx="109.49" cy="351.05" r="3.05" />
			<circle class="cls-36" cx="109.49" cy="329.58" r="3.05" />
			<circle class="cls-36" cx="120.23" cy="340.31" r="3.05" />
		</g>
		<g id="testing-line">
			<rect class="cls-14" x="259.14" y="326.96" width="19.51" height="11.14" />
			<path class="cls-5"
				d="M310.87,317.5c-4.57,0-8.27,3.7-8.27,8.27v12.33h4.98v-12.25c0-1.82,1.47-3.29,3.29-3.29s3.29,1.47,3.29,3.29v12.25h4.98v-12.33c0-4.57-3.7-8.27-8.27-8.27Z" />
			<rect class="cls-17" x="233.82" y="375.68" width="175.15" height="8.19" rx="4.1" ry="4.1" />
			<circle class="cls-30" cx="237.91" cy="379.78" r="4.1" />
			<circle class="cls-30" cx="404.87" cy="379.78" r="4.1" />
			<circle class="cls-18" cx="321.39" cy="379.78" r="4.1" />
			<circle class="cls-18" cx="265.74" cy="379.78" r="4.1" />
			<circle class="cls-18" cx="293.57" cy="379.78" r="4.1" />
			<circle class="cls-30" cx="349.22" cy="379.78" r="4.1" />
			<rect class="cls-8" x="248.35" y="338.1" width="85.77" height="51.56" />
			<circle class="cls-30" cx="377.04" cy="379.78" r="4.1" />
			<rect class="cls-7" x="358.97" y="360.99" width="19.15" height="14.7" />
			<rect class="cls-33" x="356.93" y="357.85" width="23.25" height="3.13" />
			<rect class="cls-38" x="364.88" y="363.88" width="7.35" height="3.13" />
			<path class="cls-18"
				d="M298.73,371.35l-5.49-9.5v-7.18c.51-.18.82-.44.82-.71,0-.56-1.27-1.01-2.83-1.01s-2.83.45-2.83,1.01c0,.28.31.53.82.71v7.18l-5.49,9.5c-.89,1.54.22,3.46,2,3.46h10.99c1.78,0,2.89-1.92,2-3.46Z" />
			<path class="cls-34"
				d="M296.73,374.82h-10.99c-1.78,0-2.88-1.93-1.99-3.47l2.1-3.64h10.79l2.1,3.64c.89,1.54-.23,3.47-2.01,3.47Z" />
			<line class="cls-15" x1="321.39" y1="341.56" x2="331.72" y2="341.56" />
			<line class="cls-15" x1="318.39" y1="344.45" x2="331.72" y2="344.45" />
			<line class="cls-15" x1="320" y1="347.34" x2="331.72" y2="347.34" />
			<rect class="cls-25" x="322.74" y="377.86" width="8.98" height="8.98" />
			<rect class="cls-21" x="322.74" y="365.88" width="8.98" height="8.98" />
			<circle class="cls-4" cx="264.43" cy="332.53" r="2.92" />
			<circle class="cls-16" cx="273.23" cy="332.53" r="2.92" />
			<line class="cls-15" x1="291.15" y1="389.65" x2="291.15" y2="415.23" />
			<line class="cls-15" x1="255.25" y1="389.65" x2="255.25" y2="415.23" />
			<line class="cls-15" x1="327.23" y1="389.65" x2="327.23" y2="415.23" />
			<line class="cls-15" x1="255.25" y1="409.61" x2="327.23" y2="409.61" />
			<line class="cls-15" x1="255.25" y1="391.86" x2="291.15" y2="409.61" />
			<line class="cls-15" x1="255.25" y1="409.61" x2="291.15" y2="391.86" />
			<line class="cls-15" x1="291.24" y1="391.86" x2="327.14" y2="409.61" />
			<line class="cls-15" x1="291.24" y1="409.61" x2="327.14" y2="391.86" />
			<line class="cls-15" x1="350.15" y1="383.8" x2="350.15" y2="407.75" />
			<line class="cls-15" x1="394.18" y1="383.8" x2="394.18" y2="407.75" />
			<line class="cls-15" x1="350.25" y1="403.79" x2="394.18" y2="403.79" />
			<line class="cls-15" x1="350.25" y1="388.98" x2="394.07" y2="403.79" />
			<line class="cls-15" x1="350.25" y1="403.79" x2="394.07" y2="388.98" />
		</g>
		<g id="cycle-repeats">
			<rect class="cls-10" x="430.33" y="363.88" width="43.04" height="43.04" />
			<rect class="cls-10" x="433.54" y="363.88" width="36.62" height="43.04" />
			<rect class="cls-29" x="433.54" y="367.01" width="36.62" height="36.78" />
			<rect class="cls-27" x="422.84" y="406.92" width="58.02" height="2.85" />
			<line class="cls-31" x1="473.78" y1="369.12" x2="487.94" y2="409.77" />
			<g>
				<path class="cls-50" d="M441.24,384.81h21.25s-1.39,9.35-10.62,9.35c-11.86,0-10.62-9.35-10.62-9.35Z" />
				<g>
					<rect class="cls-50" x="452.86" y="376.76" width="2.47" height="2.47" />
					<path class="cls-39"
						d="M455.2,376.89v2.22h-2.22v-2.22h2.22M455.45,376.64h-2.72v2.72h2.72v-2.72h0Z" />
				</g>
				<g>
					<rect class="cls-50" x="452.86" y="379.49" width="2.47" height="2.47" />
					<path class="cls-39"
						d="M455.2,379.61v2.22h-2.22v-2.22h2.22M455.45,379.36h-2.72v2.72h2.72v-2.72h0Z" />
				</g>
				<g>
					<rect class="cls-50" x="450.13" y="379.49" width="2.47" height="2.47" />
					<path class="cls-39"
						d="M452.48,379.61v2.22h-2.22v-2.22h2.22M452.73,379.36h-2.72v2.72h2.72v-2.72h0Z" />
				</g>
				<g>
					<rect class="cls-50" x="450.13" y="382.21" width="2.47" height="2.47" />
					<path class="cls-39"
						d="M452.48,382.34v2.22h-2.22v-2.22h2.22M452.73,382.09h-2.72v2.72h2.72v-2.72h0Z" />
				</g>
				<g>
					<rect class="cls-50" x="447.41" y="382.21" width="2.47" height="2.47" />
					<path class="cls-39"
						d="M449.76,382.34v2.22h-2.22v-2.22h2.22M450.01,382.09h-2.72v2.72h2.72v-2.72h0Z" />
				</g>
				<g>
					<rect class="cls-50" x="447.41" y="379.49" width="2.47" height="2.47" />
					<path class="cls-39"
						d="M449.76,379.61v2.22h-2.22v-2.22h2.22M450.01,379.36h-2.72v2.72h2.72v-2.72h0Z" />
				</g>
				<g>
					<rect class="cls-50" x="444.69" y="382.21" width="2.47" height="2.47" />
					<path class="cls-39"
						d="M447.03,382.34v2.22h-2.22v-2.22h2.22M447.28,382.09h-2.72v2.72h2.72v-2.72h0Z" />
				</g>
				<g>
					<rect class="cls-50" x="452.86" y="382.21" width="2.47" height="2.47" />
					<path class="cls-39"
						d="M455.2,382.34v2.22h-2.22v-2.22h2.22M455.45,382.09h-2.72v2.72h2.72v-2.72h0Z" />
				</g>
				<g>
					<rect class="cls-50" x="455.58" y="382.21" width="2.47" height="2.47" />
					<path class="cls-39"
						d="M457.93,382.34v2.22h-2.22v-2.22h2.22M458.18,382.09h-2.72v2.72h2.72v-2.72h0Z" />
				</g>
				<path class="cls-50"
					d="M465.84,383.82c-.84,1.36-2.62,1.78-3.99.95s-1.79-2.62-.96-3.98c.16-.25.34-.48.56-.66l1.7,2.51,3.01.38c-.06.28-.18.54-.34.8Z" />
			</g>
		</g>
	</g>
	<g id="poor-foxo">
		<g>
			<g>
				<path class="cls-45"
					d="M198.25,433.24c-20.66,0-37.42-30.92-37.42-51.1s16.79-37.42,37.42-37.42,37.42,16.79,37.42,37.42-16.76,51.1-37.42,51.1Z" />
				<path class="cls-54"
					d="M198.25,345.93c19.97,0,36.21,16.25,36.21,36.21s-16.22,49.89-36.21,49.89-36.21-30.19-36.21-49.89,16.24-36.21,36.21-36.21M198.25,343.51c-21.33,0-38.63,17.29-38.63,38.63s17.29,52.31,38.63,52.31,38.63-30.97,38.63-52.31-17.29-38.63-38.63-38.63h0Z" />
			</g>
			<g>
				<path class="cls-45"
					d="M269.83,586.05c-39.22,0-71.84-29.81-75.67-68.46,10.98,10.55,25.74,16.54,41.01,16.54,32.61,0,59.15-26.53,59.15-59.15,0-15.26-5.69-29.54-16.11-40.55,38.2,4.2,67.66,36.78,67.66,75.57,0,41.93-34.11,76.05-76.05,76.05Z" />
				<path class="cls-54"
					d="M281.29,436.05c16.45,2.53,31.56,10.46,43.1,22.73,13.08,13.92,20.29,32.11,20.29,51.22,0,41.27-33.57,74.84-74.84,74.84-37.51,0-68.89-27.71-74.08-64.18,10.9,9.39,24.94,14.67,39.42,14.67,33.28,0,60.35-27.08,60.35-60.35,0-14.47-5.01-28.06-14.24-38.93M275.02,432.94c11.14,10.56,18.1,25.48,18.1,42.04,0,32-25.94,57.94-57.94,57.94-16.78,0-31.88-7.14-42.47-18.54,2.27,40.63,35.93,72.87,77.12,72.87s77.25-34.59,77.25-77.25-31.82-74.39-72.07-77.06h0Z" />
			</g>
			<circle class="cls-54" cx="197.64" cy="424.79" r="9.66" />
			<ellipse class="cls-54" cx="186.17" cy="391.8" rx="2.41" ry="4.83" />
			<g>
				<path class="cls-45"
					d="M198.25,590.06c-42.25,0-42.25-15.74-42.25-44.31s20.09-106.91,42.25-106.91,42.25,76.97,42.25,106.91v.58c0,13.98,0,25.02-5.21,32.4-5.53,7.84-16.96,11.33-37.04,11.33Z" />
				<path class="cls-54"
					d="M198.25,440.05c9.19,0,19.56,15.18,28.44,41.65,8.27,24.66,12.6,50.89,12.6,64.05v.58c0,13.77,0,24.64-4.99,31.7-5.28,7.48-16.4,10.82-36.05,10.82-41.04,0-41.04-14.4-41.04-43.1,0-13.16,4.33-39.39,12.6-64.05,8.88-26.47,19.25-41.65,28.44-41.65M198.25,437.63c-24,0-43.46,79.43-43.46,108.12s0,45.52,43.46,45.52,43.46-16.82,43.46-45.52-19.46-108.12-43.46-108.12h0Z" />
			</g>
			<ellipse class="cls-54" cx="209.11" cy="391.8" rx="2.41" ry="4.83" />
			<g>
				<path class="cls-45"
					d="M156.13,367.23c-2.87-14.22-.6-34.99,2.25-46.36.96-3.82,2.19-6.02,3.39-6.02,2.77,0,7.49,8.06,11.65,15.17,2.23,3.8,4.52,7.72,6.88,11.21-11.32,4.97-20.07,14.43-24.17,26Z" />
				<path class="cls-54"
					d="M161.8,316.06h0,0M161.79,316.07c.16.02,1.32.32,3.88,3.81,2.06,2.81,4.32,6.67,6.71,10.76,1.99,3.4,4.03,6.89,6.14,10.09-9.67,4.61-17.4,12.47-21.88,22.09-1.73-13.67.37-31.46,2.91-41.65,1.06-4.26,2.1-5.02,2.24-5.1M161.77,313.65c-1.79,0-3.33,2-4.56,6.93-3.01,12.06-5.76,36.53-1.17,51.18,3.37-13.7,13.22-24.84,26.11-29.98-7.83-11.08-15.15-28.13-20.38-28.13h0Z" />
			</g>
			<g>
				<path class="cls-45"
					d="M239.96,367.23c-4.1-11.57-12.85-21.03-24.17-26,2.37-3.48,4.66-7.4,6.88-11.21,4.16-7.11,8.88-15.17,11.65-15.17,1.2,0,2.44,2.19,3.39,6.02,2.84,11.37,5.12,32.14,2.25,46.36Z" />
				<path class="cls-54"
					d="M234.3,316.07c.14.08,1.18.85,2.24,5.1,2.55,10.19,4.64,27.98,2.91,41.65-4.48-9.61-12.2-17.47-21.88-22.09,2.11-3.2,4.15-6.69,6.14-10.09,2.39-4.09,4.66-7.96,6.71-10.76,2.56-3.49,3.71-3.79,3.88-3.81M234.32,313.65c-5.22,0-12.54,17.05-20.38,28.13,12.89,5.14,22.74,16.28,26.11,29.98,4.59-14.65,1.84-39.12-1.17-51.18-1.23-4.93-2.78-6.93-4.56-6.93h0Z" />
			</g>
			<g id="laptop">
				<g>
					<polygon class="cls-37"
						points="138.8 532.33 115.35 450.24 281.14 450.24 257.69 532.33 138.8 532.33" />
					<path class="cls-54"
						d="M279.54,451.45l-22.76,79.67h-117.07l-22.76-79.67h162.59M282.74,449.04H113.75l24.14,84.5h120.71l24.14-84.5h0Z" />
				</g>
				<polygon class="cls-47"
					points="217.21 479.21 179.29 479.21 181.02 503.35 215.47 503.35 217.21 479.21" />
				<line class="cls-42" x1="198.25" y1="465.52" x2="198.25" y2="511.37" />
				<line class="cls-42" x1="170.91" y1="491.28" x2="225.58" y2="491.28" />
			</g>
			<g>
				<path class="cls-40"
					d="M293.19,486.54c.75-3.79,1.13-7.68,1.13-11.56,0-15.27-5.69-29.54-16.1-40.55,25.67,2.82,48.33,18.64,59.84,41.93l-19.94,22.51-24.92-12.34Z" />
				<path class="cls-54"
					d="M281.29,436.05c23.67,3.65,44.37,18.56,55.32,40.12l-18.79,21.21-23.27-11.52c.65-3.58.98-7.23.98-10.88,0-14.47-5.01-28.06-14.24-38.93M275.02,432.94c11.14,10.56,18.09,25.48,18.09,42.04,0,4.2-.45,8.28-1.29,12.23l26.58,13.16,21.09-23.8c-11.76-24.44-36.01-41.74-64.47-43.62h0Z" />
			</g>
			<g>
				<path class="cls-40"
					d="M293.19,486.54c.75-3.79,1.13-7.68,1.13-11.56,0-15.27-5.69-29.54-16.1-40.55,25.67,2.82,48.33,18.64,59.84,41.93l-19.94,22.51-24.92-12.34Z" />
				<path class="cls-54"
					d="M281.29,436.05c23.67,3.65,44.37,18.56,55.32,40.12l-18.79,21.21-23.27-11.52c.65-3.58.98-7.23.98-10.88,0-14.47-5.01-28.06-14.24-38.93M275.02,432.94c11.14,10.56,18.09,25.48,18.09,42.04,0,4.2-.45,8.28-1.29,12.23l26.58,13.16,21.09-23.8c-11.76-24.44-36.01-41.74-64.47-43.62h0Z" />
			</g>
		</g>
		<g>
			<path class="cls-9"
				d="M220.3,345.58c0,3.64,7.93,14.57-22.05,14.57s-22.05-10.92-22.05-14.57c0-8.38,4.67-15.65,11.53-19.39,3.14-1.69,6.7-2.66,10.52-2.66s7.38.97,10.51,2.66c6.88,3.74,11.55,11.01,11.55,19.39Z" />
			<path class="cls-9"
				d="M220.3,345.58c0,1.21-2.75,2.12-6.88,2.73-8.27,1.21-22.08,1.21-30.35,0-4.13-.61-6.88-1.52-6.88-2.73" />
			<path class="cls-9"
				d="M208.75,326.19c-1.94,1.92-5.91,3.24-10.51,3.24s-8.57-1.32-10.52-3.24c3.14-1.69,6.7-2.66,10.52-2.66s7.38.97,10.51,2.66Z" />
			<path class="cls-9"
				d="M213.42,348.31c-8.27,1.21-22.08,1.21-30.35,0,.22-8.74,3.55-16.26,8.37-19.96,1.92.66,4.28,1.07,6.81,1.07s4.88-.4,6.79-1.08c4.81,3.7,8.16,11.21,8.38,19.97Z" />
			<line class="cls-9" x1="198.25" y1="329.42" x2="198.25" y2="349.22" />
			<circle class="cls-11" cx="198.25" cy="349.22" r="6.89" />
		</g>
	</g>
	<g id="oh-no">
		<line class="cls-28" x1="367.78" y1="215.94" x2="304.56" y2="91.67" />
		<rect class="cls-23" x="254.56" y="115.96" width="99.98" height="99.98" />
		<rect class="cls-23" x="262.03" y="115.96" width="85.06" height="99.98" />
		<rect class="cls-12" x="262.03" y="123.23" width="85.06" height="85.43" />
		<rect class="cls-6" x="237.17" y="215.94" width="134.77" height="6.62" />
		<g>
			<path class="cls-50" d="M279.92,164.58h49.36s-3.23,21.72-24.68,21.72c-27.55,0-24.68-21.72-24.68-21.72Z" />
			<g>
				<rect class="cls-50" x="306.9" y="145.89" width="5.74" height="5.74" />
				<path class="cls-39" d="M312.35,146.19v5.16h-5.16v-5.16h5.16M312.93,145.6h-6.33v6.33h6.33v-6.33h0Z" />
			</g>
			<g>
				<rect class="cls-50" x="306.9" y="152.22" width="5.74" height="5.74" />
				<path class="cls-39" d="M312.35,152.51v5.16h-5.16v-5.16h5.16M312.93,151.93h-6.33v6.33h6.33v-6.33h0Z" />
			</g>
			<g>
				<rect class="cls-50" x="300.57" y="152.22" width="5.74" height="5.74" />
				<path class="cls-39" d="M306.02,152.51v5.16h-5.16v-5.16h5.16M306.6,151.93h-6.33v6.33h6.33v-6.33h0Z" />
			</g>
			<g>
				<rect class="cls-50" x="300.57" y="158.55" width="5.74" height="5.74" />
				<path class="cls-39" d="M306.02,158.84v5.16h-5.16v-5.16h5.16M306.6,158.26h-6.33v6.33h6.33v-6.33h0Z" />
			</g>
			<g>
				<rect class="cls-50" x="294.24" y="158.55" width="5.74" height="5.74" />
				<path class="cls-39" d="M299.69,158.84v5.16h-5.16v-5.16h5.16M300.28,158.26h-6.33v6.33h6.33v-6.33h0Z" />
			</g>
			<g>
				<rect class="cls-50" x="294.24" y="152.22" width="5.74" height="5.74" />
				<path class="cls-39" d="M299.69,152.51v5.16h-5.16v-5.16h5.16M300.28,151.93h-6.33v6.33h6.33v-6.33h0Z" />
			</g>
			<g>
				<rect class="cls-50" x="287.92" y="158.55" width="5.74" height="5.74" />
				<path class="cls-39" d="M293.37,158.84v5.16h-5.16v-5.16h5.16M293.95,158.26h-6.33v6.33h6.33v-6.33h0Z" />
			</g>
			<g>
				<rect class="cls-50" x="306.9" y="158.55" width="5.74" height="5.74" />
				<path class="cls-39" d="M312.35,158.84v5.16h-5.16v-5.16h5.16M312.93,158.26h-6.33v6.33h6.33v-6.33h0Z" />
			</g>
			<g>
				<rect class="cls-50" x="313.22" y="158.55" width="5.74" height="5.74" />
				<path class="cls-39" d="M318.67,158.84v5.16h-5.16v-5.16h5.16M319.26,158.26h-6.33v6.33h6.33v-6.33h0Z" />
			</g>
			<path class="cls-50"
				d="M337.05,162.29c-1.95,3.16-6.09,4.14-9.26,2.2-3.17-1.95-4.16-6.09-2.22-9.25.36-.59.79-1.11,1.3-1.53l3.96,5.84,7,.89c-.15.65-.41,1.26-.78,1.85Z" />
		</g>
		<circle class="cls-13" cx="304.56" cy="81.8" r="9.87" />
		<line class="cls-28" x1="304.56" y1="91.67" x2="241.34" y2="215.94" />
		<line class="cls-28" x1="304.56" y1="71.93" x2="304.56" y2="6.92" />
		<path class="cls-20"
			d="M192.74,273.29c-1.79,1.89-4.19,2.85-6.61,2.89.62-.34,1.18-.76,1.69-1.31,2.6-2.73,2.49-7.06-.25-9.66-2.73-2.6-7.06-2.49-9.66.25-.51.54-.91,1.12-1.22,1.76-.09-2.42.75-4.86,2.55-6.75,2.6-2.73,6.47-3.53,9.81-2.37l19.47-20.5c-1.33-3.28-.74-7.18,1.86-9.92,1.79-1.89,4.19-2.85,6.61-2.89-.62.34-1.18.76-1.69,1.31-2.6,2.73-2.49,7.06.25,9.66,2.73,2.6,7.06,2.49,9.66-.25.51-.54.91-1.12,1.22-1.76.09,2.42-.75,4.86-2.55,6.75-2.6,2.73-6.47,3.53-9.81,2.37l-19.47,20.5c1.33,3.28.74,7.18-1.86,9.92Z" />
		<path class="cls-32" d="M182.14,224.8c-3.1-21.56-2.16-43.11,2.83-64.67" />
		<path class="cls-32" d="M196.31,180.93c.55-14.83,4-28.19,10.93-39.78" />
		<path class="cls-32" d="M211.69,212.6c-2.83-26.86,2.97-49.93,17.41-69.2" />
	</g>
</svg>
