<?xml version="1.0" encoding="UTF-8" standalone="no"?>
<svg width="100%" height="100%" viewBox="0 0 2343 2459" version="1.1" xmlns="http://www.w3.org/2000/svg"
	xmlns:xlink="http://www.w3.org/1999/xlink" xml:space="preserve" xmlns:serif="http://www.serif.com/"
	style="fill-rule:evenodd;clip-rule:evenodd;stroke-miterlimit:10;">
	<g transform="matrix(1,0,0,1,-37657.8,0)">
		<g id="devops-skills" transform="matrix(3.90373,0,0,4.09747,37657.8,0)">
			<rect x="0" y="0" width="600" height="600" style="fill:none;" />
			<clipPath id="_clip1">
				<rect x="0" y="0" width="600" height="600" />
			</clipPath>
			<g clip-path="url(#_clip1)">
				<g id="devops-skills1" serif:id="devops-skills" transform="matrix(1.06735,0,0,1.01689,-40.4129,0)">
					<g transform="matrix(1,0,0,1,111.431,-3.32684)">
						<g opacity="0.6">
							<g>
								<g transform="matrix(1,0,0,1,0,141.394)">
									<rect x="358.223" y="225.257" width="14.65" height="8.092"
										style="fill:rgb(153,153,153);" />
								</g>
								<g transform="matrix(1,0,0,1,0,141.394)">
									<path
										d="M372.999,225.132L358.098,225.132L358.098,233.474L372.999,233.474L372.999,225.132ZM372.749,233.224L358.348,233.224L358.348,225.382L372.749,225.382L372.749,233.224Z"
										style="fill-rule:nonzero;" />
								</g>
								<g transform="matrix(1,0,0,1,0,141.394)">
									<rect x="409.344" y="225.257" width="14.651" height="8.092"
										style="fill:rgb(153,153,153);" />
								</g>
								<g transform="matrix(1,0,0,1,0,141.394)">
									<path
										d="M424.119,225.132L409.218,225.132L409.218,233.474L424.119,233.474L424.119,225.132ZM423.869,233.224L409.468,233.224L409.468,225.382L423.869,225.382L423.869,233.224Z"
										style="fill-rule:nonzero;" />
								</g>
								<g transform="matrix(1,0,0,1,407.502,357.465)">
									<path
										d="M0,3.129L0,-5.808L7.136,-5.808L3.361,3.129L0,3.129ZM4.501,8.937L4.501,3.206L11.481,2.296L11.481,8.937L4.501,8.937Z"
										style="fill:rgb(153,153,153);fill-rule:nonzero;" />
								</g>
								<g transform="matrix(1,0,0,1,414.826,366.527)">
									<path
										d="M0,-14.994L-7.449,-14.994L-7.449,-5.808L-2.948,-5.808L-2.948,0L4.282,0L4.282,-6.909L-3.864,-5.846L0,-14.994ZM4.032,-6.624L4.032,-0.25L-2.698,-0.25L-2.698,-5.746L4.032,-6.624M-0.377,-14.744L-4.045,-6.058L-7.199,-6.058L-7.199,-14.744L-0.377,-14.744Z"
										style="fill-rule:nonzero;" />
								</g>
								<g transform="matrix(1,0,0,1,370.788,357.465)">
									<path
										d="M0,3.129L-3.773,-5.808L3.78,-5.808L3.78,3.129L0,3.129ZM-7.691,8.937L-7.691,2.347L-0.722,3.26L-0.722,8.937L-7.691,8.937Z"
										style="fill:rgb(153,153,153);fill-rule:nonzero;" />
								</g>
								<g transform="matrix(1,0,0,1,374.693,366.527)">
									<path
										d="M0,-14.994L-7.867,-14.994L-4.003,-5.846L-11.721,-6.858L-11.721,0L-4.501,0L-4.501,-5.808L0,-5.808L0,-14.994ZM-11.471,-6.573L-4.751,-5.692L-4.751,-0.25L-11.471,-0.25L-11.471,-6.573M-0.25,-14.744L-0.25,-6.058L-3.822,-6.058L-7.49,-14.744L-0.25,-14.744Z"
										style="fill-rule:nonzero;" />
								</g>
								<g transform="matrix(1,0,0,1,0,86.949)">
									<rect x="378.518" y="246.317" width="26.749" height="20.417"
										style="fill:rgb(153,153,153);" />
								</g>
								<g transform="matrix(1,0,0,1,0,86.949)">
									<path
										d="M405.392,246.192L378.393,246.192L378.393,266.859L405.392,266.859L405.392,246.192ZM405.142,266.609L378.643,266.609L378.643,246.442L405.142,246.442L405.142,266.609Z"
										style="fill-rule:nonzero;" />
								</g>
								<g transform="matrix(1,0,0,1,0,80.253)">
									<rect x="380.629" y="255.043" width="10.54" height="9.661"
										style="fill:rgb(153,153,153);" />
								</g>
								<g transform="matrix(1,0,0,1,0,80.254)">
									<path
										d="M391.294,254.917L380.504,254.917L380.504,264.829L391.294,264.829L391.294,254.917ZM391.044,264.579L380.754,264.579L380.754,255.167L391.044,255.167L391.044,264.579Z"
										style="fill-rule:nonzero;" />
								</g>
								<g transform="matrix(1,0,0,1,0,80.253)">
									<rect x="393.307" y="255.043" width="10.54" height="9.661"
										style="fill:rgb(153,153,153);" />
								</g>
								<g transform="matrix(1,0,0,1,0,80.254)">
									<path
										d="M403.973,254.917L393.183,254.917L393.183,264.829L403.973,264.829L403.973,254.917ZM403.723,264.579L393.433,264.579L393.433,255.167L403.723,255.167L403.723,264.579Z"
										style="fill-rule:nonzero;" />
								</g>
								<g transform="matrix(1,0,0,1,385.899,336.647)">
									<path
										d="M0,6.812C-2.1,6.812 -3.808,5.284 -3.808,3.406C-3.808,1.528 -2.1,0 0,0C2.099,0 3.807,1.528 3.807,3.406C3.807,5.284 2.099,6.812 0,6.812"
										style="fill:rgb(236,172,0);fill-rule:nonzero;" />
								</g>
								<g transform="matrix(1,0,0,1,385.899,343.709)">
									<path
										d="M0,-7.311C-2.241,-7.311 -4.057,-5.675 -4.057,-3.656C-4.057,-1.637 -2.241,0 0,0C2.241,0 4.057,-1.637 4.057,-3.656C4.057,-5.675 2.241,-7.311 0,-7.311M0,-6.811C1.961,-6.811 3.557,-5.395 3.557,-3.656C3.557,-1.916 1.961,-0.5 0,-0.5C-1.961,-0.5 -3.557,-1.916 -3.557,-3.656C-3.557,-5.395 -1.961,-6.811 0,-6.811"
										style="fill-rule:nonzero;" />
								</g>
								<g transform="matrix(-0.353353,-0.93549,-0.93549,0.353353,401.729,370.874)">
									<path d="M19.743,23.162L29.914,23.162L14.74,-17.009L7.109,-10.285L19.743,23.162Z"
										style="fill:rgb(166,186,0);fill-rule:nonzero;" />
								</g>
								<g transform="matrix(1,0,0,1,412.612,360.714)">
									<path
										d="M0,-9.765L-43.301,-9.765L-39.613,0L-3.688,0L0,-9.765ZM-0.362,-9.515L-3.861,-0.25L-39.44,-0.25L-42.939,-9.515L-0.362,-9.515Z"
										style="fill-rule:nonzero;" />
								</g>
								<g transform="matrix(1,0,0,1,398.578,336.647)">
									<path
										d="M0,6.812C-2.1,6.812 -3.808,5.284 -3.808,3.406C-3.808,1.528 -2.1,0 0,0C2.099,0 3.807,1.528 3.807,3.406C3.807,5.284 2.099,6.812 0,6.812"
										style="fill:rgb(236,172,0);fill-rule:nonzero;" />
								</g>
								<g transform="matrix(1,0,0,1,398.578,343.709)">
									<path
										d="M0,-7.311C-2.241,-7.311 -4.057,-5.675 -4.057,-3.656C-4.057,-1.637 -2.241,0 0,0C2.241,0 4.057,-1.637 4.057,-3.656C4.057,-5.675 2.241,-7.311 0,-7.311M0,-6.811C1.961,-6.811 3.557,-5.395 3.557,-3.656C3.557,-1.916 1.961,-0.5 0,-0.5C-1.961,-0.5 -3.557,-1.916 -3.557,-3.656C-3.557,-5.395 -1.961,-6.811 0,-6.811"
										style="fill-rule:nonzero;" />
								</g>
								<g transform="matrix(1,0,0,1,0,136.742)">
									<rect x="378.518" y="217.191" width="25.218" height="28.876"
										style="fill:rgb(166,186,0);" />
								</g>
								<g transform="matrix(1,0,0,1,0,136.742)">
									<path
										d="M403.861,217.066L378.393,217.066L378.393,246.192L403.861,246.192L403.861,217.066ZM403.611,245.942L378.643,245.942L378.643,217.316L403.611,217.316L403.611,245.942Z"
										style="fill-rule:nonzero;" />
								</g>
								<g transform="matrix(-1,0,0,1,782.051,173.038)">
									<rect x="379.407" y="209.896" width="23.237" height="7.17"
										style="fill:rgb(1,10,27);" />
								</g>
								<g transform="matrix(-1,0,0,1,769.918,191.01)">
									<rect x="381.197" y="199.094" width="7.524" height="10.802"
										style="fill:rgb(31,49,89);stroke:black;stroke-width:1px;" />
								</g>
								<g transform="matrix(-1,0,0,1,792.932,191.01)">
									<rect x="392.704" y="199.094" width="7.524" height="10.802"
										style="fill:rgb(31,49,89);stroke:black;stroke-width:1px;" />
								</g>
								<g transform="matrix(0,-1,-1,0,385.217,404.863)">
									<path
										d="M-2.932,-2.932C-2.036,-2.932 -1.309,-1.619 -1.309,-0.001C-1.309,1.62 -2.036,2.932 -2.932,2.932C-3.828,2.932 -4.555,1.62 -4.555,-0.001C-4.555,-1.619 -3.828,-2.932 -2.932,-2.932"
										style="fill:rgb(0,0,2);fill-rule:nonzero;" />
								</g>
								<g transform="matrix(0,-1,-1,0,398.605,404.863)">
									<path
										d="M-2.932,-2.932C-2.036,-2.932 -1.309,-1.619 -1.309,-0.001C-1.309,1.62 -2.036,2.932 -2.932,2.932C-3.828,2.932 -4.555,1.62 -4.555,-0.001C-4.555,-1.619 -3.828,-2.932 -2.932,-2.932"
										style="fill:rgb(0,0,2);fill-rule:nonzero;" />
								</g>
								<g transform="matrix(1,0,0,1,0,100.048)">
									<rect x="376.173" y="246.222" width="30.739" height="7.508"
										style="fill:rgb(153,153,153);" />
								</g>
								<g transform="matrix(1,0,0,1,0,100.047)">
									<path
										d="M407.036,246.098L376.048,246.098L376.048,253.855L407.036,253.855L407.036,246.098ZM406.786,253.605L376.298,253.605L376.298,246.348L406.786,246.348L406.786,253.605Z"
										style="fill-rule:nonzero;" />
								</g>
								<g transform="matrix(-1,0,0,1,783.085,100.047)">
									<rect x="377.379" y="247.598" width="28.327" height="4.757"
										style="fill:rgb(26,26,26);" />
								</g>
								<g transform="matrix(-1,0,0,1,767.996,208.701)">
									<rect x="377.268" y="192.205" width="13.46" height="6.889"
										style="fill:rgb(31,49,89);stroke:black;stroke-width:1px;" />
								</g>
								<g transform="matrix(-1,0,0,1,795.714,208.701)">
									<rect x="391.127" y="192.205" width="13.46" height="6.889"
										style="fill:rgb(31,49,89);stroke:black;stroke-width:1px;" />
								</g>
								<g transform="matrix(-1,0,0,1,780.079,98.594)">
									<rect x="389.053" y="249.051" width="1.973" height="3.304" style="fill:white;" />
								</g>
								<g transform="matrix(-1,0,0,1,789.041,98.594)">
									<rect x="393.534" y="249.051" width="1.973" height="3.304" style="fill:white;" />
								</g>
								<g transform="matrix(1,0,0,1,378.528,380.401)">
									<path d="M0,-26.468L25.138,-26.468L12.568,0L0,-26.468Z"
										style="fill:white;fill-rule:nonzero;" />
								</g>
								<g transform="matrix(1,0,0,1,403.863,380.692)">
									<path
										d="M0,-26.884L-25.532,-26.884L-12.766,0L0,-26.884ZM-0.396,-26.634L-12.766,-0.583L-25.136,-26.634L-0.396,-26.634Z"
										style="fill-rule:nonzero;" />
								</g>
								<g transform="matrix(1,0,0,1,0,159.261)">
									<rect x="378.518" y="217.191" width="25.218" height="6.357" style="fill:white;" />
								</g>
								<g transform="matrix(1,0,0,1,0,159.26)">
									<path
										d="M403.861,217.066L378.393,217.066L378.393,223.674L403.861,223.674L403.861,217.066ZM403.611,223.424L378.643,223.424L378.643,217.316L403.611,217.316L403.611,223.424Z"
										style="fill-rule:nonzero;" />
								</g>
								<g transform="matrix(1,0,0,1,391.128,368.176)">
									<path
										d="M0,5.615C-1.189,5.615 -2.157,4.355 -2.157,2.807C-2.157,1.26 -1.189,0 0,0C1.188,0 2.156,1.26 2.156,2.807C2.156,4.355 1.188,5.615 0,5.615"
										style="fill:rgb(253,163,3);fill-rule:nonzero;" />
								</g>
								<g transform="matrix(1,0,0,1,391.127,374.042)">
									<path
										d="M0,-6.116C-1.329,-6.116 -2.407,-4.747 -2.407,-3.058C-2.407,-1.369 -1.329,0 0,0C1.329,0 2.407,-1.369 2.407,-3.058C2.407,-4.747 1.329,-6.116 0,-6.116M0,-5.616C1.051,-5.616 1.907,-4.469 1.907,-3.058C1.907,-1.648 1.051,-0.5 0,-0.5C-1.051,-0.5 -1.907,-1.648 -1.907,-3.058C-1.907,-4.469 -1.051,-5.616 0,-5.616"
										style="fill:rgb(106,25,1);fill-rule:nonzero;" />
								</g>
								<g transform="matrix(0,-1,-1,0,385.899,339.169)">
									<path
										d="M-0.885,-0.885C-0.264,-0.885 0.24,-0.489 0.24,0C0.24,0.489 -0.264,0.885 -0.885,0.885C-1.506,0.885 -2.01,0.489 -2.01,0C-2.01,-0.489 -1.506,-0.885 -0.885,-0.885"
										style="fill-rule:nonzero;" />
								</g>
								<g transform="matrix(0,-1,-1,0,398.578,339.159)">
									<path
										d="M-0.895,-0.895C-0.266,-0.895 0.242,-0.494 0.242,-0C0.242,0.494 -0.266,0.895 -0.895,0.895C-1.523,0.895 -2.031,0.494 -2.031,-0C-2.031,-0.494 -1.523,-0.895 -0.895,-0.895"
										style="fill-rule:nonzero;" />
								</g>
								<g transform="matrix(1,0,0,1,395.895,337.2)">
									<path d="M0,-2.624L-3.656,0L-7.672,-2.624"
										style="fill:none;fill-rule:nonzero;stroke:black;stroke-width:2px;" />
								</g>
								<g transform="matrix(0,-1,-1,0,394.268,335.171)">
									<path d="M-2.03,2.03L2.03,2.03"
										style="fill:none;fill-rule:nonzero;stroke:black;stroke-width:2px;" />
								</g>
								<g transform="matrix(-1,0,0,1,771.798,63.136)">
									<rect x="383.981" y="266.859" width="3.836" height="3.146" />
								</g>
								<g transform="matrix(-1,0,0,1,797.156,63.136)">
									<rect x="396.66" y="266.859" width="3.836" height="3.146" />
								</g>
								<g transform="matrix(1,0,0,1,370.689,350.323)">
									<path d="M0,10.361L-9.205,9.162L-4.372,0L0,10.361Z"
										style="fill:rgb(1,19,41);fill-rule:nonzero;" />
								</g>
								<g transform="matrix(1,0,0,1,410.963,350.323)">
									<path d="M0,10.361L9.205,9.162L4.372,0L0,10.361Z"
										style="fill:rgb(1,19,41);fill-rule:nonzero;" />
								</g>
								<g transform="matrix(1,0,0,1,398.203,318.461)">
									<path
										d="M0,13.066C-1.62,13.066 -2.938,11.749 -2.938,10.128L-2.938,2.937C-2.938,1.317 -1.62,0 0,0L0.75,0C2.37,0 3.688,1.317 3.688,2.937L3.688,10.128C3.688,11.749 2.37,13.066 0.75,13.066L0,13.066Z"
										style="fill:rgb(222,111,3);fill-rule:nonzero;" />
								</g>
								<g transform="matrix(1,0,0,1,398.953,331.652)">
									<path
										d="M0,-13.316L-0.75,-13.316C-2.442,-13.316 -3.813,-11.945 -3.813,-10.253L-3.813,-3.063C-3.813,-1.371 -2.442,0 -0.75,0L0,0C1.691,0 3.063,-1.371 3.063,-3.063L3.063,-10.253C3.063,-11.945 1.691,-13.316 0,-13.316M0,-13.066C1.551,-13.066 2.813,-11.804 2.813,-10.253L2.813,-3.063C2.813,-1.512 1.551,-0.25 0,-0.25L-0.75,-0.25C-2.301,-0.25 -3.563,-1.512 -3.563,-3.063L-3.563,-10.253C-3.563,-11.804 -2.301,-13.066 -0.75,-13.066L0,-13.066Z"
										style="fill-rule:nonzero;" />
								</g>
								<g transform="matrix(1,0,0,1,385.524,318.461)">
									<path
										d="M0,13.066C-1.62,13.066 -2.938,11.749 -2.938,10.128L-2.938,2.937C-2.938,1.317 -1.62,0 0,0L0.75,0C2.37,0 3.688,1.317 3.688,2.937L3.688,10.128C3.688,11.749 2.37,13.066 0.75,13.066L0,13.066Z"
										style="fill:rgb(222,111,3);fill-rule:nonzero;" />
								</g>
								<g transform="matrix(1,0,0,1,386.274,331.652)">
									<path
										d="M0,-13.316L-0.75,-13.316C-2.442,-13.316 -3.813,-11.945 -3.813,-10.253L-3.813,-3.063C-3.813,-1.371 -2.442,0 -0.75,0L0,0C1.691,0 3.063,-1.371 3.063,-3.063L3.063,-10.253C3.063,-11.945 1.691,-13.316 0,-13.316M0,-13.066C1.551,-13.066 2.813,-11.804 2.813,-10.253L2.813,-3.063C2.813,-1.512 1.551,-0.25 0,-0.25L-0.75,-0.25C-2.301,-0.25 -3.563,-1.512 -3.563,-3.063L-3.563,-10.253C-3.563,-11.804 -2.301,-13.066 -0.75,-13.066L0,-13.066Z"
										style="fill-rule:nonzero;" />
								</g>
								<g transform="matrix(-1,0,0,1,784.476,90.029)">
									<rect x="389.467" y="253.855" width="5.542" height="2.261" />
								</g>
								<g transform="matrix(-1.37592,0,0,1,240.219,78.773)">
									<rect x="56.49" y="213.153" width="106.003" height="94.921"
										style="fill:rgb(254,243,129);stroke:black;stroke-width:1.11px;" />
								</g>
								<g transform="matrix(2.0009,0,0,1,-170.838,184.294)">
									<rect x="56.49" y="202.553" width="114.194" height="10.6"
										style="fill:rgb(102,102,102);stroke:black;stroke-width:0.84px;" />
								</g>
								<g transform="matrix(1.83027,0,0,1,-123.1,211.054)">
									<rect x="56.49" y="186.394" width="91.775" height="16.158"
										style="fill:rgb(77,77,77);stroke:black;stroke-width:0.91px;" />
								</g>
								<g transform="matrix(0.216103,0,0,0.203151,-8180.75,60.1304)">
									<path
										d="M37870.1,1301.68C37881.6,1301.68 37892.5,1306.52 37900.6,1315.13C37908.7,1323.75 37913.3,1335.43 37913.3,1347.61C37913.3,1427.65 37913.3,1592.03 37913.3,1674.25C37913.3,1687.28 37908.4,1699.77 37899.8,1708.98C37891.1,1718.18 37879.4,1723.36 37867.1,1723.36C37790.7,1723.36 37640.2,1723.36 37577.5,1723.36C37561.8,1723.36 37549,1709.84 37548.9,1693.11C37548.7,1657.84 37548.4,1599.31 37548.2,1559.68C37548.1,1535.84 37564.9,1515.73 37587.1,1513.02C37626.1,1508.26 37680.1,1501.67 37680.1,1501.67C37680.1,1501.67 37709,1383.45 37722.3,1328.8C37726.2,1312.83 37739.7,1301.68 37755.2,1301.68C37785.2,1301.68 37834.5,1301.68 37870.1,1301.68Z"
										style="fill:rgb(255,112,75);stroke:black;stroke-width:6.37px;" />
								</g>
								<g transform="matrix(0.24,0,0,0.24,-9092.37,-2.84493)">
									<circle cx="37873.5" cy="1582.33" r="17.499"
										style="fill:rgb(181,37,0);stroke:black;stroke-width:5.56px;" />
								</g>
								<g transform="matrix(0.24,0,0,0.24,-9116.4,4.04948)">
									<ellipse cx="37708.8" cy="1594.99" rx="19.097" ry="31.182"
										style="fill:rgb(254,243,129);stroke:black;stroke-width:5.56px;" />
								</g>
								<g transform="matrix(0.269751,0,0,1,-87.2351,200.453)">
									<path
										d="M151.037,202.553C161.888,202.553 170.684,204.926 170.684,207.853L170.684,207.853C170.684,210.78 161.888,213.153 151.037,213.153L76.137,213.153C70.926,213.153 65.929,212.595 62.244,211.601C58.56,210.607 56.49,209.259 56.49,207.853L56.49,207.853C56.49,206.447 58.56,205.099 62.244,204.105C65.929,203.111 70.926,202.553 76.137,202.553L151.037,202.553Z"
										style="fill:rgb(214,214,214);stroke:black;stroke-width:1.82px;" />
								</g>
								<g transform="matrix(0.216103,0,0,0.203151,-8180.75,60.1304)">
									<path
										d="M37680.1,1501.67L37720.2,1337.62C37720.3,1336.88 37720.5,1336.15 37720.7,1335.43L37846.6,1335.43C37868.2,1335.43 37885.7,1354.05 37885.7,1376.99L37885.7,1460.11C37885.7,1483.05 37868.2,1501.67 37846.6,1501.67L37680.1,1501.67Z"
										style="fill:rgb(168,208,250);stroke:black;stroke-width:6.37px;" />
								</g>
								<g transform="matrix(0.24,0,0,0.24,-9092.21,0)">
									<path d="M37808.2,1380.94L37808.2,1521.66"
										style="fill:none;stroke:black;stroke-width:5.56px;" />
								</g>
								<g transform="matrix(0,-1,-1,0,111.887,399.151)">
									<path
										d="M-11.082,-11.082C-4.962,-11.082 0,-6.12 0,0C0,6.121 -4.962,11.082 -11.082,11.082C-17.202,11.082 -22.164,6.121 -22.164,0C-22.164,-6.12 -17.202,-11.082 -11.082,-11.082"
										style="fill:rgb(26,26,26);fill-rule:nonzero;" />
								</g>
								<g transform="matrix(0,-1,-1,0,111.887,399.151)">
									<circle cx="-11.082" cy="0" r="11.082"
										style="fill:none;stroke:black;stroke-width:1.34px;" />
								</g>
								<g transform="matrix(0,-1,-1,0,81.0495,399.151)">
									<path
										d="M-11.082,-11.082C-4.962,-11.082 0,-6.12 0,0C0,6.121 -4.962,11.082 -11.082,11.082C-17.202,11.082 -22.164,6.121 -22.164,0C-22.164,-6.12 -17.202,-11.082 -11.082,-11.082"
										style="fill:rgb(26,26,26);fill-rule:nonzero;" />
								</g>
								<g transform="matrix(0,-1,-1,0,-21.1957,399.151)">
									<path
										d="M-11.082,-11.082C-4.962,-11.082 0,-6.12 0,0C0,6.121 -4.962,11.082 -11.082,11.082C-17.202,11.082 -22.164,6.121 -22.164,0C-22.164,-6.12 -17.202,-11.082 -11.082,-11.082"
										style="fill:rgb(26,26,26);fill-rule:nonzero;" />
								</g>
								<g transform="matrix(0,-1,-1,0,81.0495,399.151)">
									<circle cx="-11.082" cy="0" r="11.082"
										style="fill:none;stroke:black;stroke-width:1.34px;" />
								</g>
								<g transform="matrix(0.24,0,0,0.318328,-9090.66,-121.283)">
									<path
										d="M37760,1490.74L37760,1533.7C37760,1536.36 37757.1,1538.52 37753.6,1538.52L37740.8,1538.52C37737.3,1538.52 37734.4,1536.36 37734.4,1533.7L37734.4,1490.74C37734.4,1488.08 37737.3,1485.92 37740.8,1485.92L37753.6,1485.92C37757.1,1485.92 37760,1488.08 37760,1490.74Z"
										style="fill:rgb(121,121,121);stroke:black;stroke-width:4.74px;" />
								</g>
								<g transform="matrix(0,-1,-1,0,-21.1957,399.151)">
									<circle cx="-11.082" cy="0" r="11.082"
										style="fill:none;stroke:black;stroke-width:1.34px;" />
								</g>
								<g transform="matrix(1,0,0,1,-8.63847,-0.0004)">
									<g transform="matrix(1,0,0,1,98.2063,320.006)">
										<path
											d="M0,38.761C-1.602,38.761 -3.106,38.138 -4.237,37.006L-17.626,23.618C-18.758,22.487 -19.381,20.982 -19.381,19.381C-19.381,17.78 -18.758,16.275 -17.626,15.144L-4.237,1.756C-3.106,0.623 -1.602,0 0,0C1.601,0 3.105,0.623 4.236,1.755L17.625,15.144C18.757,16.275 19.38,17.78 19.38,19.381C19.38,20.982 18.757,22.487 17.625,23.619L4.237,37.005C3.105,38.138 1.601,38.761 0,38.761"
											style="fill:rgb(221,80,48);fill-rule:nonzero;" />
									</g>
									<g transform="matrix(1,0,0,1,98.2058,359.435)">
										<path
											d="M0,-40.097C-1.705,-40.097 -3.409,-39.447 -4.71,-38.146L-18.098,-24.758C-20.699,-22.157 -20.699,-17.94 -18.098,-15.339L-4.71,-1.951C-3.409,-0.651 -1.705,0 0,0C1.705,0 3.41,-0.651 4.71,-1.951L18.098,-15.339C20.699,-17.94 20.699,-22.157 18.098,-24.758L4.71,-38.146C3.41,-39.447 1.705,-40.097 0,-40.097M0,-38.761C1.422,-38.761 2.76,-38.208 3.766,-37.202L17.153,-23.814C19.229,-21.738 19.229,-18.359 17.153,-16.283L3.766,-2.895C2.76,-1.89 1.423,-1.336 0,-1.336C-1.422,-1.336 -2.76,-1.89 -3.766,-2.895L-17.153,-16.283C-19.229,-18.359 -19.229,-21.738 -17.153,-23.814L-3.766,-37.202C-2.76,-38.207 -1.422,-38.761 0,-38.761"
											style="fill-rule:nonzero;" />
									</g>
									<g transform="matrix(0.707107,0.707107,0.707107,-0.707107,100.53,319.425)">
										<path d="M-3.655,-8.825L21.304,-8.825"
											style="fill:none;fill-rule:nonzero;stroke:white;stroke-width:2.67px;" />
									</g>
									<g transform="matrix(0,-1,-1,0,108.939,340.314)">
										<path d="M-10.734,10.734L10.734,10.734"
											style="fill:none;fill-rule:nonzero;stroke:white;stroke-width:2.67px;" />
									</g>
									<g transform="matrix(0,-1,-1,0,98.206,347.996)">
										<path
											d="M-3.052,-3.052C-1.366,-3.052 0,-1.685 0,0C0,1.686 -1.366,3.052 -3.052,3.052C-4.736,3.052 -6.103,1.686 -6.103,0C-6.103,-1.685 -4.736,-3.052 -3.052,-3.052"
											style="fill:white;fill-rule:nonzero;" />
									</g>
									<g transform="matrix(0,-1,-1,0,98.206,347.996)">
										<ellipse cx="-3.052" cy="0" rx="3.052" ry="3.052"
											style="fill:none;stroke:white;stroke-width:1.34px;" />
									</g>
									<g transform="matrix(0,-1,-1,0,98.206,326.529)">
										<path
											d="M-3.052,-3.052C-1.366,-3.052 0,-1.685 0,0C0,1.686 -1.366,3.052 -3.052,3.052C-4.736,3.052 -6.103,1.686 -6.103,0C-6.103,-1.685 -4.736,-3.052 -3.052,-3.052"
											style="fill:white;fill-rule:nonzero;" />
									</g>
									<g transform="matrix(0,-1,-1,0,98.206,326.529)">
										<ellipse cx="-3.052" cy="0" rx="3.052" ry="3.052"
											style="fill:none;stroke:white;stroke-width:1.34px;" />
									</g>
									<g transform="matrix(0,-1,-1,0,108.94,337.263)">
										<path
											d="M-3.052,-3.052C-1.366,-3.052 0,-1.685 0,0C0,1.686 -1.366,3.052 -3.052,3.052C-4.736,3.052 -6.103,1.686 -6.103,0C-6.103,-1.685 -4.736,-3.052 -3.052,-3.052"
											style="fill:white;fill-rule:nonzero;" />
									</g>
									<g transform="matrix(0,-1,-1,0,108.94,337.263)">
										<ellipse cx="-3.052" cy="0" rx="3.052" ry="3.052"
											style="fill:none;stroke:white;stroke-width:1.34px;" />
									</g>
								</g>
								<g transform="matrix(-1,0,0,1,537.784,65.056)">
									<rect x="259.135" y="261.901" width="19.514" height="11.142"
										style="fill:rgb(128,128,128);stroke:black;stroke-width:1.34px;" />
								</g>
								<g transform="matrix(1,0,0,1,310.872,338.099)">
									<path
										d="M0,-20.598C-4.568,-20.598 -8.271,-16.895 -8.271,-12.327L-8.271,0L-3.293,0L-3.293,-12.246C-3.293,-14.065 -1.818,-15.539 0,-15.539C1.818,-15.539 3.293,-14.065 3.293,-12.246L3.293,0L8.271,0L8.271,-12.327C8.271,-16.895 4.568,-20.598 0,-20.598"
										style="fill:rgb(77,77,77);fill-rule:nonzero;" />
								</g>
								<g transform="matrix(1,0,0,1,310.872,338.099)">
									<path
										d="M0,-20.598C-4.568,-20.598 -8.271,-16.895 -8.271,-12.327L-8.271,0L-3.293,0L-3.293,-12.246C-3.293,-14.065 -1.818,-15.539 0,-15.539C1.818,-15.539 3.293,-14.065 3.293,-12.246L3.293,0L8.271,0L8.271,-12.327C8.271,-16.895 4.568,-20.598 0,-20.598Z"
										style="fill:none;fill-rule:nonzero;stroke:black;stroke-width:1.34px;" />
								</g>
								<g transform="matrix(1,0,0,1,237.914,375.682)">
									<path
										d="M0,8.191L166.954,8.191C169.216,8.191 171.05,6.357 171.05,4.095C171.05,1.834 169.216,0 166.954,0L0,0C-2.262,0 -4.096,1.834 -4.096,4.095C-4.096,6.357 -2.262,8.191 0,8.191Z"
										style="fill:rgb(51,51,51);fill-rule:nonzero;stroke:black;stroke-width:1.34px;" />
								</g>
								<g transform="matrix(0,-1,-1,0,237.915,375.682)">
									<path
										d="M-4.095,-4.095C-6.358,-4.095 -8.191,-2.261 -8.191,0.001C-8.191,2.262 -6.358,4.095 -4.095,4.095C-1.833,4.095 0.001,2.262 0.001,0.001C0.001,-2.261 -1.833,-4.095 -4.095,-4.095"
										style="fill:rgb(102,102,102);fill-rule:nonzero;" />
								</g>
								<g transform="matrix(0,-1,-1,0,237.915,375.682)">
									<ellipse cx="-4.095" cy="0" rx="4.096" ry="4.095"
										style="fill:none;stroke:black;stroke-width:1.34px;" />
								</g>
								<g transform="matrix(0,-1,-1,0,404.869,375.682)">
									<path
										d="M-4.095,-4.095C-6.358,-4.095 -8.191,-2.261 -8.191,0.001C-8.191,2.262 -6.358,4.095 -4.095,4.095C-1.833,4.095 0.001,2.262 0.001,0.001C0.001,-2.261 -1.833,-4.095 -4.095,-4.095"
										style="fill:rgb(102,102,102);fill-rule:nonzero;" />
								</g>
								<g transform="matrix(0,-1,-1,0,404.869,375.682)">
									<ellipse cx="-4.095" cy="0" rx="4.096" ry="4.095"
										style="fill:none;stroke:black;stroke-width:1.34px;" />
								</g>
								<g transform="matrix(0,-1,-1,0,321.392,375.682)">
									<path
										d="M-4.095,-4.095C-6.358,-4.095 -8.191,-2.261 -8.191,0.001C-8.191,2.262 -6.358,4.095 -4.095,4.095C-1.833,4.095 0.001,2.262 0.001,0.001C0.001,-2.261 -1.833,-4.095 -4.095,-4.095"
										style="fill:white;fill-rule:nonzero;" />
								</g>
								<g transform="matrix(0,-1,-1,0,321.392,375.682)">
									<ellipse cx="-4.095" cy="0" rx="4.096" ry="4.095"
										style="fill:none;stroke:black;stroke-width:1.34px;" />
								</g>
								<g transform="matrix(0,-1,-1,0,265.74,375.682)">
									<path
										d="M-4.095,-4.095C-6.358,-4.095 -8.191,-2.261 -8.191,0.001C-8.191,2.262 -6.358,4.095 -4.095,4.095C-1.833,4.095 0.001,2.262 0.001,0.001C0.001,-2.261 -1.833,-4.095 -4.095,-4.095"
										style="fill:white;fill-rule:nonzero;" />
								</g>
								<g transform="matrix(0,-1,-1,0,265.74,375.682)">
									<ellipse cx="-4.095" cy="0" rx="4.096" ry="4.095"
										style="fill:none;stroke:black;stroke-width:1.34px;" />
								</g>
								<g transform="matrix(0,-1,-1,0,293.566,375.682)">
									<path
										d="M-4.095,-4.095C-6.358,-4.095 -8.191,-2.261 -8.191,0.001C-8.191,2.262 -6.358,4.095 -4.095,4.095C-1.833,4.095 0.001,2.262 0.001,0.001C0.001,-2.261 -1.833,-4.095 -4.095,-4.095"
										style="fill:white;fill-rule:nonzero;" />
								</g>
								<g transform="matrix(0,-1,-1,0,293.566,375.682)">
									<ellipse cx="-4.095" cy="0" rx="4.096" ry="4.095"
										style="fill:none;stroke:black;stroke-width:1.34px;" />
								</g>
								<g transform="matrix(0,-1,-1,0,349.217,375.682)">
									<path
										d="M-4.095,-4.095C-6.358,-4.095 -8.191,-2.261 -8.191,0.001C-8.191,2.262 -6.358,4.095 -4.095,4.095C-1.833,4.095 0.001,2.262 0.001,0.001C0.001,-2.261 -1.833,-4.095 -4.095,-4.095"
										style="fill:rgb(102,102,102);fill-rule:nonzero;" />
								</g>
								<g transform="matrix(0,-1,-1,0,349.217,375.682)">
									<ellipse cx="-4.095" cy="0" rx="4.096" ry="4.095"
										style="fill:none;stroke:black;stroke-width:1.34px;" />
								</g>
								<g transform="matrix(-1,0,0,1,582.474,127.754)">
									<rect x="248.354" y="210.345" width="85.766" height="51.556"
										style="fill:rgb(204,204,204);stroke:black;stroke-width:1.34px;" />
								</g>
								<g transform="matrix(0,-1,-1,0,377.043,375.682)">
									<path
										d="M-4.095,-4.095C-6.358,-4.095 -8.191,-2.261 -8.191,0.001C-8.191,2.262 -6.358,4.095 -4.095,4.095C-1.833,4.095 0.001,2.262 0.001,0.001C0.001,-2.261 -1.833,-4.095 -4.095,-4.095"
										style="fill:rgb(102,102,102);fill-rule:nonzero;" />
								</g>
								<g transform="matrix(0,-1,-1,0,377.043,375.682)">
									<ellipse cx="-4.095" cy="0" rx="4.096" ry="4.095"
										style="fill:none;stroke:black;stroke-width:1.34px;" />
								</g>
								<g transform="matrix(-1,0,0,1,737.101,136.668)">
									<rect x="358.974" y="224.318" width="19.153" height="14.696"
										style="fill:rgb(198,156,109);stroke:black;stroke-width:1.34px;" />
								</g>
								<g transform="matrix(-1,0,0,1,737.102,118.84)">
									<rect x="356.927" y="239.014" width="23.248" height="3.132"
										style="fill:rgb(166,124,82);stroke:black;stroke-width:1.34px;" />
								</g>
								<g transform="matrix(-1,0,0,1,737.102,130.886)">
									<rect x="364.877" y="232.991" width="7.348" height="3.132"
										style="fill:rgb(117,76,36);" />
								</g>
								<g transform="matrix(1,0,0,1,298.732,356.405)">
									<path
										d="M0,14.944L-5.487,5.44L-5.487,-1.737C-4.979,-1.921 -4.664,-2.173 -4.664,-2.452C-4.664,-3.011 -5.931,-3.465 -7.495,-3.465C-9.058,-3.465 -10.325,-3.011 -10.325,-2.452C-10.325,-2.173 -10.011,-1.921 -9.502,-1.737L-9.502,5.44L-14.989,14.944C-15.878,16.484 -14.767,18.409 -12.989,18.409L-2,18.409C-0.222,18.409 0.889,16.484 0,14.944Z"
										style="fill:white;fill-rule:nonzero;stroke:black;stroke-width:1.34px;" />
								</g>
								<g transform="matrix(1,0,0,1,296.731,367.707)">
									<path
										d="M0,7.112L-10.993,7.112C-12.771,7.112 -13.877,5.182 -12.988,3.643L-10.885,0L-0.098,0L2.006,3.643C2.895,5.182 1.778,7.112 0,7.112Z"
										style="fill:rgb(0,113,188);fill-rule:nonzero;stroke:black;stroke-width:1.34px;" />
								</g>
								<g transform="matrix(1,0,0,1,321.392,341.562)">
									<path d="M0,0L10.329,0"
										style="fill:none;fill-rule:nonzero;stroke:black;stroke-width:1.34px;" />
								</g>
								<g transform="matrix(1,0,0,1,318.39,344.453)">
									<path d="M0,0L13.331,0"
										style="fill:none;fill-rule:nonzero;stroke:black;stroke-width:1.34px;" />
								</g>
								<g transform="matrix(1,0,0,1,319.996,347.344)">
									<path d="M0,0L11.725,0"
										style="fill:none;fill-rule:nonzero;stroke:black;stroke-width:1.34px;" />
								</g>
								<g transform="matrix(1,0,0,1,0,164.71)">
									<rect x="322.737" y="213.153" width="8.984" height="8.984"
										style="fill:rgb(41,171,226);stroke:black;stroke-width:1.34px;" />
								</g>
								<g transform="matrix(1,0,0,1,0,140.738)">
									<rect x="322.737" y="225.139" width="8.984" height="8.984"
										style="fill:rgb(251,176,59);stroke:black;stroke-width:1.34px;" />
								</g>
								<g transform="matrix(0,-1,-1,0,264.426,329.607)">
									<path
										d="M-2.921,-2.921C-1.308,-2.921 0,-1.613 0,0C0,1.613 -1.308,2.921 -2.921,2.921C-4.534,2.921 -5.842,1.613 -5.842,0C-5.842,-1.613 -4.534,-2.921 -2.921,-2.921"
										style="fill:rgb(248,178,180);fill-rule:nonzero;" />
								</g>
								<g transform="matrix(0,-1,-1,0,264.426,329.607)">
									<circle cx="-2.921" cy="0" r="2.921"
										style="fill:none;stroke:black;stroke-width:1.34px;" />
								</g>
								<g transform="matrix(0,-1,-1,0,273.229,329.607)">
									<path
										d="M-2.921,-2.921C-1.308,-2.921 0,-1.613 0,0C0,1.613 -1.308,2.921 -2.921,2.921C-4.534,2.921 -5.842,1.613 -5.842,0C-5.842,-1.613 -4.534,-2.921 -2.921,-2.921"
										style="fill:rgb(0,146,69);fill-rule:nonzero;" />
								</g>
								<g transform="matrix(0,-1,-1,0,273.229,329.607)">
									<circle cx="-2.921" cy="0" r="2.921"
										style="fill:none;stroke:black;stroke-width:1.34px;" />
								</g>
								<g transform="matrix(0,1,1,0,303.938,402.443)">
									<path d="M-12.789,-12.789L12.789,-12.789"
										style="fill:none;fill-rule:nonzero;stroke:black;stroke-width:1.34px;" />
								</g>
								<g transform="matrix(0,1,1,0,268.034,402.443)">
									<path d="M-12.789,-12.789L12.789,-12.789"
										style="fill:none;fill-rule:nonzero;stroke:black;stroke-width:1.34px;" />
								</g>
								<g transform="matrix(0,1,1,0,340.017,402.443)">
									<path d="M-12.789,-12.789L12.789,-12.789"
										style="fill:none;fill-rule:nonzero;stroke:black;stroke-width:1.34px;" />
								</g>
								<g transform="matrix(1,0,0,1,255.245,409.611)">
									<path d="M0,0L71.984,0"
										style="fill:none;fill-rule:nonzero;stroke:black;stroke-width:1.34px;" />
								</g>
								<g transform="matrix(0.896465,0.443114,0.443114,-0.896465,261.036,384.827)">
									<path d="M-2.073,-8.874L37.977,-8.873"
										style="fill:none;fill-rule:nonzero;stroke:black;stroke-width:1.34px;" />
								</g>
								<g transform="matrix(0.896465,-0.443114,-0.443114,-0.896465,261.036,416.647)">
									<path d="M-2.073,8.874L37.977,8.873"
										style="fill:none;fill-rule:nonzero;stroke:black;stroke-width:1.34px;" />
								</g>
								<g transform="matrix(0.896465,0.443114,0.443114,-0.896465,297.028,384.827)">
									<path d="M-2.073,-8.874L37.977,-8.873"
										style="fill:none;fill-rule:nonzero;stroke:black;stroke-width:1.34px;" />
								</g>
								<g transform="matrix(0.896465,-0.443114,-0.443114,-0.896465,297.028,416.647)">
									<path d="M-2.073,8.874L37.977,8.873"
										style="fill:none;fill-rule:nonzero;stroke:black;stroke-width:1.34px;" />
								</g>
								<g transform="matrix(0,1,1,0,362.122,395.778)">
									<path d="M-11.976,-11.976L11.976,-11.976"
										style="fill:none;fill-rule:nonzero;stroke:black;stroke-width:1.34px;" />
								</g>
								<g transform="matrix(0,1,1,0,406.154,395.778)">
									<path d="M-11.976,-11.976L11.976,-11.976"
										style="fill:none;fill-rule:nonzero;stroke:black;stroke-width:1.34px;" />
								</g>
								<g transform="matrix(1,0,0,1,350.253,403.791)">
									<path d="M0,0L43.925,0"
										style="fill:none;fill-rule:nonzero;stroke:black;stroke-width:1.34px;" />
								</g>
								<g transform="matrix(0.947343,0.32022,0.32022,-0.947343,353.778,382.354)">
									<path d="M-1.218,-7.406L45.035,-7.406"
										style="fill:none;fill-rule:nonzero;stroke:black;stroke-width:1.34px;" />
								</g>
								<g transform="matrix(0.947343,-0.32022,-0.32022,-0.947343,353.778,410.416)">
									<path d="M-1.218,7.406L45.035,7.406"
										style="fill:none;fill-rule:nonzero;stroke:black;stroke-width:1.34px;" />
								</g>
								<g opacity="0.8">
									<g transform="matrix(-1,0,0,1,903.698,170.796)">
										<clipPath id="_clip2">
											<rect x="429.66" y="192.413" width="44.379" height="44.379"
												clip-rule="nonzero" />
										</clipPath>
										<g clip-path="url(#_clip2)">
											<rect x="430.327" y="193.08" width="43.044" height="43.044"
												style="fill:rgb(117,76,36);stroke:black;stroke-width:1.34px;" />
										</g>
									</g>
								</g>
								<g opacity="0.8">
									<g transform="matrix(-1,0,0,1,903.697,170.796)">
										<clipPath id="_clip3">
											<rect x="432.871" y="192.413" width="37.954" height="44.379"
												clip-rule="nonzero" />
										</clipPath>
										<g clip-path="url(#_clip3)">
											<rect x="433.539" y="193.08" width="36.619" height="43.044"
												style="fill:rgb(117,76,36);stroke:black;stroke-width:1.34px;" />
										</g>
									</g>
								</g>
								<g opacity="0.8">
									<g transform="matrix(-1,0,0,1,903.697,170.796)">
										<clipPath id="_clip4">
											<rect x="432.871" y="195.545" width="37.954" height="38.115"
												clip-rule="nonzero" />
										</clipPath>
										<g clip-path="url(#_clip4)">
											<rect x="433.539" y="196.212" width="36.619" height="36.78"
												style="fill:rgb(166,124,82);stroke:black;stroke-width:1.34px;" />
										</g>
									</g>
								</g>
								<g opacity="0.8">
									<g transform="matrix(-1,0,0,1,903.698,216.691)">
										<clipPath id="_clip5">
											<rect x="422.171" y="189.562" width="59.356" height="4.186"
												clip-rule="nonzero" />
										</clipPath>
										<g clip-path="url(#_clip5)">
											<rect x="422.839" y="190.229" width="58.02" height="2.851"
												style="fill:rgb(102,102,102);stroke:black;stroke-width:1.34px;" />
										</g>
									</g>
								</g>
								<g opacity="0.8">
									<g transform="matrix(0.328926,0.944356,0.944356,-0.328926,497.724,376.077)">
										<clipPath id="_clip6">
											<path
												d="M23.944,-34.362L29.016,-19.8L-9.786,-6.286L-14.858,-20.847L23.944,-34.362Z"
												clip-rule="nonzero" />
										</clipPath>
										<g clip-path="url(#_clip6)">
											<path d="M-14.443,-20.324L28.601,-20.324"
												style="fill:none;fill-rule:nonzero;stroke:black;stroke-width:1.34px;" />
										</g>
									</g>
								</g>
								<g transform="matrix(1,0,0,1,441.243,394.158)">
									<path
										d="M0,-9.349L21.248,-9.349C21.248,-9.349 19.857,0 10.624,0C-1.236,0 0,-9.349 0,-9.349"
										style="fill:rgb(0,146,230);fill-rule:nonzero;" />
								</g>
								<g transform="matrix(1,0,0,1,0,156.002)">
									<rect x="452.856" y="220.763" width="2.472" height="2.472"
										style="fill:rgb(0,146,230);" />
								</g>
								<g transform="matrix(1,0,0,1,0,156.002)">
									<path
										d="M455.453,220.637L452.729,220.637L452.729,223.361L455.453,223.361L455.453,220.637ZM455.202,223.109L452.981,223.109L452.981,220.889L455.202,220.889L455.202,223.109Z"
										style="fill:rgb(166,124,82);fill-rule:nonzero;" />
								</g>
								<g transform="matrix(1,0,0,1,0,161.45)">
									<rect x="452.856" y="218.039" width="2.472" height="2.472"
										style="fill:rgb(0,146,230);" />
								</g>
								<g transform="matrix(1,0,0,1,0,161.448)">
									<path
										d="M455.453,217.914L452.729,217.914L452.729,220.638L455.453,220.638L455.453,217.914ZM455.202,220.386L452.981,220.386L452.981,218.166L455.202,218.166L455.202,220.386Z"
										style="fill:rgb(166,124,82);fill-rule:nonzero;" />
								</g>
								<g transform="matrix(1,0,0,1,0,161.45)">
									<rect x="450.133" y="218.039" width="2.472" height="2.472"
										style="fill:rgb(0,146,230);" />
								</g>
								<g transform="matrix(1,0,0,1,0,161.448)">
									<path
										d="M452.73,217.914L450.007,217.914L450.007,220.638L452.73,220.638L452.73,217.914ZM452.478,220.386L450.258,220.386L450.258,218.166L452.478,218.166L452.478,220.386Z"
										style="fill:rgb(166,124,82);fill-rule:nonzero;" />
								</g>
								<g transform="matrix(1,0,0,1,0,166.895)">
									<rect x="450.133" y="215.317" width="2.472" height="2.471"
										style="fill:rgb(0,146,230);" />
								</g>
								<g transform="matrix(1,0,0,1,0,166.896)">
									<path
										d="M452.73,215.19L450.007,215.19L450.007,217.914L452.73,217.914L452.73,215.19ZM452.478,217.662L450.258,217.662L450.258,215.442L452.478,215.442L452.478,217.662Z"
										style="fill:rgb(166,124,82);fill-rule:nonzero;" />
								</g>
								<g transform="matrix(1,0,0,1,0,166.895)">
									<rect x="447.409" y="215.317" width="2.472" height="2.471"
										style="fill:rgb(0,146,230);" />
								</g>
								<g transform="matrix(1,0,0,1,0,166.896)">
									<path
										d="M450.007,215.19L447.283,215.19L447.283,217.914L450.007,217.914L450.007,215.19ZM449.755,217.662L447.534,217.662L447.534,215.442L449.755,215.442L449.755,217.662Z"
										style="fill:rgb(166,124,82);fill-rule:nonzero;" />
								</g>
								<g transform="matrix(1,0,0,1,0,161.45)">
									<rect x="447.409" y="218.039" width="2.472" height="2.472"
										style="fill:rgb(0,146,230);" />
								</g>
								<g transform="matrix(1,0,0,1,0,161.448)">
									<path
										d="M450.007,217.914L447.283,217.914L447.283,220.638L450.007,220.638L450.007,217.914ZM449.755,220.386L447.534,220.386L447.534,218.166L449.755,218.166L449.755,220.386Z"
										style="fill:rgb(166,124,82);fill-rule:nonzero;" />
								</g>
								<g transform="matrix(1,0,0,1,0,166.895)">
									<rect x="444.685" y="215.317" width="2.472" height="2.471"
										style="fill:rgb(0,146,230);" />
								</g>
								<g transform="matrix(1,0,0,1,0,166.896)">
									<path
										d="M447.283,215.19L444.559,215.19L444.559,217.914L447.283,217.914L447.283,215.19ZM447.032,217.662L444.811,217.662L444.811,215.442L447.032,215.442L447.032,217.662Z"
										style="fill:rgb(166,124,82);fill-rule:nonzero;" />
								</g>
								<g transform="matrix(1,0,0,1,0,166.895)">
									<rect x="452.856" y="215.317" width="2.472" height="2.471"
										style="fill:rgb(0,146,230);" />
								</g>
								<g transform="matrix(1,0,0,1,0,166.896)">
									<path
										d="M455.453,215.19L452.729,215.19L452.729,217.914L455.453,217.914L455.453,215.19ZM455.202,217.662L452.981,217.662L452.981,215.442L455.202,215.442L455.202,217.662Z"
										style="fill:rgb(166,124,82);fill-rule:nonzero;" />
								</g>
								<g transform="matrix(1,0,0,1,0,166.895)">
									<rect x="455.58" y="215.317" width="2.472" height="2.471"
										style="fill:rgb(0,146,230);" />
								</g>
								<g transform="matrix(1,0,0,1,0,166.896)">
									<path
										d="M458.177,215.19L455.453,215.19L455.453,217.914L458.177,217.914L458.177,215.19ZM457.926,217.662L455.705,217.662L455.705,215.442L457.926,215.442L457.926,217.662Z"
										style="fill:rgb(166,124,82);fill-rule:nonzero;" />
								</g>
								<g transform="matrix(1,0,0,1,465.836,381.91)">
									<path
										d="M0,1.914C-0.838,3.277 -2.623,3.697 -3.985,2.86C-5.348,2.022 -5.778,0.239 -4.941,-1.123C-4.784,-1.378 -4.599,-1.599 -4.38,-1.783L-2.677,0.732L0.335,1.116C0.27,1.395 0.157,1.659 0,1.914"
										style="fill:rgb(0,146,230);fill-rule:nonzero;" />
								</g>
							</g>
						</g>
					</g>
					<g transform="matrix(1,0,0,1,309.677,341.394)">
						<path
							d="M0,88.52C-20.656,88.52 -37.42,57.599 -37.42,37.42C-37.42,16.787 -20.634,0 0,0C20.634,0 37.42,16.787 37.42,37.42C37.42,57.599 20.656,88.52 0,88.52"
							style="fill:rgb(255,117,69);fill-rule:nonzero;" />
					</g>
					<g transform="matrix(1,0,0,1,309.676,431.121)">
						<path
							d="M0,-90.934C-21.333,-90.934 -38.627,-73.64 -38.627,-52.307C-38.627,-30.974 -21.333,0 0,0C21.333,0 38.627,-30.974 38.627,-52.307C38.627,-73.64 21.333,-90.934 0,-90.934M0,-88.52C19.968,-88.52 36.213,-72.275 36.213,-52.307C36.213,-32.605 19.99,-2.414 0,-2.414C-19.99,-2.414 -36.213,-32.605 -36.213,-52.307C-36.213,-72.275 -19.968,-88.52 0,-88.52"
							style="fill:rgb(36,36,36);fill-rule:nonzero;" />
					</g>
					<g transform="matrix(1,0,0,1,381.263,431.103)">
						<path
							d="M0,151.616C-39.22,151.616 -71.841,121.804 -75.664,83.157C-64.688,93.708 -49.927,99.698 -34.656,99.698C-2.042,99.698 24.491,73.165 24.491,40.551C24.491,25.286 18.797,11.012 8.384,0C46.584,4.198 76.048,36.774 76.048,75.568C76.048,117.501 41.933,151.616 0,151.616"
							style="fill:rgb(255,117,69);fill-rule:nonzero;" />
					</g>
					<g transform="matrix(1,0,0,1,386.45,583.926)">
						<path
							d="M0,-154.316C11.139,-143.757 18.097,-128.832 18.097,-112.272C18.097,-80.272 -7.844,-54.331 -39.844,-54.331C-56.624,-54.331 -71.729,-61.472 -82.31,-72.87C-80.036,-32.245 -46.381,0 -5.187,0C37.479,0 72.067,-34.588 72.067,-77.254C72.067,-118.175 40.245,-151.645 0,-154.316M6.271,-151.202C22.717,-148.677 37.833,-140.746 49.367,-128.475C62.449,-114.557 69.653,-96.366 69.653,-77.254C69.653,-35.987 36.08,-2.414 -5.187,-2.414C-42.696,-2.414 -74.074,-30.121 -79.265,-66.59C-68.364,-57.199 -54.328,-51.917 -39.844,-51.917C-6.564,-51.917 20.511,-78.992 20.511,-112.272C20.511,-126.74 15.498,-140.336 6.271,-151.202"
							style="fill:rgb(36,36,36);fill-rule:nonzero;" />
					</g>
					<g transform="matrix(0,-1,-1,0,309.073,411.807)">
						<path
							d="M-9.657,-9.657C-14.99,-9.657 -19.314,-5.333 -19.314,-0C-19.314,5.333 -14.99,9.657 -9.657,9.657C-4.324,9.657 -0,5.333 -0,-0C-0,-5.333 -4.324,-9.657 -9.657,-9.657"
							style="fill:rgb(36,36,36);fill-rule:nonzero;" />
					</g>
					<g transform="matrix(0,-1,-1,0,297.606,386.057)">
						<path
							d="M-2.414,-2.414C-5.081,-2.414 -7.242,-1.333 -7.242,0C-7.242,1.334 -5.081,2.414 -2.414,2.414C0.253,2.414 2.414,1.334 2.414,0C2.414,-1.333 0.253,-2.414 -2.414,-2.414"
							style="fill:rgb(36,36,36);fill-rule:nonzero;" />
					</g>
					<g transform="matrix(1,0,0,1,309.677,435.511)">
						<path
							d="M0,151.222C-42.249,151.222 -42.249,135.484 -42.249,106.912C-42.249,76.967 -22.162,0 0,0C22.161,0 42.248,76.967 42.248,106.912L42.248,107.491C42.249,121.47 42.25,132.512 37.039,139.891C31.506,147.727 20.082,151.222 0,151.222"
							style="fill:rgb(255,117,69);fill-rule:nonzero;" />
					</g>
					<g transform="matrix(1,0,0,1,309.676,587.94)">
						<path
							d="M0,-153.635C-24,-153.635 -43.456,-74.207 -43.456,-45.515C-43.456,-16.824 -43.456,0 0,0C43.753,0 43.456,-16.824 43.456,-45.515C43.456,-74.207 24,-153.635 0,-153.635M0,-151.221C9.194,-151.221 19.559,-136.039 28.439,-109.567C36.712,-84.902 41.042,-58.675 41.042,-45.515L41.042,-44.937C41.042,-31.172 41.043,-20.3 36.054,-13.234C30.77,-5.751 19.65,-2.414 0,-2.414C-41.042,-2.414 -41.042,-16.818 -41.042,-45.515C-41.042,-58.675 -36.712,-84.902 -28.439,-109.567C-19.559,-136.039 -9.193,-151.221 0,-151.221"
							style="fill:rgb(36,36,36);fill-rule:nonzero;" />
					</g>
					<g transform="matrix(0,-1,-1,0,320.541,386.057)">
						<path
							d="M-2.414,-2.414C-5.081,-2.414 -7.242,-1.333 -7.242,0C-7.242,1.334 -5.081,2.414 -2.414,2.414C0.253,2.414 2.414,1.334 2.414,0C2.414,-1.333 0.253,-2.414 -2.414,-2.414"
							style="fill:rgb(36,36,36);fill-rule:nonzero;" />
					</g>
					<g transform="matrix(1,0,0,1,267.562,311.53)">
						<path
							d="M0,52.376C-2.871,38.152 -0.599,17.388 2.244,6.016C3.2,2.192 4.437,0 5.638,0C8.407,0 13.124,8.061 17.285,15.173C19.512,18.977 21.806,22.897 24.172,26.381C12.854,31.347 4.102,40.811 0,52.376"
							style="fill:rgb(255,117,69);fill-rule:nonzero;" />
					</g>
					<g transform="matrix(1,0,0,1,273.199,368.431)">
						<path
							d="M0,-58.108C-1.789,-58.107 -3.332,-56.106 -4.563,-51.178C-7.578,-39.122 -10.321,-14.652 -5.734,0.003C-2.367,-13.698 7.483,-24.839 20.375,-29.982C12.543,-41.059 5.222,-58.111 0,-58.108M0.021,-55.692C0.181,-55.667 1.336,-55.372 3.897,-51.878C5.953,-49.072 8.214,-45.208 10.608,-41.116C12.596,-37.719 14.637,-34.23 16.744,-31.027C7.069,-26.414 -0.658,-18.552 -5.134,-8.94C-6.859,-22.615 -4.769,-40.405 -2.221,-50.593C-1.158,-54.848 -0.118,-55.608 0.021,-55.692M0.036,-55.7L0.041,-55.7L0.036,-55.7Z"
							style="fill:rgb(36,36,36);fill-rule:nonzero;" />
					</g>
					<g transform="matrix(1,0,0,1,351.391,311.53)">
						<path
							d="M0,52.376C-4.102,40.811 -12.854,31.348 -24.172,26.381C-21.806,22.897 -19.513,18.978 -17.287,15.175C-13.125,8.062 -8.407,0 -5.638,0C-4.437,0 -3.201,2.192 -2.245,6.016C0.598,17.386 2.871,38.15 0,52.376"
							style="fill:rgb(255,117,69);fill-rule:nonzero;" />
					</g>
					<g transform="matrix(1,0,0,1,345.753,368.434)">
						<path
							d="M0,-58.111C-5.222,-58.111 -12.543,-41.062 -20.375,-29.985C-7.483,-24.842 2.367,-13.701 5.735,0C10.322,-14.655 7.578,-39.125 4.564,-51.181C3.332,-56.109 1.789,-58.111 0,-58.111M-0.02,-55.695C0.12,-55.61 1.159,-54.848 2.222,-50.596C4.769,-40.408 6.86,-22.617 5.134,-8.943C0.658,-18.556 -7.069,-26.417 -16.744,-31.03C-14.637,-34.234 -12.595,-37.723 -10.607,-41.12C-8.213,-45.211 -5.952,-49.076 -3.896,-51.881C-1.337,-55.372 -0.181,-55.67 -0.02,-55.695"
							style="fill:rgb(36,36,36);fill-rule:nonzero;" />
					</g>
					<g transform="matrix(-0.274707,-0.961528,-0.961528,0.274707,365.47,533.84)">
						<path d="M36.313,109.474L121.68,109.474L76.136,-49.94L3.653,-4.842L36.313,109.474Z"
							style="fill:rgb(204,204,204);fill-rule:nonzero;" />
					</g>
					<g transform="matrix(1,0,0,1,394.173,530.205)">
						<path
							d="M0,-84.497L-168.994,-84.497L-144.852,0L-24.142,0L0,-84.497ZM-3.201,-82.083L-25.963,-2.414L-143.031,-2.414L-165.793,-82.083L-3.201,-82.083Z"
							style="fill:rgb(36,36,36);fill-rule:nonzero;" />
					</g>
					<g transform="matrix(-1,0,0,1,290.717,500.028)">
						<path d="M-37.919,-24.142L0,-24.142L-1.732,0L-36.187,0L-37.919,-24.142Z"
							style="fill:rgb(242,242,242);fill-rule:nonzero;" />
					</g>
					<g transform="matrix(0,1,1,0,332.603,485.116)">
						<path d="M-22.926,-22.926L22.926,-22.926"
							style="fill:none;fill-rule:nonzero;stroke:rgb(204,204,204);stroke-width:2.41px;stroke-linecap:round;stroke-linejoin:round;" />
					</g>
					<g transform="matrix(1,0,0,1,282.34,487.957)">
						<path d="M0,0L54.673,0"
							style="fill:none;fill-rule:nonzero;stroke:rgb(204,204,204);stroke-width:2.41px;stroke-linecap:round;stroke-linejoin:round;" />
					</g>
					<g transform="matrix(1,0,0,1,404.621,443.438)">
						<path
							d="M0,39.774C0.749,35.98 1.128,32.096 1.128,28.215C1.128,12.95 -4.565,-1.324 -14.978,-12.335C10.692,-9.511 33.351,6.303 44.859,29.6L24.918,52.109L0,39.774Z"
							style="fill:white;fill-rule:nonzero;" />
					</g>
					<g transform="matrix(1,0,0,1,386.448,497.038)">
						<path
							d="M0,-67.429C11.142,-56.867 18.094,-41.947 18.094,-25.386C18.094,-21.185 17.648,-17.105 16.803,-13.158L43.383,0L64.471,-23.804C52.714,-48.248 28.463,-65.546 0,-67.429M6.272,-64.313C29.94,-60.661 50.644,-45.753 61.588,-24.19L42.8,-2.983L19.529,-14.502C20.18,-18.083 20.508,-21.735 20.508,-25.386C20.508,-39.853 15.497,-53.448 6.272,-64.313"
							style="fill:rgb(36,36,36);fill-rule:nonzero;" />
					</g>
					<g transform="matrix(1,0,0,1,404.621,443.438)">
						<path
							d="M0,39.774C0.749,35.98 1.128,32.096 1.128,28.215C1.128,12.95 -4.565,-1.324 -14.978,-12.335C10.692,-9.511 33.351,6.303 44.859,29.6L24.918,52.109L0,39.774Z"
							style="fill:white;fill-rule:nonzero;" />
					</g>
					<g transform="matrix(1,0,0,1,386.448,497.038)">
						<path
							d="M0,-67.429C11.142,-56.867 18.094,-41.947 18.094,-25.386C18.094,-21.185 17.648,-17.105 16.803,-13.158L43.383,0L64.471,-23.804C52.714,-48.248 28.463,-65.546 0,-67.429M6.272,-64.313C29.94,-60.661 50.644,-45.753 61.588,-24.19L42.8,-2.983L19.529,-14.502C20.18,-18.083 20.508,-21.735 20.508,-25.386C20.508,-39.853 15.497,-53.448 6.272,-64.313"
							style="fill:rgb(36,36,36);fill-rule:nonzero;" />
					</g>
					<g transform="matrix(1,0,0,1,331.728,334.768)">
						<path
							d="M0,7.485C0,11.126 7.926,22.051 -22.051,22.051C-52.429,22.051 -44.102,11.126 -44.102,7.485C-44.102,-0.896 -39.434,-8.164 -32.571,-11.907C-29.435,-13.598 -25.866,-14.566 -22.051,-14.566C-18.251,-14.566 -14.667,-13.598 -11.546,-11.907C-4.667,-8.164 0,-0.896 0,7.485"
							style="fill:rgb(255,196,53);fill-rule:nonzero;" />
					</g>
					<g transform="matrix(1,0,0,1,331.728,334.768)">
						<path
							d="M0,7.485C0,11.126 7.926,22.051 -22.051,22.051C-52.429,22.051 -44.102,11.126 -44.102,7.485C-44.102,-0.896 -39.434,-8.164 -32.571,-11.907C-29.435,-13.598 -25.866,-14.566 -22.051,-14.566C-18.251,-14.566 -14.667,-13.598 -11.546,-11.907C-4.667,-8.164 0,-0.896 0,7.485Z"
							style="fill:none;fill-rule:nonzero;stroke:black;stroke-width:1.45px;" />
					</g>
					<g transform="matrix(1,0,0,1,331.727,346.198)">
						<path
							d="M0,-3.945C0,-2.731 -2.746,-1.821 -6.878,-1.214C-15.144,0 -28.958,0 -37.223,-1.214C-41.356,-1.821 -44.102,-2.731 -44.102,-3.945"
							style="fill:rgb(255,196,53);fill-rule:nonzero;stroke:black;stroke-width:1.45px;" />
					</g>
					<g transform="matrix(0,-1,-1,0,309.38,312.638)">
						<path
							d="M-10.224,-10.801C-12.146,-8.865 -13.461,-4.891 -13.461,-0.296C-13.461,4.299 -12.146,8.273 -10.224,10.224C-8.532,7.088 -7.565,3.519 -7.565,-0.296C-7.565,-4.096 -8.532,-7.68 -10.224,-10.801Z"
							style="fill:rgb(255,196,53);fill-rule:nonzero;stroke:black;stroke-width:1.45px;" />
					</g>
					<g transform="matrix(1,0,0,1,324.849,326.228)">
						<path
							d="M0,18.756C-8.265,19.97 -22.08,19.97 -30.345,18.756C-30.129,10.014 -26.791,2.5 -21.979,-1.2C-20.057,-0.535 -17.701,-0.13 -15.173,-0.13C-12.644,-0.13 -10.289,-0.535 -8.381,-1.214C-3.569,2.485 -0.217,9.999 0,18.756Z"
							style="fill:rgb(255,196,53);fill-rule:nonzero;stroke:black;stroke-width:1.45px;" />
					</g>
					<g transform="matrix(0,1,1,0,319.575,335.996)">
						<path d="M-9.898,-9.898L9.898,-9.898"
							style="fill:none;fill-rule:nonzero;stroke:black;stroke-width:1.45px;" />
					</g>
					<g transform="matrix(0,-1,-1,0,309.677,339)">
						<path
							d="M-6.893,-6.893C-3.086,-6.893 0,-3.807 0,0C0,3.807 -3.086,6.893 -6.893,6.893C-10.701,6.893 -13.787,3.807 -13.787,0C-13.787,-3.807 -10.701,-6.893 -6.893,-6.893"
							style="fill:rgb(204,204,204);fill-rule:nonzero;" />
					</g>
					<g transform="matrix(0,-1,-1,0,309.677,339)">
						<ellipse cx="-6.893" cy="0" rx="6.894" ry="6.893"
							style="fill:none;stroke:black;stroke-width:2.27px;" />
					</g>
					<g transform="matrix(-0.453422,-0.891296,-0.891296,0.453422,488.647,94.1297)">
						<path d="M-101.326,62.137L38.105,62.137"
							style="fill:none;fill-rule:nonzero;stroke:black;stroke-width:3.64px;stroke-linecap:round;" />
					</g>
					<g transform="matrix(-1,0,0,1,720.544,-271.426)">
						<rect x="254.565" y="384.058" width="99.983" height="99.983"
							style="fill:rgb(117,76,36);stroke:black;stroke-width:1.82px;" />
					</g>
					<g transform="matrix(-1,0,0,1,720.544,-271.426)">
						<rect x="262.026" y="384.058" width="85.061" height="99.983"
							style="fill:rgb(117,76,36);stroke:black;stroke-width:1.82px;" />
					</g>
					<g transform="matrix(-1,0,0,1,720.544,-271.427)">
						<rect x="262.026" y="391.333" width="85.061" height="85.434"
							style="fill:rgb(166,124,82);stroke:black;stroke-width:1.82px;" />
					</g>
					<g transform="matrix(-1,0,0,1,720.543,-164.821)">
						<rect x="237.17" y="377.436" width="134.772" height="6.622"
							style="fill:rgb(102,102,102);stroke:black;stroke-width:1.82px;" />
					</g>
					<g transform="matrix(1,0,0,1,391.352,182.971)">
						<path
							d="M0,-21.716L49.355,-21.716C49.355,-21.716 46.125,0 24.678,0C-2.872,0 0,-21.716 0,-21.716"
							style="fill:rgb(0,146,230);fill-rule:nonzero;" />
					</g>
					<g transform="matrix(1,0,0,1,111.431,-305.795)">
						<rect x="306.895" y="448.363" width="5.742" height="5.742" style="fill:rgb(0,146,230);" />
					</g>
					<g transform="matrix(1,0,0,1,111.431,-305.795)">
						<path
							d="M312.93,448.071L306.603,448.071L306.603,454.397L312.93,454.397L312.93,448.071ZM312.345,453.813L307.187,453.813L307.187,448.655L312.345,448.655L312.345,453.813Z"
							style="fill:rgb(166,124,82);fill-rule:nonzero;" />
					</g>
					<g transform="matrix(1,0,0,1,111.431,-293.143)">
						<rect x="306.895" y="442.037" width="5.742" height="5.742" style="fill:rgb(0,146,230);" />
					</g>
					<g transform="matrix(1,0,0,1,111.431,-293.143)">
						<path
							d="M312.93,441.745L306.603,441.745L306.603,448.071L312.93,448.071L312.93,441.745ZM312.345,447.487L307.187,447.487L307.187,442.329L312.345,442.329L312.345,447.487Z"
							style="fill:rgb(166,124,82);fill-rule:nonzero;" />
					</g>
					<g transform="matrix(1,0,0,1,111.431,-293.143)">
						<rect x="300.568" y="442.037" width="5.743" height="5.742" style="fill:rgb(0,146,230);" />
					</g>
					<g transform="matrix(1,0,0,1,111.431,-293.143)">
						<path
							d="M306.603,441.745L300.277,441.745L300.277,448.071L306.603,448.071L306.603,441.745ZM306.018,447.487L300.861,447.487L300.861,442.329L306.018,442.329L306.018,447.487Z"
							style="fill:rgb(166,124,82);fill-rule:nonzero;" />
					</g>
					<g transform="matrix(1,0,0,1,111.431,-280.491)">
						<rect x="300.568" y="435.711" width="5.743" height="5.742" style="fill:rgb(0,146,230);" />
					</g>
					<g transform="matrix(1,0,0,1,111.431,-280.49)">
						<path
							d="M306.603,435.418L300.277,435.418L300.277,441.745L306.603,441.745L306.603,435.418ZM306.018,441.161L300.861,441.161L300.861,436.003L306.018,436.003L306.018,441.161Z"
							style="fill:rgb(166,124,82);fill-rule:nonzero;" />
					</g>
					<g transform="matrix(1,0,0,1,111.431,-280.491)">
						<rect x="294.242" y="435.711" width="5.742" height="5.742" style="fill:rgb(0,146,230);" />
					</g>
					<g transform="matrix(1,0,0,1,111.431,-280.49)">
						<path
							d="M300.277,435.418L293.95,435.418L293.95,441.745L300.277,441.745L300.277,435.418ZM299.692,441.161L294.534,441.161L294.534,436.003L299.692,436.003L299.692,441.161Z"
							style="fill:rgb(166,124,82);fill-rule:nonzero;" />
					</g>
					<g transform="matrix(1,0,0,1,111.431,-293.143)">
						<rect x="294.242" y="442.037" width="5.742" height="5.742" style="fill:rgb(0,146,230);" />
					</g>
					<g transform="matrix(1,0,0,1,111.431,-293.143)">
						<path
							d="M300.277,441.745L293.95,441.745L293.95,448.071L300.277,448.071L300.277,441.745ZM299.692,447.487L294.534,447.487L294.534,442.329L299.692,442.329L299.692,447.487Z"
							style="fill:rgb(166,124,82);fill-rule:nonzero;" />
					</g>
					<g transform="matrix(1,0,0,1,111.431,-280.491)">
						<rect x="287.916" y="435.711" width="5.742" height="5.742" style="fill:rgb(0,146,230);" />
					</g>
					<g transform="matrix(1,0,0,1,111.431,-280.49)">
						<path
							d="M293.95,435.418L287.624,435.418L287.624,441.745L293.95,441.745L293.95,435.418ZM293.366,441.161L288.209,441.161L288.209,436.003L293.366,436.003L293.366,441.161Z"
							style="fill:rgb(166,124,82);fill-rule:nonzero;" />
					</g>
					<g transform="matrix(1,0,0,1,111.431,-280.491)">
						<rect x="306.895" y="435.711" width="5.742" height="5.742" style="fill:rgb(0,146,230);" />
					</g>
					<g transform="matrix(1,0,0,1,111.431,-280.49)">
						<path
							d="M312.93,435.418L306.603,435.418L306.603,441.745L312.93,441.745L312.93,435.418ZM312.345,441.161L307.187,441.161L307.187,436.003L312.345,436.003L312.345,441.161Z"
							style="fill:rgb(166,124,82);fill-rule:nonzero;" />
					</g>
					<g transform="matrix(1,0,0,1,111.431,-280.491)">
						<rect x="313.222" y="435.711" width="5.742" height="5.742" style="fill:rgb(0,146,230);" />
					</g>
					<g transform="matrix(1,0,0,1,111.431,-280.49)">
						<path
							d="M319.256,435.418L312.929,435.418L312.929,441.745L319.256,441.745L319.256,435.418ZM318.672,441.161L313.514,441.161L313.514,436.003L318.672,436.003L318.672,441.161Z"
							style="fill:rgb(166,124,82);fill-rule:nonzero;" />
					</g>
					<g transform="matrix(1,0,0,1,448.478,154.523)">
						<path
							d="M0,4.444C-1.946,7.609 -6.092,8.587 -9.257,6.641C-12.422,4.695 -13.422,0.554 -11.477,-2.611C-11.113,-3.202 -10.683,-3.716 -10.175,-4.143L-6.218,1.698L0.779,2.591C0.628,3.237 0.364,3.852 0,4.444"
							style="fill:rgb(0,146,230);fill-rule:nonzero;" />
					</g>
					<g transform="matrix(0,-1,-1,0,415.987,68.5996)">
						<path
							d="M-9.871,-9.871C-4.419,-9.871 0,-5.452 0,0C0,5.451 -4.419,9.871 -9.871,9.871C-15.322,9.871 -19.742,5.451 -19.742,0C-19.742,-5.452 -15.322,-9.871 -9.871,-9.871"
							style="fill:rgb(77,77,77);fill-rule:nonzero;" />
					</g>
					<g transform="matrix(0,-1,-1,0,415.987,68.5996)">
						<circle cx="-9.871" cy="0" r="9.871" style="fill:none;stroke:black;stroke-width:2.15px;" />
					</g>
					<g transform="matrix(-0.453422,0.891296,0.891296,0.453422,425.426,206.827)">
						<path d="M-101.326,-62.137L38.105,-62.137"
							style="fill:none;fill-rule:nonzero;stroke:black;stroke-width:3.64px;stroke-linecap:round;" />
					</g>
					<g transform="matrix(0,-1,-1,0,448.49,36.0973)">
						<path d="M-32.502,32.502L32.502,32.502"
							style="fill:none;fill-rule:nonzero;stroke:black;stroke-width:3.64px;stroke-linecap:round;" />
					</g>
					<g transform="matrix(1,0,0,1,304.175,224.358)">
						<path
							d="M0,45.607C-1.794,47.496 -4.192,48.46 -6.613,48.496C-5.991,48.158 -5.435,47.731 -4.92,47.19C-2.323,44.456 -2.434,40.129 -5.169,37.531C-7.903,34.934 -12.23,35.045 -14.827,37.78C-15.341,38.321 -15.739,38.898 -16.045,39.538C-16.132,37.117 -15.293,34.673 -13.499,32.784C-10.902,30.05 -7.031,29.255 -3.689,30.419L15.784,9.919C14.449,6.641 15.045,2.735 17.642,0C19.436,-1.888 21.834,-2.852 24.256,-2.889C23.633,-2.551 23.077,-2.124 22.563,-1.582C19.965,1.152 20.077,5.479 22.811,8.076C25.545,10.673 29.872,10.562 32.469,7.828C32.983,7.286 33.381,6.709 33.687,6.07C33.775,8.49 32.935,10.934 31.141,12.823C28.544,15.557 24.673,16.353 21.331,15.189L1.858,35.688C3.193,38.966 2.597,42.873 0,45.607"
							style="fill:rgb(102,102,102);fill-rule:nonzero;" />
					</g>
					<g transform="matrix(1,0,0,1,304.175,224.358)">
						<path
							d="M0,45.607C-1.794,47.496 -4.192,48.46 -6.613,48.496C-5.991,48.158 -5.435,47.731 -4.92,47.19C-2.323,44.456 -2.434,40.129 -5.169,37.531C-7.903,34.934 -12.23,35.045 -14.827,37.78C-15.341,38.321 -15.739,38.898 -16.045,39.538C-16.132,37.117 -15.293,34.673 -13.499,32.784C-10.902,30.05 -7.031,29.255 -3.689,30.419L15.784,9.919C14.449,6.641 15.045,2.735 17.642,0C19.436,-1.888 21.834,-2.852 24.256,-2.889C23.633,-2.551 23.077,-2.124 22.563,-1.582C19.965,1.152 20.077,5.479 22.811,8.076C25.545,10.673 29.872,10.562 32.469,7.828C32.983,7.286 33.381,6.709 33.687,6.07C33.775,8.49 32.935,10.934 31.141,12.823C28.544,15.557 24.673,16.353 21.331,15.189L1.858,35.688C3.193,38.966 2.597,42.873 0,45.607Z"
							style="fill:none;fill-rule:nonzero;stroke:black;stroke-width:1.82px;stroke-linejoin:round;" />
					</g>
					<g transform="matrix(0.0437811,-0.999041,-0.999041,-0.0437811,325.746,190.415)">
						<path d="M-32.433,30.784C-11.032,34.829 10.545,34.829 32.298,30.784"
							style="fill:none;fill-rule:nonzero;stroke:black;stroke-width:1.82px;stroke-linecap:round;stroke-linejoin:round;" />
					</g>
					<g transform="matrix(0.264934,-0.964267,-0.964267,-0.264934,330.94,168.255)">
						<path d="M-15.164,19.893C-0.72,23.292 13.077,23.508 26.095,19.893"
							style="fill:none;fill-rule:nonzero;stroke:black;stroke-width:1.82px;stroke-linecap:round;stroke-linejoin:round;" />
					</g>
					<g transform="matrix(0.243953,-0.969787,-0.969787,-0.243953,362.19,190.184)">
						<path d="M-28.046,33.227C-2.686,42.528 21.1,42.529 43.312,33.227"
							style="fill:none;fill-rule:nonzero;stroke:black;stroke-width:1.82px;stroke-linecap:round;stroke-linejoin:round;" />
					</g>
				</g>
			</g>
		</g>
	</g>
</svg>
