<?xml version="1.0" encoding="UTF-8"?>
<!-- <svg xmlns="http://www.w3.org/2000/svg" xmlns:xlink="http://www.w3.org/1999/xlink" viewBox="0 206 600 254"> -->
<svg xmlns="http://www.w3.org/2000/svg" xmlns:xlink="http://www.w3.org/1999/xlink" viewBox="4 206 585 254">
	<defs>
		<style>
			.cls-1 {
				fill: #d0c5f3;
			}

			.cls-1,
			.cls-2,
			.cls-3,
			.cls-4,
			.cls-5,
			.cls-6,
			.cls-7,
			.cls-8 {
				stroke: #231f20;
				stroke-miterlimit: 10;
			}

			.cls-2 {
				fill: #522cd5;
			}

			.cls-3 {
				fill: #8a6fe8;
			}

			.cls-4,
			.cls-9 {
				fill: #fff;
			}

			.cls-10 {
				fill: #ff7545;
			}

			.cls-5 {
				fill: #a08be8;
			}

			.cls-11 {
				fill: #231f20;
			}

			.cls-6 {
				fill: #8f7ddd;
			}

			.cls-7 {
				fill: #512bd4;
			}

			.cls-8 {
				fill: url(#radial-gradient);
			}

			.cls-12 {
				fill: #242424;
			}
		</style>
		<radialGradient id="radial-gradient" cx="-1473.15" cy="795.32" fx="-1473.15" fy="795.32" r="1.1"
			gradientTransform="translate(2201.63 -21775.47) rotate(-113.12) scale(13.27 -13.27)"
			gradientUnits="userSpaceOnUse">
			<stop offset="0" stop-color="#8065e0" />
			<stop offset=".86" stop-color="#512bd4" />
		</radialGradient>
	</defs>
	<g id="dotnet">
		<g>
			<path class="cls-10"
				d="M382.44,454.09c1.12-8.29,3.12-31.04-6.26-43.16-3.58-4.63-8.45-7.2-14.49-7.65-.67-.05-1.37-.08-2.08-.08-28,0-87.09,37.68-104.97,49.52,17.39-22.16,90.94-112.24,137.5-112.24,6.56,0,12.39,1.82,17.31,5.42,9.64,7.04,14.92,16.21,15.7,27.25,2.26,31.98-33.46,71.33-42.71,80.94Z" />
			<path class="cls-12"
				d="M392.13,341.49c6.34,0,11.97,1.76,16.72,5.23,9.39,6.85,14.54,15.77,15.3,26.51,2.09,29.56-28.87,65.67-40.36,77.99,1.06-10.01,1.8-29.76-6.82-40.9-3.76-4.86-8.88-7.56-15.21-8.04-.69-.05-1.42-.08-2.16-.08-25.97,0-78.15,31.92-100.37,46.32,8.84-11.06,24.64-30.07,43.1-48.91,37.25-38.03,68.3-58.13,89.79-58.13M392.13,339.49c-53.93,0-142.06,117.51-142.06,117.51,0,0,76.96-52.8,109.54-52.8.69,0,1.36.02,2.01.07,28.56,2.13,19.37,52.72,19.37,52.72,0,0,78.19-76.04,29.05-111.9-5.32-3.88-11.35-5.61-17.9-5.61h0Z" />
		</g>
		<g>
			<path class="cls-10"
				d="M530.91,456c-11.93,0-21.3-1.95-28.64-5.96-16.02-8.73-19.97-26.42-24.16-45.14-.69-3.1-1.41-6.3-2.18-9.48-7.65-31.31-31.99-54.11-59.96-56.72,6.91-3.26,23.79-10.2,42.07-10.2,30.85,0,51.29,18.82,60.77,55.94,3.18,12.44,7.83,22.91,13.82,31.11,13.33,18.22,30.65,22.05,42.83,22.05h0c4.5,0,8.12-.53,10.34-.96-3.82,5.25-17.55,19.36-54.89,19.36Z" />
			<path class="cls-12"
				d="M458.04,327.5v2c13.3,0,24.82,3.69,34.23,10.96,11.81,9.13,20.41,24.01,25.58,44.23,3.22,12.56,7.92,23.15,13.98,31.45,13.58,18.56,31.22,22.46,43.63,22.46,3.12,0,5.83-.25,7.96-.55-1.64,1.86-4.14,4.2-7.77,6.53-7.42,4.75-21.19,10.42-44.73,10.42-11.76,0-20.97-1.91-28.16-5.84-15.62-8.52-19.52-25.98-23.66-44.48-.69-3.1-1.41-6.31-2.19-9.5-7.42-30.39-30.4-52.87-57.28-57.04,8.06-3.47,22.71-8.65,38.42-8.65v-2M458.04,327.5c-24.31,0-45.85,11.97-45.85,11.97,30.47.85,55.23,25.34,62.77,56.19,5.49,22.52,7.73,44.84,26.83,55.25,7.06,3.86,16.42,6.08,29.12,6.08,46.97,0,57.02-21.88,57.02-21.88,0,0-5.04,1.48-12.48,1.48-11.52,0-28.78-3.55-42.02-21.64-5.47-7.49-10.26-17.49-13.65-30.77-11.55-45.25-37.97-56.7-61.74-56.7h0ZM587.94,435.12h0,0Z" />
		</g>
		<g>
			<path class="cls-10"
				d="M274.7,405.37c-2.73,0-5.43-.48-8.02-1.43-6.11-2.23-12.7-7.46-17.21-13.63-2.9-3.98-7.37-11.74-4.7-19.05,3.21-8.78,15.37-12.72,26-12.72,4.38,0,8.47.65,11.83,1.88,5.84,2.13,10.5,6.41,13.12,12.03,2.62,5.62,2.9,11.92.77,17.73-3.33,9.09-12.08,15.2-21.79,15.2Z" />
			<path class="cls-12"
				d="M270.78,357.69v1.7h0c4.28,0,8.27.63,11.54,1.83,11.61,4.25,17.61,17.1,13.38,28.66-3.2,8.76-11.64,14.64-20.99,14.64-2.63,0-5.23-.46-7.73-1.38-11.48-4.2-25.63-20.03-21.4-31.6,3.07-8.4,14.87-12.16,25.2-12.16v-1.7M270.78,357.69c-11.27,0-23.52,4.3-26.8,13.28-4.56,12.46,9.91,29.2,22.41,33.78,2.74,1,5.55,1.48,8.31,1.48,9.82,0,19.03-6.03,22.59-15.76,4.56-12.46-1.89-26.27-14.39-30.85-3.5-1.28-7.74-1.93-12.12-1.93h0Z" />
		</g>
		<ellipse class="cls-12" cx="268.64" cy="376.42" rx="3.89" ry="2.21"
			transform="translate(-193.45 358.33) rotate(-52.24)" />
		<path class="cls-12"
			d="M251.14,372.72c-1.69,2.67-4.81,4.29-7.99,4.4-.19-2.37.14-4.69,1.13-6.9,1.11-2.5,3.01-4.69,5.44-6.54,2.75,2.12,3.43,5.84,1.41,9.05Z" />
		<g>
			<path class="cls-10"
				d="M301.58,373.25c-2.14-6.62-6.06-13.78-15.26-17.54l14.96-11.27c4.17,12.07,3.36,17.16.3,28.81Z" />
			<path class="cls-12"
				d="M300.85,345.83c3.35,10.12,2.93,15.22.6,24.52-2.25-5.67-6.05-11.37-13.45-14.84l12.86-9.69M301.7,343.06l-17.12,12.9c10.31,3.59,14.64,11.35,17.05,20.46,3.85-14.45,5.09-19.34.08-33.36h0Z" />
		</g>
	</g>
	<g id="dotnet-bot-2">
		<path class="cls-6"
			d="M123.36,404.49c.12-10.78-1.42-32.67-12.55-50.99l-10.88,6.61c10.09,16.62,10.85,36.01,10.62,44.48-.02.7,6.51,1.33,12.81-.1Z" />
		<path class="cls-2" d="M110.55,404.47l10.08-.05,9.41,53.89-20.22.09c-1.54,0-2.71-1.23-2.61-2.77l3.34-51.16Z" />
		<path class="cls-6"
			d="M151.6,444.14c1.75,1.38,1.72,3.38,1.58,5.48l-.42,6.45c-.07,1.16-1.08,2.1-2.24,2.11l-21.07.09c-1.31,0-2.3-1.05-2.22-2.36l.14-6.69c.16-2.43-.66-3.33-2.54-5.61-3.22-3.91-12.76-25.26-11.85-39.15l10.38-.05c.69,8.26,11.58,26.58,28.24,39.73Z" />
		<path class="cls-6"
			d="M153.18,449.62c.09-1.47.13-2.88-.45-4.08l-26.29.12c.73,1.07,1.03,2,.93,3.56l-.14,6.69c-.08,1.31.91,2.37,2.22,2.36l21.07-.09c1.16,0,2.17-.95,2.24-2.11l.42-6.46Z" />
		<path class="cls-6"
			d="M67.78,404.73c-.21-10.78,1.12-32.68,12.08-51.1l10.94,6.51c-9.94,16.71-10.53,36.11-10.21,44.57.02.7-6.5,1.39-12.81.02Z" />
		<path class="cls-6"
			d="M56.76,448.17c-.02-1.44.19-2.71.81-4.81,9.41-25.72,10.21-38.69,10.21-38.69l12.83-.06s.88,12.73,10.52,38.36c.76,1.83.85,3.5.95,5.04l.06,8.23c0,1.24-1,2.26-2.24,2.27h-.62s-29.6.14-29.6.14h-.62c-1.25,0-2.26-.99-2.27-2.24l-.03-8.24Z" />
		<path class="cls-6"
			d="M56.76,448.17c0-.23,0-.46.02-.69.06-.72.39-1.52,1.96-1.53l31.65-.15c1.14.04,1.52.92,1.64,1.47.02.25.04.49.05.73l.06,8.23c0,.77-.39,1.47-.99,1.87-.36.25-.79.39-1.26.39h-.62s-29.6.14-29.6.14h-.62c-.62,0-1.19-.24-1.6-.65-.41-.41-.66-.97-.67-1.59l-.03-8.23Z" />
		<path class="cls-3"
			d="M137.66,300.92l10.32,6.94c-6.95,10.52-8.53,21.99-4.9,29.1,4.3,8.43,16.24,13.5,33.61,14.28l.19,12.43c-28.82-1.28-40.46-12.51-45.15-21.7-5.95-11.67-3.84-26.25,5.93-41.04Z" />
		<path class="cls-5" d="M155.67,328.05l-10.45,8.46.99,1.22,10.45-8.46-.99-1.22Z" />
		<path class="cls-6"
			d="M154.74,337.83c7.59-16.31,7.22-30.51,7.22-30.51l4.03.74.11-.06c-.03-32.48-23.2-61.33-56.29-67.39-37.29-6.82-73.04,17.88-79.86,55.16-6.82,37.29,17.88,73.04,55.16,79.86,29.42,5.38,57.89-8.86,71.94-33.43.47-1.06.82-3.07-2.31-4.37Z" />
		<path class="cls-4"
			d="M154.74,337.83c7.5-16.11,7.23-30.15,7.22-30.49l-70.05-12.81s-4.33-1.26-5.07,2.77c-.74,4.03-2.65,15.45-4.96,28.05-.48,2.59,1.42,4.23,3.09,4.53,0,0,69.11,9.45,69.77,7.95Z" />
		<path class="cls-5"
			d="M112.71,330.17s12.33-6.56,14.72-7.75c2.39-1.19,4.25-.94,5.87,1.07,1.62,2.01,10.87,12.43,10.87,12.43l-31.46-5.75Z" />
		<path class="cls-7"
			d="M156.64,342.93s2.53-3.25-1.89-5.11c.01-.02-68.86-12.65-68.86-12.65-1.6-.29-3.49-1.63-3.39-3.21-.2,1.11-.41,2.24-.61,3.38-.43,2.35,1.09,3.91,2.62,4.41.15.05.31.09.47.12l4.71.86,66.95,12.19Z" />
		<path class="cls-1"
			d="M149.42,352.96l-116.43-21.29c1.8,4.92,4.15,9.6,7,13.95l97.93,17.91c4.21-3.07,8.06-6.61,11.49-10.58Z" />
		<path class="cls-7" d="M135.91,346.87l-21.79-3.99-3.52,19.27,21.79,3.98,3.52-19.27Z" />
		<path class="cls-3" d="M114.75,238.83l-13.03-2.47,4.37-13.03,9.36,1.78-.7,13.72Z" />
		<path class="cls-2"
			d="M118.18,247.96c.59.11,1.16-.31,1.2-.91.48-6.32-3.85-12.12-10.21-13.33-6.37-1.21-12.53,2.61-14.39,8.66-.18.57.2,1.17.78,1.28l22.62,4.29Z" />
		<path class="cls-6"
			d="M40.95,301.41c-17.45,11.38-35.97,33.13-26.56,72.44l12.22-2.99c-3.29-13.77-2.83-25.92,1.37-36.1,3.68-8.94,10.33-16.6,19.77-22.76l-6.81-10.58Z" />
		<path class="cls-2"
			d="M44.61,318.85c6.96,0,12.6-5.64,12.6-12.6s-5.64-12.6-12.6-12.6-12.6,5.64-12.6,12.6,5.64,12.6,12.6,12.6Z" />
		<path class="cls-11"
			d="M113.62,315.2c.86-4.91-.81-9.3-3.73-9.82-2.92-.51-5.99,3.05-6.85,7.96-.86,4.91.81,9.3,3.73,9.82,2.92.51,5.99-3.05,6.85-7.96Z" />
		<path class="cls-11"
			d="M153.01,322.26c1.01-4.88-.53-9.32-3.43-9.92-2.9-.6-6.07,2.87-7.08,7.75-1.01,4.88.53,9.32,3.43,9.92,2.9.6,6.07-2.87,7.08-7.75Z" />
		<path class="cls-1"
			d="M112.04,226.36c5.29,0,9.58-4.29,9.58-9.58s-4.29-9.58-9.58-9.58-9.57,4.29-9.57,9.58,4.29,9.58,9.57,9.58Z" />
		<path class="cls-3"
			d="M7.95,374.6l-2.11,12.63c-.54,3.37,1.76,6.54,5.13,7.08,3.37.54,6.54-1.76,7.08-5.13l2.16-12.95-12.26-1.63Z" />
		<path class="cls-3"
			d="M12.77,379.05l.39,12.8c.13,3.41,3,6.07,6.41,5.94,3.41-.13,6.07-3,5.94-6.41l-.4-13.13-12.34.8Z" />
		<path class="cls-3"
			d="M21.67,378.79l.72,12.79c.21,3.41,3.15,5.99,6.56,5.78,3.41-.21,5.99-3.15,5.78-6.56l-.74-13.11-12.32,1.1Z" />
		<path class="cls-3"
			d="M25.53,379.4l10.17,7.78c2.73,2.06,6.6,1.51,8.65-1.21,2.06-2.73,1.51-6.6-1.21-8.65l-10.43-7.98-7.18,10.07Z" />
		<path class="cls-2"
			d="M20.63,385.79c7.14,0,12.93-5.79,12.93-12.94s-5.79-12.93-12.93-12.93-12.93,5.79-12.93,12.93,5.79,12.94,12.93,12.94Z" />
		<path class="cls-9"
			d="M114.61,355.82c-.17-.03-.3-.12-.4-.25-.1-.14-.13-.29-.1-.45.03-.16.11-.29.26-.39.14-.09.3-.13.47-.09.17.03.31.12.41.26.1.14.14.29.1.45-.03.16-.11.29-.26.38-.14.09-.29.13-.47.09Z" />
		<path class="cls-9"
			d="M121.46,357l-1.11-.21-2.06-5.16c-.05-.13-.09-.26-.12-.4h-.03c0,.13-.05.42-.13.86l-.77,4.11-.98-.18,1.17-6.27,1.18.22,1.98,5.03c.08.21.14.35.16.43h.02c0-.17.04-.45.11-.85l.75-4.04.98.18-1.17,6.27Z" />
		<path class="cls-9"
			d="M126.24,357.89l-3.44-.64,1.17-6.27,3.3.62-.17.88-2.28-.42-.33,1.78,2.1.39-.16.88-2.1-.39-.35,1.86,2.42.45-.17.87Z" />
		<path class="cls-9" d="M132.13,353.41l-1.76-.33-1,5.39-1.02-.19,1-5.39-1.75-.33.17-.88,4.53.85-.17.88Z" />
		<path class="cls-8"
			d="M158.37,366.42c4.28,5.86,12.49,7.13,18.34,2.86,5.85-4.28,7.13-12.49,2.86-18.34-4.28-5.85-12.49-7.13-18.34-2.86-5.86,4.28-7.13,12.49-2.86,18.34Z" />
		<path class="cls-3"
			d="M185.23,339.97l-18.36,5.44c-3.27.97-5.14,4.41-4.17,7.68.97,3.27,4.41,5.14,7.68,4.17l18.36-5.44c3.27-.97,5.14-4.41,4.17-7.68-.97-3.27-4.41-5.14-7.68-4.17Z" />
		<path class="cls-3"
			d="M170.46,362.38l16.66,6.19c3.22,1.2,6.79-.43,7.99-3.65,1.2-3.22-.43-6.79-3.65-7.99l-16.97-6.3-4.04,11.76Z" />
		<path class="cls-3"
			d="M167.98,369.56l14.81,9.8c2.87,1.88,6.72,1.09,8.6-1.78,1.88-2.87,1.09-6.72-1.78-8.6l-10.99-7.32-10.64,7.91Z" />
		<path class="cls-3"
			d="M161.11,368.42l6.83,10.92c1.84,2.89,5.68,3.75,8.58,1.91,2.89-1.84,3.75-5.68,1.91-8.58l-7.01-11.19-10.31,6.94Z" />
		<path class="cls-2"
			d="M158.13,351.4c-3.98,5.98-2.37,14.05,3.61,18.04,5.98,3.98,14.05,2.37,18.04-3.61,3.98-5.98,2.37-14.05-3.61-18.03s-14.05-2.37-18.03,3.61Z" />
		<g>
			<path class="cls-9"
				d="M530.91,456c-11.62,0-20.81-1.85-28.06-5.65l2.92-31.32,27.2-3.01c13.28,17.82,30.41,21.58,42.48,21.58h0c4.5,0,8.12-.53,10.34-.96-3.82,5.25-17.55,19.36-54.89,19.36Z" />
			<path class="cls-12"
				d="M532.52,417.08c13.48,17.76,30.74,21.52,42.94,21.52,3.12,0,5.83-.25,7.96-.55-1.64,1.86-4.14,4.2-7.77,6.53-7.42,4.75-21.19,10.42-44.73,10.42-11.14,0-19.99-1.71-27-5.23l2.78-29.84,25.82-2.86M533.44,414.96l-28.58,3.16-3.06,32.8c7.06,3.86,16.42,6.08,29.12,6.08,46.97,0,57.02-21.88,57.02-21.88,0,0-5.04,1.48-12.48,1.48-11.52,0-28.78-3.55-42.02-21.64h0ZM587.94,435.12h0,0Z" />
		</g>
	</g>
</svg>
