<?xml version="1.0" encoding="UTF-8"?>
<svg id="TabsAside" xmlns="http://www.w3.org/2000/svg" viewBox="0 0 1024 512">
	<defs>
		<style>
			.text {
				fill: #242424;
			}

			.timer-progress {
				fill: none;
				stroke: #0e700e;
				stroke-linecap: round;
				stroke-miterlimit: 10;
				stroke-width: 6px;
			}

			.timer-digits {
				fill: #0e700e;
			}

			@media (prefers-color-scheme: dark) {
				.text {
					fill: #ffffff;
				}

				.timer-progress {
					stroke: #54b054;
				}

				.timer-digits {
					fill: #54b054;
				}
			}
		</style>
	</defs>
	<g class="text">
		<g>
			<path
				d="m411.33,241.27v12.44l-3.93,3.93-1.31-1.31v-17.02l5.24,1.96Zm17.67,40.58h-19.64c-1.75-.44-2.84-1.53-3.27-3.27l5.24-1.96h15.71l1.96,5.24Zm-17.61-41.89l-5.24-1.96c.44-1.74,1.53-2.84,3.27-3.27h20.88c1.74.44,2.84,1.53,3.27,3.27l-5.24,1.96h-16.95Zm16.95,15.71l2.62,2.62-2.62,2.62h-17.02l-2.62-2.62,2.62-2.62h17.02Zm3.93,3.27l1.31,1.31v18.33c-.44,1.75-1.53,2.84-3.27,3.27l-1.96-5.24v-13.75l3.93-3.93Z" />
			<path
				d="m449.29,253.71v-13.75l1.96-5.24c1.74.44,2.84,1.53,3.27,3.27v18.33l-1.31,1.31-3.93-3.93Zm3.93,4.58l1.31,1.31v18.33c-.44,1.75-1.53,2.84-3.27,3.27l-1.96-5.24v-13.75l3.93-3.93Z" />
			<path
				d="m476.78,241.27v12.44l-3.93,3.93-1.31-1.31v-17.02l5.24,1.96Zm0,21.6v13.75l-1.96,5.24c-1.75-.44-2.84-1.53-3.27-3.27v-18.33l1.31-1.31,3.93,3.93Zm15.71-22.91h-15.64l-5.24-1.96c.44-1.74,1.53-2.84,3.27-3.27h19.57l-1.96,5.24Zm-4.58,16.36l-2.62,2.62-2.62-2.62v-15.05h5.24v15.05Zm5.89-2.62v-13.75l1.96-5.24c1.74.44,2.84,1.53,3.27,3.27v18.33l-1.31,1.31-3.93-3.93Zm3.93,5.24l1.31,1.31v18.33c-.44,1.75-1.53,2.84-3.27,3.27l-1.96-5.24v-13.75l3.93-3.93Z" />
			<path
				d="m525.22,239.96h-15.71l-5.24-1.96v-3.27h20.94l2.62,2.62-2.62,2.62Zm-15.71,1.31v12.44l-3.93,3.93-1.31-1.31v-17.02l5.24,1.96Zm0,21.6v13.75l-1.96,5.24c-1.75-.44-2.84-1.53-3.27-3.27v-18.33l1.31-1.31,3.93,3.93Zm17.02-7.2l2.62,2.62-2.62,2.62h-17.02l-2.62-2.62,2.62-2.62h17.02Zm0-1.96v-13.75l1.96-1.96,3.27,3.27v15.05l-1.31,1.31-3.93-3.93Z" />
			<path
				d="m538.31,257.64l-1.31-1.31v-18.33c.44-1.74,1.53-2.84,3.27-3.27l1.96,5.24v13.75l-3.93,3.93Zm3.93,5.24v13.75l-1.96,5.24c-1.75-.44-2.84-1.53-3.27-3.27v-18.33l1.31-1.31,3.93,3.93Zm1.31,13.75h15.71l5.24,1.96c-.44,1.75-1.53,2.84-3.27,3.27h-19.64l1.96-5.24Z" />
			<path
				d="m574.96,241.27v12.44l-3.93,3.93-1.31-1.31v-17.02l5.24,1.96Zm-5.24,36v-17.02l1.31-1.31,3.93,3.93v12.44l-5.24,1.96Zm24.87,4.58h-21.6c-1.75-.44-2.84-1.53-3.27-3.27l5.24-1.96h17.67l1.96,5.24Zm-1.96-41.89h-17.61l-5.24-1.96c.44-1.74,1.53-2.84,3.27-3.27h21.53l-1.96,5.24Zm-.65,15.71l2.62,2.62-2.62,2.62h-17.02l-2.62-2.62,2.62-2.62h17.02Z" />
			<path
				d="m636.49,257.64l-1.31-1.31v-15.05l3.27-3.27,1.96,1.96v13.75l-3.93,3.93Zm3.93,5.24v13.75l-1.96,1.96-3.27-3.27v-15.05l1.31-1.31,3.93,3.93Zm15.71-22.91h-14.4l-2.62-2.62,2.62-2.62h14.4l2.62,2.62-2.62,2.62Zm2.62,39.27l-2.62,2.62h-14.4l-2.62-2.62,2.62-2.62h14.4l2.62,2.62Zm-1.31-25.53v-13.75l1.96-1.96,3.27,3.27v15.05l-1.31,1.31-3.93-3.93Zm3.93,5.24l1.31,1.31v15.05l-3.27,3.27-1.96-1.96v-13.75l3.93-3.93Z" />
			<path
				d="m673.21,239.96l-5.24-1.96c.44-1.74,1.53-2.84,3.27-3.27h20.88c1.75.44,2.84,1.53,3.27,3.27l-5.24,1.96h-16.95Zm5.83,15.05v-13.75h5.24v13.75l-2.62,2.62-2.62-2.62Zm2.62,3.93l2.62,2.62v17.02c-.44,1.75-1.53,2.84-3.27,3.27l-1.96-5.24v-15.05l2.62-2.62Z" />
			<path
				d="m721.58,239.96h-15.71l-5.24-1.96v-3.27h20.95l2.62,2.62-2.62,2.62Zm-15.71,1.31v12.44l-3.93,3.93-1.31-1.31v-17.02l5.24,1.96Zm0,21.6v13.75l-1.96,5.24c-1.75-.44-2.84-1.53-3.27-3.27v-18.33l1.31-1.31,3.93,3.93Zm17.02-7.2l2.62,2.62-2.62,2.62h-17.02l-2.62-2.62,2.62-2.62h17.02Zm0-1.96v-13.75l1.96-1.96,3.27,3.27v15.05l-1.31,1.31-3.93-3.93Z" />
		</g>
		<g>
			<path
				d="m429.51,326.08h-3.62l-12.97-20.09-.4-.61c-.08-.12-.19-.3-.33-.52h-.11c.02.23.04.6.05,1.1s.02,1.13.02,1.91v18.21h-2.95v-25.21h3.83l12.62,19.78c.22.35.39.63.51.83s.25.44.4.71h.07c-.02-.35-.04-.83-.05-1.42s-.02-1.31-.02-2.14v-17.75h2.95v25.21Z" />
			<path
				d="m449.94,326.08h-2.88v-2.57h-.07c-.6.93-1.39,1.66-2.36,2.19s-2.04.8-3.19.8c-2.12,0-3.72-.62-4.81-1.85s-1.63-3.09-1.63-5.57v-11h2.87v10.69c0,1.85.33,3.19.98,4.01s1.72,1.23,3.18,1.23,2.7-.54,3.63-1.61,1.4-2.42,1.4-4.03v-10.28h2.88v18Z" />
			<path
				d="m475.71,323.41c-1.23.94-2.66,1.69-4.29,2.25s-3.36.84-5.2.84c-3.64,0-6.57-1.16-8.77-3.48s-3.3-5.39-3.3-9.21,1.1-7.21,3.3-9.67,5.13-3.69,8.8-3.69c2.21,0,4.12.45,5.71,1.35s2.81,2.17,3.64,3.8l-2.6,1.2c-.64-1.17-1.54-2.07-2.69-2.68s-2.5-.92-4.06-.92c-2.71,0-4.88.96-6.53,2.87s-2.47,4.42-2.47,7.51.83,5.67,2.49,7.48,3.86,2.72,6.6,2.72c1.21,0,2.37-.16,3.48-.47s2.1-.79,2.95-1.41v-6.15h-6.03v-2.67h8.98v10.34Z" />
			<path
				d="m495.57,317.59h-12.99c0,2.23.53,3.85,1.59,4.88s2.32,1.54,3.79,1.54c1.1,0,2.07-.25,2.91-.76s1.53-1.27,2.08-2.28l2.36,1.2c-.63,1.29-1.58,2.33-2.86,3.14s-2.83,1.2-4.68,1.2c-2.39,0-4.35-.79-5.88-2.37s-2.29-3.91-2.29-6.98c0-2.73.77-5,2.32-6.79s3.53-2.7,5.94-2.7,4.35.74,5.7,2.22,2.02,3.55,2.02,6.2v1.51Zm-2.95-2.41c0-1.56-.43-2.79-1.28-3.68s-2.03-1.34-3.53-1.34-2.64.48-3.56,1.44-1.47,2.16-1.64,3.59h10.02Z" />
			<path
				d="m508.93,324.94c-.53.53-1.11.91-1.74,1.16s-1.38.37-2.23.37c-1.42,0-2.51-.4-3.29-1.19s-1.16-1.92-1.16-3.4v-11.34h-3.09v-2.46h3.09v-4.25l2.88-.51v4.76h4.82v2.46h-4.82v11.09c0,.86.16,1.48.49,1.86s.84.58,1.55.58c.35,0,.69-.07,1.01-.21s.66-.41,1.01-.81l1.48,1.88Z" />
			<path d="m520.87,326.08v-26.65h2.88v26.65h-2.88Z" />
			<path
				d="m530.76,304.02c-.62,0-1.12-.21-1.51-.62s-.58-.91-.58-1.47.19-1.05.58-1.47.89-.62,1.51-.62,1.12.21,1.51.62.58.91.58,1.47-.19,1.05-.58,1.47-.89.62-1.51.62Zm1.41,22.06h-2.88v-18h2.88v18Z" />
			<path
				d="m540.55,323.9h-.07v2.18h-2.88v-26.65h2.88v11.39h.07c.67-.98,1.52-1.76,2.57-2.32s2.23-.84,3.55-.84c2.44,0,4.34.81,5.71,2.42s2.06,3.82,2.06,6.64c0,2.96-.72,5.34-2.16,7.12s-3.46,2.67-6.05,2.67c-1.25,0-2.36-.23-3.33-.68s-1.75-1.09-2.35-1.92Zm-.07-7.68v2.51c0,1.46.5,2.71,1.49,3.74s2.3,1.54,3.92,1.54c1.79,0,3.17-.64,4.14-1.92s1.45-3.03,1.45-5.26-.46-3.79-1.38-4.95-2.17-1.73-3.75-1.73c-1.77,0-3.19.58-4.26,1.73s-1.61,2.6-1.61,4.33Z" />
			<path
				d="m567.9,310.79c-.28-.13-.58-.23-.91-.32s-.68-.12-1.08-.12c-1.29,0-2.33.62-3.14,1.85s-1.2,2.8-1.2,4.71v9.18h-2.88v-18h2.88v3.29h.07c.41-1.12,1.04-2.01,1.88-2.65s1.79-.96,2.83-.96c.48,0,.91.04,1.3.11s.83.23,1.32.47l-1.07,2.44Z" />
			<path
				d="m584.5,326.08h-2.88v-2.39h-.07c-.61.9-1.38,1.6-2.31,2.08s-1.96.73-3.08.73c-1.79,0-3.2-.48-4.21-1.44s-1.52-2.16-1.52-3.6c0-1.69.53-3,1.58-3.93s2.53-1.51,4.43-1.73l5.19-.6v-1.14c0-1.3-.34-2.28-1.01-2.93s-1.6-.98-2.77-.98-2.03.25-2.76.75-1.28,1.19-1.67,2.08l-2.51-1.04c.59-1.36,1.49-2.41,2.72-3.16s2.69-1.12,4.39-1.12c2.1,0,3.71.56,4.83,1.68s1.68,2.69,1.68,4.7v12.04Zm-2.88-7.31v-1.23l-4.99.56c-1.11.13-1.93.45-2.46.96s-.79,1.19-.79,2.03c0,.93.3,1.67.91,2.22s1.41.83,2.39.83c1.48,0,2.67-.51,3.58-1.52s1.36-2.3,1.36-3.86Z" />
			<path
				d="m598.79,310.79c-.28-.13-.58-.23-.91-.32s-.68-.12-1.08-.12c-1.29,0-2.33.62-3.14,1.85s-1.2,2.8-1.2,4.71v9.18h-2.88v-18h2.88v3.29h.07c.41-1.12,1.04-2.01,1.88-2.65s1.79-.96,2.83-.96c.48,0,.91.04,1.3.11s.83.23,1.32.47l-1.07,2.44Z" />
			<path
				d="m617.67,308.08l-8.84,22.34c-.56,1.41-1.31,2.45-2.23,3.12s-2.01,1.01-3.25,1.01c-.62,0-1.18-.06-1.67-.17s-.99-.3-1.49-.55l1.12-2.3c.35.18.69.31,1.03.4s.68.13,1.05.13c.59,0,1.09-.15,1.52-.45s.83-.91,1.22-1.82l1.58-3.74-7.03-17.96h3.2l4.73,12.99c.12.33.21.59.26.8s.13.49.23.85h.11c.07-.36.14-.65.22-.86s.17-.46.29-.76l4.97-13.03h2.99Z" />
		</g>
	</g>
	<g>
		<path class="timer-progress"
			d="m337.38,211.88c-24.37,0-44.12,19.76-44.12,44.12s19.75,44.12,44.12,44.12c12.18,0,23.22-4.94,31.2-12.92" />
		<g class="timer-digits">
			<path
				d="m317.35,271.43v-2.06c0-1.56.22-2.95.66-4.17s1.05-2.34,1.83-3.38c.8-1.03,1.75-2,2.86-2.92s2.34-1.86,3.68-2.85c1.11-.8,2.06-1.56,2.85-2.29s1.43-1.45,1.93-2.17.88-1.46,1.12-2.23.38-1.57.38-2.41c0-1.69-.47-2.97-1.41-3.84s-2.14-1.31-3.61-1.31-2.82.43-3.86,1.28-1.93,2.07-2.66,3.64l-4.45-1.92c1.14-2.41,2.66-4.27,4.56-5.58s4.2-1.97,6.9-1.97c2.91,0,5.3.83,7.18,2.5s2.82,4.02,2.82,7.07c0,1.23-.19,2.42-.57,3.55s-.92,2.18-1.61,3.15c-.7.98-1.52,1.92-2.44,2.8s-1.99,1.76-3.21,2.64c-1.16.86-2.17,1.61-3.05,2.25s-1.59,1.26-2.13,1.85c-.56.62-.96,1.23-1.2,1.8s-.35,1.21-.35,1.9h15.26v4.66h-21.49Z" />
			<path
				d="m355.23,271.43h-5.44v-27.47c-1,.67-2.1,1.27-3.29,1.8s-2.4.98-3.62,1.36l-1.41-4.48c1.88-.53,3.73-1.29,5.55-2.26s3.41-2.08,4.73-3.32h3.47v34.36Z" />
		</g>
	</g>
</svg>
