<?xml version="1.0" encoding="UTF-8"?>
<svg id="dotnet-resume" xmlns="http://www.w3.org/2000/svg" xmlns:xlink="http://www.w3.org/1999/xlink"
	viewBox="0 0 512 512">
	<defs>
		<style>
			.cls-1 {
				fill: #8f7ddd;
			}

			.cls-1,
			.cls-2,
			.cls-3,
			.cls-4,
			.cls-5,
			.cls-6 {
				stroke: #231f20;
				stroke-miterlimit: 10;
				stroke-width: 2.09px;
			}

			.cls-2 {
				fill: #522cd5;
			}

			.cls-7 {
				fill: url(#linear-gradient-2);
			}

			.cls-3 {
				fill: #d0c5f3;
			}

			.cls-4,
			.cls-8 {
				fill: #fff;
			}

			.cls-9,
			.cls-10 {
				fill: #ff7545;
			}

			.cls-11 {
				fill: #231f20;
			}

			.cls-5 {
				fill: #512bd4;
			}

			.cls-6 {
				fill: #a08be8;
			}

			.cls-10 {
				stroke: #242424;
				stroke-linecap: round;
				stroke-linejoin: round;
				stroke-width: 2.31px;
			}

			.cls-12 {
				fill: #242424;
			}

			.cls-13 {
				fill: url(#linear-gradient);
			}
		</style>
		<linearGradient id="linear-gradient" x1="159.69" y1="-5344.64" x2="97.6" y2="-5419.32"
			gradientTransform="translate(2639.16 -4502.99) rotate(-155.55)" gradientUnits="userSpaceOnUse">
			<stop offset="0" stop-color="#522cd5" />
			<stop offset=".44" stop-color="#8a6fe8" />
		</linearGradient>
		<linearGradient id="linear-gradient-2" x1="155.75" y1="-5391.3" x2="175.28" y2="-5486.43"
			gradientTransform="translate(385.93 -5076.44) rotate(-180)" xlink:href="#linear-gradient" />
	</defs>
	<g>
		<path class="cls-1"
			d="M133.56,384.35l-13.81,19.89c-3.72,5.27-11,6.53-16.28,2.82-5.27-3.72-6.54-11-2.82-16.28l14.16-20.39,18.75,13.97Z" />
		<path class="cls-1"
			d="M149.07,379.88l-9.67,22.2c-2.62,5.89-9.52,8.55-15.42,5.94-5.9-2.62-8.56-9.52-5.94-15.42l9.9-22.76,21.12,10.04Z" />
		<path class="cls-1"
			d="M138.93,359.17l-38.17,38.77c-4.58,4.55-11.97,4.52-16.52-.06-4.55-4.58-4.52-11.97.06-16.52l38.6-39.21,16.03,17.02Z" />
		<path class="cls-1"
			d="M130.16,363.82l-38.6,3.87c-6.43.45-12.03-4.4-12.47-10.84-.45-6.43,4.4-12.03,10.84-12.47l39.21-3.92,1.03,23.36Z" />
		<path class="cls-1"
			d="M135.21,370.51l-13.78-19.84c21.98-15.68,36.45-33.68,43.01-53.48,4.33-13.07,5.32-27.19,2.96-42.14-.78-4.98,24.27-7.09,25.2,2.05,3.55,35.07-6.8,77.3-57.4,113.41Z" />
		<path class="cls-2"
			d="M113.52,381.38c9.58,9.52,25.06,9.48,34.58-.1,9.52-9.58,9.48-25.06-.1-34.58-9.58-9.52-25.06-9.48-34.58.1-9.52,9.58-9.48,25.06.09,34.58Z" />
		<path class="cls-13"
			d="M297.51,392.75c-9.3-17.65-25.25-54.98-22.4-94.55l23.5,1.69c-2.58,35.89,12.54,68.47,20.07,82.2.61,1.14-9.59,7.69-21.18,10.66Z" />
		<path class="cls-1"
			d="M297.51,392.75c-9.3-17.65-25.25-54.98-22.4-94.55l23.5,1.69c-2.58,35.89,12.54,68.47,20.07,82.2.61,1.14-9.59,7.69-21.18,10.66Z" />
		<path class="cls-2"
			d="M318.57,381.89l-16.63,8.44,4.2,109.67,59.19-29.92c2.53-1.29,3.41-4.32,1.94-6.77l-48.71-81.42Z" />
		<path class="cls-1"
			d="M279.04,484.22c-2.04,3.57-.26,7.58,1.74,10.93l6.15,10.28c1.1,1.84,3.56,2.54,5.47,1.58l20.92-10.61c2.16-1.09,2.9-3.68,1.66-5.76l-5.88-10.9c-2.31-3.87-3.23-6.6-.56-11.39,15.79-28.33,17.27-56.67,4.13-83.45l-15.21,7.72c5.83,14.17,8.43,44.64-18.41,91.61Z" />
		<path class="cls-1"
			d="M292.39,507c-1.91.97-4.37.26-5.47-1.58l-6.15-10.28c-1.32-2.2-2.51-4.68-2.61-7.13l28.76-14.58c-.06,2.14.79,4.03,2.16,6.31l5.88,10.9c1.25,2.08.51,4.66-1.65,5.76l-20.93,10.61Z" />
		<path class="cls-7"
			d="M200.55,407.91c-.31-19.95,2.35-60.45,22.79-94.46l20.19,12.13c-18.55,30.84-19.79,66.74-19.28,82.4.04,1.31-12.03,2.54-23.7-.07Z" />
		<path class="cls-1"
			d="M200.55,407.91c-.31-19.95,2.35-60.45,22.79-94.46l20.19,12.13c-18.55,30.84-19.79,66.74-19.28,82.4.04,1.31-12.03,2.54-23.7-.07Z" />
		<path class="cls-2" d="M224.24,407.77h-18.65l-45.85,99.71,66.32.09c2.84,0,4.99-2.31,4.8-5.15l-6.61-94.65Z" />
		<path class="cls-1"
			d="M142.71,481.15c-3.44,2.26-3.66,6.63-3.39,10.53l.83,11.94c.15,2.13,2.02,3.89,4.16,3.89h23.45c2.43,0,4.25-1.96,4.08-4.39l-.32-12.38c-.32-4.5.11-7.34,4.65-10.41,26.89-18.13,41.03-42.73,41.42-72.55h-17.06c-1.2,15.27-12.66,43.62-57.84,73.38Z" />
		<path class="cls-1"
			d="M144.31,507.5c-2.14,0-4.01-1.74-4.16-3.88l-.83-11.94c-.18-2.56-.12-5.3.89-7.54h32.25c-1.01,1.88-1.11,3.95-.92,6.6l.32,12.38c.17,2.43-1.65,4.39-4.08,4.39h-23.46Z" />
		<path class="cls-1"
			d="M393.35,357l-25.4,39.75c-3.98,5.08-11.33,5.96-16.4,1.97-5.08-3.98-5.96-11.33-1.97-16.4l25.78-40.24,17.99,14.91Z" />
		<path class="cls-1"
			d="M412.89,362.61l8.33,34.41c1.41,6.3-2.54,12.55-8.84,13.96-6.3,1.41-12.55-2.54-13.96-8.84l-5.61-24.18,20.08-15.35Z" />
		<path class="cls-1"
			d="M396.6,371.52l4.87,23.72c1.26,6.33-2.86,12.47-9.19,13.73-6.33,1.26-12.47-2.86-13.73-9.19l-6.94-40.95,24.98,12.69Z" />
		<path class="cls-1"
			d="M417.37,347.18l14.03,33.13c2.62,5.9-.04,12.8-5.95,15.41-5.9,2.62-12.8-.04-15.41-5.95l-10.22-22.63,17.55-19.97Z" />
		<path class="cls-1"
			d="M152.3,280.41c-15.36-30.35-15.53-57.2-15.53-57.2l-7.57,1.65-.22-.11c-1.97-61.38,40.01-117.34,102.18-130.84,70.03-15.2,139.13,29.24,154.34,99.27,15.2,70.03-29.24,139.13-99.27,154.34-55.26,12-110.23-13.14-138.31-58.7-.96-1.98-1.44-5.75,4.38-8.4Z" />
		<path class="cls-4"
			d="M152.04,280.47c-15.18-29.97-15.53-56.53-15.53-57.17l131.56-28.57s8.11-2.64,9.75,4.93c1.65,7.56,5.98,29.03,11.11,52.69,1.06,4.87-2.42,8.08-5.55,8.75-.01,0-121.35,21.95-131.34,19.37Z" />
		<path class="cls-6"
			d="M232.56,262.83s-23.71-11.63-28.3-13.73c-4.59-2.1-8.08-1.52-11.02,2.39-2.95,3.92-19.76,24.17-19.76,24.17l59.08-12.83Z" />
		<path class="cls-2"
			d="M148.79,290.23s-5-5.99,3.24-9.76c-.02-.03,129.32-28.19,129.32-28.19,3.01-.65,6.49-3.29,6.19-6.28.45,2.09.9,4.21,1.37,6.34.96,4.41-1.81,7.46-4.68,8.49-.29.1-.57.2-.87.26l-8.84,1.92-125.73,27.22Z" />
		<path class="cls-3"
			d="M163.04,308.73l218.67-47.48c-3.1,9.41-7.26,18.39-12.36,26.8l-183.93,39.95c-8.15-5.54-15.65-11.99-22.37-19.27Z" />
		<path class="cls-5" d="M237.37,323.38l-41.55,8.83-7.81-36.75,41.55-8.83,7.81,36.75Z" />
		<path class="cls-8"
			d="M200.2,317.04c-.28.06-.53.02-.76-.13-.23-.15-.38-.35-.44-.61-.06-.27-.01-.51.14-.74s.36-.37.64-.43c.28-.06.54-.01.77.13.24.14.39.35.44.62.05.26.01.51-.16.73-.14.22-.36.36-.65.42Z" />
		<path class="cls-8"
			d="M211.21,314.51l-1.79.38-6.33-6.45c-.16-.17-.3-.34-.42-.53h-.04c.09.22.2.67.35,1.39l1.43,6.65-1.58.34-2.18-10.15,1.91-.41,6.13,6.3c.26.26.43.44.51.55h.03c-.11-.26-.23-.72-.36-1.35l-1.4-6.54,1.58-.34,2.16,10.16Z" />
		<path class="cls-8"
			d="M218.94,312.85l-5.56,1.19-2.18-10.15,5.34-1.15.31,1.43-3.7.79.62,2.87,3.4-.73.31,1.43-3.4.73.65,3,3.92-.84.3,1.42Z" />
		<path class="cls-8"
			d="M224.98,302.44l-2.85.61,1.87,8.72-1.65.35-1.87-8.72-2.84.6-.31-1.43,7.33-1.57.31,1.44Z" />
		<path class="cls-1"
			d="M362.49,225.66c18.05,23.15,42.17,66.17,48.52,135.57l.05.49-23.69,2.17-.04-.49c-4.85-52.83-20.92-88.21-33.55-108.59-4.07-6.55-8.04-12.02-11.64-16.47-8.38-10.39-.94-34.68-.94-34.68,0,0,10.16,7.7,21.3,21.99Z" />
		<path class="cls-2"
			d="M341.05,241.96c-13.5,0-24.45-10.95-24.45-24.45s10.95-24.45,24.45-24.45,24.45,10.95,24.45,24.45-10.95,24.45-24.45,24.45Z" />
		<path class="cls-2"
			d="M371.45,363.1c-3.64-13.01,3.96-26.5,16.96-30.14,13.01-3.64,26.5,3.96,30.14,16.96,3.64,13.01-3.96,26.5-16.96,30.14-13.01,3.64-26.5-3.96-30.14-16.96Z" />
		<path class="cls-11"
			d="M227.27,231.93c.01.07.02.14.04.2,1.9,9.11,9.78,15.2,17.62,13.58,7.82-1.62,12.62-10.34,10.72-19.48-.15-.74-.35-1.48-.6-2.18-14.94,3.87-25.72,7.23-27.75,7.87h-.02Z" />
		<path class="cls-11"
			d="M152.34,241.83c0,.07-.01.14-.02.2-.65,9.29,5.29,17.29,13.27,17.85,7.96.56,14.95-6.53,15.6-15.84.05-.76.07-1.52.01-2.26-15.43-.33-26.71-.02-28.84.04h-.02Z" />
	</g>
	<g>
		<g>
			<path class="cls-9"
				d="M129.01,197.02c1.32-14.12,5.61-45.62,18.95-77.12,10.46-24.7,24.35-44.58,41.29-59.08,21.13-18.08,47.14-27.82,77.3-28.94,2.21-.08,4.42-.12,6.56-.12,33.79,0,59.55,10.16,76.57,30.19,27.01,31.79,24.31,79.81,22.83,93.87-3.93-5.99-12.98-18.77-26.18-31.41-16.68-15.96-43.61-35-77.16-35-.9,0-1.8.01-2.71.04-62.66,1.88-100.44,31.19-137.43,107.55Z" />
			<path class="cls-12"
				d="M273.11,33.23c33.33,0,58.72,9.98,75.45,29.67,16.31,19.19,21.44,44.37,22.87,62.11.87,10.85.51,20.32.02,26.6-4.66-6.73-12.82-17.44-24.11-28.24-24.2-23.16-51.23-35.4-78.17-35.4-.91,0-1.84.01-2.76.04-61.22,1.84-98.9,29.53-135.03,100.95,2.04-16.09,6.85-42.33,17.96-68.55,10.37-24.48,24.13-44.16,40.9-58.49,20.87-17.85,46.57-27.46,76.37-28.56,2.19-.08,4.38-.12,6.51-.12M273.11,30.31c-2.15,0-4.37.04-6.62.12-133.76,4.95-139.5,174.24-139.5,174.24,36.06-77.27,72.6-111.74,139.5-113.75.9-.03,1.78-.04,2.67-.04,64.02,0,104.29,69.18,104.29,69.18,0,0,21.27-129.76-100.34-129.76h0Z" />
		</g>
		<g>
			<g>
				<path class="cls-9"
					d="M111.93,110.77c-6.32,0-11.62-1.75-15.35-5.05-12.97-11.51-6.19-40.37,5.11-53.1,6-6.76,14.61-10.64,23.64-10.64,7.67,0,15.06,2.8,20.8,7.89,6.28,5.57,10,13.26,10.49,21.65.49,8.39-2.33,16.49-7.92,22.79-8.32,9.38-24.13,16.46-36.77,16.46Z" />
				<path class="cls-12"
					d="M125.33,43.14h0c7.39,0,14.5,2.7,20.03,7.6,6.05,5.36,9.63,12.77,10.1,20.85.47,8.09-2.24,15.89-7.63,21.96-8.13,9.16-23.56,16.07-35.9,16.07-6.12,0-11.02-1.6-14.58-4.76-12.5-11.09-5.79-39.08,5.21-51.47,5.78-6.51,14.08-10.25,22.77-10.25M125.33,40.83c-9.03,0-18.02,3.73-24.5,11.02-11.98,13.51-18.47,42.79-5.02,54.73,4.23,3.75,9.92,5.34,16.12,5.34,13.52,0,29.41-7.58,37.63-16.84,11.98-13.51,10.79-34.13-2.67-46.07-6.18-5.49-13.88-8.18-21.56-8.18h0Z" />
			</g>
			<ellipse class="cls-12" cx="114.94" cy="78.18" rx="3" ry="5.28"
				transform="translate(-23.81 69.78) rotate(-30.76)" />
			<path class="cls-12"
				d="M101.58,98.42c2.54,3.46,3.02,8.2,1.59,12.26-3.08-.94-5.84-2.5-8.15-4.86-2.61-2.64-4.42-6.12-5.55-10.11,4.05-2.42,9.07-1.42,12.12,2.71Z" />
			<path class="cls-10"
				d="M121.54,36.56c17.25-17.72,33.34-29.18,47.86-32.13-8.1,24.1-12.42,41.54-11.65,49.95-8.74-11.96-20.97-17.62-36.21-17.82Z" />
		</g>
		<g>
			<g>
				<path class="cls-9"
					d="M346.97,293.73c-20.87,0-38.16-6.82-42.17-9.43.9-.71,2.71-1.94,4.6-3.23,10.07-6.86,31.03-21.12,49.17-43.79,27.85-34.76,51-93.18,5.11-175.18,26.93,13.96,91.95,58.47,67.95,153.42-6.25,24.75-16.37,43.96-30.05,57.11-14.58,14-32.96,21.1-54.61,21.1Z" />
				<path class="cls-12"
					d="M367.32,65.71c15.9,8.9,30.35,20.89,41.34,34.4,11.35,13.96,19.19,29.63,23.29,46.57,5.05,20.88,4.47,43.92-1.74,68.48-6.19,24.48-16.16,43.46-29.65,56.41-14.3,13.73-32.34,20.7-53.6,20.7-17.91,0-33.41-5.23-39.43-8.15.81-.56,1.75-1.21,2.68-1.84,10.13-6.9,31.21-21.25,49.49-44.09,27.64-34.5,50.7-92.05,7.61-172.49M360.03,58.66c48.13,82.62,26.76,141.05-2.6,177.71-24.64,30.79-54.93,46.25-54.44,47.81-2.46.62,18.07,11,43.98,11,17.9,0,38.38-4.96,55.62-21.51,12.65-12.15,23.57-30.54,30.46-57.8,27.58-109.12-62.23-152.1-73.02-157.22h0Z" />
			</g>
			<g>
				<path class="cls-8"
					d="M346.97,293.73c-20.87,0-38.16-6.82-42.17-9.43.9-.71,2.71-1.94,4.6-3.23,9.98-6.8,30.66-20.88,48.69-43.2l24.72,1.57,17.97,33.93c-14.46,13.5-32.55,20.35-53.81,20.35Z" />
				<path class="cls-12"
					d="M358.75,239.38l23.15,1.47,17.06,32.22c-14.04,12.74-31.52,19.2-51.99,19.2-17.91,0-33.41-5.23-39.43-8.15.81-.56,1.75-1.21,2.68-1.84,9.95-6.78,30.48-20.75,48.53-42.9M357.43,236.37c-24.64,30.79-54.93,46.25-54.44,47.81-2.46.62,18.07,11,43.98,11,17.9,0,38.38-4.96,55.62-21.51l-18.87-35.64-26.29-1.67h0Z" />
			</g>
		</g>
	</g>
	<path class="cls-1" d="M244.01,80.06l-9.81,23.08-22.31-13.31,7.04-16.57,25.08,6.8Z" />
	<path class="cls-3"
		d="M218.04,85.46c-4.94,8.54-15.86,11.46-24.4,6.52-8.54-4.94-11.46-15.86-6.52-24.4,4.94-8.54,15.86-11.46,24.4-6.52s11.46,15.86,6.52,24.4Z" />
	<path class="cls-2"
		d="M264.8,100.37c1.12-.14,1.9-1.22,1.64-2.32-2.77-11.65-13.92-19.61-26.08-18.11-12.16,1.5-21.04,11.92-20.9,23.9.01,1.13,1.03,1.99,2.15,1.85l43.2-5.32Z" />
</svg>
