<?xml version="1.0" encoding="UTF-8"?>
<svg id="fullstack-resume" xmlns="http://www.w3.org/2000/svg" viewBox="0 0 512 512">
	<defs>
		<style>
			.cls-1 {
				fill: #8f7ddd;
			}

			.cls-1,
			.cls-2,
			.cls-3,
			.cls-4,
			.cls-5 {
				stroke-miterlimit: 10;
			}

			.cls-1,
			.cls-2,
			.cls-3,
			.cls-5 {
				stroke: #231f20;
				stroke-width: 2.26px;
			}

			.cls-6,
			.cls-3 {
				fill: #fff;
			}

			.cls-7 {
				stroke-width: 2.25px;
			}

			.cls-7,
			.cls-8 {
				stroke-linecap: round;
				stroke-linejoin: round;
			}

			.cls-7,
			.cls-8,
			.cls-9 {
				fill: #ff7545;
			}

			.cls-7,
			.cls-8,
			.cls-4 {
				stroke: #242424;
			}

			.cls-8 {
				stroke-width: 2.65px;
			}

			.cls-2 {
				fill: #522cd5;
			}

			.cls-10 {
				fill: #231f20;
			}

			.cls-4 {
				fill: #00d8ff;
				stroke-width: 1.58px;
			}

			.cls-5 {
				fill: #d0c5f3;
			}

			.cls-11 {
				fill: #242424;
			}
		</style>
	</defs>
	<path class="cls-4"
		d="M321.59,384.23c-2.19-.75-4.4-1.45-6.63-2.09.37-1.53.72-3.04,1.02-4.52,5.02-24.36,1.74-43.99-9.47-50.45-10.75-6.2-28.32.26-46.07,15.71-1.75,1.52-3.46,3.09-5.13,4.71-1.12-1.07-2.26-2.12-3.41-3.15-18.6-16.51-37.24-23.48-48.44-16.99-10.74,6.21-13.91,24.67-9.4,47.76.45,2.29.96,4.56,1.52,6.82-2.64.75-5.19,1.55-7.62,2.4-21.81,7.6-35.73,19.52-35.73,31.88s14.95,25.57,37.66,33.33c1.84.63,3.7,1.21,5.57,1.74-.61,2.44-1.15,4.89-1.62,7.35-4.31,22.69-.94,40.7,9.76,46.88,11.06,6.38,29.62-.18,47.69-15.98,1.47-1.28,2.9-2.61,4.3-3.96,1.81,1.74,3.66,3.44,5.57,5.08,17.51,15.06,34.8,21.15,45.49,14.95,11.05-6.4,14.64-25.75,9.98-49.3-.37-1.84-.78-3.68-1.24-5.5,1.3-.39,2.58-.78,3.83-1.2,23.61-7.82,38.98-20.47,38.98-33.41s-14.38-24.4-36.62-32.06ZM316.47,441.34c-1.13.37-2.28.73-3.46,1.08-2.61-8.25-6.12-17.03-10.43-26.09,4.11-8.85,7.49-17.51,10.02-25.71,2.11.61,4.15,1.25,6.12,1.93,19.06,6.56,30.69,16.26,30.69,23.74,0,7.96-12.56,18.3-32.94,25.05ZM308.01,458.1c2.06,10.41,2.36,19.82.99,27.18-1.23,6.61-3.69,11.02-6.74,12.79-6.49,3.76-20.37-1.13-35.34-14.01-1.77-1.53-3.5-3.1-5.18-4.72,5.8-6.35,11.6-13.73,17.27-21.92,9.96-.88,19.36-2.33,27.9-4.3.41,1.65.78,3.31,1.12,4.98ZM222.46,497.42c-6.34,2.24-11.39,2.3-14.45.54-6.5-3.75-9.2-18.21-5.51-37.62.44-2.29.94-4.57,1.5-6.84,8.44,1.87,17.78,3.21,27.76,4.02,5.7,8.02,11.67,15.39,17.68,21.84-1.28,1.24-2.59,2.44-3.92,3.61-7.99,6.99-16,11.94-23.06,14.43ZM192.75,441.29c-10.04-3.43-18.34-7.89-24.02-12.76-5.11-4.37-7.69-8.72-7.69-12.24,0-7.5,11.18-17.07,29.83-23.57,2.26-.79,4.63-1.53,7.09-2.23,2.58,8.38,5.96,17.15,10.04,26.01-4.13,9-7.56,17.9-10.17,26.38-1.71-.49-3.4-1.02-5.08-1.59ZM202.71,373.5c-3.87-19.78-1.3-34.7,5.17-38.45,6.89-3.99,22.13,1.7,38.19,15.96,1.05.93,2.08,1.88,3.09,2.85-5.98,6.43-11.9,13.74-17.55,21.71-9.69.9-18.96,2.34-27.49,4.27-.53-2.1-1-4.22-1.42-6.35h0ZM291.55,395.43c-2.01-3.48-4.1-6.91-6.26-10.3,6.57.83,12.87,1.93,18.78,3.28-1.77,5.69-3.99,11.64-6.59,17.74-1.9-3.61-3.88-7.19-5.93-10.72ZM255.32,360.14c4.06,4.4,8.12,9.31,12.12,14.63-8.11-.38-16.23-.38-24.34,0,4-5.28,8.1-10.18,12.22-14.63ZM218.86,395.5c-2.02,3.5-3.96,7.06-5.81,10.65-2.56-6.08-4.75-12.05-6.54-17.82,5.88-1.31,12.14-2.39,18.67-3.21-2.19,3.41-4.29,6.87-6.31,10.38h0ZM225.36,448.08c-6.75-.75-13.11-1.77-18.98-3.05,1.82-5.87,4.06-11.98,6.68-18.18,1.86,3.6,3.81,7.15,5.84,10.66,2.09,3.6,4.25,7.14,6.47,10.58ZM255.56,473.04c-4.17-4.5-8.33-9.48-12.39-14.83,3.94.15,7.96.23,12.05.23s8.35-.09,12.43-.28c-4.01,5.45-8.06,10.44-12.09,14.87ZM297.56,426.52c2.75,6.28,5.07,12.35,6.92,18.12-5.97,1.36-12.42,2.46-19.21,3.28,2.18-3.45,4.29-6.95,6.32-10.48,2.07-3.59,4.06-7.23,5.97-10.91ZM283.97,433.04c-3.12,5.42-6.42,10.74-9.88,15.94-6.28.44-12.57.67-18.86.66-6.41,0-12.64-.2-18.65-.59-3.56-5.19-6.91-10.52-10.07-15.97h0c-3.14-5.42-6.07-10.95-8.79-16.6,2.71-5.64,5.63-11.18,8.76-16.6h0c3.13-5.42,6.46-10.73,9.99-15.9,6.13-.46,12.41-.7,18.75-.7h0c6.38,0,12.67.24,18.79.71,3.49,5.16,6.8,10.45,9.92,15.85,3.14,5.41,6.1,10.92,8.88,16.53-2.75,5.66-5.7,11.22-8.85,16.67ZM302.12,334.78c6.9,3.98,9.58,20.02,5.25,41.05-.28,1.34-.59,2.71-.93,4.1-8.55-1.97-17.83-3.44-27.54-4.35-5.66-8.06-11.52-15.39-17.41-21.73,1.54-1.49,3.12-2.94,4.74-4.34,15.21-13.23,29.42-18.46,35.89-14.72ZM255.22,397.89c10.16,0,18.39,8.23,18.39,18.39s-8.23,18.39-18.39,18.39-18.39-8.23-18.39-18.39,8.23-18.39,18.39-18.39Z" />
	<g>
		<g>
			<path class="cls-9"
				d="M119.07,258.81c-3.05,0-5.85-.62-8.33-1.83-15.19-7.44-16.33-36.34-9.02-51.25,5.22-10.65,15.81-17.27,27.64-17.27,4.67,0,9.19,1.05,13.41,3.12,7.35,3.6,12.85,9.86,15.5,17.62,2.64,7.76,2.11,16.11-1.51,23.49-6.05,12.35-23.02,26.12-37.69,26.12Z" />
			<path class="cls-11"
				d="M129.35,189.59h0c4.5,0,8.85,1.01,12.92,3.01,7.08,3.47,12.38,9.5,14.93,16.97,2.55,7.48,2.03,15.52-1.45,22.63-5.91,12.06-22.42,25.49-36.68,25.49-2.88,0-5.51-.58-7.83-1.71-6.41-3.14-10.91-11.02-12.34-21.62-1.32-9.81.15-20.59,3.84-28.12,5.03-10.26,15.23-16.64,26.63-16.64M129.35,187.34c-11.77,0-23.11,6.58-28.65,17.9-7.75,15.82-6.22,45.04,9.54,52.76,2.74,1.34,5.72,1.94,8.83,1.94,14.78,0,32.3-13.68,38.7-26.75,7.75-15.82,1.25-34.9-14.5-42.61-4.48-2.2-9.23-3.23-13.91-3.23h0Z" />
		</g>
		<ellipse class="cls-11" cx="120.82" cy="226.31" rx="2.93" ry="5.15"
			transform="translate(-126.2 157.06) rotate(-46.24)" />
		<path class="cls-11"
			d="M113.54,248.82c3.28,2.59,4.97,6.92,4.68,11.11-3.14-.08-6.14-.83-8.92-2.45-3.14-1.81-5.75-4.61-7.85-8.06,3.17-3.33,8.16-3.7,12.1-.61Z" />
		<path class="cls-7"
			d="M116.19,185.47c11.6-21.15,23.75-36.11,36.62-42.66-1.33,24.77-.86,42.28,2.06,49.99-11.33-8.97-24.3-11.1-38.68-7.32Z" />
	</g>
	<g>
		<g>
			<path class="cls-9"
				d="M343.77,454.67c-15.99,0-28.59-3.83-31.98-5.49.81-.78,2.43-2.15,4.13-3.57,9.09-7.65,28.02-23.57,43.39-47.36,23.59-36.49,40.28-95.46-12.36-170.5,27.51,10.89,95.01,47.65,81.11,142.16-3.62,24.63-11.53,44.28-23.52,58.39-18.52,21.8-43.27,26.37-60.77,26.37Z" />
			<path class="cls-11"
				d="M350.84,230.89c16.31,7.07,31.52,17.27,43.52,29.29,12.4,12.42,21.55,26.85,27.21,42.89,6.97,19.76,8.68,42.18,5.08,66.62-3.58,24.37-11.39,43.77-23.19,57.67-18.16,21.38-42.48,25.87-59.68,25.87-13.88,0-24.59-2.8-29.33-4.52.72-.62,1.57-1.33,2.39-2.03,9.15-7.69,28.18-23.7,43.67-47.68,23.41-36.21,40.1-94.34-9.67-168.14M343.07,224.77c54.88,75.41,39.92,134.23,15.04,172.71-20.87,32.31-48.73,50.31-48.1,51.78-2.01.73,13.34,6.83,33.77,6.83s43.78-5.6,61.85-26.88c11.08-13.04,19.85-31.97,23.84-59.1,15.98-108.62-75.42-141.44-86.4-145.35h0Z" />
		</g>
		<g>
			<path class="cls-6"
				d="M343.77,454.67c-15.99,0-28.59-3.83-31.98-5.49.81-.78,2.43-2.15,4.13-3.57,9.02-7.58,27.69-23.29,42.98-46.74l24.14-.92,20.79,31.15c-18.44,21.1-42.79,25.56-60.06,25.56Z" />
			<path class="cls-11"
				d="M382.3,399.41l19.74,29.58c-18,20-41.51,24.26-58.27,24.26-13.88,0-24.59-2.8-29.33-4.52.72-.62,1.57-1.33,2.39-2.03,8.99-7.56,27.52-23.15,42.85-46.43l22.61-.86M383.79,396.5l-25.68.98c-20.87,32.31-48.73,50.31-48.1,51.78-2.01.73,13.34,6.83,33.77,6.83s43.78-5.6,61.85-26.88l-21.84-32.72h0Z" />
		</g>
	</g>
	<g>
		<path class="cls-1"
			d="M263.41,181.24l-10.96-10.12c-36.13,39.1-30.86,56.45-24.51,63.32,8.6,9.29,25.51,7.64,41.53-5.03l-8.95-12.41c-10.61,8.39-19.86,9.22-21.64,7.3-1.52-1.62-1.93-14.44,24.52-43.06Z" />
		<path class="cls-2"
			d="M259.46,217.84l7.06,9.6c3.88-1.22,20.57-12.67,63.07,1.96l11.29-8.38-30.79-41.83c-1.08-1.47-3.03-1.74-4.43-.56l-46.19,39.22Z" />
		<path class="cls-1"
			d="M327.86,231.93c2.46.91,3.99.23,5.89-1.39l6.85-5.7c1.04-.89,1.23-2.51.42-3.61l-.15-.21c-.92-1.25-2.62-1.44-3.8-.44l-5.71,4.45c-2.19,1.87-3.82,2.73-7.12,1.54-19.5-6.98-45.2-14.27-60.7-3.19l4.88,6.64c8.32-5.16,27.03-10.08,59.44,1.91Z" />
		<path class="cls-1"
			d="M326.81,227.09c1.74.03,3.01-.76,4.55-2.07l5.71-4.45c1.18-1,2.88-.81,3.8.44l.15.21c.81,1.1.62,2.73-.42,3.61l-6.85,5.7c-1.09.92-2.06,1.53-3.14,1.72l-3.79-5.17Z" />
	</g>
	<path class="cls-8"
		d="M254.87,176.43c-49.41,0-89.46,34.62-89.46,77.33,0,31.05,21.18,57.8,51.72,70.11-10.94-10.14-17.79-24.63-17.79-40.72,0-30.67,24.86-55.54,55.54-55.54s55.54,24.86,55.54,55.54c0,16.09-6.85,30.58-17.79,40.72,30.54-12.31,51.72-39.06,51.72-70.11,0-42.71-40.05-77.33-89.46-77.33Z" />
	<g>
		<path class="cls-1"
			d="M310.99,231.06c-18.11-2.61-26.68-5.76-29.6-10.85-3.21-5.6-1.28-16.87,5.88-34.4l-13.81-5.64c-9.4,22.99-10.9,37.17-5.02,47.44,6.42,11.23,19.65,15.75,39.84,18.66l2.7-15.22Z" />
		<path class="cls-2"
			d="M308.38,230.85l-1.75,11.78c3.61,1.86,19.48-4.05,42.68,34.98l15.03,10.03,7.39-49.93c.07-.45-1.12-2.02-2.94-2.16l-60.41-4.71Z" />
		<path class="cls-1"
			d="M346.81,288.75c1.11,2.38,2.96,3.39,5.45,3.59l8.77.64c1.36.11,2.65-.92,2.84-2.26l1.43-9.63c.23-1.53-.84-2.87-2.39-2.99l-7.85-.97c-2.87-.22-4.63-.76-6.14-3.92-8.92-18.7-22.47-34.41-41.28-37.47l-1.5,10.07c9.54,2.19,26.11,11.59,40.66,42.93Z" />
		<path class="cls-1"
			d="M363.88,290.71c-.2,1.35-1.48,2.37-2.84,2.26l-8.77-.64c-1.39-.11-2.56-.48-3.54-1.19l2.26-15.22c1.1.82,2.39,1.07,4.09,1.21l7.85.96c1.55.12,2.62,1.46,2.39,2.99l-1.44,9.63Z" />
		<path class="cls-1"
			d="M138.34,84.05l2.52-14.33c.7-3.81,4.36-6.34,8.17-5.64,3.81.7,6.34,4.36,5.64,8.17l-3.26,17.4-13.07-5.61Z" />
		<path class="cls-1"
			d="M135.19,90.03l-9.22-11.24c-2.44-3.01-1.97-7.43,1.04-9.87,3.01-2.44,7.43-1.97,9.87,1.04l9.47,11.53-11.15,8.54Z" />
		<path class="cls-1"
			d="M128.11,96.31l-9.51-11.01c-2.51-2.94-2.16-7.38.79-9.89,2.95-2.51,7.38-2.16,9.89.79l9.75,11.28-10.92,8.83Z" />
		<path class="cls-1"
			d="M127.29,101.86l-11.56-8.82c-3.07-2.37-3.62-6.78-1.26-9.85,2.37-3.07,6.78-3.63,9.85-1.26l11.86,9.05-8.89,10.87Z" />
		<path class="cls-1"
			d="M132.41,91.74c1.29,13.11,9.05,32.12,26.68,42.49,10.71,6.3,28.85,11.48,54.47.36l-6.17-14.2c-15.55,6.74-29.54,6.92-40.45.5-11.82-6.96-18.12-20.41-19.12-30.66l-15.41,1.51Z" />
		<path class="cls-2"
			d="M148.82,106.96c6.28-5.14,7.19-14.4,2.05-20.67-5.14-6.27-14.4-7.19-20.67-2.05-6.27,5.15-7.18,14.41-2.05,20.68,5.14,6.27,14.4,7.19,20.67,2.04Z" />
		<path class="cls-1"
			d="M204.81,117.03c-1.22-20.4,5.11-35.24,5.11-35.24l-4.57-.91-.1-.11c13.58-34.3,50.11-55.11,87.59-47.69,42.24,8.36,69.7,49.38,61.33,91.61-8.36,42.24-49.38,69.7-91.61,61.33-33.33-6.6-57.45-33.53-62.04-65.35-.04-1.3.43-3.56,4.27-3.64Z" />
		<path class="cls-3"
			d="M204.81,117.03c-1.2-20.15,4.96-34.87,5.11-35.23l79.34,15.7s5.1.48,4.2,5.05c-.9,4.57-3.64,17.43-6.47,31.7-.58,2.93-3.26,3.87-5.15,3.5,0,0-76.87-17.75-77.02-20.72Z" />
		<path class="cls-1"
			d="M247.79,125.55s-10.3-12.07-12.31-14.34c-2.03-2.25-4.09-2.78-6.65-1.31-2.56,1.45-16.67,8.59-16.67,8.59l35.63,7.05Z" />
		<path class="cls-2"
			d="M200.68,121.63s-1.31-4.5,4.14-4.6c0-.02,78.02,15.38,78.02,15.38,1.81.36,4.36-.26,4.92-1.98-.25,1.26-.51,2.54-.77,3.83-.53,2.67-2.78,3.69-4.61,3.56-.18-.01-.37-.03-.54-.07l-5.33-1.05-75.83-15.07Z" />
		<path class="cls-5"
			d="M204.12,135.24l131.87,26.1c-3.96,4.45-8.4,8.41-13.22,11.82l-110.94-21.95c-3.16-5-5.75-10.35-7.72-15.97Z" />
		<path class="cls-1"
			d="M381.83,52.57l-8.81-11.58c-2.37-3.07-6.77-3.63-9.85-1.26-3.07,2.37-3.63,6.77-1.26,9.85l10.88,13.97,9.03-10.98Z" />
		<path class="cls-1"
			d="M387.39,56.44l3.04-14.22c.78-3.8-1.66-7.5-5.45-8.29-3.8-.78-7.5,1.66-8.29,5.45l-3.12,14.59,13.82,2.47Z" />
		<path class="cls-1"
			d="M396.55,58.76l3.4-14.14c.88-3.77-1.47-7.55-5.24-8.43-3.77-.88-7.55,1.47-8.43,5.24l-3.49,14.5,13.76,2.83Z" />
		<path class="cls-1"
			d="M399.82,63.32l6.23-13.14c1.64-3.51.11-7.69-3.4-9.33-3.51-1.64-7.69-.11-9.33,3.4l-6.39,13.48,12.89,5.59Z" />
		<path class="cls-1"
			d="M390.63,56.67c4.87,12.24,6.7,32.69-4.21,50-6.62,10.51-20.36,23.43-48.23,25.31l-1.04-15.45c16.91-1.14,29.42-7.4,36.18-18.12,7.31-11.6,6.73-26.45,2.93-36.02l14.38-5.72Z" />
		<path class="cls-2"
			d="M383.04,77.73c-7.94-1.69-12.99-9.5-11.3-17.43,1.69-7.93,9.49-13,17.43-11.3,7.93,1.69,12.99,9.5,11.3,17.43-1.7,7.93-9.5,12.99-17.43,11.3Z" />
		<path class="cls-10"
			d="M211.1,99.67c1.01-5.57,4.52-9.59,7.84-8.99,3.31.61,5.18,5.61,4.16,11.18-1.01,5.57-4.53,9.6-7.84,8.99-3.32-.6-5.17-5.6-4.16-11.18Z" />
		<path class="cls-10"
			d="M263.15,120.38c-3.29-.7-5.01-5.76-3.83-11.29,1.18-5.54,4.81-9.45,8.1-8.75,3.29.7,5.01,5.76,3.83,11.29-1.18,5.54-4.81,9.45-8.1,8.75Z" />
		<path class="cls-2"
			d="M327.06,140.25c-7.73-1.65-12.66-9.25-11.01-16.98,1.65-7.73,9.25-12.67,16.98-11.01,7.73,1.65,12.67,9.25,11.02,16.98-1.65,7.73-9.25,12.66-16.98,11.01Z" />
		<path class="cls-1" d="M305.61,32.28l13.21,6.61,4.93-14.47-9.47-4.75-8.66,12.62Z" />
		<path class="cls-5"
			d="M320.22,25.57c-5.68-1.21-9.3-6.79-8.09-12.47,1.21-5.68,6.79-9.3,12.47-8.09,5.68,1.21,9.3,6.79,8.09,12.47-1.2,5.68-6.79,9.3-12.47,8.09Z" />
		<path class="cls-2"
			d="M296.42,38.02c-.59-.3-.81-1.06-.44-1.61,3.84-5.91,11.59-8.12,18.04-4.9,6.44,3.23,9.32,10.76,6.88,17.38-.23.63-.97.9-1.56.6l-22.91-11.47Z" />
		<path class="cls-2" d="M221.64,134.22l23.08,4.92-4.92,23.08-23.08-4.92,4.92-23.08Z" />
		<path class="cls-6"
			d="M222.31,149.88c-.17-.04-.29-.11-.38-.25-.09-.13-.13-.28-.1-.44.04-.16.11-.27.26-.37.13-.09.29-.12.45-.08.17.04.29.11.39.25.1.13.13.28.09.44-.03.15-.11.27-.25.36-.14.1-.29.12-.45.09Z" />
		<path class="cls-6"
			d="M228.87,151.1l-1.06-.21-1.92-4.98c-.05-.13-.08-.25-.11-.39h-.02c0,.12-.05.41-.13.83l-.79,3.94-.94-.19,1.2-6.02,1.13.23,1.85,4.86c.08.2.14.34.15.41h.01c.01-.16.04-.44.12-.82l.77-3.87.93.18-1.21,6.03Z" />
		<path class="cls-6"
			d="M233.46,152.01l-3.3-.66,1.2-6.02,3.17.63-.17.85-2.18-.43-.34,1.7,2.02.4-.17.85-2.02-.4-.36,1.78,2.32.46-.18.84Z" />
		<path class="cls-6" d="M239.17,147.78l-1.68-.34-1.03,5.17-.97-.2,1.03-5.17-1.68-.34.17-.85,4.34.86-.17.86Z" />
	</g>
</svg>
