<?xml version="1.0" encoding="UTF-8"?>
<svg id="with_laptop_var_1_" data-name="with laptop (var 1)" xmlns="http://www.w3.org/2000/svg" viewBox="0 0 200 350">
	<defs>
		<style>
			.cls-1 {
				fill: #ccc;
			}

			.cls-1,
			.cls-2,
			.cls-3,
			.cls-4,
			.cls-5 {
				stroke-width: 0px;
			}

			.cls-2 {
				fill: #ff7545;
			}

			.cls-3 {
				fill: #242424;
			}

			.cls-6 {
				fill: none;
				stroke: #ccc;
				stroke-linecap: round;
				stroke-linejoin: round;
				stroke-width: 2px;
			}

			.cls-4 {
				fill: #f2f2f2;
			}

			.cls-5 {
				fill: #fff;
			}
		</style>
	</defs>
	<g>
		<path class="cls-2"
			d="M70,219.15c-17.11,0-31-25.62-31-42.33s13.91-31,31-31,31,13.91,31,31-13.89,42.33-31,42.33Z" />
		<path class="cls-3"
			d="M70,146.82c16.54,0,30,13.46,30,30s-13.44,41.33-30,41.33-30-25.01-30-41.33,13.46-30,30-30M70,144.82c-17.67,0-32,14.33-32,32s14.33,43.33,32,43.33,32-25.66,32-43.33-14.33-32-32-32h0Z" />
	</g>
	<g>
		<path class="cls-2"
			d="M129.3,345.74c-32.49,0-59.52-24.7-62.68-56.71,9.09,8.74,21.32,13.7,33.97,13.7,27.02,0,49-21.98,49-49,0-12.65-4.72-24.47-13.34-33.59,31.65,3.48,56.05,30.47,56.05,62.6,0,34.74-28.26,63-63,63Z" />
		<path class="cls-3"
			d="M138.8,221.48c29.84,4.6,52.51,30.54,52.51,61.26,0,34.19-27.81,62-62,62-31.07,0-57.07-22.95-61.37-53.17,9.03,7.78,20.66,12.16,32.66,12.16,27.57,0,50-22.43,50-50,0-11.99-4.15-23.25-11.8-32.25M133.6,218.9c9.23,8.75,14.99,21.11,14.99,34.83,0,26.51-21.49,48-48,48-13.9,0-26.41-5.92-35.18-15.36,1.88,33.66,29.76,60.37,63.89,60.37s64-28.65,64-64-26.36-61.63-59.7-63.84h0Z" />
	</g>
	<circle class="cls-3" cx="69.5" cy="212.15" r="8" />
	<ellipse class="cls-3" cx="60" cy="184.82" rx="2" ry="4" />
	<g>
		<path class="cls-2"
			d="M70,349.07c-35,0-35-13.04-35-36.71s16.64-88.57,35-88.57,35,63.76,35,88.57v.48c0,11.58,0,20.73-4.32,26.84-4.58,6.49-14.05,9.39-30.68,9.39Z" />
		<path class="cls-3"
			d="M70,224.79c7.62,0,16.2,12.58,23.56,34.51,6.85,20.43,10.44,42.16,10.44,53.06v.48c0,11.4,0,20.41-4.13,26.26-4.38,6.2-13.59,8.96-29.87,8.96-34,0-34-11.93-34-35.71,0-10.9,3.59-32.63,10.44-53.06,7.36-21.93,15.94-34.51,23.56-34.51M70,222.79c-19.88,0-36,65.8-36,89.57s0,37.71,36,37.71,36-13.94,36-37.71-16.12-89.57-36-89.57h0Z" />
	</g>
	<ellipse class="cls-3" cx="79" cy="184.82" rx="2" ry="4" />
	<g>
		<path class="cls-2"
			d="M35.11,164.47c-2.38-11.78-.5-28.99,1.86-38.41.79-3.17,1.82-4.98,2.81-4.98,2.29,0,6.2,6.68,9.65,12.57,1.84,3.15,3.74,6.4,5.7,9.28-9.38,4.11-16.63,11.95-20.02,21.53Z" />
		<path class="cls-3"
			d="M39.81,122.07h0,0M39.8,122.08c.13.02,1.09.27,3.21,3.16,1.7,2.32,3.58,5.53,5.56,8.91,1.65,2.81,3.34,5.7,5.08,8.36-8.01,3.82-14.42,10.33-18.12,18.3-1.43-11.33.3-26.07,2.41-34.51.88-3.53,1.74-4.15,1.86-4.22M39.78,120.08c-1.48,0-2.76,1.66-3.78,5.74-2.5,9.99-4.77,30.26-.97,42.4,2.79-11.35,10.95-20.58,21.63-24.84-6.49-9.18-12.55-23.3-16.88-23.3h0Z" />
	</g>
	<g>
		<path class="cls-2"
			d="M104.56,164.47c-3.4-9.58-10.65-17.42-20.02-21.53,1.96-2.89,3.86-6.13,5.7-9.28,3.45-5.89,7.36-12.57,9.65-12.57.99,0,2.02,1.82,2.81,4.98,2.35,9.42,4.24,26.62,1.86,38.41Z" />
		<path class="cls-3"
			d="M99.87,122.08c.12.07.98.7,1.86,4.22,2.11,8.44,3.84,23.18,2.41,34.51-3.71-7.96-10.11-14.48-18.12-18.3,1.75-2.65,3.44-5.54,5.08-8.36,1.98-3.39,3.86-6.59,5.56-8.92,2.12-2.89,3.08-3.14,3.21-3.16M99.89,120.08c-4.33,0-10.39,14.12-16.88,23.3,10.68,4.26,18.84,13.49,21.63,24.84,3.8-12.14,1.53-32.41-.97-42.4-1.02-4.08-2.3-5.74-3.78-5.74h0Z" />
	</g>
	<g id="laptop">
		<g>
			<polygon class="cls-1" points="20.75 301.24 1.33 233.24 138.67 233.24 119.25 301.24 20.75 301.24" />
			<path class="cls-3" d="M137.35,234.24l-18.86,66H21.51L2.65,234.24h134.7M140,232.24H0l20,70h100l20-70h0Z" />
		</g>
		<polygon class="cls-4" points="85.71 257.24 54.29 257.24 55.73 277.24 84.27 277.24 85.71 257.24" />
		<line class="cls-6" x1="70" y1="245.89" x2="70" y2="283.88" />
		<line class="cls-6" x1="47.35" y1="267.24" x2="92.65" y2="267.24" />
	</g>
	<g>
		<path class="cls-5"
			d="M148.65,263.31c.62-3.14.94-6.36.94-9.58,0-12.65-4.72-24.47-13.34-33.59,21.27,2.34,40.04,15.44,49.57,34.74l-16.52,18.65-20.64-10.22Z" />
		<path class="cls-3"
			d="M138.8,221.48c19.61,3.03,36.76,15.37,45.83,33.24l-15.56,17.57-19.28-9.54c.54-2.97.81-5.99.81-9.02,0-11.99-4.15-23.25-11.79-32.25M133.6,218.9c9.23,8.75,14.99,21.11,14.99,34.83,0,3.48-.37,6.86-1.07,10.13l22.02,10.9,17.47-19.72c-9.74-20.25-29.83-34.58-53.41-36.14h0Z" />
	</g>
	<g>
		<path class="cls-5"
			d="M148.65,263.31c.62-3.14.94-6.36.94-9.58,0-12.65-4.72-24.47-13.34-33.59,21.27,2.34,40.04,15.44,49.57,34.74l-16.52,18.65-20.64-10.22Z" />
		<path class="cls-3"
			d="M138.8,221.48c19.61,3.03,36.76,15.37,45.83,33.24l-15.56,17.57-19.28-9.54c.54-2.97.81-5.99.81-9.02,0-11.99-4.15-23.25-11.79-32.25M133.6,218.9c9.23,8.75,14.99,21.11,14.99,34.83,0,3.48-.37,6.86-1.07,10.13l22.02,10.9,17.47-19.72c-9.74-20.25-29.83-34.58-53.41-36.14h0Z" />
	</g>
</svg>
