<?xml version="1.0" encoding="UTF-8"?>
<svg id="_x34_04" xmlns="http://www.w3.org/2000/svg" viewBox="0 0 640 257">
	<defs>
		<style>
			.cls-1 {
				fill: #fff;
			}

			.cls-2 {
				fill: #ff7545;
			}

			.cls-3 {
				fill: #f0bf8c;
			}

			.cls-4 {
				fill: #242424;
			}

			.cls-5 {
				fill: #ffd994;
			}

			.cls-6 {
				fill: #84624c;
			}
		</style>
	</defs>
	<g>
		<rect class="cls-3" x="17.56" y="1.54" width="318.15" height="253.92" />
		<path class="cls-4" d="M334.21,3.04v250.92H19.06V3.04h315.15M337.21.04H16.06v256.92h321.15V.04h0Z" />
	</g>
	<g>
		<polygon class="cls-5" points="17.23 255.46 1.92 194.23 351.34 194.23 336.04 255.46 17.23 255.46" />
		<path class="cls-4"
			d="M349.42,195.73l-14.56,58.23H18.4l-14.56-58.23h345.58M353.27,192.73H0l16.06,64.23h321.15l16.06-64.23h0Z" />
	</g>
	<polygon class="cls-6"
		points="229.04 134.91 229.04 63.08 204.52 63.08 204.52 134.91 192.23 134.91 216.78 159.43 241.33 134.91 229.04 134.91" />
	<polygon class="cls-6"
		points="148.75 134.91 148.75 63.08 124.23 63.08 124.23 134.91 111.94 134.91 136.49 159.43 161.04 134.91 148.75 134.91" />
	<g>
		<path class="cls-2"
			d="M341.98,255.46c15.84-10.77,78.27-50.47,152.5-61.25,8.19-1.19,16.33-1.79,24.2-1.79,42.66,0,73,17.73,90.94,32.6,15.24,12.63,24.37,25.4,27.67,30.44h-295.32Z" />
		<path class="cls-4"
			d="M518.68,193.92c18.62,0,36.43,3.38,52.94,10.04,13.22,5.34,25.65,12.78,36.95,22.13,13.18,10.9,21.75,21.92,25.9,27.86h-287.56c7.74-5.08,20.8-13.17,37.65-21.76,25.66-13.08,65.6-30.03,110.14-36.5,8.11-1.18,16.19-1.78,23.99-1.78M518.68,190.92c-7.75,0-15.88.57-24.42,1.81-87.1,12.65-157.05,64.23-157.05,64.23h302.79s-37.77-66.04-121.32-66.04h0Z" />
	</g>
	<g>
		<path class="cls-1" d="M577.28,255.46l-17.15-29.72,27.41-15.83c28.83,16,45.09,38.45,49.75,45.55h-60.01Z" />
		<path class="cls-4"
			d="M587.55,211.63c25.44,14.32,40.87,33.68,46.91,42.33h-56.31l-15.97-27.68,25.38-14.65M587.52,208.19l-29.45,17,18.34,31.77h63.59s-16.71-29.21-52.48-48.77h0Z" />
	</g>
	<g>
		<path class="cls-1" d="M577.28,255.46l-17.15-29.72,27.41-15.83c28.83,16,45.09,38.45,49.75,45.55h-60.01Z" />
		<path class="cls-4"
			d="M587.55,211.63c25.44,14.32,40.87,33.68,46.91,42.33h-56.31l-15.97-27.68,25.38-14.65M587.52,208.19l-29.45,17,18.34,31.77h63.59s-16.71-29.21-52.48-48.77h0Z" />
	</g>
</svg>
