<?xml version="1.0" encoding="UTF-8"?>
<svg id="dotnet-bot-2" xmlns="http://www.w3.org/2000/svg" viewBox="0 0 614.65 161.7">
	<defs>
		<style>
			.cls-1 {
				fill: #ff0;
			}

			.cls-1,
			.cls-2,
			.cls-3,
			.cls-4,
			.cls-5,
			.cls-6,
			.cls-7,
			.cls-8 {
				stroke: #242424;
			}

			.cls-1,
			.cls-3,
			.cls-7,
			.cls-8 {
				stroke-miterlimit: 10;
			}

			.cls-2 {
				fill: #8897e2;
			}

			.cls-2,
			.cls-4,
			.cls-5,
			.cls-6 {
				stroke-linecap: round;
				stroke-linejoin: round;
			}

			.cls-2,
			.cls-5,
			.cls-6 {
				stroke-width: 2px;
			}

			.cls-3,
			.cls-4,
			.cls-6 {
				fill: none;
			}

			.cls-4 {
				stroke-width: 5px;
			}

			.cls-9,
			.cls-5 {
				fill: #fff;
			}

			.cls-10 {
				fill: #ff7545;
			}

			.cls-11 {
				fill: #e0fafc;
			}

			.cls-7 {
				fill: #eab00f;
			}

			.cls-8 {
				fill: #f50;
			}

			.cls-12 {
				fill: #242424;
			}

			@media (prefers-color-scheme: dark) {
				.cls-11 {
					fill: #004377;
				}

				.cls-5 {
					fill: #292929;
				}

				.frame {
					stroke: #0e4775;
				}

				.legs {
					stroke: #817400;
				}
			}
		</style>
	</defs>
	<g>
		<path class="cls-10"
			d="M140.47,152.14c13.19-18.82,68.34-92.87,118.93-92.87,1.95,0,3.91.11,5.8.33,10.86,1.26,18.27,5.78,22.03,13.43,10.76,21.91-10.31,63.93-17.91,77.79,1.09-9.57,2.13-29.81-6.53-41-3.58-4.63-8.45-7.2-14.49-7.65-.67-.05-1.37-.08-2.08-.08-28.42,0-88.89,38.83-105.75,50.04Z" />
		<path class="cls-12"
			d="M259.4,60.28c1.91,0,3.83.11,5.69.32,10.5,1.22,17.65,5.55,21.25,12.88,9.61,19.57-6.85,55.83-15.57,72.54.74-10.64.38-27.03-7.18-36.8-3.76-4.86-8.88-7.56-15.21-8.04-.69-.05-1.42-.08-2.16-.08-26.57,0-80.58,33.41-101.86,47.29,6.68-9.24,18.48-24.67,33.09-39.97,20.99-21.97,52.25-48.15,81.94-48.15M259.4,58.28c-58.87,0-122.71,97.62-122.71,97.62,0,0,76.96-52.8,109.54-52.8.69,0,1.36.02,2.01.07,28.56,2.13,19.37,52.72,19.37,52.72,0,0,54.67-90.68-2.29-97.28-1.97-.23-3.94-.34-5.92-.34h0Z" />
	</g>
	<g>
		<path class="cls-10"
			d="M69.29,154.9c-6.68,0-14.03-1.44-22.45-4.41C11.64,138.09,3.37,120.23,1.51,114c4.17,2.47,14.21,7.45,27.24,7.45,10.47,0,20.54-3.26,29.92-9.68,8.37-5.75,16.23-14.08,23.37-24.75,16.05-24.04,34.76-36.23,55.62-36.23,26.48,0,49.14,19.94,56.57,27.25-4.74-1.2-9.62-1.8-14.55-1.8-23.29,0-46.6,13.56-60.84,35.38-1.79,2.74-3.52,5.52-5.21,8.21-10.17,16.27-19.78,31.63-37.78,34.55-2.09.34-4.29.51-6.55.51Z" />
		<path class="cls-12"
			d="M137.65,51.79c23.55,0,44.1,16.06,53.28,24.51-3.7-.7-7.47-1.05-11.26-1.05-23.62,0-47.25,13.73-61.68,35.84-1.79,2.75-3.53,5.53-5.22,8.23-10.05,16.07-19.53,31.24-37.1,34.09-2.03.33-4.18.5-6.39.5-6.57,0-13.8-1.42-22.11-4.35-22.2-7.82-33.31-17.74-38.72-24.69-2.65-3.4-4.22-6.43-5.15-8.73,5.09,2.65,14.18,6.32,25.45,6.32,10.68,0,20.94-3.31,30.49-9.85,8.47-5.82,16.42-14.24,23.63-25.02,15.85-23.74,34.29-35.78,54.78-35.78M137.65,49.79c-18.04,0-37.95,8.97-56.45,36.67-7.62,11.39-15.46,19.23-23.1,24.48-10.45,7.15-20.57,9.5-29.35,9.5C11.93,120.45,0,111.84,0,111.84,0,111.84,2.21,135.83,46.51,151.43c8.79,3.1,16.28,4.46,22.78,4.46,2.36,0,4.59-.18,6.71-.53,21.48-3.48,31.01-23.78,43.67-43.2,13.83-21.18,36.63-34.93,60-34.93,5.97,0,11.97.89,17.87,2.79,0,0-26.77-30.24-59.89-30.24h0Z" />
	</g>
	<g>
		<path class="cls-10"
			d="M316.74,76.77c-4.68,0-9.21-.77-12.77-2.16-11.94-4.68-17.87-18.16-13.21-30.06,3.5-8.94,11.98-14.71,21.61-14.71,2.91,0,5.77.54,8.5,1.61,11.69,4.58,25.83,21.26,21.17,33.17-3.28,8.39-15.07,12.14-25.29,12.14h0Z" />
		<path class="cls-12"
			d="M312.36,30.7c2.8,0,5.56.52,8.19,1.56,11.38,4.46,25.18,20.6,20.68,32.07-3.14,8.01-14.57,11.6-24.5,11.6-4.58,0-9-.75-12.46-2.1-5.58-2.18-9.97-6.4-12.37-11.87-2.4-5.47-2.53-11.54-.36-17.09,3.37-8.61,11.54-14.17,20.81-14.17M312.36,28.99c-9.62,0-18.69,5.78-22.4,15.25-4.84,12.35,1.29,26.31,13.7,31.16,3.74,1.46,8.34,2.22,13.08,2.22,10.99,0,22.71-4.05,26.09-12.68,4.84-12.35-9.25-29.42-21.65-34.28-2.9-1.13-5.88-1.67-8.81-1.67h0Z" />
	</g>
	<ellipse class="cls-12" cx="320.73" cy="52.69" rx="3.89" ry="2.21"
		transform="translate(247.34 369.33) rotate(-86.28)" />
	<path class="cls-12"
		d="M336.3,61.51c-.51,3.12.77,6.4,3.07,8.59,1.71-1.65,3-3.6,3.72-5.92.83-2.61.85-5.5.26-8.51-3.47-.23-6.44,2.11-7.05,5.84Z" />
	<g>
		<path class="cls-10"
			d="M298.15,28.51c5.42-10.76,8.19-15.12,19.31-21.4l3.74,18.35c-2.78-.97-5.57-1.46-8.3-1.46-4.78,0-9.53,1.44-14.76,4.5Z" />
		<path class="cls-12"
			d="M316.86,8.44l3.22,15.77c-2.41-.7-4.81-1.06-7.18-1.06-4.18,0-8.32,1.06-12.75,3.29,4.42-8.54,7.48-12.64,16.7-18M318.06,5.81c-13.04,7.18-15.35,11.67-22.04,25.04,5.26-3.51,10.77-5.99,16.88-5.99,2.99,0,6.12.59,9.44,1.95l-4.29-21.01h0Z" />
	</g>
	<polygon class="cls-6 frame"
		points="614.65 155.9 375.54 155.9 375.54 20.87 387.57 5.81 602.61 5.81 614.65 20.87 614.65 155.9" />
	<rect class="cls-6 frame" x="387.57" y="5.81" width="215.04" height="120.98" />
	<polygon class="cls-6 frame" points="387.57 126.79 375.54 155.9 614.65 155.9 602.61 126.79 387.57 126.79" />
	<g>
		<polyline class="cls-3 legs" points="460.19 121.28 460.19 133.78 466.05 133.78" />
		<polyline class="cls-3 legs" points="454.86 131.78 460.19 133.78 455.82 136.3" />
		<path class="cls-8"
			d="M475.02,91.6c3.58-10.54-4.05-4.5-4.05-4.5-.67-8.59-5.37-.78-5.37-.78-3.48-9.44-5.41,2.97-5.41,2.97,4.39,2.15,9.27,3.08,14.83,2.31Z" />
		<polyline class="cls-3 legs" points="471.38 119.61 471.38 132.12 477.23 132.12" />
		<polyline class="cls-3 legs" points="466.05 130.12 471.38 132.12 467.01 134.63" />
		<path class="cls-7"
			d="M481.19,111.09l-.03.02c.64-1.79,1.01-3.7,1.01-5.71,0-9.33-7.56-16.89-16.89-16.89s-16.89,7.56-16.89,16.89,7.56,16.89,16.89,16.89c20.02,0,24.76-15.18,24.76-15.18l-8.86,3.98Z" />
		<circle class="cls-12" cx="463.31" cy="98.35" r="2.2" />
		<polygon class="cls-1" points="439.51 93.99 453.99 94.75 449.9 107.11 439.51 93.99" />
		<path class="cls-3" d="M464.12,107.11l13.52,3.42s-3.11,7.71-14.33,6.56" />
	</g>
	<g>
		<polyline class="cls-3 legs" points="422.71 137.33 422.71 149.83 428.56 149.83" />
		<polyline class="cls-3 legs" points="417.38 147.83 422.71 149.83 418.34 152.35" />
		<polyline class="cls-3 legs" points="433.9 135.66 433.9 148.17 439.75 148.17" />
		<polyline class="cls-3 legs" points="428.56 146.17 433.9 148.17 429.53 150.68" />
		<path class="cls-7"
			d="M443.71,127.14l-.03.02c.64-1.79,1.01-3.7,1.01-5.71,0-9.33-7.56-16.89-16.89-16.89s-16.89,7.56-16.89,16.89,7.56,16.89,16.89,16.89c20.02,0,24.76-15.18,24.76-15.18l-8.86,3.98Z" />
		<circle class="cls-12" cx="425.82" cy="114.4" r="2.2" />
		<polygon class="cls-1" points="402.02 110.05 416.5 110.8 412.41 123.16 402.02 110.05" />
		<path class="cls-3" d="M426.64,123.16l13.52,3.42s-3.11,7.71-14.33,6.56" />
	</g>
	<g>
		<polyline class="cls-3 legs" points="502.74 129.22 502.74 141.73 508.59 141.73" />
		<polyline class="cls-3 legs" points="497.41 139.73 502.74 141.73 498.37 144.24" />
		<polyline class="cls-3 legs" points="513.92 127.56 513.92 140.06 519.78 140.06" />
		<polyline class="cls-3 legs" points="508.59 138.06 513.92 140.06 509.55 142.58" />
		<path class="cls-7"
			d="M523.73,119.03l-.03.02c.64-1.79,1.01-3.7,1.01-5.71,0-9.33-7.56-16.89-16.89-16.89s-16.89,7.56-16.89,16.89,7.56,16.89,16.89,16.89c20.02,0,24.76-15.18,24.76-15.18l-8.86,3.98Z" />
		<circle class="cls-12" cx="505.85" cy="106.29" r="2.2" />
		<polygon class="cls-1" points="482.05 101.94 496.53 102.69 492.44 115.05 482.05 101.94" />
		<path class="cls-3" d="M506.66,115.05l13.52,3.42s-3.11,7.71-14.33,6.56" />
	</g>
	<polyline class="cls-4 frame" points="597.09 90.64 597.09 107.14 587.47 116.77" />
	<g>
		<polyline class="cls-3 legs" points="545.78 136.82 545.78 149.32 551.63 149.32" />
		<polyline class="cls-3 legs" points="540.44 147.32 545.78 149.32 541.41 151.84" />
		<path class="cls-8"
			d="M560.61,107.14c3.58-10.54-4.05-4.5-4.05-4.5-.67-8.59-5.37-.78-5.37-.78-3.48-9.44-5.41,2.97-5.41,2.97,4.39,2.15,9.27,3.08,14.83,2.31Z" />
		<polyline class="cls-3 legs" points="556.96 135.15 556.96 147.66 562.81 147.66" />
		<polyline class="cls-3 legs" points="551.63 145.66 556.96 147.66 552.59 150.18" />
		<path class="cls-7"
			d="M566.77,126.63l-.03.02c.64-1.79,1.01-3.7,1.01-5.71,0-9.33-7.56-16.89-16.89-16.89s-16.89,7.56-16.89,16.89,7.56,16.89,16.89,16.89c20.02,0,24.76-15.18,24.76-15.18l-8.86,3.98Z" />
		<circle class="cls-12" cx="548.89" cy="113.89" r="2.2" />
		<polygon class="cls-1" points="525.09 109.54 539.57 110.29 535.48 122.65 525.09 109.54" />
		<path class="cls-3" d="M549.7,122.65l13.52,3.42s-3.11,7.71-14.33,6.56" />
	</g>
	<path class="cls-2 frame" d="M583.09,30.89h28v45.75c0,7.73-6.27,14-14,14h0c-7.73,0-14-6.27-14-14V30.89h0Z" />
	<rect class="cls-5 frame" x="583.09" y="30.89" width="28" height="12.62" />
	<path class="cls-11"
		d="M403.51,37.57c4.98,4.9,10.05,9.71,15.2,14.43,4.74,4.34,11.83-2.71,7.07-7.07-5.15-4.72-10.22-9.53-15.2-14.43-4.59-4.51-11.67,2.55-7.07,7.07h0Z" />
	<path class="cls-11"
		d="M428.14,35.16c14.78,13.32,30.79,25.18,47.88,35.38,5.54,3.31,10.57-5.34,5.05-8.63-16.38-9.78-31.69-21.05-45.86-33.82-4.77-4.3-11.86,2.75-7.07,7.07h0Z" />
	<line class="cls-6 frame" x1="375.54" y1="20.87" x2="614.65" y2="20.87" />
	<g>
		<path class="cls-9"
			d="M69.29,154.9c-6.68,0-14.03-1.44-22.45-4.41C11.64,138.09,3.37,120.23,1.51,114c4.17,2.47,14.21,7.45,27.24,7.45,10.3,0,20.2-3.15,29.44-9.35l24.65,11.87-7.65,30.51c-1.89.27-3.87.41-5.9.41Z" />
		<path class="cls-12"
			d="M58.26,113.24l23.41,11.27-7.29,29.07c-1.64.21-3.35.31-5.09.31-6.57,0-13.8-1.42-22.11-4.35-22.2-7.82-33.31-17.74-38.72-24.69-2.65-3.4-4.22-6.43-5.15-8.73,5.09,2.65,14.18,6.32,25.45,6.32,10.32,0,20.24-3.1,29.52-9.2M58.1,110.95c-10.45,7.15-20.57,9.5-29.35,9.5C11.93,120.45,0,111.84,0,111.84,0,111.84,2.21,135.83,46.51,151.43c8.79,3.1,16.28,4.46,22.78,4.46,2.36,0,4.59-.18,6.71-.53l8.01-31.95-25.91-12.48h0Z" />
	</g>
</svg>
