<?xml version="1.0" encoding="UTF-8"?>
<svg id="react-resume" xmlns="http://www.w3.org/2000/svg" viewBox="0 0 512 512">
	<defs>
		<style>
			.cls-1 {
				fill: #fff;
			}

			.cls-2,
			.cls-3,
			.cls-4 {
				fill: #ff7545;
			}

			.cls-3 {
				stroke-width: 2.69px;
			}

			.cls-3,
			.cls-5,
			.cls-4 {
				stroke: #242424;
			}

			.cls-3,
			.cls-4 {
				stroke-linecap: round;
				stroke-linejoin: round;
			}

			.cls-5 {
				fill: #00d8ff;
				stroke-miterlimit: 10;
				stroke-width: 1.84px;
			}

			.cls-4 {
				stroke-width: 3.48px;
			}

			.cls-6 {
				fill: #242424;
			}
		</style>
	</defs>
	<path class="cls-5"
		d="M266.83,179.04c-2.7,0-5.39.06-8.08.2-.16-1.82-.35-3.61-.58-5.36-3.66-28.7-14.66-49.07-29.43-51.95-14.16-2.77-31.06,10.96-44.77,34.65-1.35,2.34-2.64,4.71-3.87,7.11-1.63-.76-3.28-1.49-4.94-2.18-26.69-11.17-49.83-11.8-59.71-.45-9.47,10.88-6.02,32.39,7.65,56.09,1.36,2.35,2.77,4.66,4.25,6.93-2.62,1.82-5.12,3.66-7.48,5.51-21.13,16.58-31.97,34.94-27.31,48.54,4.81,14.05,26.09,22.5,54.01,22.49,2.26,0,4.52-.06,6.78-.18.25,2.91.58,5.81.99,8.7,3.81,26.59,14.3,45.15,28.41,47.91,14.57,2.85,32.53-11.35,46.46-35.55,1.13-1.97,2.21-3.96,3.24-5.98,2.65,1.24,5.33,2.4,8.04,3.49,24.94,9.98,46.26,10.16,55.7-.68,9.75-11.2,6.41-33.85-7.6-58.01-1.1-1.89-2.24-3.76-3.43-5.59,1.29-.92,2.55-1.84,3.76-2.76,23.04-17.51,35.18-37.21,30.3-51.45s-25.01-21.43-52.38-21.48ZM282.72,243.81c-1.1.83-2.24,1.67-3.4,2.49-5.98-8.1-13.16-16.43-21.31-24.79,1.19-11.29,1.64-22.09,1.34-32.07,2.55-.12,5.04-.19,7.47-.18,23.45.04,39.9,6.33,42.71,14.56,3,8.76-6.92,24.87-26.81,39.98ZM279.72,265.45c6.19,10.68,10.06,20.93,11.33,29.54,1.14,7.74.09,13.52-2.6,16.61-5.73,6.58-22.84,6.44-44.17-2.1-2.52-1.01-5.02-2.09-7.48-3.25,4-9.17,7.6-19.48,10.74-30.63,10.62-4.72,20.43-9.86,29.08-15.24,1.07,1.66,2.11,3.35,3.1,5.06ZM200.4,340.96c-6.14,4.85-11.67,6.83-15.69,6.04-8.56-1.68-16.98-16.58-20.24-39.32-.38-2.69-.69-5.39-.92-8.09,9.99-1.12,20.77-3.17,32.06-6.04,9.29,6.68,18.64,12.54,27.69,17.38-.94,1.84-1.93,3.66-2.96,5.46-6.16,10.7-13.11,19.17-19.94,24.57ZM146.55,290.38c-12.35,0-23.15-1.78-31.25-4.99-7.27-2.89-11.75-6.7-13.07-10.58-2.83-8.25,5.87-22.99,23.95-37.18,2.19-1.72,4.52-3.43,6.96-5.13,6,8.25,13.02,16.63,20.85,24.84-1.16,11.46-1.58,22.55-1.24,32.86-2.06.11-4.13.16-6.19.16ZM131.97,212.02c-11.71-20.31-14.51-37.7-8.8-44.26,6.08-6.99,24.99-6.47,48.04,3.17,1.5.63,3,1.29,4.48,1.97-4.16,9.33-7.91,19.61-11.13,30.51-10.32,4.64-19.98,9.72-28.64,15.06-1.37-2.12-2.69-4.27-3.95-6.45h0ZM238.01,202.69c-3.53-3.07-7.12-6.06-10.77-8.98,7.55-1.56,14.89-2.72,21.9-3.46.19,6.93,0,14.31-.57,22-3.46-3.26-6.98-6.45-10.56-9.56ZM184.84,177.5c6.12,3.31,12.45,7.18,18.85,11.53-9.07,2.63-18.01,5.69-26.79,9.17,2.42-7.32,5.08-14.25,7.94-20.7ZM158.03,230.14c-.9,4.62-1.7,9.26-2.39,13.91-5.11-5.72-9.77-11.47-13.92-17.15,5.97-3.66,12.46-7.21,19.34-10.56-1.12,4.58-2.13,9.18-3.04,13.8h0ZM185,285.56c-7.71,1.71-15.09,2.99-22.04,3.79-.21-7.15-.05-14.71.5-22.53,3.41,3.26,6.89,6.43,10.44,9.53,3.65,3.18,7.36,6.25,11.1,9.2ZM227.64,301.65c-6.29-3.38-12.74-7.29-19.23-11.65,4.4-1.32,8.85-2.74,13.35-4.28s9.15-3.25,13.58-4.99c-2.36,7.51-4.94,14.52-7.7,20.92ZM256.33,234.63c5.39,5.87,10.24,11.67,14.44,17.33-6.06,3.75-12.74,7.39-19.91,10.84,1.1-4.62,2.1-9.26,3.01-13.92.93-4.73,1.75-9.49,2.46-14.26ZM243.83,246.93c-1.39,7.14-3.01,14.23-4.87,21.27-6.74,2.85-13.58,5.47-20.51,7.84-7.05,2.42-13.99,4.54-20.74,6.38-5.87-4.38-11.57-8.97-17.1-13.78h0c-5.5-4.78-10.81-9.77-15.92-14.95.86-7.23,1.99-14.43,3.39-21.57h0c1.4-7.15,3.06-14.24,5-21.26,6.57-2.82,13.39-5.45,20.37-7.84h0c7.02-2.4,14.03-4.5,20.95-6.3,5.79,4.37,11.42,8.94,16.89,13.7,5.49,4.77,10.83,9.72,16,14.84-.89,7.27-2.05,14.5-3.46,21.68ZM226.78,131.96c9.09,1.78,18.08,18.42,21.24,43.2.2,1.58.37,3.2.52,4.86-10.15,1.05-20.91,2.93-31.95,5.59-9.26-6.74-18.48-12.59-27.35-17.35,1.14-2.22,2.33-4.41,3.58-6.57,11.75-20.29,25.42-31.4,33.95-29.73ZM198.95,219.08c11.18-3.83,23.34,2.13,27.17,13.31s-2.13,23.34-13.31,27.17-23.34-2.13-27.17-13.31c-3.83-11.18,2.13-23.34,13.31-27.17Z" />
	<g>
		<g>
			<path class="cls-2"
				d="M415.18,307.98c-4.63,0-9.18-.87-13.52-2.59-9.54-3.77-19.72-12.28-26.58-22.19-4.41-6.39-11.14-18.8-6.63-30.23,5.19-13.13,23.69-19.01,39.73-19.01,7.46,0,14.69,1.23,20.35,3.47,9.11,3.6,16.28,10.53,20.19,19.49,3.91,8.97,4.08,18.9.49,27.98-5.54,14.02-18.9,23.08-34.03,23.08Z" />
			<path class="cls-6"
				d="M408.18,232.61v2.69s0,0,0,0c7.3,0,14.35,1.2,19.85,3.37,8.78,3.47,15.69,10.14,19.45,18.78,3.76,8.64,3.93,18.21.47,26.95-5.34,13.51-18.21,22.24-32.78,22.24-4.46,0-8.84-.84-13.03-2.49-9.3-3.68-19.25-12-25.97-21.71-7.25-10.49-9.61-21.05-6.48-28.97,4.96-12.55,22.9-18.16,38.48-18.16v-2.69M408.18,232.61c-17.26,0-35.63,6.33-40.98,19.86-7.69,19.46,14.43,46.44,33.96,54.16,4.61,1.82,9.35,2.68,14.01,2.68,15.12,0,29.4-9.06,35.28-23.93,7.69-19.46-1.91-41.49-21.44-49.21-5.95-2.35-13.29-3.56-20.84-3.56h0Z" />
		</g>
		<ellipse class="cls-6" cx="405.86" cy="262.07" rx="6.14" ry="3.49"
			transform="translate(-53.83 410.7) rotate(-50.77)" />
		<path class="cls-6"
			d="M378.42,255.53c-2.77,4.15-7.76,6.56-12.77,6.61-.2-3.75.41-7.38,2.07-10.84,1.85-3.9,4.93-7.26,8.84-10.1,4.26,3.46,5.16,9.35,1.86,14.32Z" />
		<path class="cls-3"
			d="M453.98,252.72c26.23,11.8,45.16,24.83,54.16,39.52-29.57.75-50.34,2.96-59.23,7.15,9.59-14.32,10.91-29.93,5.07-46.67Z" />
	</g>
	<g>
		<g>
			<path class="cls-2"
				d="M163.55,445.26c-19.39,0-48.43-3.17-76.73-18.3-35.4-18.92-59.9-51.34-72.84-96.35-8.2-28.54-9.29-53.77-3.23-74.99,16.14-56.48,78.32-68.37,89.89-68.37.2,0,.37,0,.52,0-.5,1.25-1.58,3.53-2.72,5.9-6.11,12.79-18.81,39.4-23.78,72.8-7.64,51.25,3.3,123.52,97.45,179.08-2.33.12-5.22.22-8.57.22Z" />
			<path class="cls-6"
				d="M98.52,189.05c-.48,1.03-1.04,2.21-1.6,3.38-6.14,12.86-18.93,39.63-23.93,73.28-7.58,50.86,2.92,122.2,93.34,177.83-.89.01-1.82.02-2.79.02-19.19,0-47.94-3.14-75.93-18.1-34.98-18.7-59.2-50.77-72.01-95.32-8.11-28.22-9.2-53.14-3.23-74.05,8.33-29.17,29.18-45.52,45.2-54.11,17.62-9.44,34.06-12.39,40.93-12.93M100.65,185.55c-13.35,0-75.24,12.61-91.53,69.6-5.6,19.62-5.81,44.49,3.23,75.93,30.23,105.17,115.83,115.88,151.2,115.88,6.94,0,11.96-.41,14.23-.6-96.74-54.86-109.48-126.1-101.42-180.14,6.75-45.37,28.14-78.64,26.72-79.93.46-.45-.45-.73-2.43-.73h0Z" />
		</g>
		<g>
			<path class="cls-1"
				d="M11.11,254.39c16.68-55.43,78.04-67.14,89.53-67.14.2,0,.37,0,.52,0-.5,1.25-1.58,3.53-2.72,5.9-6.05,12.68-18.59,38.93-23.65,71.93l-25.77,12.89-37.93-23.58Z" />
			<path class="cls-6"
				d="M98.52,189.05c-.48,1.03-1.04,2.21-1.6,3.38-6.04,12.64-18.48,38.7-23.66,71.53l-24.13,12.08-36.01-22.39c8.77-27.65,28.9-43.32,44.47-51.67,17.62-9.44,34.06-12.39,40.93-12.93M100.65,185.55c-13.35,0-75.24,12.61-91.53,69.6l39.83,24.77,27.4-13.71c6.75-45.37,28.14-78.64,26.72-79.93.46-.45-.45-.73-2.43-.73h0Z" />
		</g>
	</g>
	<path class="cls-4"
		d="M379.42,322.71c-9.63-29.77-32.58-51.84-61.11-62.73,30.46,53.1,18.51,117.22-26.78,143.37-43.49,25.11-101.92,6.07-133.73-42.35-.24,10.62.98,21.45,4.66,31.92,14.53,41.42,32.55,74.76,108.48,74.76,98.36,0,126.25-90.08,108.48-144.97Z" />
</svg>
