<?xml version="1.0" encoding="UTF-8"?>
<svg id="_x34_04" xmlns="http://www.w3.org/2000/svg" viewBox="0 0 83.37 64.69">
	<defs>
		<style>
			.cls-1 {
				fill: #d13438;
			}
		</style>
	</defs>
	<path class="cls-1"
		d="M.6,12.13c1.23,10.27,1.76,20.62,1.59,30.96-.03,1.93,2.97,1.93,3,0,.17-10.35-.36-20.69-1.59-30.96-.23-1.89-3.23-1.92-3,0h0Z" />
	<path class="cls-1"
		d="M4.43,14.22c-.28-1.07.89-1.95,1.71-2.4,1.21-.67,2.63-1.03,4-1.07,2.03-.06,4.98.6,5.12,3.09.08,1.36-.67,2.6-1.39,3.69-.78,1.17-1.63,2.3-2.52,3.39s-1.86,2.18-2.86,3.2c-.97.99-1.93,2.03-3.34,2.31-1.89.37-1.09,3.26.8,2.89,2.85-.56,5-3.31,6.79-5.4,1.94-2.26,4.15-4.8,5.15-7.65.98-2.82-.02-5.85-2.62-7.36-2.43-1.41-5.56-1.46-8.21-.69-2.93.85-6.45,3.27-5.51,6.79.5,1.86,3.39,1.07,2.89-.8h0Z" />
	<path class="cls-1"
		d="M29.72,7.33c-.89-1.38-2.58-1.94-4.14-1.41-1.75.59-2.89,2.31-3.72,3.86-1.8,3.33-2.43,7.18-1.84,10.91.52,3.35,2.64,7.4,6.63,7.01s5-4.71,5.56-7.86c.83-4.7.71-9.48-.35-14.13-.38-1.69-2.9-1.26-2.95.4-.12,4.86.04,10.5,4.12,13.88,3.23,2.67,8.54,2.58,10.83-1.3.98-1.67-1.61-3.18-2.59-1.51-1.59,2.7-5.26,1.8-7.01-.17-2.61-2.93-2.43-7.24-2.34-10.9l-2.95.4c.86,3.79,1.06,7.73.51,11.58-.26,1.8-.98,7.86-4.14,6.43-1.49-.67-2.01-2.5-2.3-3.96-.32-1.62-.33-3.35-.04-4.97s.86-3.28,1.72-4.74c.26-.45,1.84-2.92,2.43-2.01,1.04,1.62,3.64.11,2.59-1.51h0Z" />
	<path class="cls-1"
		d="M55,6.04c1.23-1.16.92-3.25-.51-4.12-1.52-.92-3.48-.27-4.89.56-2.88,1.69-4.47,4.95-4.93,8.16-.5,3.48.02,7.81,2.99,10.1,1.51,1.17,3.51,1.65,5.34.95s3-2.18,3.87-3.78c2.2-4.06,2.53-8.99.94-13.32-.55-1.51-2.99-1.39-2.95.4.16,6.24,3.64,12.1,2.93,18.38-.3,2.67-1.37,5.27-2.96,7.42-1.17,1.59-4.3,5.23-6.52,3.62-1.57-1.13-3.06,1.47-1.51,2.59,2.85,2.06,6.37-.15,8.5-2.21,2.35-2.27,4.07-5.22,4.94-8.37.92-3.37.71-6.78-.04-10.16-.84-3.75-2.23-7.39-2.33-11.26-.98.13-1.96.27-2.95.4,1.15,3.14,1.2,6.55-.02,9.68-.51,1.31-1.29,2.89-2.56,3.62-1.41.82-2.96-.08-3.76-1.32-1.49-2.32-1.33-5.72-.49-8.24.4-1.2,1.04-2.34,1.94-3.23.41-.4.86-.73,1.36-.99.28-.14.56-.26.86-.34.16-.05.31-.08.48-.09.26,0,.31-.19.15-.55-1.41,1.33.72,3.45,2.12,2.12h0Z" />
	<path class="cls-1"
		d="M67.62,12.52c1.69-1.45,3.32-3,4.76-4.71s2.23-3.73.82-5.63c-1.22-1.65-3.4-2.12-5.26-1.36s-3.09,2.46-3.81,4.34c-1.55,4.04-2.2,9.17-.91,13.36.62,2.01,2.05,3.25,4.18,3.34s4.03-.88,5.72-1.93c3.67-2.27,6.63-5.67,8.32-9.65.32-.74.22-1.61-.54-2.05-.63-.37-1.73-.21-2.05.54-1.11,2.6-2.72,4.89-4.83,6.77-1.03.92-2.18,1.71-3.39,2.36-1.02.55-2.63,1.35-3.8.84-.52-.22-.65-.78-.78-1.28-.22-.81-.36-1.64-.42-2.48-.12-1.71.02-3.43.35-5.11.28-1.46.59-3.04,1.26-4.38.49-.96,1.49-2.26,2.74-2.04,1.96.35.31,2.23-.37,2.96-1.28,1.41-2.66,2.73-4.11,3.97s.66,3.37,2.12,2.12h0Z" />
	<path class="cls-1"
		d="M28.15,40.04c-2.68,2.88-5.28,5.83-7.8,8.85-1.26,1.51-2.5,3.03-3.72,4.58-1.21,1.52-2.63,3.05-3.63,4.72-.75,1.26-.49,3.06,1.16,3.35s3.48-1.03,4.72-1.86c3.04-2.06,5.87-4.43,8.76-6.69s5.91-4.55,9.07-6.53c.76-.48,1.84-.87,2.48-1.48.31-.29.67-.04,0-.48s-.26-.23-.53.16-.38,1.03-.56,1.47c-.71,1.76-1.56,3.46-2.42,5.14s-1.73,3.34-2.54,5.03c-.63,1.33-2.07,3.48-1.59,5s2.3,1.58,3.52.92c1.68-.92,3.25-2.2,4.82-3.31,3.54-2.51,6.91-5.35,10.66-7.55.45-.26.91-.52,1.38-.76.2-.1.4-.21.6-.3.04-.02.88-.35.41-.34-.44,0,.05-.21-.15.08-.07.1-.07.42-.09.54-.11.55-.27,1.1-.41,1.65-.56,2.27-1.12,4.55-1.68,6.82-.46,1.87,2.43,2.67,2.89.8.42-1.72.85-3.45,1.27-5.17.37-1.49.98-3.09,1.01-4.64.02-1.3-.65-2.53-1.97-2.88-1.44-.39-3,.61-4.2,1.28-2.9,1.61-5.51,3.69-8.17,5.66-1.34.99-2.69,1.96-4.05,2.91-.71.5-1.43,1-2.15,1.49-.39.27-.78.54-1.18.8l-.39.26c-.33.15-.2.25.38.28l.44,1.06c-.1-.96.92-2.44,1.33-3.29.59-1.22,1.21-2.42,1.82-3.63,1.12-2.19,2.23-4.38,3.17-6.65.67-1.63,2.16-4.93-.57-5.6-1.08-.27-2.08.35-2.98.86-1.16.66-2.29,1.36-3.4,2.1-4.07,2.69-7.86,5.78-11.7,8.78-1.9,1.49-3.81,3.09-5.91,4.3-.45.26-1.18.44-1.58.74-.56.42.37,1.59.9,1.19.2-.15.35-.48.5-.69.83-1.09,1.66-2.17,2.51-3.24,3.71-4.69,7.6-9.23,11.67-13.61,1.31-1.41-.8-3.54-2.12-2.12h0Z" />
</svg>
