<?xml version="1.0" encoding="UTF-8"?>
<svg id="devops-skills" xmlns="http://www.w3.org/2000/svg" viewBox="0 0 1920 170">
	<defs>
		<style>
			.cls-1 {
			fill: #e0e0e0;
			stroke-width: 0px;
			}

			@media (prefers-color-scheme: dark)
			{
			.cls-1 {
			fill: #525252;
			}
			}
		</style>
	</defs>
	<g>
		<g>
			<path class="cls-1"
				d="M1796.86,87.84c-1.7-4.33-13.87-6.97-17.43-5.57-2.22.87-3.17,3.6-2.4,5.85.57,1.68,3.07,3.17,4.15,5.89s.27,5.55.99,7.17c.97,2.18,3.54,3.53,5.77,2.65,3.68-1.45,10.63-11.66,8.93-15.99Z" />
			<ellipse class="cls-1" cx="1789.95" cy="76.23" rx="5.67" ry="4.12"
				transform="translate(196.19 894.56) rotate(-29.62)" />
			<ellipse class="cls-1" cx="1799.97" cy="80.87" rx="5.67" ry="4.12"
				transform="translate(195.21 900.12) rotate(-29.62)" />
			<ellipse class="cls-1" cx="1799.69" cy="100.99" rx="5.67" ry="4.12"
				transform="translate(25.24 417.85) rotate(-13.34)" />
			<ellipse class="cls-1" cx="1803.86" cy="90.77" rx="5.67" ry="4.12"
				transform="translate(27.71 418.53) rotate(-13.34)" />
		</g>
		<g>
			<path class="cls-1"
				d="M1847.73,118.57c-.42-4.64-11.36-10.58-15.17-10.23-2.37.22-4.05,2.56-3.95,4.94.08,1.78,2.06,3.9,2.33,6.81s-1.3,5.4-1.06,7.16c.32,2.37,2.41,4.38,4.79,4.16,3.93-.36,13.47-8.22,13.05-12.85Z" />
			<ellipse class="cls-1" cx="1844.35" cy="105.49" rx="5.67" ry="4.12"
				transform="translate(25.4 428.27) rotate(-13.34)" />
			<ellipse class="cls-1" cx="1852.67" cy="112.75" rx="5.67" ry="4.12"
				transform="translate(23.95 430.38) rotate(-13.34)" />
			<ellipse class="cls-1" cx="1846.76" cy="131.98" rx="4.12" ry="5.67"
				transform="translate(1620.07 1969.52) rotate(-87.05)" />
			<ellipse class="cls-1" cx="1853.63" cy="123.34" rx="4.12" ry="5.67"
				transform="translate(1635.21 1968.19) rotate(-87.05)" />
		</g>
	</g>
	<g>
		<g>
			<path class="cls-1"
				d="M1686.34,111.6c-1.2-4.5-12.99-8.49-16.68-7.51-2.3.62-3.56,3.21-3.05,5.54.38,1.74,2.7,3.49,3.45,6.32s-.36,5.54.17,7.24c.72,2.28,3.12,3.9,5.43,3.29,3.82-1.02,11.88-10.38,10.68-14.88Z" />
			<ellipse class="cls-1" cx="1680.79" cy="99.29" rx="5.67" ry="4.12"
				transform="translate(95.97 667.83) rotate(-23.12)" />
			<ellipse class="cls-1" cx="1690.21" cy="105.03" rx="5.67" ry="4.12"
				transform="translate(94.47 671.99) rotate(-23.12)" />
			<ellipse class="cls-1" cx="1687.66" cy="124.98" rx="5.67" ry="4.12"
				transform="translate(-2.88 201.72) rotate(-6.83)" />
			<ellipse class="cls-1" cx="1692.96" cy="115.3" rx="5.67" ry="4.12"
				transform="translate(-1.69 202.29) rotate(-6.83)" />
		</g>
		<g>
			<path class="cls-1"
				d="M1733.4,147.9c.11-4.65-10.09-11.8-13.91-11.88-2.38-.05-4.32,2.09-4.48,4.47-.12,1.77,1.61,4.11,1.54,7.03s-1.9,5.22-1.86,7c.05,2.39,1.9,4.62,4.29,4.68,3.95.09,14.32-6.64,14.42-11.29Z" />
			<ellipse class="cls-1" cx="1731.53" cy="134.52" rx="5.67" ry="4.12"
				transform="translate(-3.7 207.01) rotate(-6.83)" />
			<ellipse class="cls-1" cx="1738.97" cy="142.67" rx="5.67" ry="4.12"
				transform="translate(-4.62 207.95) rotate(-6.83)" />
			<ellipse class="cls-1" cx="1730.92" cy="161.11" rx="4.12" ry="5.67"
				transform="translate(1287.9 1842.12) rotate(-80.55)" />
			<ellipse class="cls-1" cx="1738.72" cy="153.3" rx="4.12" ry="5.67"
				transform="translate(1302.12 1843.29) rotate(-80.55)" />
		</g>
	</g>
	<g>
		<g>
			<path class="cls-1"
				d="M1581.5,76.55c.33-4.64-9.51-12.26-13.33-12.53-2.38-.17-4.41,1.88-4.69,4.25-.21,1.77,1.41,4.18,1.21,7.1s-2.15,5.12-2.19,6.9c-.06,2.39,1.68,4.71,4.06,4.87,3.94.28,14.62-5.95,14.94-10.59Z" />
			<ellipse class="cls-1" cx="1580.27" cy="63.1" rx="5.67" ry="4.12"
				transform="translate(-.47 113.17) rotate(-4.1)" />
			<ellipse class="cls-1" cx="1587.31" cy="71.6" rx="5.67" ry="4.12"
				transform="translate(-1.06 113.69) rotate(-4.1)" />
			<ellipse class="cls-1" cx="1578.39" cy="89.63" rx="4.12" ry="5.67"
				transform="translate(1157.75 1613.58) rotate(-77.82)" />
			<ellipse class="cls-1" cx="1586.56" cy="82.21" rx="4.12" ry="5.67"
				transform="translate(1171.45 1615.7) rotate(-77.82)" />
		</g>
		<g>
			<path class="cls-1"
				d="M1614.17,126.2c1.62-4.36-5.69-14.44-9.28-15.77-2.23-.83-4.76.57-5.69,2.76-.69,1.64.18,4.41-.83,7.15s-3.5,4.31-4.04,6.01c-.73,2.28.29,4.99,2.53,5.82,3.71,1.37,15.7-1.61,17.31-5.97Z" />
			<ellipse class="cls-1" cx="1616.76" cy="112.94" rx="4.12" ry="5.67"
				transform="translate(1165.24 1669.47) rotate(-77.82)" />
			<ellipse class="cls-1" cx="1621.13" cy="123.07" rx="4.12" ry="5.67"
				transform="translate(1158.79 1681.74) rotate(-77.82)" />
			<ellipse class="cls-1" cx="1607.52" cy="137.88" rx="4.12" ry="5.67"
				transform="translate(720.21 1485.4) rotate(-61.54)" />
			<ellipse class="cls-1" cx="1617.44" cy="133.05" rx="4.12" ry="5.67"
				transform="translate(729.65 1491.59) rotate(-61.54)" />
		</g>
	</g>
	<g>
		<g>
			<path class="cls-1"
				d="M1463.07,81.16c.23-4.65-9.76-12.07-13.58-12.26-2.38-.12-4.37,1.97-4.6,4.34-.17,1.77,1.5,4.15,1.35,7.07s-2.05,5.16-2.05,6.94c-.01,2.39,1.77,4.67,4.16,4.79,3.95.2,14.49-6.24,14.73-10.89Z" />
			<ellipse class="cls-1" cx="1461.56" cy="67.73" rx="5.67" ry="4.12"
				transform="translate(-.06 134.14) rotate(-5.25)" />
			<ellipse class="cls-1" cx="1468.77" cy="76.09" rx="5.67" ry="4.12"
				transform="translate(-.8 134.83) rotate(-5.25)" />
			<ellipse class="cls-1" cx="1460.22" cy="94.3" rx="4.12" ry="5.67"
				transform="translate(1088.37 1509.53) rotate(-78.97)" />
			<ellipse class="cls-1" cx="1468.24" cy="86.71" rx="4.12" ry="5.67"
				transform="translate(1102.3 1511.26) rotate(-78.97)" />
		</g>
		<g>
			<path class="cls-1"
				d="M1496.73,130.14c1.53-4.4-5.98-14.32-9.6-15.58-2.25-.78-4.75.66-5.63,2.88-.66,1.65.27,4.4-.69,7.17s-3.41,4.38-3.92,6.09c-.68,2.29.39,4.98,2.65,5.77,3.73,1.3,15.66-1.93,17.19-6.32Z" />
			<ellipse class="cls-1" cx="1499.05" cy="116.83" rx="4.12" ry="5.67"
				transform="translate(1097.66 1565.86) rotate(-78.97)" />
			<ellipse class="cls-1" cx="1503.63" cy="126.87" rx="4.12" ry="5.67"
				transform="translate(1091.51 1578.48) rotate(-78.97)" />
			<ellipse class="cls-1" cx="1490.32" cy="141.96" rx="4.12" ry="5.67"
				transform="translate(680.47 1401.06) rotate(-62.69)" />
			<ellipse class="cls-1" cx="1500.14" cy="136.92" rx="4.12" ry="5.67"
				transform="translate(690.26 1407.06) rotate(-62.69)" />
		</g>
	</g>
	<g>
		<g>
			<path class="cls-1"
				d="M1349.43,51.92c-.14-4.65-10.7-11.24-14.52-11.13-2.38.07-4.2,2.31-4.24,4.7-.03,1.78,1.83,4.02,1.91,6.94s-1.62,5.31-1.49,7.09c.18,2.39,2.14,4.51,4.53,4.44,3.95-.12,13.94-7.39,13.8-12.04Z" />
			<ellipse class="cls-1" cx="1346.85" cy="38.65" rx="5.67" ry="4.12"
				transform="translate(13.36 231.8) rotate(-9.89)" />
			<ellipse class="cls-1" cx="1354.71" cy="46.4" rx="5.67" ry="4.12"
				transform="translate(12.15 233.27) rotate(-9.89)" />
			<ellipse class="cls-1" cx="1347.66" cy="65.24" rx="4.12" ry="5.67"
				transform="translate(1132.7 1397.25) rotate(-83.6)" />
			<ellipse class="cls-1" cx="1355.04" cy="57.03" rx="4.12" ry="5.67"
				transform="translate(1147.41 1397.28) rotate(-83.6)" />
		</g>
		<g>
			<path class="cls-1"
				d="M1386.94,98.02c1.17-4.51-7.12-13.79-10.82-14.75-2.31-.6-4.68,1.04-5.38,3.32-.53,1.7.63,4.37-.11,7.2s-3.05,4.64-3.41,6.39c-.5,2.34.79,4.93,3.11,5.53,3.82.99,15.46-3.18,16.62-7.69Z" />
			<ellipse class="cls-1" cx="1388.18" cy="84.56" rx="4.12" ry="5.67"
				transform="translate(1149.51 1454.68) rotate(-83.6)" />
			<ellipse class="cls-1" cx="1393.56" cy="94.2" rx="4.12" ry="5.67"
				transform="translate(1144.71 1468.59) rotate(-83.6)" />
			<ellipse class="cls-1" cx="1381.5" cy="110.31" rx="4.12" ry="5.67"
				transform="translate(747.1 1342.49) rotate(-67.32)" />
			<ellipse class="cls-1" cx="1390.89" cy="104.5" rx="4.12" ry="5.67"
				transform="translate(758.23 1347.57) rotate(-67.32)" />
		</g>
	</g>
	<g>
		<g>
			<path class="cls-1"
				d="M1237.61,37.28c.49-4.63-9.09-12.58-12.89-12.98-2.37-.25-4.47,1.73-4.83,4.08-.27,1.76,1.27,4.23.96,7.14s-2.32,5.05-2.43,6.82c-.14,2.39,1.51,4.76,3.89,5.01,3.93.41,14.81-5.44,15.3-10.07Z" />
			<ellipse class="cls-1" cx="1236.84" cy="23.79" rx="5.67" ry="4.12"
				transform="translate(-.03 46.14) rotate(-2.14)" />
			<ellipse class="cls-1" cx="1243.58" cy="32.53" rx="5.67" ry="4.12"
				transform="translate(-.35 46.4) rotate(-2.14)" />
			<ellipse class="cls-1" cx="1234.05" cy="50.25" rx="4.12" ry="5.67"
				transform="translate(883.77 1234.61) rotate(-75.86)" />
			<ellipse class="cls-1" cx="1242.47" cy="43.11" rx="4.12" ry="5.67"
				transform="translate(897.06 1237.37) rotate(-75.86)" />
		</g>
		<g>
			<path class="cls-1"
				d="M1268.56,88.02c1.76-4.31-5.2-14.63-8.73-16.08-2.2-.9-4.78.4-5.78,2.56-.75,1.61.03,4.41-1.08,7.12s-3.64,4.19-4.24,5.87c-.81,2.25.12,4.99,2.33,5.9,3.66,1.5,15.74-1.07,17.51-5.38Z" />
			<ellipse class="cls-1" cx="1271.6" cy="74.85" rx="4.12" ry="5.67"
				transform="translate(888.29 1289.61) rotate(-75.86)" />
			<ellipse class="cls-1" cx="1275.63" cy="85.13" rx="4.12" ry="5.67"
				transform="translate(881.36 1301.28) rotate(-75.86)" />
			<ellipse class="cls-1" cx="1261.51" cy="99.47" rx="4.12" ry="5.67"
				transform="translate(536.89 1136.88) rotate(-59.57)" />
			<ellipse class="cls-1" cx="1271.59" cy="94.97" rx="4.12" ry="5.67"
				transform="translate(545.75 1143.36) rotate(-59.57)" />
		</g>
	</g>
	<g>
		<g>
			<path class="cls-1"
				d="M1120.96,44.75c-1.19-4.5-12.96-8.54-16.66-7.57-2.3.61-3.57,3.2-3.07,5.53.37,1.74,2.68,3.5,3.43,6.33s-.38,5.54.15,7.24c.71,2.28,3.1,3.92,5.42,3.31,3.82-1.01,11.92-10.34,10.73-14.84Z" />
			<ellipse class="cls-1" cx="1115.45" cy="32.41" rx="5.67" ry="4.12"
				transform="translate(75.32 436.66) rotate(-22.9)" />
			<ellipse class="cls-1" cx="1124.86" cy="38.18" rx="5.67" ry="4.12"
				transform="translate(73.82 440.77) rotate(-22.9)" />
			<ellipse class="cls-1" cx="1122.23" cy="58.13" rx="5.67" ry="4.12"
				transform="translate(.78 129.8) rotate(-6.62)" />
			<ellipse class="cls-1" cx="1127.57" cy="48.47" rx="5.67" ry="4.12"
				transform="translate(1.93 130.35) rotate(-6.62)" />
		</g>
		<g>
			<path class="cls-1"
				d="M1167.88,81.21c.12-4.65-10.04-11.83-13.87-11.93-2.38-.06-4.32,2.07-4.5,4.45-.13,1.77,1.59,4.12,1.52,7.04s-1.92,5.21-1.89,6.99c.04,2.39,1.88,4.63,4.27,4.69,3.95.1,14.34-6.58,14.46-11.24Z" />
			<ellipse class="cls-1" cx="1166.06" cy="67.83" rx="5.67" ry="4.12"
				transform="translate(-.04 134.92) rotate(-6.62)" />
			<ellipse class="cls-1" cx="1173.47" cy="76.01" rx="5.67" ry="4.12"
				transform="translate(-.94 135.83) rotate(-6.62)" />
			<ellipse class="cls-1" cx="1165.36" cy="94.42" rx="4.12" ry="5.67"
				transform="translate(876.74 1227.41) rotate(-80.34)" />
			<ellipse class="cls-1" cx="1173.19" cy="86.64" rx="4.12" ry="5.67"
				transform="translate(890.92 1228.66) rotate(-80.34)" />
		</g>
	</g>
	<g>
		<g>
			<path class="cls-1"
				d="M1004.89,67.93c-1.82-4.28-14.05-6.58-17.57-5.09-2.19.93-3.07,3.68-2.24,5.92.62,1.67,3.16,3.08,4.31,5.77s.42,5.54,1.19,7.14c1.03,2.16,3.64,3.43,5.84,2.49,3.64-1.55,10.3-11.95,8.48-16.23Z" />
			<ellipse class="cls-1" cx="997.66" cy="56.51" rx="5.67" ry="4.12"
				transform="translate(115.01 524.97) rotate(-31.2)" />
			<ellipse class="cls-1" cx="1007.8" cy="60.87" rx="5.67" ry="4.12"
				transform="translate(114.22 530.86) rotate(-31.2)" />
			<ellipse class="cls-1" cx="1008.08" cy="80.99" rx="5.67" ry="4.12"
				transform="translate(13.13 262.24) rotate(-14.92)" />
			<ellipse class="cls-1" cx="1011.97" cy="70.66" rx="5.67" ry="4.12"
				transform="translate(15.92 262.89) rotate(-14.92)" />
		</g>
		<g>
			<path class="cls-1"
				d="M1056.59,97.24c-.55-4.62-11.65-10.26-15.44-9.81-2.37.28-3.98,2.67-3.81,5.05.13,1.77,2.17,3.84,2.52,6.75s-1.15,5.43-.86,7.19c.39,2.36,2.53,4.31,4.9,4.03,3.92-.47,13.24-8.58,12.69-13.21Z" />
			<ellipse class="cls-1" cx="1052.85" cy="84.26" rx="5.67" ry="4.12"
				transform="translate(13.79 273.88) rotate(-14.92)" />
			<ellipse class="cls-1" cx="1061.36" cy="91.29" rx="5.67" ry="4.12"
				transform="translate(12.27 276.3) rotate(-14.92)" />
			<ellipse class="cls-1" cx="1055.99" cy="110.68" rx="4.12" ry="5.67"
				transform="translate(920.22 1163.74) rotate(-88.64)" />
			<ellipse class="cls-1" cx="1062.62" cy="101.85" rx="4.12" ry="5.67"
				transform="translate(935.51 1161.75) rotate(-88.64)" />
		</g>
	</g>
	<g>
		<g>
			<path class="cls-1"
				d="M890.52,77.25c-1.55-4.39-13.62-7.45-17.22-6.17-2.25.79-3.29,3.48-2.6,5.77.51,1.7,2.96,3.27,3.94,6.03s.07,5.55.74,7.2c.9,2.22,3.41,3.65,5.67,2.85,3.72-1.32,11.03-11.29,9.48-15.67Z" />
			<ellipse class="cls-1" cx="884.02" cy="65.41" rx="5.67" ry="4.12"
				transform="translate(70.45 417.36) rotate(-27.63)" />
			<ellipse class="cls-1" cx="893.87" cy="70.39" rx="5.67" ry="4.12"
				transform="translate(69.26 422.5) rotate(-27.63)" />
			<ellipse class="cls-1" cx="892.89" cy="90.48" rx="5.67" ry="4.12"
				transform="translate(-.35 177.4) rotate(-11.34)" />
			<ellipse class="cls-1" cx="897.42" cy="80.42" rx="5.67" ry="4.12"
				transform="translate(1.71 178.09) rotate(-11.34)" />
		</g>
		<g>
			<path class="cls-1"
				d="M940.29,109.73c-.26-4.65-10.98-10.97-14.8-10.75-2.38.13-4.14,2.42-4.12,4.8.02,1.78,1.93,3.97,2.09,6.89s-1.49,5.35-1.31,7.12c.24,2.38,2.26,4.46,4.64,4.32,3.95-.22,13.75-7.74,13.49-12.39Z" />
			<ellipse class="cls-1" cx="937.37" cy="96.54" rx="5.67" ry="4.12"
				transform="translate(-.68 186.27) rotate(-11.34)" />
			<ellipse class="cls-1" cx="945.43" cy="104.08" rx="5.67" ry="4.12"
				transform="translate(-2 188) rotate(-11.34)" />
			<ellipse class="cls-1" cx="938.86" cy="123.1" rx="4.12" ry="5.67"
				transform="translate(735.42 1047.88) rotate(-85.06)" />
			<ellipse class="cls-1" cx="946.02" cy="114.7" rx="4.12" ry="5.67"
				transform="translate(750.33 1047.34) rotate(-85.06)" />
		</g>
	</g>
	<g>
		<g>
			<path class="cls-1"
				d="M780.46,104.31c-1.05-4.53-12.69-8.93-16.42-8.07-2.32.54-3.67,3.09-3.24,5.44.32,1.75,2.58,3.58,3.23,6.43s-.55,5.53-.07,7.24c.64,2.3,2.98,4.01,5.31,3.47,3.85-.89,12.23-9.97,11.18-14.51Z" />
			<ellipse class="cls-1" cx="775.33" cy="91.81" rx="5.67" ry="4.12"
				transform="translate(19.14 286.07) rotate(-21.16)" />
			<ellipse class="cls-1" cx="784.56" cy="97.87" rx="5.67" ry="4.12"
				transform="translate(17.57 289.81) rotate(-21.16)" />
			<ellipse class="cls-1" cx="781.33" cy="117.73" rx="5.67" ry="4.12"
				transform="translate(-7.18 66.89) rotate(-4.88)" />
			<ellipse class="cls-1" cx="786.95" cy="108.23" rx="5.67" ry="4.12"
				transform="translate(-6.35 67.33) rotate(-4.88)" />
		</g>
		<g>
			<path class="cls-1"
				d="M826.26,142.19c.26-4.65-9.68-12.13-13.5-12.35-2.38-.14-4.38,1.94-4.63,4.31-.18,1.77,1.47,4.16,1.3,7.08s-2.08,5.15-2.1,6.93c-.03,2.39,1.74,4.68,4.13,4.82,3.94.22,14.53-6.14,14.8-10.79Z" />
			<ellipse class="cls-1" cx="824.84" cy="128.75" rx="5.67" ry="4.12"
				transform="translate(-7.96 70.63) rotate(-4.88)" />
			<ellipse class="cls-1" cx="832" cy="137.15" rx="5.67" ry="4.12"
				transform="translate(-8.65 71.27) rotate(-4.88)" />
			<ellipse class="cls-1" cx="823.33" cy="155.31" rx="4.12" ry="5.67"
				transform="translate(508.32 931.69) rotate(-78.6)" />
			<ellipse class="cls-1" cx="831.39" cy="147.77" rx="4.12" ry="5.67"
				transform="translate(522.18 933.54) rotate(-78.6)" />
		</g>
	</g>
	<g>
		<g>
			<path class="cls-1"
				d="M672.34,92.95c.44-4.63-9.21-12.49-13.02-12.86-2.37-.23-4.46,1.77-4.79,4.13-.25,1.76,1.31,4.21,1.03,7.13s-2.27,5.07-2.36,6.85c-.12,2.39,1.56,4.75,3.94,4.97,3.93.38,14.76-5.59,15.2-10.22Z" />
			<ellipse class="cls-1" cx="671.44" cy="79.46" rx="5.67" ry="4.12"
				transform="translate(-2.99 31.63) rotate(-2.69)" />
			<ellipse class="cls-1" cx="678.27" cy="88.13" rx="5.67" ry="4.12"
				transform="translate(-3.39 31.96) rotate(-2.69)" />
			<ellipse class="cls-1" cx="668.92" cy="105.95" rx="4.12" ry="5.67"
				transform="translate(408.77 731.24) rotate(-76.41)" />
			<ellipse class="cls-1" cx="677.26" cy="98.72" rx="4.12" ry="5.67"
				transform="translate(422.18 733.83) rotate(-76.41)" />
		</g>
		<g>
			<path class="cls-1"
				d="M703.78,143.38c1.72-4.32-5.34-14.57-8.89-15.99-2.21-.88-4.77.45-5.76,2.62-.73,1.62.07,4.41-1.01,7.13s-3.6,4.23-4.19,5.91c-.79,2.26.17,4.99,2.39,5.88,3.67,1.46,15.73-1.22,17.46-5.55Z" />
			<ellipse class="cls-1" cx="706.7" cy="130.19" rx="4.12" ry="5.67"
				transform="translate(414.12 786.51) rotate(-76.41)" />
			<ellipse class="cls-1" cx="710.82" cy="140.42" rx="4.12" ry="5.67"
				transform="translate(407.32 798.35) rotate(-76.41)" />
			<ellipse class="cls-1" cx="696.85" cy="154.9" rx="4.12" ry="5.67"
				transform="translate(215.48 682.03) rotate(-60.13)" />
			<ellipse class="cls-1" cx="706.88" cy="150.3" rx="4.12" ry="5.67"
				transform="translate(224.5 688.43) rotate(-60.13)" />
		</g>
	</g>
	<g>
		<g>
			<path class="cls-1"
				d="M558.58,67.76c.23-4.65-9.76-12.07-13.58-12.26-2.38-.12-4.37,1.97-4.6,4.34-.17,1.77,1.5,4.15,1.35,7.07s-2.04,5.17-2.05,6.95c-.01,2.39,1.77,4.67,4.16,4.79,3.95.2,14.49-6.24,14.72-10.89Z" />
			<ellipse class="cls-1" cx="557.07" cy="54.34" rx="5.67" ry="4.12"
				transform="translate(-2.64 51.45) rotate(-5.28)" />
			<ellipse class="cls-1" cx="564.28" cy="62.69" rx="5.67" ry="4.12"
				transform="translate(-3.37 52.15) rotate(-5.28)" />
			<ellipse class="cls-1" cx="555.74" cy="80.91" rx="4.12" ry="5.67"
				transform="translate(370.23 610.98) rotate(-78.99)" />
			<ellipse class="cls-1" cx="563.75" cy="73.31" rx="4.12" ry="5.67"
				transform="translate(384.17 612.7) rotate(-78.99)" />
		</g>
		<g>
			<path class="cls-1"
				d="M592.26,116.73c1.53-4.4-5.99-14.32-9.6-15.57-2.25-.78-4.75.67-5.63,2.88-.66,1.65.27,4.4-.69,7.17s-3.41,4.39-3.92,6.09c-.68,2.29.39,4.98,2.65,5.76,3.73,1.3,15.66-1.93,17.19-6.33Z" />
			<ellipse class="cls-1" cx="594.58" cy="103.42" rx="4.12" ry="5.67"
				transform="translate(379.56 667.32) rotate(-78.99)" />
			<ellipse class="cls-1" cx="599.16" cy="113.46" rx="4.12" ry="5.67"
				transform="translate(373.41 679.94) rotate(-78.99)" />
			<ellipse class="cls-1" cx="585.85" cy="128.55" rx="4.12" ry="5.67"
				transform="translate(203.03 590.28) rotate(-62.71)" />
			<ellipse class="cls-1" cx="595.67" cy="123.51" rx="4.12" ry="5.67"
				transform="translate(212.83 596.28) rotate(-62.71)" />
		</g>
	</g>
	<g>
		<g>
			<path class="cls-1"
				d="M440.14,74.92c.1-4.65-10.09-11.79-13.92-11.88-2.38-.05-4.31,2.09-4.48,4.47-.12,1.77,1.61,4.11,1.55,7.03s-1.9,5.22-1.86,7c.05,2.39,1.9,4.62,4.29,4.67,3.95.09,14.31-6.64,14.42-11.3Z" />
			<ellipse class="cls-1" cx="438.26" cy="61.54" rx="5.67" ry="4.12"
				transform="translate(-4.21 52.84) rotate(-6.87)" />
			<ellipse class="cls-1" cx="445.7" cy="69.69" rx="5.67" ry="4.12"
				transform="translate(-5.14 53.79) rotate(-6.87)" />
			<ellipse class="cls-1" cx="437.67" cy="88.13" rx="4.12" ry="5.67"
				transform="translate(279.13 505.49) rotate(-80.59)" />
			<ellipse class="cls-1" cx="445.47" cy="80.32" rx="4.12" ry="5.67"
				transform="translate(293.36 506.65) rotate(-80.59)" />
		</g>
		<g>
			<path class="cls-1"
				d="M475.17,122.93c1.4-4.44-6.38-14.15-10.03-15.3-2.27-.72-4.73.8-5.55,3.03-.61,1.67.39,4.4-.49,7.18s-3.29,4.48-3.75,6.2c-.62,2.31.53,4.97,2.81,5.69,3.77,1.19,15.6-2.37,17.01-6.8Z" />
			<ellipse class="cls-1" cx="477.12" cy="109.56" rx="4.12" ry="5.67"
				transform="translate(290.99 562.33) rotate(-80.59)" />
			<ellipse class="cls-1" cx="481.98" cy="119.47" rx="4.12" ry="5.67"
				transform="translate(285.28 575.41) rotate(-80.59)" />
			<ellipse class="cls-1" cx="469.09" cy="134.92" rx="4.12" ry="5.67"
				transform="translate(144.12 499.13) rotate(-64.3)" />
			<ellipse class="cls-1" cx="478.77" cy="129.61" rx="4.12" ry="5.67"
				transform="translate(154.39 504.84) rotate(-64.3)" />
		</g>
	</g>
	<g>
		<g>
			<path class="cls-1"
				d="M328.91,35.75c-.02-4.65-10.39-11.53-14.22-11.51-2.38,0-4.26,2.2-4.36,4.58-.08,1.78,1.72,4.07,1.73,6.99s-1.76,5.27-1.68,7.04c.12,2.39,2.02,4.57,4.41,4.56,3.95-.01,14.14-7.01,14.12-11.66Z" />
			<ellipse class="cls-1" cx="326.68" cy="22.43" rx="5.67" ry="4.12"
				transform="translate(.2 47.63) rotate(-8.34)" />
			<ellipse class="cls-1" cx="334.33" cy="30.38" rx="5.67" ry="4.12"
				transform="translate(-.87 48.82) rotate(-8.34)" />
			<ellipse class="cls-1" cx="326.77" cy="49.03" rx="4.12" ry="5.67"
				transform="translate(233.08 365.9) rotate(-82.06)" />
			<ellipse class="cls-1" cx="334.37" cy="41.02" rx="4.12" ry="5.67"
				transform="translate(247.55 366.52) rotate(-82.06)" />
		</g>
		<g>
			<path class="cls-1"
				d="M365.16,82.85c1.29-4.47-6.75-13.98-10.42-15.04-2.29-.66-4.71.92-5.47,3.17-.57,1.68.51,4.38-.3,7.19s-3.17,4.56-3.59,6.29c-.56,2.33.66,4.95,2.96,5.61,3.8,1.09,15.54-2.77,16.83-7.24Z" />
			<ellipse class="cls-1" cx="366.76" cy="69.43" rx="4.12" ry="5.67"
				transform="translate(247.33 423.08) rotate(-82.06)" />
			<ellipse class="cls-1" cx="371.87" cy="79.21" rx="4.12" ry="5.67"
				transform="translate(242.05 436.58) rotate(-82.06)" />
			<ellipse class="cls-1" cx="359.39" cy="94.99" rx="4.12" ry="5.67"
				transform="translate(125.32 383.77) rotate(-65.78)" />
			<ellipse class="cls-1" cx="368.92" cy="89.43" rx="4.12" ry="5.67"
				transform="translate(136.01 389.19) rotate(-65.78)" />
		</g>
	</g>
	<g>
		<g>
			<path class="cls-1"
				d="M207.3,22.54c-1.06-4.53-12.72-8.89-16.45-8.02-2.32.54-3.65,3.1-3.22,5.45.33,1.75,2.59,3.57,3.26,6.42s-.53,5.53-.05,7.24c.65,2.3,3,4,5.32,3.45,3.85-.9,12.2-10.01,11.13-14.54Z" />
			<ellipse class="cls-1" cx="202.13" cy="10.06" rx="5.67" ry="4.12"
				transform="translate(10.21 74.29) rotate(-21.35)" />
			<ellipse class="cls-1" cx="211.38" cy="16.09" rx="5.67" ry="4.12"
				transform="translate(8.65 78.07) rotate(-21.35)" />
			<ellipse class="cls-1" cx="208.21" cy="35.95" rx="5.67" ry="4.12"
				transform="translate(-2.36 18.54) rotate(-5.07)" />
			<ellipse class="cls-1" cx="213.81" cy="26.44" rx="5.67" ry="4.12"
				transform="translate(-1.5 19) rotate(-5.07)" />
		</g>
		<g>
			<path class="cls-1"
				d="M253.23,60.26c.25-4.65-9.72-12.1-13.54-12.31-2.38-.13-4.38,1.95-4.62,4.33-.18,1.77,1.48,4.16,1.33,7.08s-2.06,5.16-2.08,6.94c-.02,2.39,1.76,4.68,4.14,4.81,3.95.21,14.51-6.19,14.76-10.84Z" />
			<ellipse class="cls-1" cx="251.77" cy="46.83" rx="5.67" ry="4.12"
				transform="translate(-3.15 22.44) rotate(-5.07)" />
			<ellipse class="cls-1" cx="258.95" cy="55.21" rx="5.67" ry="4.12"
				transform="translate(-3.87 23.1) rotate(-5.07)" />
			<ellipse class="cls-1" cx="250.34" cy="73.4" rx="4.12" ry="5.67"
				transform="translate(129.68 304.69) rotate(-78.79)" />
			<ellipse class="cls-1" cx="258.38" cy="65.83" rx="4.12" ry="5.67"
				transform="translate(143.57 306.49) rotate(-78.79)" />
		</g>
	</g>
	<g>
		<g>
			<path class="cls-1"
				d="M95.03,66.16c-1.52-4.4-13.56-7.56-17.17-6.31-2.25.78-3.32,3.46-2.65,5.74.5,1.71,2.94,3.29,3.89,6.06s.03,5.55.69,7.21c.88,2.22,3.39,3.67,5.65,2.89,3.74-1.29,11.12-11.2,9.6-15.6Z" />
			<ellipse class="cls-1" cx="88.62" cy="54.27" rx="5.67" ry="4.12"
				transform="translate(-15 46.45) rotate(-27.17)" />
			<ellipse class="cls-1" cx="98.43" cy="59.33" rx="5.67" ry="4.12"
				transform="translate(-16.23 51.49) rotate(-27.17)" />
			<ellipse class="cls-1" cx="97.3" cy="79.41" rx="5.67" ry="4.12"
				transform="translate(-13.25 19.81) rotate(-10.89)" />
			<ellipse class="cls-1" cx="101.9" cy="69.38" rx="5.67" ry="4.12"
				transform="translate(-11.27 20.5) rotate(-10.89)" />
		</g>
		<g>
			<path class="cls-1"
				d="M144.54,99.04c-.22-4.65-10.9-11.05-14.72-10.87-2.38.11-4.16,2.39-4.15,4.77,0,1.78,1.9,3.99,2.04,6.91s-1.53,5.34-1.36,7.11c.22,2.38,2.22,4.48,4.61,4.36,3.95-.19,13.81-7.63,13.59-12.28Z" />
			<ellipse class="cls-1" cx="141.73" cy="85.82" rx="5.67" ry="4.12"
				transform="translate(-13.66 28.31) rotate(-10.89)" />
			<ellipse class="cls-1" cx="149.72" cy="93.43" rx="5.67" ry="4.12"
				transform="translate(-14.95 29.96) rotate(-10.89)" />
			<ellipse class="cls-1" cx="143" cy="112.39" rx="4.12" ry="5.67"
				transform="translate(17.67 244.2) rotate(-84.61)" />
			<ellipse class="cls-1" cx="150.23" cy="104.05" rx="4.12" ry="5.67"
				transform="translate(32.52 243.84) rotate(-84.61)" />
		</g>
	</g>
	<g>
		<path class="cls-1"
			d="M28.64,120.24c.31-4.64-9.56-12.22-13.38-12.48-2.38-.16-4.4,1.9-4.67,4.27-.2,1.77,1.43,4.18,1.23,7.09s-2.13,5.13-2.17,6.91c-.05,2.39,1.69,4.7,4.08,4.86,3.94.26,14.59-6.01,14.9-10.65Z" />
		<ellipse class="cls-1" cx="27.35" cy="106.79" rx="5.67" ry="4.12"
			transform="translate(-8 2.37) rotate(-4.34)" />
		<ellipse class="cls-1" cx="34.42" cy="115.26" rx="5.67" ry="4.12"
			transform="translate(-8.62 2.93) rotate(-4.34)" />
		<ellipse class="cls-1" cx="25.58" cy="133.33" rx="4.12" ry="5.67"
			transform="translate(-110.15 130.76) rotate(-78.06)" />
		<ellipse class="cls-1" cx="33.72" cy="125.87" rx="4.12" ry="5.67"
			transform="translate(-96.41 132.81) rotate(-78.06)" />
	</g>
</svg>
